%TF.GenerationSoftware,KiCad,Pcbnew,(5.1.6)-1*%
%TF.CreationDate,2020-07-28T23:07:53-07:00*%
%TF.ProjectId,Atmel,41746d65-6c2e-46b6-9963-61645f706362,rev?*%
%TF.SameCoordinates,Original*%
%TF.FileFunction,Legend,Top*%
%TF.FilePolarity,Positive*%
%FSLAX46Y46*%
G04 Gerber Fmt 4.6, Leading zero omitted, Abs format (unit mm)*
G04 Created by KiCad (PCBNEW (5.1.6)-1) date 2020-07-28 23:07:53*
%MOMM*%
%LPD*%
G01*
G04 APERTURE LIST*
%ADD10C,0.150000*%
%ADD11C,0.120000*%
G04 APERTURE END LIST*
D10*
X27823809Y-106752380D02*
X27823809Y-105752380D01*
X28871428Y-106657142D02*
X28823809Y-106704761D01*
X28680952Y-106752380D01*
X28585714Y-106752380D01*
X28442857Y-106704761D01*
X28347619Y-106609523D01*
X28300000Y-106514285D01*
X28252380Y-106323809D01*
X28252380Y-106180952D01*
X28300000Y-105990476D01*
X28347619Y-105895238D01*
X28442857Y-105800000D01*
X28585714Y-105752380D01*
X28680952Y-105752380D01*
X28823809Y-105800000D01*
X28871428Y-105847619D01*
X29252380Y-106704761D02*
X29395238Y-106752380D01*
X29633333Y-106752380D01*
X29728571Y-106704761D01*
X29776190Y-106657142D01*
X29823809Y-106561904D01*
X29823809Y-106466666D01*
X29776190Y-106371428D01*
X29728571Y-106323809D01*
X29633333Y-106276190D01*
X29442857Y-106228571D01*
X29347619Y-106180952D01*
X29300000Y-106133333D01*
X29252380Y-106038095D01*
X29252380Y-105942857D01*
X29300000Y-105847619D01*
X29347619Y-105800000D01*
X29442857Y-105752380D01*
X29680952Y-105752380D01*
X29823809Y-105800000D01*
X30252380Y-106752380D02*
X30252380Y-105752380D01*
X30633333Y-105752380D01*
X30728571Y-105800000D01*
X30776190Y-105847619D01*
X30823809Y-105942857D01*
X30823809Y-106085714D01*
X30776190Y-106180952D01*
X30728571Y-106228571D01*
X30633333Y-106276190D01*
X30252380Y-106276190D01*
X67952380Y-86771428D02*
X68761904Y-86771428D01*
X68857142Y-86723809D01*
X68904761Y-86676190D01*
X68952380Y-86580952D01*
X68952380Y-86390476D01*
X68904761Y-86295238D01*
X68857142Y-86247619D01*
X68761904Y-86200000D01*
X67952380Y-86200000D01*
X68904761Y-85771428D02*
X68952380Y-85628571D01*
X68952380Y-85390476D01*
X68904761Y-85295238D01*
X68857142Y-85247619D01*
X68761904Y-85200000D01*
X68666666Y-85200000D01*
X68571428Y-85247619D01*
X68523809Y-85295238D01*
X68476190Y-85390476D01*
X68428571Y-85580952D01*
X68380952Y-85676190D01*
X68333333Y-85723809D01*
X68238095Y-85771428D01*
X68142857Y-85771428D01*
X68047619Y-85723809D01*
X68000000Y-85676190D01*
X67952380Y-85580952D01*
X67952380Y-85342857D01*
X68000000Y-85200000D01*
X68666666Y-84819047D02*
X68666666Y-84342857D01*
X68952380Y-84914285D02*
X67952380Y-84580952D01*
X68952380Y-84247619D01*
X68952380Y-83342857D02*
X68476190Y-83676190D01*
X68952380Y-83914285D02*
X67952380Y-83914285D01*
X67952380Y-83533333D01*
X68000000Y-83438095D01*
X68047619Y-83390476D01*
X68142857Y-83342857D01*
X68285714Y-83342857D01*
X68380952Y-83390476D01*
X68428571Y-83438095D01*
X68476190Y-83533333D01*
X68476190Y-83914285D01*
X67952380Y-83057142D02*
X67952380Y-82485714D01*
X68952380Y-82771428D02*
X67952380Y-82771428D01*
D11*
%TO.C,C1*%
X32758578Y-83110000D02*
X32241422Y-83110000D01*
X32758578Y-84530000D02*
X32241422Y-84530000D01*
%TO.C,C5*%
X43184578Y-77926000D02*
X42667422Y-77926000D01*
X43184578Y-76506000D02*
X42667422Y-76506000D01*
%TO.C,C6*%
X49280578Y-76506000D02*
X48763422Y-76506000D01*
X49280578Y-77926000D02*
X48763422Y-77926000D01*
%TO.C,C7*%
X54868578Y-77926000D02*
X54351422Y-77926000D01*
X54868578Y-76506000D02*
X54351422Y-76506000D01*
%TO.C,C8*%
X60632078Y-76506000D02*
X60114922Y-76506000D01*
X60632078Y-77926000D02*
X60114922Y-77926000D01*
%TO.C,C9*%
X48587922Y-104954000D02*
X49105078Y-104954000D01*
X48587922Y-106374000D02*
X49105078Y-106374000D01*
%TO.C,C10*%
X54351422Y-106374000D02*
X54868578Y-106374000D01*
X54351422Y-104954000D02*
X54868578Y-104954000D01*
%TO.C,C11*%
X60114922Y-104954000D02*
X60632078Y-104954000D01*
X60114922Y-106374000D02*
X60632078Y-106374000D01*
%TO.C,C12*%
X43184578Y-87578000D02*
X42667422Y-87578000D01*
X43184578Y-86158000D02*
X42667422Y-86158000D01*
%TO.C,C13*%
X48509422Y-87578000D02*
X49026578Y-87578000D01*
X48509422Y-86158000D02*
X49026578Y-86158000D01*
%TO.C,C14*%
X54351422Y-87578000D02*
X54868578Y-87578000D01*
X54351422Y-86158000D02*
X54868578Y-86158000D01*
%TO.C,C15*%
X60368922Y-86158000D02*
X60886078Y-86158000D01*
X60368922Y-87578000D02*
X60886078Y-87578000D01*
%TO.C,C16*%
X42667422Y-95810000D02*
X43184578Y-95810000D01*
X42667422Y-97230000D02*
X43184578Y-97230000D01*
%TO.C,C17*%
X48430922Y-97230000D02*
X48948078Y-97230000D01*
X48430922Y-95810000D02*
X48948078Y-95810000D01*
%TO.C,C18*%
X54351422Y-95810000D02*
X54868578Y-95810000D01*
X54351422Y-97230000D02*
X54868578Y-97230000D01*
%TO.C,C19*%
X58241422Y-97210000D02*
X58758578Y-97210000D01*
X58241422Y-95790000D02*
X58758578Y-95790000D01*
%TO.C,C20*%
X42667422Y-104954000D02*
X43184578Y-104954000D01*
X42667422Y-106374000D02*
X43184578Y-106374000D01*
%TO.C,C21*%
X57760000Y-109912779D02*
X57760000Y-109587221D01*
X56740000Y-109912779D02*
X56740000Y-109587221D01*
%TO.C,C23*%
X36990000Y-111412779D02*
X36990000Y-111087221D01*
X38010000Y-111412779D02*
X38010000Y-111087221D01*
%TO.C,D1*%
X45676000Y-68994000D02*
X44526000Y-68994000D01*
X45676000Y-76294000D02*
X45676000Y-68994000D01*
X40176000Y-76294000D02*
X40176000Y-68994000D01*
%TO.C,D2*%
X46018000Y-76294000D02*
X46018000Y-68994000D01*
X51518000Y-76294000D02*
X51518000Y-68994000D01*
X51518000Y-68994000D02*
X50368000Y-68994000D01*
%TO.C,D3*%
X57360000Y-68994000D02*
X56210000Y-68994000D01*
X57360000Y-76294000D02*
X57360000Y-68994000D01*
X51860000Y-76294000D02*
X51860000Y-68994000D01*
%TO.C,D4*%
X57702000Y-76294000D02*
X57702000Y-68994000D01*
X63202000Y-76294000D02*
X63202000Y-68994000D01*
X63202000Y-68994000D02*
X62052000Y-68994000D01*
%TO.C,D5*%
X57702000Y-85946000D02*
X57702000Y-78646000D01*
X63202000Y-85946000D02*
X63202000Y-78646000D01*
X63202000Y-78646000D02*
X62052000Y-78646000D01*
%TO.C,D6*%
X57360000Y-78646000D02*
X56210000Y-78646000D01*
X57360000Y-85946000D02*
X57360000Y-78646000D01*
X51860000Y-85946000D02*
X51860000Y-78646000D01*
%TO.C,D7*%
X46018000Y-85946000D02*
X46018000Y-78646000D01*
X51518000Y-85946000D02*
X51518000Y-78646000D01*
X51518000Y-78646000D02*
X50368000Y-78646000D01*
%TO.C,D8*%
X45676000Y-78646000D02*
X44526000Y-78646000D01*
X45676000Y-85946000D02*
X45676000Y-78646000D01*
X40176000Y-85946000D02*
X40176000Y-78646000D01*
%TO.C,D9*%
X40176000Y-95598000D02*
X40176000Y-88298000D01*
X45676000Y-95598000D02*
X45676000Y-88298000D01*
X45676000Y-88298000D02*
X44526000Y-88298000D01*
%TO.C,D10*%
X51518000Y-88298000D02*
X50368000Y-88298000D01*
X51518000Y-95598000D02*
X51518000Y-88298000D01*
X46018000Y-95598000D02*
X46018000Y-88298000D01*
%TO.C,D11*%
X51860000Y-95598000D02*
X51860000Y-88298000D01*
X57360000Y-95598000D02*
X57360000Y-88298000D01*
X57360000Y-88298000D02*
X56210000Y-88298000D01*
%TO.C,D12*%
X63202000Y-88298000D02*
X62052000Y-88298000D01*
X63202000Y-95598000D02*
X63202000Y-88298000D01*
X57702000Y-95598000D02*
X57702000Y-88298000D01*
%TO.C,D13*%
X57702000Y-104742000D02*
X57702000Y-97442000D01*
X63202000Y-104742000D02*
X63202000Y-97442000D01*
X63202000Y-97442000D02*
X62052000Y-97442000D01*
%TO.C,D14*%
X57360000Y-97442000D02*
X56210000Y-97442000D01*
X57360000Y-104742000D02*
X57360000Y-97442000D01*
X51860000Y-104742000D02*
X51860000Y-97442000D01*
%TO.C,D15*%
X46018000Y-104742000D02*
X46018000Y-97442000D01*
X51518000Y-104742000D02*
X51518000Y-97442000D01*
X51518000Y-97442000D02*
X50368000Y-97442000D01*
%TO.C,D16*%
X45676000Y-97442000D02*
X44526000Y-97442000D01*
X45676000Y-104742000D02*
X45676000Y-97442000D01*
X40176000Y-104742000D02*
X40176000Y-97442000D01*
%TO.C,D17*%
X49765000Y-115485000D02*
X52050000Y-115485000D01*
X49765000Y-114015000D02*
X49765000Y-115485000D01*
X52050000Y-114015000D02*
X49765000Y-114015000D01*
%TO.C,D18*%
X59818000Y-116652000D02*
X63118000Y-116652000D01*
X63118000Y-116652000D02*
X63118000Y-111252000D01*
X59818000Y-116652000D02*
X59818000Y-111252000D01*
%TO.C,D19*%
X52735000Y-113050000D02*
X52735000Y-110765000D01*
X52735000Y-110765000D02*
X51265000Y-110765000D01*
X51265000Y-110765000D02*
X51265000Y-113050000D01*
%TO.C,J1*%
X32330000Y-97340000D02*
X27130000Y-97340000D01*
X32330000Y-102480000D02*
X32330000Y-97340000D01*
X27130000Y-105080000D02*
X27130000Y-97340000D01*
X32330000Y-102480000D02*
X29730000Y-102480000D01*
X29730000Y-102480000D02*
X29730000Y-105080000D01*
X29730000Y-105080000D02*
X27130000Y-105080000D01*
X32330000Y-103750000D02*
X32330000Y-105080000D01*
X32330000Y-105080000D02*
X31000000Y-105080000D01*
%TO.C,J2*%
X70298000Y-93530000D02*
X72958000Y-93530000D01*
X70298000Y-80770000D02*
X70298000Y-93530000D01*
X72958000Y-80770000D02*
X72958000Y-93530000D01*
X70298000Y-80770000D02*
X72958000Y-80770000D01*
X70298000Y-79500000D02*
X70298000Y-78170000D01*
X70298000Y-78170000D02*
X71628000Y-78170000D01*
%TO.C,J3*%
X69522000Y-106068000D02*
X66922000Y-106068000D01*
X66922000Y-98148000D02*
X69522000Y-98148000D01*
X64612000Y-105308000D02*
X64612000Y-104158000D01*
X64612000Y-104158000D02*
X64022000Y-104158000D01*
X64022000Y-104158000D02*
X64022000Y-103458000D01*
X64612000Y-100058000D02*
X64612000Y-98908000D01*
X72422000Y-106068000D02*
X74082000Y-106068000D01*
X74082000Y-106068000D02*
X74082000Y-98148000D01*
X74082000Y-98148000D02*
X72422000Y-98148000D01*
%TO.C,R1*%
X35837221Y-79990000D02*
X36162779Y-79990000D01*
X35837221Y-81010000D02*
X36162779Y-81010000D01*
%TO.C,R2*%
X39260000Y-105087221D02*
X39260000Y-105412779D01*
X38240000Y-105087221D02*
X38240000Y-105412779D01*
%TO.C,R3*%
X35990000Y-107587221D02*
X35990000Y-107912779D01*
X37010000Y-107587221D02*
X37010000Y-107912779D01*
%TO.C,R4*%
X49740000Y-112412779D02*
X49740000Y-112087221D01*
X50760000Y-112412779D02*
X50760000Y-112087221D01*
%TO.C,R5*%
X51412779Y-107240000D02*
X51087221Y-107240000D01*
X51412779Y-108260000D02*
X51087221Y-108260000D01*
%TO.C,R6*%
X38960000Y-85241422D02*
X38960000Y-85758578D01*
X37540000Y-85241422D02*
X37540000Y-85758578D01*
D10*
%TO.C,U1*%
X35375000Y-86799000D02*
X35150000Y-86799000D01*
X35375000Y-94049000D02*
X35050000Y-94049000D01*
X28125000Y-94049000D02*
X28450000Y-94049000D01*
X28125000Y-86799000D02*
X28450000Y-86799000D01*
X35375000Y-86799000D02*
X35375000Y-87124000D01*
X28125000Y-86799000D02*
X28125000Y-87124000D01*
X28125000Y-94049000D02*
X28125000Y-93724000D01*
X35375000Y-94049000D02*
X35375000Y-93724000D01*
X35150000Y-86799000D02*
X35150000Y-85374000D01*
%TO.C,U2*%
X38617000Y-114635000D02*
X39192000Y-114635000D01*
X38617000Y-108885000D02*
X39267000Y-108885000D01*
X49267000Y-108885000D02*
X48617000Y-108885000D01*
X49267000Y-114635000D02*
X48617000Y-114635000D01*
X38617000Y-114635000D02*
X38617000Y-108885000D01*
X49267000Y-114635000D02*
X49267000Y-108885000D01*
X39192000Y-114635000D02*
X39192000Y-116235000D01*
D11*
%TO.C,Y1*%
X26350000Y-82500000D02*
X29650000Y-82500000D01*
X29650000Y-82500000D02*
X29650000Y-78500000D01*
%TO.C,D1*%
D10*
X41778380Y-76508285D02*
X41778380Y-77079714D01*
X41778380Y-76794000D02*
X40778380Y-76794000D01*
X40921238Y-76889238D01*
X41016476Y-76984476D01*
X41064095Y-77079714D01*
%TO.C,D2*%
X47620380Y-76508285D02*
X47620380Y-77079714D01*
X47620380Y-76794000D02*
X46620380Y-76794000D01*
X46763238Y-76889238D01*
X46858476Y-76984476D01*
X46906095Y-77079714D01*
%TO.C,D3*%
X53462380Y-76508285D02*
X53462380Y-77079714D01*
X53462380Y-76794000D02*
X52462380Y-76794000D01*
X52605238Y-76889238D01*
X52700476Y-76984476D01*
X52748095Y-77079714D01*
%TO.C,D4*%
X59304380Y-76508285D02*
X59304380Y-77079714D01*
X59304380Y-76794000D02*
X58304380Y-76794000D01*
X58447238Y-76889238D01*
X58542476Y-76984476D01*
X58590095Y-77079714D01*
%TO.C,D5*%
X59304380Y-86160285D02*
X59304380Y-86731714D01*
X59304380Y-86446000D02*
X58304380Y-86446000D01*
X58447238Y-86541238D01*
X58542476Y-86636476D01*
X58590095Y-86731714D01*
%TO.C,D6*%
X53462380Y-86160285D02*
X53462380Y-86731714D01*
X53462380Y-86446000D02*
X52462380Y-86446000D01*
X52605238Y-86541238D01*
X52700476Y-86636476D01*
X52748095Y-86731714D01*
%TO.C,D7*%
X47620380Y-86160285D02*
X47620380Y-86731714D01*
X47620380Y-86446000D02*
X46620380Y-86446000D01*
X46763238Y-86541238D01*
X46858476Y-86636476D01*
X46906095Y-86731714D01*
%TO.C,D8*%
X41778380Y-86160285D02*
X41778380Y-86731714D01*
X41778380Y-86446000D02*
X40778380Y-86446000D01*
X40921238Y-86541238D01*
X41016476Y-86636476D01*
X41064095Y-86731714D01*
%TO.C,D9*%
X41778380Y-95812285D02*
X41778380Y-96383714D01*
X41778380Y-96098000D02*
X40778380Y-96098000D01*
X40921238Y-96193238D01*
X41016476Y-96288476D01*
X41064095Y-96383714D01*
%TO.C,D10*%
X47620380Y-95812285D02*
X47620380Y-96383714D01*
X47620380Y-96098000D02*
X46620380Y-96098000D01*
X46763238Y-96193238D01*
X46858476Y-96288476D01*
X46906095Y-96383714D01*
%TO.C,D11*%
X53462380Y-95812285D02*
X53462380Y-96383714D01*
X53462380Y-96098000D02*
X52462380Y-96098000D01*
X52605238Y-96193238D01*
X52700476Y-96288476D01*
X52748095Y-96383714D01*
%TO.C,D12*%
X59304380Y-95812285D02*
X59304380Y-96383714D01*
X59304380Y-96098000D02*
X58304380Y-96098000D01*
X58447238Y-96193238D01*
X58542476Y-96288476D01*
X58590095Y-96383714D01*
%TO.C,D13*%
X59304380Y-104956285D02*
X59304380Y-105527714D01*
X59304380Y-105242000D02*
X58304380Y-105242000D01*
X58447238Y-105337238D01*
X58542476Y-105432476D01*
X58590095Y-105527714D01*
%TO.C,D14*%
X53462380Y-104956285D02*
X53462380Y-105527714D01*
X53462380Y-105242000D02*
X52462380Y-105242000D01*
X52605238Y-105337238D01*
X52700476Y-105432476D01*
X52748095Y-105527714D01*
%TO.C,D15*%
X47620380Y-104956285D02*
X47620380Y-105527714D01*
X47620380Y-105242000D02*
X46620380Y-105242000D01*
X46763238Y-105337238D01*
X46858476Y-105432476D01*
X46906095Y-105527714D01*
%TO.C,D16*%
X41778380Y-104956285D02*
X41778380Y-105527714D01*
X41778380Y-105242000D02*
X40778380Y-105242000D01*
X40921238Y-105337238D01*
X41016476Y-105432476D01*
X41064095Y-105527714D01*
%TD*%
M02*
