%TF.GenerationSoftware,KiCad,Pcbnew,(5.1.6)-1*%
%TF.CreationDate,2020-07-28T23:07:53-07:00*%
%TF.ProjectId,Atmel,41746d65-6c2e-46b6-9963-61645f706362,rev?*%
%TF.SameCoordinates,Original*%
%TF.FileFunction,Copper,L3,Inr*%
%TF.FilePolarity,Positive*%
%FSLAX46Y46*%
G04 Gerber Fmt 4.6, Leading zero omitted, Abs format (unit mm)*
G04 Created by KiCad (PCBNEW (5.1.6)-1) date 2020-07-28 23:07:53*
%MOMM*%
%LPD*%
G01*
G04 APERTURE LIST*
%TA.AperFunction,ViaPad*%
%ADD10C,8.600000*%
%TD*%
%TA.AperFunction,ViaPad*%
%ADD11C,0.900000*%
%TD*%
%TA.AperFunction,ViaPad*%
%ADD12R,1.700000X1.700000*%
%TD*%
%TA.AperFunction,ViaPad*%
%ADD13O,1.700000X1.700000*%
%TD*%
%TA.AperFunction,ViaPad*%
%ADD14C,0.800000*%
%TD*%
%TA.AperFunction,Conductor*%
%ADD15C,0.254000*%
%TD*%
G04 APERTURE END LIST*
D10*
%TO.N,GND*%
%TO.C,H4*%
X69850000Y-113030000D03*
D11*
X73075000Y-113030000D03*
X72130419Y-115310419D03*
X69850000Y-116255000D03*
X67569581Y-115310419D03*
X66625000Y-113030000D03*
X67569581Y-110749581D03*
X69850000Y-109805000D03*
X72130419Y-110749581D03*
%TD*%
%TO.N,GND*%
%TO.C,H1*%
X32252419Y-70617581D03*
X29972000Y-69673000D03*
X27691581Y-70617581D03*
X26747000Y-72898000D03*
X27691581Y-75178419D03*
X29972000Y-76123000D03*
X32252419Y-75178419D03*
X33197000Y-72898000D03*
D10*
X29972000Y-72898000D03*
%TD*%
%TO.N,GND*%
%TO.C,H2*%
X69850000Y-72898000D03*
D11*
X73075000Y-72898000D03*
X72130419Y-75178419D03*
X69850000Y-76123000D03*
X67569581Y-75178419D03*
X66625000Y-72898000D03*
X67569581Y-70617581D03*
X69850000Y-69673000D03*
X72130419Y-70617581D03*
%TD*%
%TO.N,GND*%
%TO.C,H3*%
X32246838Y-110744000D03*
X29966419Y-109799419D03*
X27686000Y-110744000D03*
X26741419Y-113024419D03*
X27686000Y-115304838D03*
X29966419Y-116249419D03*
X32246838Y-115304838D03*
X33191419Y-113024419D03*
D10*
X29966419Y-113024419D03*
%TD*%
D12*
%TO.N,MISO*%
%TO.C,J1*%
X31000000Y-103750000D03*
D13*
%TO.N,+5V*%
X28460000Y-103750000D03*
%TO.N,SCK*%
X31000000Y-101210000D03*
%TO.N,MOSI*%
X28460000Y-101210000D03*
%TO.N,Reset*%
X31000000Y-98670000D03*
%TO.N,GND*%
X28460000Y-98670000D03*
%TD*%
D12*
%TO.N,GND*%
%TO.C,J2*%
X71628000Y-79500000D03*
D13*
%TO.N,Net-(J2-Pad2)*%
X71628000Y-82040000D03*
%TO.N,+5V*%
X71628000Y-84580000D03*
%TO.N,TXD*%
X71628000Y-87120000D03*
%TO.N,RXD*%
X71628000Y-89660000D03*
%TO.N,Net-(J2-Pad6)*%
X71628000Y-92200000D03*
%TD*%
D14*
%TO.N,Net-(J3-Pad2)*%
X51000000Y-109000000D03*
%TO.N,Net-(C21-Pad1)*%
X47000000Y-110000000D03*
%TO.N,TXD*%
X39000000Y-88500000D03*
%TO.N,RXD*%
X39000000Y-90000000D03*
%TO.N,Reset*%
X33500000Y-98000000D03*
X33500000Y-89500000D03*
X36500000Y-83000000D03*
%TO.N,Net-(R3-Pad2)*%
X37750000Y-109250000D03*
%TO.N,Net-(R2-Pad2)*%
X39500000Y-113500000D03*
%TO.N,GND*%
X26500000Y-83750000D03*
X31000000Y-79000000D03*
%TO.N,+5V*%
X30500000Y-88700000D03*
X29800000Y-92800000D03*
%TO.N,GND*%
X28200000Y-96300000D03*
X34800000Y-83200000D03*
%TO.N,+5V*%
X41800000Y-73200000D03*
%TO.N,GND*%
X43100000Y-71400000D03*
X40200000Y-77100000D03*
X43200000Y-79700000D03*
X48800000Y-71800000D03*
%TO.N,+5V*%
X45900000Y-77000000D03*
%TO.N,GND*%
X54600000Y-71800000D03*
X60400000Y-72200000D03*
%TO.N,+5V*%
X57200000Y-77000000D03*
X56700000Y-78100000D03*
%TO.N,GND*%
X62200000Y-81400000D03*
X54900000Y-79500000D03*
X52100000Y-77600000D03*
X48800000Y-79500000D03*
X46700000Y-78200000D03*
X40500000Y-87000000D03*
X51200000Y-87000000D03*
%TO.N,+5V*%
X46300000Y-87300000D03*
X42497750Y-85502250D03*
X51600000Y-83300000D03*
%TO.N,GND*%
X56900000Y-87000000D03*
%TO.N,+5V*%
X45900000Y-94500000D03*
%TO.N,GND*%
X45100000Y-96700000D03*
X45400000Y-99800000D03*
%TO.N,+5V*%
X42800000Y-98000000D03*
%TO.N,GND*%
X55000000Y-89400000D03*
X63000000Y-86800000D03*
X60600000Y-89600000D03*
%TO.N,+5V*%
X40800000Y-102000000D03*
%TO.N,GND*%
X44900000Y-105700000D03*
X51000000Y-105700000D03*
X56800000Y-105500000D03*
X60600000Y-104000000D03*
%TO.N,+5V*%
X51700000Y-103500000D03*
X49300000Y-116400000D03*
%TO.N,GND*%
X43600000Y-113500000D03*
%TO.N,+5V*%
X51400000Y-116100000D03*
X58200000Y-87500000D03*
%TO.N,GND*%
X58000000Y-77800000D03*
X50700000Y-96600000D03*
X51500000Y-97400000D03*
%TO.N,+5V*%
X51700000Y-95000000D03*
%TO.N,GND*%
X54600000Y-98500000D03*
%TO.N,+5V*%
X60100000Y-94400000D03*
%TO.N,GND*%
X60700000Y-95500000D03*
X60800000Y-98900000D03*
X64300000Y-95900000D03*
X66100000Y-95900000D03*
X70000000Y-95900000D03*
X71800000Y-95900000D03*
X64600000Y-108400000D03*
X66300000Y-108300000D03*
X73300000Y-107100000D03*
X68800000Y-106800000D03*
%TO.N,+5V*%
X46300000Y-105000000D03*
X35700000Y-78100000D03*
%TO.N,GND*%
X57000000Y-107600000D03*
X40800000Y-110200000D03*
X46500000Y-112200000D03*
X42800000Y-89400000D03*
%TO.N,+5V*%
X58000000Y-106300000D03*
X44300000Y-110800000D03*
%TO.N,GND*%
X42900000Y-110900000D03*
%TO.N,Net-(R4-Pad2)*%
X41900000Y-111700000D03*
%TO.N,Net-(C21-Pad1)*%
X54500000Y-110500000D03*
%TO.N,TXD*%
X36500000Y-104000000D03*
X67000000Y-88500000D03*
%TO.N,RXD*%
X67000000Y-90500000D03*
%TO.N,Net-(J3-Pad2)*%
X62500000Y-102000000D03*
%TO.N,Net-(J3-Pad3)*%
X49500000Y-109000000D03*
X61000000Y-100500000D03*
%TO.N,Net-(R2-Pad2)*%
X40000000Y-106500000D03*
%TO.N,Net-(R3-Pad2)*%
X41750000Y-113750000D03*
%TO.N,Net-(R4-Pad2)*%
X48500000Y-111800000D03*
%TD*%
D15*
%TO.N,+5V*%
G36*
X67202093Y-68732001D02*
G01*
X66704121Y-69064735D01*
X66016735Y-69752121D01*
X65476660Y-70560401D01*
X65104650Y-71458514D01*
X64915000Y-72411945D01*
X64915000Y-73384055D01*
X65104650Y-74337486D01*
X65476660Y-75235599D01*
X66016735Y-76043879D01*
X66704121Y-76731265D01*
X67512401Y-77271340D01*
X68410514Y-77643350D01*
X69363945Y-77833000D01*
X70336055Y-77833000D01*
X71289486Y-77643350D01*
X72187599Y-77271340D01*
X72995879Y-76731265D01*
X73683265Y-76043879D01*
X74016479Y-75545188D01*
X74021576Y-106357865D01*
X73959774Y-106296063D01*
X73790256Y-106182795D01*
X73601898Y-106104774D01*
X73401939Y-106065000D01*
X73198061Y-106065000D01*
X72998102Y-106104774D01*
X72809744Y-106182795D01*
X72640226Y-106296063D01*
X72496063Y-106440226D01*
X72382795Y-106609744D01*
X72304774Y-106798102D01*
X72265000Y-106998061D01*
X72265000Y-107201939D01*
X72304774Y-107401898D01*
X72382795Y-107590256D01*
X72496063Y-107759774D01*
X72640226Y-107903937D01*
X72809744Y-108017205D01*
X72998102Y-108095226D01*
X73198061Y-108135000D01*
X73401939Y-108135000D01*
X73601898Y-108095226D01*
X73790256Y-108017205D01*
X73959774Y-107903937D01*
X74021821Y-107841890D01*
X74022243Y-110391438D01*
X73683265Y-109884121D01*
X72995879Y-109196735D01*
X72187599Y-108656660D01*
X71289486Y-108284650D01*
X70336055Y-108095000D01*
X69363945Y-108095000D01*
X68410514Y-108284650D01*
X67512401Y-108656660D01*
X67140376Y-108905239D01*
X67217205Y-108790256D01*
X67295226Y-108601898D01*
X67335000Y-108401939D01*
X67335000Y-108198061D01*
X67295226Y-107998102D01*
X67217205Y-107809744D01*
X67103937Y-107640226D01*
X66959774Y-107496063D01*
X66790256Y-107382795D01*
X66601898Y-107304774D01*
X66401939Y-107265000D01*
X66198061Y-107265000D01*
X65998102Y-107304774D01*
X65809744Y-107382795D01*
X65640226Y-107496063D01*
X65496063Y-107640226D01*
X65416591Y-107759164D01*
X65403937Y-107740226D01*
X65259774Y-107596063D01*
X65090256Y-107482795D01*
X64901898Y-107404774D01*
X64701939Y-107365000D01*
X64498061Y-107365000D01*
X64298102Y-107404774D01*
X64109744Y-107482795D01*
X63940226Y-107596063D01*
X63796063Y-107740226D01*
X63682795Y-107909744D01*
X63604774Y-108098102D01*
X63565000Y-108298061D01*
X63565000Y-108501939D01*
X63604774Y-108701898D01*
X63682795Y-108890256D01*
X63796063Y-109059774D01*
X63940226Y-109203937D01*
X64109744Y-109317205D01*
X64298102Y-109395226D01*
X64498061Y-109435000D01*
X64701939Y-109435000D01*
X64901898Y-109395226D01*
X65090256Y-109317205D01*
X65259774Y-109203937D01*
X65403937Y-109059774D01*
X65483409Y-108940836D01*
X65496063Y-108959774D01*
X65640226Y-109103937D01*
X65809744Y-109217205D01*
X65998102Y-109295226D01*
X66198061Y-109335000D01*
X66401939Y-109335000D01*
X66601898Y-109295226D01*
X66608269Y-109292587D01*
X66016735Y-109884121D01*
X65476660Y-110692401D01*
X65104650Y-111590514D01*
X64915000Y-112543945D01*
X64915000Y-113516055D01*
X65104650Y-114469486D01*
X65476660Y-115367599D01*
X66016735Y-116175879D01*
X66704121Y-116863265D01*
X67202093Y-117195999D01*
X32605971Y-117196001D01*
X33112298Y-116857684D01*
X33799684Y-116170298D01*
X34339759Y-115362018D01*
X34711769Y-114463905D01*
X34901419Y-113510474D01*
X34901419Y-113398061D01*
X38465000Y-113398061D01*
X38465000Y-113601939D01*
X38504774Y-113801898D01*
X38582795Y-113990256D01*
X38696063Y-114159774D01*
X38840226Y-114303937D01*
X39009744Y-114417205D01*
X39198102Y-114495226D01*
X39398061Y-114535000D01*
X39601939Y-114535000D01*
X39801898Y-114495226D01*
X39990256Y-114417205D01*
X40159774Y-114303937D01*
X40303937Y-114159774D01*
X40417205Y-113990256D01*
X40495226Y-113801898D01*
X40535000Y-113601939D01*
X40535000Y-113398061D01*
X40495226Y-113198102D01*
X40417205Y-113009744D01*
X40303937Y-112840226D01*
X40159774Y-112696063D01*
X39990256Y-112582795D01*
X39801898Y-112504774D01*
X39601939Y-112465000D01*
X39398061Y-112465000D01*
X39198102Y-112504774D01*
X39009744Y-112582795D01*
X38840226Y-112696063D01*
X38696063Y-112840226D01*
X38582795Y-113009744D01*
X38504774Y-113198102D01*
X38465000Y-113398061D01*
X34901419Y-113398061D01*
X34901419Y-112538364D01*
X34711769Y-111584933D01*
X34339759Y-110686820D01*
X33799684Y-109878540D01*
X33112298Y-109191154D01*
X33047805Y-109148061D01*
X36715000Y-109148061D01*
X36715000Y-109351939D01*
X36754774Y-109551898D01*
X36832795Y-109740256D01*
X36946063Y-109909774D01*
X37090226Y-110053937D01*
X37259744Y-110167205D01*
X37448102Y-110245226D01*
X37648061Y-110285000D01*
X37851939Y-110285000D01*
X38051898Y-110245226D01*
X38240256Y-110167205D01*
X38343737Y-110098061D01*
X39765000Y-110098061D01*
X39765000Y-110301939D01*
X39804774Y-110501898D01*
X39882795Y-110690256D01*
X39996063Y-110859774D01*
X40140226Y-111003937D01*
X40309744Y-111117205D01*
X40498102Y-111195226D01*
X40698061Y-111235000D01*
X40901939Y-111235000D01*
X40978654Y-111219741D01*
X40904774Y-111398102D01*
X40865000Y-111598061D01*
X40865000Y-111801939D01*
X40904774Y-112001898D01*
X40982795Y-112190256D01*
X41096063Y-112359774D01*
X41240226Y-112503937D01*
X41409744Y-112617205D01*
X41598102Y-112695226D01*
X41697513Y-112715000D01*
X41648061Y-112715000D01*
X41448102Y-112754774D01*
X41259744Y-112832795D01*
X41090226Y-112946063D01*
X40946063Y-113090226D01*
X40832795Y-113259744D01*
X40754774Y-113448102D01*
X40715000Y-113648061D01*
X40715000Y-113851939D01*
X40754774Y-114051898D01*
X40832795Y-114240256D01*
X40946063Y-114409774D01*
X41090226Y-114553937D01*
X41259744Y-114667205D01*
X41448102Y-114745226D01*
X41648061Y-114785000D01*
X41851939Y-114785000D01*
X42051898Y-114745226D01*
X42240256Y-114667205D01*
X42409774Y-114553937D01*
X42553937Y-114409774D01*
X42667205Y-114240256D01*
X42737097Y-114071524D01*
X42796063Y-114159774D01*
X42940226Y-114303937D01*
X43109744Y-114417205D01*
X43298102Y-114495226D01*
X43498061Y-114535000D01*
X43701939Y-114535000D01*
X43901898Y-114495226D01*
X44090256Y-114417205D01*
X44259774Y-114303937D01*
X44403937Y-114159774D01*
X44517205Y-113990256D01*
X44595226Y-113801898D01*
X44635000Y-113601939D01*
X44635000Y-113398061D01*
X44595226Y-113198102D01*
X44517205Y-113009744D01*
X44403937Y-112840226D01*
X44259774Y-112696063D01*
X44090256Y-112582795D01*
X43901898Y-112504774D01*
X43701939Y-112465000D01*
X43498061Y-112465000D01*
X43298102Y-112504774D01*
X43109744Y-112582795D01*
X42940226Y-112696063D01*
X42796063Y-112840226D01*
X42682795Y-113009744D01*
X42612903Y-113178476D01*
X42553937Y-113090226D01*
X42409774Y-112946063D01*
X42240256Y-112832795D01*
X42051898Y-112754774D01*
X41952487Y-112735000D01*
X42001939Y-112735000D01*
X42201898Y-112695226D01*
X42390256Y-112617205D01*
X42559774Y-112503937D01*
X42703937Y-112359774D01*
X42817205Y-112190256D01*
X42855393Y-112098061D01*
X45465000Y-112098061D01*
X45465000Y-112301939D01*
X45504774Y-112501898D01*
X45582795Y-112690256D01*
X45696063Y-112859774D01*
X45840226Y-113003937D01*
X46009744Y-113117205D01*
X46198102Y-113195226D01*
X46398061Y-113235000D01*
X46601939Y-113235000D01*
X46801898Y-113195226D01*
X46990256Y-113117205D01*
X47159774Y-113003937D01*
X47303937Y-112859774D01*
X47417205Y-112690256D01*
X47495226Y-112501898D01*
X47535000Y-112301939D01*
X47535000Y-112174869D01*
X47582795Y-112290256D01*
X47696063Y-112459774D01*
X47840226Y-112603937D01*
X48009744Y-112717205D01*
X48198102Y-112795226D01*
X48398061Y-112835000D01*
X48601939Y-112835000D01*
X48801898Y-112795226D01*
X48990256Y-112717205D01*
X49159774Y-112603937D01*
X49303937Y-112459774D01*
X49417205Y-112290256D01*
X49495226Y-112101898D01*
X49535000Y-111901939D01*
X49535000Y-111698061D01*
X49495226Y-111498102D01*
X49417205Y-111309744D01*
X49303937Y-111140226D01*
X49159774Y-110996063D01*
X48990256Y-110882795D01*
X48801898Y-110804774D01*
X48601939Y-110765000D01*
X48398061Y-110765000D01*
X48198102Y-110804774D01*
X48009744Y-110882795D01*
X47840226Y-110996063D01*
X47696063Y-111140226D01*
X47582795Y-111309744D01*
X47504774Y-111498102D01*
X47465000Y-111698061D01*
X47465000Y-111825131D01*
X47417205Y-111709744D01*
X47303937Y-111540226D01*
X47159774Y-111396063D01*
X46990256Y-111282795D01*
X46801898Y-111204774D01*
X46601939Y-111165000D01*
X46398061Y-111165000D01*
X46198102Y-111204774D01*
X46009744Y-111282795D01*
X45840226Y-111396063D01*
X45696063Y-111540226D01*
X45582795Y-111709744D01*
X45504774Y-111898102D01*
X45465000Y-112098061D01*
X42855393Y-112098061D01*
X42895226Y-112001898D01*
X42908533Y-111935000D01*
X43001939Y-111935000D01*
X43201898Y-111895226D01*
X43390256Y-111817205D01*
X43559774Y-111703937D01*
X43703937Y-111559774D01*
X43817205Y-111390256D01*
X43895226Y-111201898D01*
X43935000Y-111001939D01*
X43935000Y-110798061D01*
X43895226Y-110598102D01*
X43817205Y-110409744D01*
X43703937Y-110240226D01*
X43559774Y-110096063D01*
X43390256Y-109982795D01*
X43201898Y-109904774D01*
X43168150Y-109898061D01*
X45965000Y-109898061D01*
X45965000Y-110101939D01*
X46004774Y-110301898D01*
X46082795Y-110490256D01*
X46196063Y-110659774D01*
X46340226Y-110803937D01*
X46509744Y-110917205D01*
X46698102Y-110995226D01*
X46898061Y-111035000D01*
X47101939Y-111035000D01*
X47301898Y-110995226D01*
X47490256Y-110917205D01*
X47659774Y-110803937D01*
X47803937Y-110659774D01*
X47917205Y-110490256D01*
X47955393Y-110398061D01*
X53465000Y-110398061D01*
X53465000Y-110601939D01*
X53504774Y-110801898D01*
X53582795Y-110990256D01*
X53696063Y-111159774D01*
X53840226Y-111303937D01*
X54009744Y-111417205D01*
X54198102Y-111495226D01*
X54398061Y-111535000D01*
X54601939Y-111535000D01*
X54801898Y-111495226D01*
X54990256Y-111417205D01*
X55159774Y-111303937D01*
X55303937Y-111159774D01*
X55417205Y-110990256D01*
X55495226Y-110801898D01*
X55535000Y-110601939D01*
X55535000Y-110398061D01*
X55495226Y-110198102D01*
X55417205Y-110009744D01*
X55303937Y-109840226D01*
X55159774Y-109696063D01*
X54990256Y-109582795D01*
X54801898Y-109504774D01*
X54601939Y-109465000D01*
X54398061Y-109465000D01*
X54198102Y-109504774D01*
X54009744Y-109582795D01*
X53840226Y-109696063D01*
X53696063Y-109840226D01*
X53582795Y-110009744D01*
X53504774Y-110198102D01*
X53465000Y-110398061D01*
X47955393Y-110398061D01*
X47995226Y-110301898D01*
X48035000Y-110101939D01*
X48035000Y-109898061D01*
X47995226Y-109698102D01*
X47917205Y-109509744D01*
X47803937Y-109340226D01*
X47659774Y-109196063D01*
X47490256Y-109082795D01*
X47301898Y-109004774D01*
X47101939Y-108965000D01*
X46898061Y-108965000D01*
X46698102Y-109004774D01*
X46509744Y-109082795D01*
X46340226Y-109196063D01*
X46196063Y-109340226D01*
X46082795Y-109509744D01*
X46004774Y-109698102D01*
X45965000Y-109898061D01*
X43168150Y-109898061D01*
X43001939Y-109865000D01*
X42798061Y-109865000D01*
X42598102Y-109904774D01*
X42409744Y-109982795D01*
X42240226Y-110096063D01*
X42096063Y-110240226D01*
X41982795Y-110409744D01*
X41904774Y-110598102D01*
X41891467Y-110665000D01*
X41798061Y-110665000D01*
X41721346Y-110680259D01*
X41795226Y-110501898D01*
X41835000Y-110301939D01*
X41835000Y-110098061D01*
X41795226Y-109898102D01*
X41717205Y-109709744D01*
X41603937Y-109540226D01*
X41459774Y-109396063D01*
X41290256Y-109282795D01*
X41101898Y-109204774D01*
X40901939Y-109165000D01*
X40698061Y-109165000D01*
X40498102Y-109204774D01*
X40309744Y-109282795D01*
X40140226Y-109396063D01*
X39996063Y-109540226D01*
X39882795Y-109709744D01*
X39804774Y-109898102D01*
X39765000Y-110098061D01*
X38343737Y-110098061D01*
X38409774Y-110053937D01*
X38553937Y-109909774D01*
X38667205Y-109740256D01*
X38745226Y-109551898D01*
X38785000Y-109351939D01*
X38785000Y-109148061D01*
X38745226Y-108948102D01*
X38724499Y-108898061D01*
X48465000Y-108898061D01*
X48465000Y-109101939D01*
X48504774Y-109301898D01*
X48582795Y-109490256D01*
X48696063Y-109659774D01*
X48840226Y-109803937D01*
X49009744Y-109917205D01*
X49198102Y-109995226D01*
X49398061Y-110035000D01*
X49601939Y-110035000D01*
X49801898Y-109995226D01*
X49990256Y-109917205D01*
X50159774Y-109803937D01*
X50250000Y-109713711D01*
X50340226Y-109803937D01*
X50509744Y-109917205D01*
X50698102Y-109995226D01*
X50898061Y-110035000D01*
X51101939Y-110035000D01*
X51301898Y-109995226D01*
X51490256Y-109917205D01*
X51659774Y-109803937D01*
X51803937Y-109659774D01*
X51917205Y-109490256D01*
X51995226Y-109301898D01*
X52035000Y-109101939D01*
X52035000Y-108898061D01*
X51995226Y-108698102D01*
X51917205Y-108509744D01*
X51803937Y-108340226D01*
X51659774Y-108196063D01*
X51490256Y-108082795D01*
X51301898Y-108004774D01*
X51101939Y-107965000D01*
X50898061Y-107965000D01*
X50698102Y-108004774D01*
X50509744Y-108082795D01*
X50340226Y-108196063D01*
X50250000Y-108286289D01*
X50159774Y-108196063D01*
X49990256Y-108082795D01*
X49801898Y-108004774D01*
X49601939Y-107965000D01*
X49398061Y-107965000D01*
X49198102Y-108004774D01*
X49009744Y-108082795D01*
X48840226Y-108196063D01*
X48696063Y-108340226D01*
X48582795Y-108509744D01*
X48504774Y-108698102D01*
X48465000Y-108898061D01*
X38724499Y-108898061D01*
X38667205Y-108759744D01*
X38553937Y-108590226D01*
X38409774Y-108446063D01*
X38240256Y-108332795D01*
X38051898Y-108254774D01*
X37851939Y-108215000D01*
X37648061Y-108215000D01*
X37448102Y-108254774D01*
X37259744Y-108332795D01*
X37090226Y-108446063D01*
X36946063Y-108590226D01*
X36832795Y-108759744D01*
X36754774Y-108948102D01*
X36715000Y-109148061D01*
X33047805Y-109148061D01*
X32304018Y-108651079D01*
X31405905Y-108279069D01*
X30452474Y-108089419D01*
X29480364Y-108089419D01*
X28526933Y-108279069D01*
X27628820Y-108651079D01*
X26820540Y-109191154D01*
X26133154Y-109878540D01*
X25806000Y-110368161D01*
X25806000Y-106398061D01*
X38965000Y-106398061D01*
X38965000Y-106601939D01*
X39004774Y-106801898D01*
X39082795Y-106990256D01*
X39196063Y-107159774D01*
X39340226Y-107303937D01*
X39509744Y-107417205D01*
X39698102Y-107495226D01*
X39898061Y-107535000D01*
X40101939Y-107535000D01*
X40287645Y-107498061D01*
X55965000Y-107498061D01*
X55965000Y-107701939D01*
X56004774Y-107901898D01*
X56082795Y-108090256D01*
X56196063Y-108259774D01*
X56340226Y-108403937D01*
X56509744Y-108517205D01*
X56698102Y-108595226D01*
X56898061Y-108635000D01*
X57101939Y-108635000D01*
X57301898Y-108595226D01*
X57490256Y-108517205D01*
X57659774Y-108403937D01*
X57803937Y-108259774D01*
X57917205Y-108090256D01*
X57995226Y-107901898D01*
X58035000Y-107701939D01*
X58035000Y-107498061D01*
X57995226Y-107298102D01*
X57917205Y-107109744D01*
X57803937Y-106940226D01*
X57659774Y-106796063D01*
X57513104Y-106698061D01*
X67765000Y-106698061D01*
X67765000Y-106901939D01*
X67804774Y-107101898D01*
X67882795Y-107290256D01*
X67996063Y-107459774D01*
X68140226Y-107603937D01*
X68309744Y-107717205D01*
X68498102Y-107795226D01*
X68698061Y-107835000D01*
X68901939Y-107835000D01*
X69101898Y-107795226D01*
X69290256Y-107717205D01*
X69459774Y-107603937D01*
X69603937Y-107459774D01*
X69717205Y-107290256D01*
X69795226Y-107101898D01*
X69835000Y-106901939D01*
X69835000Y-106698061D01*
X69795226Y-106498102D01*
X69717205Y-106309744D01*
X69603937Y-106140226D01*
X69459774Y-105996063D01*
X69290256Y-105882795D01*
X69101898Y-105804774D01*
X68901939Y-105765000D01*
X68698061Y-105765000D01*
X68498102Y-105804774D01*
X68309744Y-105882795D01*
X68140226Y-105996063D01*
X67996063Y-106140226D01*
X67882795Y-106309744D01*
X67804774Y-106498102D01*
X67765000Y-106698061D01*
X57513104Y-106698061D01*
X57490256Y-106682795D01*
X57301898Y-106604774D01*
X57101939Y-106565000D01*
X56898061Y-106565000D01*
X56698102Y-106604774D01*
X56509744Y-106682795D01*
X56340226Y-106796063D01*
X56196063Y-106940226D01*
X56082795Y-107109744D01*
X56004774Y-107298102D01*
X55965000Y-107498061D01*
X40287645Y-107498061D01*
X40301898Y-107495226D01*
X40490256Y-107417205D01*
X40659774Y-107303937D01*
X40803937Y-107159774D01*
X40917205Y-106990256D01*
X40995226Y-106801898D01*
X41035000Y-106601939D01*
X41035000Y-106398061D01*
X40995226Y-106198102D01*
X40917205Y-106009744D01*
X40803937Y-105840226D01*
X40659774Y-105696063D01*
X40513104Y-105598061D01*
X43865000Y-105598061D01*
X43865000Y-105801939D01*
X43904774Y-106001898D01*
X43982795Y-106190256D01*
X44096063Y-106359774D01*
X44240226Y-106503937D01*
X44409744Y-106617205D01*
X44598102Y-106695226D01*
X44798061Y-106735000D01*
X45001939Y-106735000D01*
X45201898Y-106695226D01*
X45390256Y-106617205D01*
X45559774Y-106503937D01*
X45703937Y-106359774D01*
X45817205Y-106190256D01*
X45895226Y-106001898D01*
X45935000Y-105801939D01*
X45935000Y-105598061D01*
X49965000Y-105598061D01*
X49965000Y-105801939D01*
X50004774Y-106001898D01*
X50082795Y-106190256D01*
X50196063Y-106359774D01*
X50340226Y-106503937D01*
X50509744Y-106617205D01*
X50698102Y-106695226D01*
X50898061Y-106735000D01*
X51101939Y-106735000D01*
X51301898Y-106695226D01*
X51490256Y-106617205D01*
X51659774Y-106503937D01*
X51803937Y-106359774D01*
X51917205Y-106190256D01*
X51995226Y-106001898D01*
X52035000Y-105801939D01*
X52035000Y-105598061D01*
X51995226Y-105398102D01*
X51995210Y-105398061D01*
X55765000Y-105398061D01*
X55765000Y-105601939D01*
X55804774Y-105801898D01*
X55882795Y-105990256D01*
X55996063Y-106159774D01*
X56140226Y-106303937D01*
X56309744Y-106417205D01*
X56498102Y-106495226D01*
X56698061Y-106535000D01*
X56901939Y-106535000D01*
X57101898Y-106495226D01*
X57290256Y-106417205D01*
X57459774Y-106303937D01*
X57603937Y-106159774D01*
X57717205Y-105990256D01*
X57795226Y-105801898D01*
X57835000Y-105601939D01*
X57835000Y-105398061D01*
X57795226Y-105198102D01*
X57717205Y-105009744D01*
X57603937Y-104840226D01*
X57459774Y-104696063D01*
X57290256Y-104582795D01*
X57101898Y-104504774D01*
X56901939Y-104465000D01*
X56698061Y-104465000D01*
X56498102Y-104504774D01*
X56309744Y-104582795D01*
X56140226Y-104696063D01*
X55996063Y-104840226D01*
X55882795Y-105009744D01*
X55804774Y-105198102D01*
X55765000Y-105398061D01*
X51995210Y-105398061D01*
X51917205Y-105209744D01*
X51803937Y-105040226D01*
X51659774Y-104896063D01*
X51490256Y-104782795D01*
X51301898Y-104704774D01*
X51101939Y-104665000D01*
X50898061Y-104665000D01*
X50698102Y-104704774D01*
X50509744Y-104782795D01*
X50340226Y-104896063D01*
X50196063Y-105040226D01*
X50082795Y-105209744D01*
X50004774Y-105398102D01*
X49965000Y-105598061D01*
X45935000Y-105598061D01*
X45895226Y-105398102D01*
X45817205Y-105209744D01*
X45703937Y-105040226D01*
X45559774Y-104896063D01*
X45390256Y-104782795D01*
X45201898Y-104704774D01*
X45001939Y-104665000D01*
X44798061Y-104665000D01*
X44598102Y-104704774D01*
X44409744Y-104782795D01*
X44240226Y-104896063D01*
X44096063Y-105040226D01*
X43982795Y-105209744D01*
X43904774Y-105398102D01*
X43865000Y-105598061D01*
X40513104Y-105598061D01*
X40490256Y-105582795D01*
X40301898Y-105504774D01*
X40101939Y-105465000D01*
X39898061Y-105465000D01*
X39698102Y-105504774D01*
X39509744Y-105582795D01*
X39340226Y-105696063D01*
X39196063Y-105840226D01*
X39082795Y-106009744D01*
X39004774Y-106198102D01*
X38965000Y-106398061D01*
X25806000Y-106398061D01*
X25806000Y-104106890D01*
X27018524Y-104106890D01*
X27063175Y-104254099D01*
X27188359Y-104516920D01*
X27362412Y-104750269D01*
X27578645Y-104945178D01*
X27828748Y-105094157D01*
X28103109Y-105191481D01*
X28333000Y-105070814D01*
X28333000Y-103877000D01*
X27139845Y-103877000D01*
X27018524Y-104106890D01*
X25806000Y-104106890D01*
X25806000Y-98523740D01*
X26975000Y-98523740D01*
X26975000Y-98816260D01*
X27032068Y-99103158D01*
X27144010Y-99373411D01*
X27306525Y-99616632D01*
X27513368Y-99823475D01*
X27687760Y-99940000D01*
X27513368Y-100056525D01*
X27306525Y-100263368D01*
X27144010Y-100506589D01*
X27032068Y-100776842D01*
X26975000Y-101063740D01*
X26975000Y-101356260D01*
X27032068Y-101643158D01*
X27144010Y-101913411D01*
X27306525Y-102156632D01*
X27513368Y-102363475D01*
X27695534Y-102485195D01*
X27578645Y-102554822D01*
X27362412Y-102749731D01*
X27188359Y-102983080D01*
X27063175Y-103245901D01*
X27018524Y-103393110D01*
X27139845Y-103623000D01*
X28333000Y-103623000D01*
X28333000Y-103603000D01*
X28587000Y-103603000D01*
X28587000Y-103623000D01*
X28607000Y-103623000D01*
X28607000Y-103877000D01*
X28587000Y-103877000D01*
X28587000Y-105070814D01*
X28816891Y-105191481D01*
X29091252Y-105094157D01*
X29341355Y-104945178D01*
X29537502Y-104768374D01*
X29560498Y-104844180D01*
X29619463Y-104954494D01*
X29698815Y-105051185D01*
X29795506Y-105130537D01*
X29905820Y-105189502D01*
X30025518Y-105225812D01*
X30150000Y-105238072D01*
X31850000Y-105238072D01*
X31974482Y-105225812D01*
X32094180Y-105189502D01*
X32204494Y-105130537D01*
X32301185Y-105051185D01*
X32380537Y-104954494D01*
X32439502Y-104844180D01*
X32475812Y-104724482D01*
X32488072Y-104600000D01*
X32488072Y-103898061D01*
X35465000Y-103898061D01*
X35465000Y-104101939D01*
X35504774Y-104301898D01*
X35582795Y-104490256D01*
X35696063Y-104659774D01*
X35840226Y-104803937D01*
X36009744Y-104917205D01*
X36198102Y-104995226D01*
X36398061Y-105035000D01*
X36601939Y-105035000D01*
X36801898Y-104995226D01*
X36990256Y-104917205D01*
X37159774Y-104803937D01*
X37303937Y-104659774D01*
X37417205Y-104490256D01*
X37495226Y-104301898D01*
X37535000Y-104101939D01*
X37535000Y-103898061D01*
X59565000Y-103898061D01*
X59565000Y-104101939D01*
X59604774Y-104301898D01*
X59682795Y-104490256D01*
X59796063Y-104659774D01*
X59940226Y-104803937D01*
X60109744Y-104917205D01*
X60298102Y-104995226D01*
X60498061Y-105035000D01*
X60701939Y-105035000D01*
X60901898Y-104995226D01*
X61090256Y-104917205D01*
X61259774Y-104803937D01*
X61403937Y-104659774D01*
X61517205Y-104490256D01*
X61595226Y-104301898D01*
X61615268Y-104201137D01*
X66987000Y-104201137D01*
X66987000Y-104414863D01*
X67028696Y-104624483D01*
X67110485Y-104821940D01*
X67229225Y-104999647D01*
X67380353Y-105150775D01*
X67558060Y-105269515D01*
X67755517Y-105351304D01*
X67965137Y-105393000D01*
X68178863Y-105393000D01*
X68388483Y-105351304D01*
X68585940Y-105269515D01*
X68763647Y-105150775D01*
X68914775Y-104999647D01*
X69033515Y-104821940D01*
X69115304Y-104624483D01*
X69157000Y-104414863D01*
X69157000Y-104201137D01*
X69115304Y-103991517D01*
X69033515Y-103794060D01*
X68914775Y-103616353D01*
X68763647Y-103465225D01*
X68585940Y-103346485D01*
X68388483Y-103264696D01*
X68178863Y-103223000D01*
X67965137Y-103223000D01*
X67755517Y-103264696D01*
X67558060Y-103346485D01*
X67380353Y-103465225D01*
X67229225Y-103616353D01*
X67110485Y-103794060D01*
X67028696Y-103991517D01*
X66987000Y-104201137D01*
X61615268Y-104201137D01*
X61635000Y-104101939D01*
X61635000Y-103898061D01*
X61595226Y-103698102D01*
X61517205Y-103509744D01*
X61403937Y-103340226D01*
X61259774Y-103196063D01*
X61090256Y-103082795D01*
X60901898Y-103004774D01*
X60701939Y-102965000D01*
X60498061Y-102965000D01*
X60298102Y-103004774D01*
X60109744Y-103082795D01*
X59940226Y-103196063D01*
X59796063Y-103340226D01*
X59682795Y-103509744D01*
X59604774Y-103698102D01*
X59565000Y-103898061D01*
X37535000Y-103898061D01*
X37495226Y-103698102D01*
X37417205Y-103509744D01*
X37303937Y-103340226D01*
X37159774Y-103196063D01*
X36990256Y-103082795D01*
X36801898Y-103004774D01*
X36601939Y-102965000D01*
X36398061Y-102965000D01*
X36198102Y-103004774D01*
X36009744Y-103082795D01*
X35840226Y-103196063D01*
X35696063Y-103340226D01*
X35582795Y-103509744D01*
X35504774Y-103698102D01*
X35465000Y-103898061D01*
X32488072Y-103898061D01*
X32488072Y-102900000D01*
X32475812Y-102775518D01*
X32439502Y-102655820D01*
X32380537Y-102545506D01*
X32301185Y-102448815D01*
X32204494Y-102369463D01*
X32094180Y-102310498D01*
X32021620Y-102288487D01*
X32153475Y-102156632D01*
X32315990Y-101913411D01*
X32322348Y-101898061D01*
X61465000Y-101898061D01*
X61465000Y-102101939D01*
X61504774Y-102301898D01*
X61582795Y-102490256D01*
X61696063Y-102659774D01*
X61840226Y-102803937D01*
X62009744Y-102917205D01*
X62198102Y-102995226D01*
X62398061Y-103035000D01*
X62601939Y-103035000D01*
X62801898Y-102995226D01*
X62990256Y-102917205D01*
X63159774Y-102803937D01*
X63303937Y-102659774D01*
X63417205Y-102490256D01*
X63495226Y-102301898D01*
X63535000Y-102101939D01*
X63535000Y-101898061D01*
X63495226Y-101698102D01*
X63417205Y-101509744D01*
X63303937Y-101340226D01*
X63159774Y-101196063D01*
X62990256Y-101082795D01*
X62801898Y-101004774D01*
X62601939Y-100965000D01*
X62398061Y-100965000D01*
X62198102Y-101004774D01*
X62009744Y-101082795D01*
X61840226Y-101196063D01*
X61696063Y-101340226D01*
X61582795Y-101509744D01*
X61504774Y-101698102D01*
X61465000Y-101898061D01*
X32322348Y-101898061D01*
X32427932Y-101643158D01*
X32485000Y-101356260D01*
X32485000Y-101063740D01*
X32427932Y-100776842D01*
X32315990Y-100506589D01*
X32153475Y-100263368D01*
X31946632Y-100056525D01*
X31772240Y-99940000D01*
X31946632Y-99823475D01*
X32072046Y-99698061D01*
X44365000Y-99698061D01*
X44365000Y-99901939D01*
X44404774Y-100101898D01*
X44482795Y-100290256D01*
X44596063Y-100459774D01*
X44740226Y-100603937D01*
X44909744Y-100717205D01*
X45098102Y-100795226D01*
X45298061Y-100835000D01*
X45501939Y-100835000D01*
X45701898Y-100795226D01*
X45890256Y-100717205D01*
X46059774Y-100603937D01*
X46203937Y-100459774D01*
X46317205Y-100290256D01*
X46395226Y-100101898D01*
X46435000Y-99901939D01*
X46435000Y-99698061D01*
X46395226Y-99498102D01*
X46317205Y-99309744D01*
X46203937Y-99140226D01*
X46059774Y-98996063D01*
X45890256Y-98882795D01*
X45701898Y-98804774D01*
X45501939Y-98765000D01*
X45298061Y-98765000D01*
X45098102Y-98804774D01*
X44909744Y-98882795D01*
X44740226Y-98996063D01*
X44596063Y-99140226D01*
X44482795Y-99309744D01*
X44404774Y-99498102D01*
X44365000Y-99698061D01*
X32072046Y-99698061D01*
X32153475Y-99616632D01*
X32315990Y-99373411D01*
X32427932Y-99103158D01*
X32485000Y-98816260D01*
X32485000Y-98523740D01*
X32427932Y-98236842D01*
X32315990Y-97966589D01*
X32270202Y-97898061D01*
X32465000Y-97898061D01*
X32465000Y-98101939D01*
X32504774Y-98301898D01*
X32582795Y-98490256D01*
X32696063Y-98659774D01*
X32840226Y-98803937D01*
X33009744Y-98917205D01*
X33198102Y-98995226D01*
X33398061Y-99035000D01*
X33601939Y-99035000D01*
X33801898Y-98995226D01*
X33990256Y-98917205D01*
X34159774Y-98803937D01*
X34303937Y-98659774D01*
X34417205Y-98490256D01*
X34495226Y-98301898D01*
X34535000Y-98101939D01*
X34535000Y-97898061D01*
X34495226Y-97698102D01*
X34417205Y-97509744D01*
X34303937Y-97340226D01*
X34159774Y-97196063D01*
X33990256Y-97082795D01*
X33801898Y-97004774D01*
X33601939Y-96965000D01*
X33398061Y-96965000D01*
X33198102Y-97004774D01*
X33009744Y-97082795D01*
X32840226Y-97196063D01*
X32696063Y-97340226D01*
X32582795Y-97509744D01*
X32504774Y-97698102D01*
X32465000Y-97898061D01*
X32270202Y-97898061D01*
X32153475Y-97723368D01*
X31946632Y-97516525D01*
X31703411Y-97354010D01*
X31433158Y-97242068D01*
X31146260Y-97185000D01*
X30853740Y-97185000D01*
X30566842Y-97242068D01*
X30296589Y-97354010D01*
X30053368Y-97516525D01*
X29846525Y-97723368D01*
X29730000Y-97897760D01*
X29613475Y-97723368D01*
X29406632Y-97516525D01*
X29163411Y-97354010D01*
X28893158Y-97242068D01*
X28708128Y-97205263D01*
X28859774Y-97103937D01*
X29003937Y-96959774D01*
X29117205Y-96790256D01*
X29195226Y-96601898D01*
X29195989Y-96598061D01*
X44065000Y-96598061D01*
X44065000Y-96801939D01*
X44104774Y-97001898D01*
X44182795Y-97190256D01*
X44296063Y-97359774D01*
X44440226Y-97503937D01*
X44609744Y-97617205D01*
X44798102Y-97695226D01*
X44998061Y-97735000D01*
X45201939Y-97735000D01*
X45401898Y-97695226D01*
X45590256Y-97617205D01*
X45759774Y-97503937D01*
X45903937Y-97359774D01*
X46017205Y-97190256D01*
X46095226Y-97001898D01*
X46135000Y-96801939D01*
X46135000Y-96598061D01*
X46115109Y-96498061D01*
X49665000Y-96498061D01*
X49665000Y-96701939D01*
X49704774Y-96901898D01*
X49782795Y-97090256D01*
X49896063Y-97259774D01*
X50040226Y-97403937D01*
X50209744Y-97517205D01*
X50398102Y-97595226D01*
X50487076Y-97612924D01*
X50504774Y-97701898D01*
X50582795Y-97890256D01*
X50696063Y-98059774D01*
X50840226Y-98203937D01*
X51009744Y-98317205D01*
X51198102Y-98395226D01*
X51398061Y-98435000D01*
X51601939Y-98435000D01*
X51787645Y-98398061D01*
X53565000Y-98398061D01*
X53565000Y-98601939D01*
X53604774Y-98801898D01*
X53682795Y-98990256D01*
X53796063Y-99159774D01*
X53940226Y-99303937D01*
X54109744Y-99417205D01*
X54298102Y-99495226D01*
X54498061Y-99535000D01*
X54701939Y-99535000D01*
X54901898Y-99495226D01*
X55090256Y-99417205D01*
X55259774Y-99303937D01*
X55403937Y-99159774D01*
X55517205Y-98990256D01*
X55595226Y-98801898D01*
X55595989Y-98798061D01*
X59765000Y-98798061D01*
X59765000Y-99001939D01*
X59804774Y-99201898D01*
X59882795Y-99390256D01*
X59996063Y-99559774D01*
X60140226Y-99703937D01*
X60255397Y-99780892D01*
X60196063Y-99840226D01*
X60082795Y-100009744D01*
X60004774Y-100198102D01*
X59965000Y-100398061D01*
X59965000Y-100601939D01*
X60004774Y-100801898D01*
X60082795Y-100990256D01*
X60196063Y-101159774D01*
X60340226Y-101303937D01*
X60509744Y-101417205D01*
X60698102Y-101495226D01*
X60898061Y-101535000D01*
X61101939Y-101535000D01*
X61301898Y-101495226D01*
X61490256Y-101417205D01*
X61659774Y-101303937D01*
X61803937Y-101159774D01*
X61917205Y-100990256D01*
X61995226Y-100801898D01*
X62035000Y-100601939D01*
X62035000Y-100398061D01*
X61995226Y-100198102D01*
X61917205Y-100009744D01*
X61803937Y-99840226D01*
X61764848Y-99801137D01*
X66987000Y-99801137D01*
X66987000Y-100014863D01*
X67028696Y-100224483D01*
X67110485Y-100421940D01*
X67229225Y-100599647D01*
X67380353Y-100750775D01*
X67558060Y-100869515D01*
X67755517Y-100951304D01*
X67965137Y-100993000D01*
X68178863Y-100993000D01*
X68388483Y-100951304D01*
X68585940Y-100869515D01*
X68763647Y-100750775D01*
X68914775Y-100599647D01*
X69033515Y-100421940D01*
X69115304Y-100224483D01*
X69157000Y-100014863D01*
X69157000Y-99801137D01*
X69115304Y-99591517D01*
X69033515Y-99394060D01*
X68914775Y-99216353D01*
X68763647Y-99065225D01*
X68585940Y-98946485D01*
X68388483Y-98864696D01*
X68178863Y-98823000D01*
X67965137Y-98823000D01*
X67755517Y-98864696D01*
X67558060Y-98946485D01*
X67380353Y-99065225D01*
X67229225Y-99216353D01*
X67110485Y-99394060D01*
X67028696Y-99591517D01*
X66987000Y-99801137D01*
X61764848Y-99801137D01*
X61659774Y-99696063D01*
X61544603Y-99619108D01*
X61603937Y-99559774D01*
X61717205Y-99390256D01*
X61795226Y-99201898D01*
X61835000Y-99001939D01*
X61835000Y-98798061D01*
X61795226Y-98598102D01*
X61717205Y-98409744D01*
X61603937Y-98240226D01*
X61459774Y-98096063D01*
X61290256Y-97982795D01*
X61101898Y-97904774D01*
X60901939Y-97865000D01*
X60698061Y-97865000D01*
X60498102Y-97904774D01*
X60309744Y-97982795D01*
X60140226Y-98096063D01*
X59996063Y-98240226D01*
X59882795Y-98409744D01*
X59804774Y-98598102D01*
X59765000Y-98798061D01*
X55595989Y-98798061D01*
X55635000Y-98601939D01*
X55635000Y-98398061D01*
X55595226Y-98198102D01*
X55517205Y-98009744D01*
X55403937Y-97840226D01*
X55259774Y-97696063D01*
X55090256Y-97582795D01*
X54901898Y-97504774D01*
X54701939Y-97465000D01*
X54498061Y-97465000D01*
X54298102Y-97504774D01*
X54109744Y-97582795D01*
X53940226Y-97696063D01*
X53796063Y-97840226D01*
X53682795Y-98009744D01*
X53604774Y-98198102D01*
X53565000Y-98398061D01*
X51787645Y-98398061D01*
X51801898Y-98395226D01*
X51990256Y-98317205D01*
X52159774Y-98203937D01*
X52303937Y-98059774D01*
X52417205Y-97890256D01*
X52495226Y-97701898D01*
X52535000Y-97501939D01*
X52535000Y-97298061D01*
X52495226Y-97098102D01*
X52417205Y-96909744D01*
X52303937Y-96740226D01*
X52159774Y-96596063D01*
X51990256Y-96482795D01*
X51801898Y-96404774D01*
X51712924Y-96387076D01*
X51695226Y-96298102D01*
X51617205Y-96109744D01*
X51503937Y-95940226D01*
X51359774Y-95796063D01*
X51190256Y-95682795D01*
X51001898Y-95604774D01*
X50801939Y-95565000D01*
X50598061Y-95565000D01*
X50398102Y-95604774D01*
X50209744Y-95682795D01*
X50040226Y-95796063D01*
X49896063Y-95940226D01*
X49782795Y-96109744D01*
X49704774Y-96298102D01*
X49665000Y-96498061D01*
X46115109Y-96498061D01*
X46095226Y-96398102D01*
X46017205Y-96209744D01*
X45903937Y-96040226D01*
X45759774Y-95896063D01*
X45590256Y-95782795D01*
X45401898Y-95704774D01*
X45201939Y-95665000D01*
X44998061Y-95665000D01*
X44798102Y-95704774D01*
X44609744Y-95782795D01*
X44440226Y-95896063D01*
X44296063Y-96040226D01*
X44182795Y-96209744D01*
X44104774Y-96398102D01*
X44065000Y-96598061D01*
X29195989Y-96598061D01*
X29235000Y-96401939D01*
X29235000Y-96198061D01*
X29195226Y-95998102D01*
X29117205Y-95809744D01*
X29003937Y-95640226D01*
X28859774Y-95496063D01*
X28713104Y-95398061D01*
X59665000Y-95398061D01*
X59665000Y-95601939D01*
X59704774Y-95801898D01*
X59782795Y-95990256D01*
X59896063Y-96159774D01*
X60040226Y-96303937D01*
X60209744Y-96417205D01*
X60398102Y-96495226D01*
X60598061Y-96535000D01*
X60801939Y-96535000D01*
X61001898Y-96495226D01*
X61190256Y-96417205D01*
X61359774Y-96303937D01*
X61503937Y-96159774D01*
X61617205Y-95990256D01*
X61695226Y-95801898D01*
X61695989Y-95798061D01*
X63265000Y-95798061D01*
X63265000Y-96001939D01*
X63304774Y-96201898D01*
X63382795Y-96390256D01*
X63496063Y-96559774D01*
X63640226Y-96703937D01*
X63809744Y-96817205D01*
X63998102Y-96895226D01*
X64198061Y-96935000D01*
X64401939Y-96935000D01*
X64601898Y-96895226D01*
X64790256Y-96817205D01*
X64959774Y-96703937D01*
X65103937Y-96559774D01*
X65200000Y-96416005D01*
X65296063Y-96559774D01*
X65440226Y-96703937D01*
X65609744Y-96817205D01*
X65798102Y-96895226D01*
X65998061Y-96935000D01*
X66201939Y-96935000D01*
X66401898Y-96895226D01*
X66590256Y-96817205D01*
X66759774Y-96703937D01*
X66903937Y-96559774D01*
X67017205Y-96390256D01*
X67095226Y-96201898D01*
X67135000Y-96001939D01*
X67135000Y-95798061D01*
X68965000Y-95798061D01*
X68965000Y-96001939D01*
X69004774Y-96201898D01*
X69082795Y-96390256D01*
X69196063Y-96559774D01*
X69340226Y-96703937D01*
X69509744Y-96817205D01*
X69698102Y-96895226D01*
X69898061Y-96935000D01*
X70101939Y-96935000D01*
X70301898Y-96895226D01*
X70490256Y-96817205D01*
X70659774Y-96703937D01*
X70803937Y-96559774D01*
X70900000Y-96416005D01*
X70996063Y-96559774D01*
X71140226Y-96703937D01*
X71309744Y-96817205D01*
X71498102Y-96895226D01*
X71698061Y-96935000D01*
X71901939Y-96935000D01*
X72101898Y-96895226D01*
X72290256Y-96817205D01*
X72459774Y-96703937D01*
X72603937Y-96559774D01*
X72717205Y-96390256D01*
X72795226Y-96201898D01*
X72835000Y-96001939D01*
X72835000Y-95798061D01*
X72795226Y-95598102D01*
X72717205Y-95409744D01*
X72603937Y-95240226D01*
X72459774Y-95096063D01*
X72290256Y-94982795D01*
X72101898Y-94904774D01*
X71901939Y-94865000D01*
X71698061Y-94865000D01*
X71498102Y-94904774D01*
X71309744Y-94982795D01*
X71140226Y-95096063D01*
X70996063Y-95240226D01*
X70900000Y-95383995D01*
X70803937Y-95240226D01*
X70659774Y-95096063D01*
X70490256Y-94982795D01*
X70301898Y-94904774D01*
X70101939Y-94865000D01*
X69898061Y-94865000D01*
X69698102Y-94904774D01*
X69509744Y-94982795D01*
X69340226Y-95096063D01*
X69196063Y-95240226D01*
X69082795Y-95409744D01*
X69004774Y-95598102D01*
X68965000Y-95798061D01*
X67135000Y-95798061D01*
X67095226Y-95598102D01*
X67017205Y-95409744D01*
X66903937Y-95240226D01*
X66759774Y-95096063D01*
X66590256Y-94982795D01*
X66401898Y-94904774D01*
X66201939Y-94865000D01*
X65998061Y-94865000D01*
X65798102Y-94904774D01*
X65609744Y-94982795D01*
X65440226Y-95096063D01*
X65296063Y-95240226D01*
X65200000Y-95383995D01*
X65103937Y-95240226D01*
X64959774Y-95096063D01*
X64790256Y-94982795D01*
X64601898Y-94904774D01*
X64401939Y-94865000D01*
X64198061Y-94865000D01*
X63998102Y-94904774D01*
X63809744Y-94982795D01*
X63640226Y-95096063D01*
X63496063Y-95240226D01*
X63382795Y-95409744D01*
X63304774Y-95598102D01*
X63265000Y-95798061D01*
X61695989Y-95798061D01*
X61735000Y-95601939D01*
X61735000Y-95398061D01*
X61695226Y-95198102D01*
X61617205Y-95009744D01*
X61503937Y-94840226D01*
X61359774Y-94696063D01*
X61190256Y-94582795D01*
X61001898Y-94504774D01*
X60801939Y-94465000D01*
X60598061Y-94465000D01*
X60398102Y-94504774D01*
X60209744Y-94582795D01*
X60040226Y-94696063D01*
X59896063Y-94840226D01*
X59782795Y-95009744D01*
X59704774Y-95198102D01*
X59665000Y-95398061D01*
X28713104Y-95398061D01*
X28690256Y-95382795D01*
X28501898Y-95304774D01*
X28301939Y-95265000D01*
X28098061Y-95265000D01*
X27898102Y-95304774D01*
X27709744Y-95382795D01*
X27540226Y-95496063D01*
X27396063Y-95640226D01*
X27282795Y-95809744D01*
X27204774Y-95998102D01*
X27165000Y-96198061D01*
X27165000Y-96401939D01*
X27204774Y-96601898D01*
X27282795Y-96790256D01*
X27396063Y-96959774D01*
X27540226Y-97103937D01*
X27709744Y-97217205D01*
X27898102Y-97295226D01*
X27898375Y-97295280D01*
X27756589Y-97354010D01*
X27513368Y-97516525D01*
X27306525Y-97723368D01*
X27144010Y-97966589D01*
X27032068Y-98236842D01*
X26975000Y-98523740D01*
X25806000Y-98523740D01*
X25806000Y-89398061D01*
X32465000Y-89398061D01*
X32465000Y-89601939D01*
X32504774Y-89801898D01*
X32582795Y-89990256D01*
X32696063Y-90159774D01*
X32840226Y-90303937D01*
X33009744Y-90417205D01*
X33198102Y-90495226D01*
X33398061Y-90535000D01*
X33601939Y-90535000D01*
X33801898Y-90495226D01*
X33990256Y-90417205D01*
X34159774Y-90303937D01*
X34303937Y-90159774D01*
X34417205Y-89990256D01*
X34495226Y-89801898D01*
X34535000Y-89601939D01*
X34535000Y-89398061D01*
X34495226Y-89198102D01*
X34417205Y-89009744D01*
X34303937Y-88840226D01*
X34159774Y-88696063D01*
X33990256Y-88582795D01*
X33801898Y-88504774D01*
X33601939Y-88465000D01*
X33398061Y-88465000D01*
X33198102Y-88504774D01*
X33009744Y-88582795D01*
X32840226Y-88696063D01*
X32696063Y-88840226D01*
X32582795Y-89009744D01*
X32504774Y-89198102D01*
X32465000Y-89398061D01*
X25806000Y-89398061D01*
X25806000Y-88398061D01*
X37965000Y-88398061D01*
X37965000Y-88601939D01*
X38004774Y-88801898D01*
X38082795Y-88990256D01*
X38196063Y-89159774D01*
X38286289Y-89250000D01*
X38196063Y-89340226D01*
X38082795Y-89509744D01*
X38004774Y-89698102D01*
X37965000Y-89898061D01*
X37965000Y-90101939D01*
X38004774Y-90301898D01*
X38082795Y-90490256D01*
X38196063Y-90659774D01*
X38340226Y-90803937D01*
X38509744Y-90917205D01*
X38698102Y-90995226D01*
X38898061Y-91035000D01*
X39101939Y-91035000D01*
X39301898Y-90995226D01*
X39490256Y-90917205D01*
X39659774Y-90803937D01*
X39803937Y-90659774D01*
X39917205Y-90490256D01*
X39995226Y-90301898D01*
X40035000Y-90101939D01*
X40035000Y-89898061D01*
X39995226Y-89698102D01*
X39917205Y-89509744D01*
X39803937Y-89340226D01*
X39761772Y-89298061D01*
X41765000Y-89298061D01*
X41765000Y-89501939D01*
X41804774Y-89701898D01*
X41882795Y-89890256D01*
X41996063Y-90059774D01*
X42140226Y-90203937D01*
X42309744Y-90317205D01*
X42498102Y-90395226D01*
X42698061Y-90435000D01*
X42901939Y-90435000D01*
X43101898Y-90395226D01*
X43290256Y-90317205D01*
X43459774Y-90203937D01*
X43603937Y-90059774D01*
X43717205Y-89890256D01*
X43795226Y-89701898D01*
X43835000Y-89501939D01*
X43835000Y-89298061D01*
X53965000Y-89298061D01*
X53965000Y-89501939D01*
X54004774Y-89701898D01*
X54082795Y-89890256D01*
X54196063Y-90059774D01*
X54340226Y-90203937D01*
X54509744Y-90317205D01*
X54698102Y-90395226D01*
X54898061Y-90435000D01*
X55101939Y-90435000D01*
X55301898Y-90395226D01*
X55490256Y-90317205D01*
X55659774Y-90203937D01*
X55803937Y-90059774D01*
X55917205Y-89890256D01*
X55995226Y-89701898D01*
X56035000Y-89501939D01*
X56035000Y-89498061D01*
X59565000Y-89498061D01*
X59565000Y-89701939D01*
X59604774Y-89901898D01*
X59682795Y-90090256D01*
X59796063Y-90259774D01*
X59940226Y-90403937D01*
X60109744Y-90517205D01*
X60298102Y-90595226D01*
X60498061Y-90635000D01*
X60701939Y-90635000D01*
X60901898Y-90595226D01*
X61090256Y-90517205D01*
X61259774Y-90403937D01*
X61403937Y-90259774D01*
X61517205Y-90090256D01*
X61595226Y-89901898D01*
X61635000Y-89701939D01*
X61635000Y-89498061D01*
X61595226Y-89298102D01*
X61517205Y-89109744D01*
X61403937Y-88940226D01*
X61259774Y-88796063D01*
X61090256Y-88682795D01*
X60901898Y-88604774D01*
X60701939Y-88565000D01*
X60498061Y-88565000D01*
X60298102Y-88604774D01*
X60109744Y-88682795D01*
X59940226Y-88796063D01*
X59796063Y-88940226D01*
X59682795Y-89109744D01*
X59604774Y-89298102D01*
X59565000Y-89498061D01*
X56035000Y-89498061D01*
X56035000Y-89298061D01*
X55995226Y-89098102D01*
X55917205Y-88909744D01*
X55803937Y-88740226D01*
X55659774Y-88596063D01*
X55490256Y-88482795D01*
X55301898Y-88404774D01*
X55268150Y-88398061D01*
X65965000Y-88398061D01*
X65965000Y-88601939D01*
X66004774Y-88801898D01*
X66082795Y-88990256D01*
X66196063Y-89159774D01*
X66340226Y-89303937D01*
X66509744Y-89417205D01*
X66698102Y-89495226D01*
X66722103Y-89500000D01*
X66698102Y-89504774D01*
X66509744Y-89582795D01*
X66340226Y-89696063D01*
X66196063Y-89840226D01*
X66082795Y-90009744D01*
X66004774Y-90198102D01*
X65965000Y-90398061D01*
X65965000Y-90601939D01*
X66004774Y-90801898D01*
X66082795Y-90990256D01*
X66196063Y-91159774D01*
X66340226Y-91303937D01*
X66509744Y-91417205D01*
X66698102Y-91495226D01*
X66898061Y-91535000D01*
X67101939Y-91535000D01*
X67301898Y-91495226D01*
X67490256Y-91417205D01*
X67659774Y-91303937D01*
X67803937Y-91159774D01*
X67917205Y-90990256D01*
X67995226Y-90801898D01*
X68035000Y-90601939D01*
X68035000Y-90398061D01*
X67995226Y-90198102D01*
X67917205Y-90009744D01*
X67803937Y-89840226D01*
X67659774Y-89696063D01*
X67490256Y-89582795D01*
X67301898Y-89504774D01*
X67277897Y-89500000D01*
X67301898Y-89495226D01*
X67490256Y-89417205D01*
X67659774Y-89303937D01*
X67803937Y-89159774D01*
X67917205Y-88990256D01*
X67995226Y-88801898D01*
X68035000Y-88601939D01*
X68035000Y-88398061D01*
X67995226Y-88198102D01*
X67917205Y-88009744D01*
X67803937Y-87840226D01*
X67659774Y-87696063D01*
X67490256Y-87582795D01*
X67301898Y-87504774D01*
X67101939Y-87465000D01*
X66898061Y-87465000D01*
X66698102Y-87504774D01*
X66509744Y-87582795D01*
X66340226Y-87696063D01*
X66196063Y-87840226D01*
X66082795Y-88009744D01*
X66004774Y-88198102D01*
X65965000Y-88398061D01*
X55268150Y-88398061D01*
X55101939Y-88365000D01*
X54898061Y-88365000D01*
X54698102Y-88404774D01*
X54509744Y-88482795D01*
X54340226Y-88596063D01*
X54196063Y-88740226D01*
X54082795Y-88909744D01*
X54004774Y-89098102D01*
X53965000Y-89298061D01*
X43835000Y-89298061D01*
X43795226Y-89098102D01*
X43717205Y-88909744D01*
X43603937Y-88740226D01*
X43459774Y-88596063D01*
X43290256Y-88482795D01*
X43101898Y-88404774D01*
X42901939Y-88365000D01*
X42698061Y-88365000D01*
X42498102Y-88404774D01*
X42309744Y-88482795D01*
X42140226Y-88596063D01*
X41996063Y-88740226D01*
X41882795Y-88909744D01*
X41804774Y-89098102D01*
X41765000Y-89298061D01*
X39761772Y-89298061D01*
X39713711Y-89250000D01*
X39803937Y-89159774D01*
X39917205Y-88990256D01*
X39995226Y-88801898D01*
X40035000Y-88601939D01*
X40035000Y-88398061D01*
X39995226Y-88198102D01*
X39917205Y-88009744D01*
X39803937Y-87840226D01*
X39659774Y-87696063D01*
X39490256Y-87582795D01*
X39301898Y-87504774D01*
X39101939Y-87465000D01*
X38898061Y-87465000D01*
X38698102Y-87504774D01*
X38509744Y-87582795D01*
X38340226Y-87696063D01*
X38196063Y-87840226D01*
X38082795Y-88009744D01*
X38004774Y-88198102D01*
X37965000Y-88398061D01*
X25806000Y-88398061D01*
X25806000Y-84900671D01*
X27842764Y-84886843D01*
X27906414Y-87447030D01*
X27909470Y-87471739D01*
X27917286Y-87495376D01*
X27929565Y-87517034D01*
X27945832Y-87535881D01*
X27965464Y-87551192D01*
X27987705Y-87562378D01*
X28011702Y-87569011D01*
X28034613Y-87570868D01*
X30561113Y-87546244D01*
X30585864Y-87543562D01*
X30609617Y-87536103D01*
X30631458Y-87524154D01*
X30650548Y-87508173D01*
X30666154Y-87488775D01*
X30677676Y-87466705D01*
X30684670Y-87442811D01*
X30686859Y-87421273D01*
X30695192Y-86898061D01*
X39465000Y-86898061D01*
X39465000Y-87101939D01*
X39504774Y-87301898D01*
X39582795Y-87490256D01*
X39696063Y-87659774D01*
X39840226Y-87803937D01*
X40009744Y-87917205D01*
X40198102Y-87995226D01*
X40398061Y-88035000D01*
X40601939Y-88035000D01*
X40801898Y-87995226D01*
X40990256Y-87917205D01*
X41159774Y-87803937D01*
X41303937Y-87659774D01*
X41417205Y-87490256D01*
X41495226Y-87301898D01*
X41535000Y-87101939D01*
X41535000Y-86898061D01*
X50165000Y-86898061D01*
X50165000Y-87101939D01*
X50204774Y-87301898D01*
X50282795Y-87490256D01*
X50396063Y-87659774D01*
X50540226Y-87803937D01*
X50709744Y-87917205D01*
X50898102Y-87995226D01*
X51098061Y-88035000D01*
X51301939Y-88035000D01*
X51501898Y-87995226D01*
X51690256Y-87917205D01*
X51859774Y-87803937D01*
X52003937Y-87659774D01*
X52117205Y-87490256D01*
X52195226Y-87301898D01*
X52235000Y-87101939D01*
X52235000Y-86898061D01*
X55865000Y-86898061D01*
X55865000Y-87101939D01*
X55904774Y-87301898D01*
X55982795Y-87490256D01*
X56096063Y-87659774D01*
X56240226Y-87803937D01*
X56409744Y-87917205D01*
X56598102Y-87995226D01*
X56798061Y-88035000D01*
X57001939Y-88035000D01*
X57201898Y-87995226D01*
X57390256Y-87917205D01*
X57559774Y-87803937D01*
X57703937Y-87659774D01*
X57817205Y-87490256D01*
X57895226Y-87301898D01*
X57935000Y-87101939D01*
X57935000Y-86898061D01*
X57895226Y-86698102D01*
X57895210Y-86698061D01*
X61965000Y-86698061D01*
X61965000Y-86901939D01*
X62004774Y-87101898D01*
X62082795Y-87290256D01*
X62196063Y-87459774D01*
X62340226Y-87603937D01*
X62509744Y-87717205D01*
X62698102Y-87795226D01*
X62898061Y-87835000D01*
X63101939Y-87835000D01*
X63301898Y-87795226D01*
X63490256Y-87717205D01*
X63659774Y-87603937D01*
X63803937Y-87459774D01*
X63917205Y-87290256D01*
X63995226Y-87101898D01*
X64020718Y-86973740D01*
X70143000Y-86973740D01*
X70143000Y-87266260D01*
X70200068Y-87553158D01*
X70312010Y-87823411D01*
X70474525Y-88066632D01*
X70681368Y-88273475D01*
X70855760Y-88390000D01*
X70681368Y-88506525D01*
X70474525Y-88713368D01*
X70312010Y-88956589D01*
X70200068Y-89226842D01*
X70143000Y-89513740D01*
X70143000Y-89806260D01*
X70200068Y-90093158D01*
X70312010Y-90363411D01*
X70474525Y-90606632D01*
X70681368Y-90813475D01*
X70855760Y-90930000D01*
X70681368Y-91046525D01*
X70474525Y-91253368D01*
X70312010Y-91496589D01*
X70200068Y-91766842D01*
X70143000Y-92053740D01*
X70143000Y-92346260D01*
X70200068Y-92633158D01*
X70312010Y-92903411D01*
X70474525Y-93146632D01*
X70681368Y-93353475D01*
X70924589Y-93515990D01*
X71194842Y-93627932D01*
X71481740Y-93685000D01*
X71774260Y-93685000D01*
X72061158Y-93627932D01*
X72331411Y-93515990D01*
X72574632Y-93353475D01*
X72781475Y-93146632D01*
X72943990Y-92903411D01*
X73055932Y-92633158D01*
X73113000Y-92346260D01*
X73113000Y-92053740D01*
X73055932Y-91766842D01*
X72943990Y-91496589D01*
X72781475Y-91253368D01*
X72574632Y-91046525D01*
X72400240Y-90930000D01*
X72574632Y-90813475D01*
X72781475Y-90606632D01*
X72943990Y-90363411D01*
X73055932Y-90093158D01*
X73113000Y-89806260D01*
X73113000Y-89513740D01*
X73055932Y-89226842D01*
X72943990Y-88956589D01*
X72781475Y-88713368D01*
X72574632Y-88506525D01*
X72400240Y-88390000D01*
X72574632Y-88273475D01*
X72781475Y-88066632D01*
X72943990Y-87823411D01*
X73055932Y-87553158D01*
X73113000Y-87266260D01*
X73113000Y-86973740D01*
X73055932Y-86686842D01*
X72943990Y-86416589D01*
X72781475Y-86173368D01*
X72574632Y-85966525D01*
X72392466Y-85844805D01*
X72509355Y-85775178D01*
X72725588Y-85580269D01*
X72899641Y-85346920D01*
X73024825Y-85084099D01*
X73069476Y-84936890D01*
X72948155Y-84707000D01*
X71755000Y-84707000D01*
X71755000Y-84727000D01*
X71501000Y-84727000D01*
X71501000Y-84707000D01*
X70307845Y-84707000D01*
X70186524Y-84936890D01*
X70231175Y-85084099D01*
X70356359Y-85346920D01*
X70530412Y-85580269D01*
X70746645Y-85775178D01*
X70863534Y-85844805D01*
X70681368Y-85966525D01*
X70474525Y-86173368D01*
X70312010Y-86416589D01*
X70200068Y-86686842D01*
X70143000Y-86973740D01*
X64020718Y-86973740D01*
X64035000Y-86901939D01*
X64035000Y-86698061D01*
X63995226Y-86498102D01*
X63917205Y-86309744D01*
X63803937Y-86140226D01*
X63659774Y-85996063D01*
X63490256Y-85882795D01*
X63301898Y-85804774D01*
X63101939Y-85765000D01*
X62898061Y-85765000D01*
X62698102Y-85804774D01*
X62509744Y-85882795D01*
X62340226Y-85996063D01*
X62196063Y-86140226D01*
X62082795Y-86309744D01*
X62004774Y-86498102D01*
X61965000Y-86698061D01*
X57895210Y-86698061D01*
X57817205Y-86509744D01*
X57703937Y-86340226D01*
X57559774Y-86196063D01*
X57390256Y-86082795D01*
X57201898Y-86004774D01*
X57001939Y-85965000D01*
X56798061Y-85965000D01*
X56598102Y-86004774D01*
X56409744Y-86082795D01*
X56240226Y-86196063D01*
X56096063Y-86340226D01*
X55982795Y-86509744D01*
X55904774Y-86698102D01*
X55865000Y-86898061D01*
X52235000Y-86898061D01*
X52195226Y-86698102D01*
X52117205Y-86509744D01*
X52003937Y-86340226D01*
X51859774Y-86196063D01*
X51690256Y-86082795D01*
X51501898Y-86004774D01*
X51301939Y-85965000D01*
X51098061Y-85965000D01*
X50898102Y-86004774D01*
X50709744Y-86082795D01*
X50540226Y-86196063D01*
X50396063Y-86340226D01*
X50282795Y-86509744D01*
X50204774Y-86698102D01*
X50165000Y-86898061D01*
X41535000Y-86898061D01*
X41495226Y-86698102D01*
X41417205Y-86509744D01*
X41303937Y-86340226D01*
X41159774Y-86196063D01*
X40990256Y-86082795D01*
X40801898Y-86004774D01*
X40601939Y-85965000D01*
X40398061Y-85965000D01*
X40198102Y-86004774D01*
X40009744Y-86082795D01*
X39840226Y-86196063D01*
X39696063Y-86340226D01*
X39582795Y-86509744D01*
X39504774Y-86698102D01*
X39465000Y-86898061D01*
X30695192Y-86898061D01*
X30755716Y-83098061D01*
X33765000Y-83098061D01*
X33765000Y-83301939D01*
X33804774Y-83501898D01*
X33882795Y-83690256D01*
X33996063Y-83859774D01*
X34140226Y-84003937D01*
X34309744Y-84117205D01*
X34498102Y-84195226D01*
X34698061Y-84235000D01*
X34901939Y-84235000D01*
X35101898Y-84195226D01*
X35290256Y-84117205D01*
X35459774Y-84003937D01*
X35603937Y-83859774D01*
X35717205Y-83690256D01*
X35719941Y-83683652D01*
X35840226Y-83803937D01*
X36009744Y-83917205D01*
X36198102Y-83995226D01*
X36398061Y-84035000D01*
X36601939Y-84035000D01*
X36801898Y-83995226D01*
X36990256Y-83917205D01*
X37159774Y-83803937D01*
X37303937Y-83659774D01*
X37417205Y-83490256D01*
X37495226Y-83301898D01*
X37535000Y-83101939D01*
X37535000Y-82898061D01*
X37495226Y-82698102D01*
X37417205Y-82509744D01*
X37303937Y-82340226D01*
X37159774Y-82196063D01*
X36990256Y-82082795D01*
X36801898Y-82004774D01*
X36601939Y-81965000D01*
X36398061Y-81965000D01*
X36198102Y-82004774D01*
X36009744Y-82082795D01*
X35840226Y-82196063D01*
X35696063Y-82340226D01*
X35582795Y-82509744D01*
X35580059Y-82516348D01*
X35459774Y-82396063D01*
X35290256Y-82282795D01*
X35101898Y-82204774D01*
X34901939Y-82165000D01*
X34698061Y-82165000D01*
X34498102Y-82204774D01*
X34309744Y-82282795D01*
X34140226Y-82396063D01*
X33996063Y-82540226D01*
X33882795Y-82709744D01*
X33804774Y-82898102D01*
X33765000Y-83098061D01*
X30755716Y-83098061D01*
X30765154Y-82505505D01*
X32135801Y-82480666D01*
X32160529Y-82477777D01*
X32184219Y-82470120D01*
X32205959Y-82457988D01*
X32224915Y-82441848D01*
X32240358Y-82422320D01*
X32251694Y-82400154D01*
X32258488Y-82376202D01*
X32260486Y-82351799D01*
X32244823Y-81298061D01*
X61165000Y-81298061D01*
X61165000Y-81501939D01*
X61204774Y-81701898D01*
X61282795Y-81890256D01*
X61396063Y-82059774D01*
X61540226Y-82203937D01*
X61709744Y-82317205D01*
X61898102Y-82395226D01*
X62098061Y-82435000D01*
X62301939Y-82435000D01*
X62501898Y-82395226D01*
X62690256Y-82317205D01*
X62859774Y-82203937D01*
X63003937Y-82059774D01*
X63117205Y-81890256D01*
X63195226Y-81701898D01*
X63235000Y-81501939D01*
X63235000Y-81298061D01*
X63195226Y-81098102D01*
X63117205Y-80909744D01*
X63003937Y-80740226D01*
X62859774Y-80596063D01*
X62690256Y-80482795D01*
X62501898Y-80404774D01*
X62301939Y-80365000D01*
X62098061Y-80365000D01*
X61898102Y-80404774D01*
X61709744Y-80482795D01*
X61540226Y-80596063D01*
X61396063Y-80740226D01*
X61282795Y-80909744D01*
X61204774Y-81098102D01*
X61165000Y-81298061D01*
X32244823Y-81298061D01*
X32219553Y-79598061D01*
X42165000Y-79598061D01*
X42165000Y-79801939D01*
X42204774Y-80001898D01*
X42282795Y-80190256D01*
X42396063Y-80359774D01*
X42540226Y-80503937D01*
X42709744Y-80617205D01*
X42898102Y-80695226D01*
X43098061Y-80735000D01*
X43301939Y-80735000D01*
X43501898Y-80695226D01*
X43690256Y-80617205D01*
X43859774Y-80503937D01*
X44003937Y-80359774D01*
X44117205Y-80190256D01*
X44195226Y-80001898D01*
X44235000Y-79801939D01*
X44235000Y-79598061D01*
X44195226Y-79398102D01*
X44195210Y-79398061D01*
X47765000Y-79398061D01*
X47765000Y-79601939D01*
X47804774Y-79801898D01*
X47882795Y-79990256D01*
X47996063Y-80159774D01*
X48140226Y-80303937D01*
X48309744Y-80417205D01*
X48498102Y-80495226D01*
X48698061Y-80535000D01*
X48901939Y-80535000D01*
X49101898Y-80495226D01*
X49290256Y-80417205D01*
X49459774Y-80303937D01*
X49603937Y-80159774D01*
X49717205Y-79990256D01*
X49795226Y-79801898D01*
X49835000Y-79601939D01*
X49835000Y-79398061D01*
X53865000Y-79398061D01*
X53865000Y-79601939D01*
X53904774Y-79801898D01*
X53982795Y-79990256D01*
X54096063Y-80159774D01*
X54240226Y-80303937D01*
X54409744Y-80417205D01*
X54598102Y-80495226D01*
X54798061Y-80535000D01*
X55001939Y-80535000D01*
X55201898Y-80495226D01*
X55390256Y-80417205D01*
X55559774Y-80303937D01*
X55703937Y-80159774D01*
X55817205Y-79990256D01*
X55895226Y-79801898D01*
X55935000Y-79601939D01*
X55935000Y-79398061D01*
X55895226Y-79198102D01*
X55817205Y-79009744D01*
X55703937Y-78840226D01*
X55559774Y-78696063D01*
X55390256Y-78582795D01*
X55201898Y-78504774D01*
X55001939Y-78465000D01*
X54798061Y-78465000D01*
X54598102Y-78504774D01*
X54409744Y-78582795D01*
X54240226Y-78696063D01*
X54096063Y-78840226D01*
X53982795Y-79009744D01*
X53904774Y-79198102D01*
X53865000Y-79398061D01*
X49835000Y-79398061D01*
X49795226Y-79198102D01*
X49717205Y-79009744D01*
X49603937Y-78840226D01*
X49459774Y-78696063D01*
X49290256Y-78582795D01*
X49101898Y-78504774D01*
X48901939Y-78465000D01*
X48698061Y-78465000D01*
X48498102Y-78504774D01*
X48309744Y-78582795D01*
X48140226Y-78696063D01*
X47996063Y-78840226D01*
X47882795Y-79009744D01*
X47804774Y-79198102D01*
X47765000Y-79398061D01*
X44195210Y-79398061D01*
X44117205Y-79209744D01*
X44003937Y-79040226D01*
X43859774Y-78896063D01*
X43690256Y-78782795D01*
X43501898Y-78704774D01*
X43301939Y-78665000D01*
X43098061Y-78665000D01*
X42898102Y-78704774D01*
X42709744Y-78782795D01*
X42540226Y-78896063D01*
X42396063Y-79040226D01*
X42282795Y-79209744D01*
X42204774Y-79398102D01*
X42165000Y-79598061D01*
X32219553Y-79598061D01*
X32193486Y-77844425D01*
X32190678Y-77819688D01*
X32183097Y-77795974D01*
X32171036Y-77774194D01*
X32154958Y-77755186D01*
X32135480Y-77739679D01*
X32113352Y-77728271D01*
X32089422Y-77721399D01*
X32067963Y-77719321D01*
X31086419Y-77708010D01*
X31411486Y-77643350D01*
X32309599Y-77271340D01*
X32718590Y-76998061D01*
X39165000Y-76998061D01*
X39165000Y-77201939D01*
X39204774Y-77401898D01*
X39282795Y-77590256D01*
X39396063Y-77759774D01*
X39540226Y-77903937D01*
X39709744Y-78017205D01*
X39898102Y-78095226D01*
X40098061Y-78135000D01*
X40301939Y-78135000D01*
X40487645Y-78098061D01*
X45665000Y-78098061D01*
X45665000Y-78301939D01*
X45704774Y-78501898D01*
X45782795Y-78690256D01*
X45896063Y-78859774D01*
X46040226Y-79003937D01*
X46209744Y-79117205D01*
X46398102Y-79195226D01*
X46598061Y-79235000D01*
X46801939Y-79235000D01*
X47001898Y-79195226D01*
X47190256Y-79117205D01*
X47359774Y-79003937D01*
X47503937Y-78859774D01*
X47617205Y-78690256D01*
X47695226Y-78501898D01*
X47735000Y-78301939D01*
X47735000Y-78098061D01*
X47695226Y-77898102D01*
X47617205Y-77709744D01*
X47503937Y-77540226D01*
X47461772Y-77498061D01*
X51065000Y-77498061D01*
X51065000Y-77701939D01*
X51104774Y-77901898D01*
X51182795Y-78090256D01*
X51296063Y-78259774D01*
X51440226Y-78403937D01*
X51609744Y-78517205D01*
X51798102Y-78595226D01*
X51998061Y-78635000D01*
X52201939Y-78635000D01*
X52401898Y-78595226D01*
X52590256Y-78517205D01*
X52759774Y-78403937D01*
X52903937Y-78259774D01*
X53017205Y-78090256D01*
X53095226Y-77901898D01*
X53135000Y-77701939D01*
X53135000Y-77698061D01*
X56965000Y-77698061D01*
X56965000Y-77901939D01*
X57004774Y-78101898D01*
X57082795Y-78290256D01*
X57196063Y-78459774D01*
X57340226Y-78603937D01*
X57509744Y-78717205D01*
X57698102Y-78795226D01*
X57898061Y-78835000D01*
X58101939Y-78835000D01*
X58301898Y-78795226D01*
X58490256Y-78717205D01*
X58590835Y-78650000D01*
X70139928Y-78650000D01*
X70139928Y-80350000D01*
X70152188Y-80474482D01*
X70188498Y-80594180D01*
X70247463Y-80704494D01*
X70326815Y-80801185D01*
X70423506Y-80880537D01*
X70533820Y-80939502D01*
X70606380Y-80961513D01*
X70474525Y-81093368D01*
X70312010Y-81336589D01*
X70200068Y-81606842D01*
X70143000Y-81893740D01*
X70143000Y-82186260D01*
X70200068Y-82473158D01*
X70312010Y-82743411D01*
X70474525Y-82986632D01*
X70681368Y-83193475D01*
X70863534Y-83315195D01*
X70746645Y-83384822D01*
X70530412Y-83579731D01*
X70356359Y-83813080D01*
X70231175Y-84075901D01*
X70186524Y-84223110D01*
X70307845Y-84453000D01*
X71501000Y-84453000D01*
X71501000Y-84433000D01*
X71755000Y-84433000D01*
X71755000Y-84453000D01*
X72948155Y-84453000D01*
X73069476Y-84223110D01*
X73024825Y-84075901D01*
X72899641Y-83813080D01*
X72725588Y-83579731D01*
X72509355Y-83384822D01*
X72392466Y-83315195D01*
X72574632Y-83193475D01*
X72781475Y-82986632D01*
X72943990Y-82743411D01*
X73055932Y-82473158D01*
X73113000Y-82186260D01*
X73113000Y-81893740D01*
X73055932Y-81606842D01*
X72943990Y-81336589D01*
X72781475Y-81093368D01*
X72649620Y-80961513D01*
X72722180Y-80939502D01*
X72832494Y-80880537D01*
X72929185Y-80801185D01*
X73008537Y-80704494D01*
X73067502Y-80594180D01*
X73103812Y-80474482D01*
X73116072Y-80350000D01*
X73116072Y-78650000D01*
X73103812Y-78525518D01*
X73067502Y-78405820D01*
X73008537Y-78295506D01*
X72929185Y-78198815D01*
X72832494Y-78119463D01*
X72722180Y-78060498D01*
X72602482Y-78024188D01*
X72478000Y-78011928D01*
X70778000Y-78011928D01*
X70653518Y-78024188D01*
X70533820Y-78060498D01*
X70423506Y-78119463D01*
X70326815Y-78198815D01*
X70247463Y-78295506D01*
X70188498Y-78405820D01*
X70152188Y-78525518D01*
X70139928Y-78650000D01*
X58590835Y-78650000D01*
X58659774Y-78603937D01*
X58803937Y-78459774D01*
X58917205Y-78290256D01*
X58995226Y-78101898D01*
X59035000Y-77901939D01*
X59035000Y-77698061D01*
X58995226Y-77498102D01*
X58917205Y-77309744D01*
X58803937Y-77140226D01*
X58659774Y-76996063D01*
X58490256Y-76882795D01*
X58301898Y-76804774D01*
X58101939Y-76765000D01*
X57898061Y-76765000D01*
X57698102Y-76804774D01*
X57509744Y-76882795D01*
X57340226Y-76996063D01*
X57196063Y-77140226D01*
X57082795Y-77309744D01*
X57004774Y-77498102D01*
X56965000Y-77698061D01*
X53135000Y-77698061D01*
X53135000Y-77498061D01*
X53095226Y-77298102D01*
X53017205Y-77109744D01*
X52903937Y-76940226D01*
X52759774Y-76796063D01*
X52590256Y-76682795D01*
X52401898Y-76604774D01*
X52201939Y-76565000D01*
X51998061Y-76565000D01*
X51798102Y-76604774D01*
X51609744Y-76682795D01*
X51440226Y-76796063D01*
X51296063Y-76940226D01*
X51182795Y-77109744D01*
X51104774Y-77298102D01*
X51065000Y-77498061D01*
X47461772Y-77498061D01*
X47359774Y-77396063D01*
X47190256Y-77282795D01*
X47001898Y-77204774D01*
X46801939Y-77165000D01*
X46598061Y-77165000D01*
X46398102Y-77204774D01*
X46209744Y-77282795D01*
X46040226Y-77396063D01*
X45896063Y-77540226D01*
X45782795Y-77709744D01*
X45704774Y-77898102D01*
X45665000Y-78098061D01*
X40487645Y-78098061D01*
X40501898Y-78095226D01*
X40690256Y-78017205D01*
X40859774Y-77903937D01*
X41003937Y-77759774D01*
X41117205Y-77590256D01*
X41195226Y-77401898D01*
X41235000Y-77201939D01*
X41235000Y-76998061D01*
X41195226Y-76798102D01*
X41117205Y-76609744D01*
X41003937Y-76440226D01*
X40859774Y-76296063D01*
X40690256Y-76182795D01*
X40501898Y-76104774D01*
X40301939Y-76065000D01*
X40098061Y-76065000D01*
X39898102Y-76104774D01*
X39709744Y-76182795D01*
X39540226Y-76296063D01*
X39396063Y-76440226D01*
X39282795Y-76609744D01*
X39204774Y-76798102D01*
X39165000Y-76998061D01*
X32718590Y-76998061D01*
X33117879Y-76731265D01*
X33805265Y-76043879D01*
X34345340Y-75235599D01*
X34717350Y-74337486D01*
X34907000Y-73384055D01*
X34907000Y-72411945D01*
X34717350Y-71458514D01*
X34650889Y-71298061D01*
X42065000Y-71298061D01*
X42065000Y-71501939D01*
X42104774Y-71701898D01*
X42182795Y-71890256D01*
X42296063Y-72059774D01*
X42440226Y-72203937D01*
X42609744Y-72317205D01*
X42798102Y-72395226D01*
X42998061Y-72435000D01*
X43201939Y-72435000D01*
X43401898Y-72395226D01*
X43590256Y-72317205D01*
X43759774Y-72203937D01*
X43903937Y-72059774D01*
X44017205Y-71890256D01*
X44095226Y-71701898D01*
X44095989Y-71698061D01*
X47765000Y-71698061D01*
X47765000Y-71901939D01*
X47804774Y-72101898D01*
X47882795Y-72290256D01*
X47996063Y-72459774D01*
X48140226Y-72603937D01*
X48309744Y-72717205D01*
X48498102Y-72795226D01*
X48698061Y-72835000D01*
X48901939Y-72835000D01*
X49101898Y-72795226D01*
X49290256Y-72717205D01*
X49459774Y-72603937D01*
X49603937Y-72459774D01*
X49717205Y-72290256D01*
X49795226Y-72101898D01*
X49835000Y-71901939D01*
X49835000Y-71698061D01*
X53565000Y-71698061D01*
X53565000Y-71901939D01*
X53604774Y-72101898D01*
X53682795Y-72290256D01*
X53796063Y-72459774D01*
X53940226Y-72603937D01*
X54109744Y-72717205D01*
X54298102Y-72795226D01*
X54498061Y-72835000D01*
X54701939Y-72835000D01*
X54901898Y-72795226D01*
X55090256Y-72717205D01*
X55259774Y-72603937D01*
X55403937Y-72459774D01*
X55517205Y-72290256D01*
X55595226Y-72101898D01*
X55595989Y-72098061D01*
X59365000Y-72098061D01*
X59365000Y-72301939D01*
X59404774Y-72501898D01*
X59482795Y-72690256D01*
X59596063Y-72859774D01*
X59740226Y-73003937D01*
X59909744Y-73117205D01*
X60098102Y-73195226D01*
X60298061Y-73235000D01*
X60501939Y-73235000D01*
X60701898Y-73195226D01*
X60890256Y-73117205D01*
X61059774Y-73003937D01*
X61203937Y-72859774D01*
X61317205Y-72690256D01*
X61395226Y-72501898D01*
X61435000Y-72301939D01*
X61435000Y-72098061D01*
X61395226Y-71898102D01*
X61317205Y-71709744D01*
X61203937Y-71540226D01*
X61059774Y-71396063D01*
X60890256Y-71282795D01*
X60701898Y-71204774D01*
X60501939Y-71165000D01*
X60298061Y-71165000D01*
X60098102Y-71204774D01*
X59909744Y-71282795D01*
X59740226Y-71396063D01*
X59596063Y-71540226D01*
X59482795Y-71709744D01*
X59404774Y-71898102D01*
X59365000Y-72098061D01*
X55595989Y-72098061D01*
X55635000Y-71901939D01*
X55635000Y-71698061D01*
X55595226Y-71498102D01*
X55517205Y-71309744D01*
X55403937Y-71140226D01*
X55259774Y-70996063D01*
X55090256Y-70882795D01*
X54901898Y-70804774D01*
X54701939Y-70765000D01*
X54498061Y-70765000D01*
X54298102Y-70804774D01*
X54109744Y-70882795D01*
X53940226Y-70996063D01*
X53796063Y-71140226D01*
X53682795Y-71309744D01*
X53604774Y-71498102D01*
X53565000Y-71698061D01*
X49835000Y-71698061D01*
X49795226Y-71498102D01*
X49717205Y-71309744D01*
X49603937Y-71140226D01*
X49459774Y-70996063D01*
X49290256Y-70882795D01*
X49101898Y-70804774D01*
X48901939Y-70765000D01*
X48698061Y-70765000D01*
X48498102Y-70804774D01*
X48309744Y-70882795D01*
X48140226Y-70996063D01*
X47996063Y-71140226D01*
X47882795Y-71309744D01*
X47804774Y-71498102D01*
X47765000Y-71698061D01*
X44095989Y-71698061D01*
X44135000Y-71501939D01*
X44135000Y-71298061D01*
X44095226Y-71098102D01*
X44017205Y-70909744D01*
X43903937Y-70740226D01*
X43759774Y-70596063D01*
X43590256Y-70482795D01*
X43401898Y-70404774D01*
X43201939Y-70365000D01*
X42998061Y-70365000D01*
X42798102Y-70404774D01*
X42609744Y-70482795D01*
X42440226Y-70596063D01*
X42296063Y-70740226D01*
X42182795Y-70909744D01*
X42104774Y-71098102D01*
X42065000Y-71298061D01*
X34650889Y-71298061D01*
X34345340Y-70560401D01*
X33805265Y-69752121D01*
X33117879Y-69064735D01*
X32619904Y-68731999D01*
X67202093Y-68732001D01*
G37*
X67202093Y-68732001D02*
X66704121Y-69064735D01*
X66016735Y-69752121D01*
X65476660Y-70560401D01*
X65104650Y-71458514D01*
X64915000Y-72411945D01*
X64915000Y-73384055D01*
X65104650Y-74337486D01*
X65476660Y-75235599D01*
X66016735Y-76043879D01*
X66704121Y-76731265D01*
X67512401Y-77271340D01*
X68410514Y-77643350D01*
X69363945Y-77833000D01*
X70336055Y-77833000D01*
X71289486Y-77643350D01*
X72187599Y-77271340D01*
X72995879Y-76731265D01*
X73683265Y-76043879D01*
X74016479Y-75545188D01*
X74021576Y-106357865D01*
X73959774Y-106296063D01*
X73790256Y-106182795D01*
X73601898Y-106104774D01*
X73401939Y-106065000D01*
X73198061Y-106065000D01*
X72998102Y-106104774D01*
X72809744Y-106182795D01*
X72640226Y-106296063D01*
X72496063Y-106440226D01*
X72382795Y-106609744D01*
X72304774Y-106798102D01*
X72265000Y-106998061D01*
X72265000Y-107201939D01*
X72304774Y-107401898D01*
X72382795Y-107590256D01*
X72496063Y-107759774D01*
X72640226Y-107903937D01*
X72809744Y-108017205D01*
X72998102Y-108095226D01*
X73198061Y-108135000D01*
X73401939Y-108135000D01*
X73601898Y-108095226D01*
X73790256Y-108017205D01*
X73959774Y-107903937D01*
X74021821Y-107841890D01*
X74022243Y-110391438D01*
X73683265Y-109884121D01*
X72995879Y-109196735D01*
X72187599Y-108656660D01*
X71289486Y-108284650D01*
X70336055Y-108095000D01*
X69363945Y-108095000D01*
X68410514Y-108284650D01*
X67512401Y-108656660D01*
X67140376Y-108905239D01*
X67217205Y-108790256D01*
X67295226Y-108601898D01*
X67335000Y-108401939D01*
X67335000Y-108198061D01*
X67295226Y-107998102D01*
X67217205Y-107809744D01*
X67103937Y-107640226D01*
X66959774Y-107496063D01*
X66790256Y-107382795D01*
X66601898Y-107304774D01*
X66401939Y-107265000D01*
X66198061Y-107265000D01*
X65998102Y-107304774D01*
X65809744Y-107382795D01*
X65640226Y-107496063D01*
X65496063Y-107640226D01*
X65416591Y-107759164D01*
X65403937Y-107740226D01*
X65259774Y-107596063D01*
X65090256Y-107482795D01*
X64901898Y-107404774D01*
X64701939Y-107365000D01*
X64498061Y-107365000D01*
X64298102Y-107404774D01*
X64109744Y-107482795D01*
X63940226Y-107596063D01*
X63796063Y-107740226D01*
X63682795Y-107909744D01*
X63604774Y-108098102D01*
X63565000Y-108298061D01*
X63565000Y-108501939D01*
X63604774Y-108701898D01*
X63682795Y-108890256D01*
X63796063Y-109059774D01*
X63940226Y-109203937D01*
X64109744Y-109317205D01*
X64298102Y-109395226D01*
X64498061Y-109435000D01*
X64701939Y-109435000D01*
X64901898Y-109395226D01*
X65090256Y-109317205D01*
X65259774Y-109203937D01*
X65403937Y-109059774D01*
X65483409Y-108940836D01*
X65496063Y-108959774D01*
X65640226Y-109103937D01*
X65809744Y-109217205D01*
X65998102Y-109295226D01*
X66198061Y-109335000D01*
X66401939Y-109335000D01*
X66601898Y-109295226D01*
X66608269Y-109292587D01*
X66016735Y-109884121D01*
X65476660Y-110692401D01*
X65104650Y-111590514D01*
X64915000Y-112543945D01*
X64915000Y-113516055D01*
X65104650Y-114469486D01*
X65476660Y-115367599D01*
X66016735Y-116175879D01*
X66704121Y-116863265D01*
X67202093Y-117195999D01*
X32605971Y-117196001D01*
X33112298Y-116857684D01*
X33799684Y-116170298D01*
X34339759Y-115362018D01*
X34711769Y-114463905D01*
X34901419Y-113510474D01*
X34901419Y-113398061D01*
X38465000Y-113398061D01*
X38465000Y-113601939D01*
X38504774Y-113801898D01*
X38582795Y-113990256D01*
X38696063Y-114159774D01*
X38840226Y-114303937D01*
X39009744Y-114417205D01*
X39198102Y-114495226D01*
X39398061Y-114535000D01*
X39601939Y-114535000D01*
X39801898Y-114495226D01*
X39990256Y-114417205D01*
X40159774Y-114303937D01*
X40303937Y-114159774D01*
X40417205Y-113990256D01*
X40495226Y-113801898D01*
X40535000Y-113601939D01*
X40535000Y-113398061D01*
X40495226Y-113198102D01*
X40417205Y-113009744D01*
X40303937Y-112840226D01*
X40159774Y-112696063D01*
X39990256Y-112582795D01*
X39801898Y-112504774D01*
X39601939Y-112465000D01*
X39398061Y-112465000D01*
X39198102Y-112504774D01*
X39009744Y-112582795D01*
X38840226Y-112696063D01*
X38696063Y-112840226D01*
X38582795Y-113009744D01*
X38504774Y-113198102D01*
X38465000Y-113398061D01*
X34901419Y-113398061D01*
X34901419Y-112538364D01*
X34711769Y-111584933D01*
X34339759Y-110686820D01*
X33799684Y-109878540D01*
X33112298Y-109191154D01*
X33047805Y-109148061D01*
X36715000Y-109148061D01*
X36715000Y-109351939D01*
X36754774Y-109551898D01*
X36832795Y-109740256D01*
X36946063Y-109909774D01*
X37090226Y-110053937D01*
X37259744Y-110167205D01*
X37448102Y-110245226D01*
X37648061Y-110285000D01*
X37851939Y-110285000D01*
X38051898Y-110245226D01*
X38240256Y-110167205D01*
X38343737Y-110098061D01*
X39765000Y-110098061D01*
X39765000Y-110301939D01*
X39804774Y-110501898D01*
X39882795Y-110690256D01*
X39996063Y-110859774D01*
X40140226Y-111003937D01*
X40309744Y-111117205D01*
X40498102Y-111195226D01*
X40698061Y-111235000D01*
X40901939Y-111235000D01*
X40978654Y-111219741D01*
X40904774Y-111398102D01*
X40865000Y-111598061D01*
X40865000Y-111801939D01*
X40904774Y-112001898D01*
X40982795Y-112190256D01*
X41096063Y-112359774D01*
X41240226Y-112503937D01*
X41409744Y-112617205D01*
X41598102Y-112695226D01*
X41697513Y-112715000D01*
X41648061Y-112715000D01*
X41448102Y-112754774D01*
X41259744Y-112832795D01*
X41090226Y-112946063D01*
X40946063Y-113090226D01*
X40832795Y-113259744D01*
X40754774Y-113448102D01*
X40715000Y-113648061D01*
X40715000Y-113851939D01*
X40754774Y-114051898D01*
X40832795Y-114240256D01*
X40946063Y-114409774D01*
X41090226Y-114553937D01*
X41259744Y-114667205D01*
X41448102Y-114745226D01*
X41648061Y-114785000D01*
X41851939Y-114785000D01*
X42051898Y-114745226D01*
X42240256Y-114667205D01*
X42409774Y-114553937D01*
X42553937Y-114409774D01*
X42667205Y-114240256D01*
X42737097Y-114071524D01*
X42796063Y-114159774D01*
X42940226Y-114303937D01*
X43109744Y-114417205D01*
X43298102Y-114495226D01*
X43498061Y-114535000D01*
X43701939Y-114535000D01*
X43901898Y-114495226D01*
X44090256Y-114417205D01*
X44259774Y-114303937D01*
X44403937Y-114159774D01*
X44517205Y-113990256D01*
X44595226Y-113801898D01*
X44635000Y-113601939D01*
X44635000Y-113398061D01*
X44595226Y-113198102D01*
X44517205Y-113009744D01*
X44403937Y-112840226D01*
X44259774Y-112696063D01*
X44090256Y-112582795D01*
X43901898Y-112504774D01*
X43701939Y-112465000D01*
X43498061Y-112465000D01*
X43298102Y-112504774D01*
X43109744Y-112582795D01*
X42940226Y-112696063D01*
X42796063Y-112840226D01*
X42682795Y-113009744D01*
X42612903Y-113178476D01*
X42553937Y-113090226D01*
X42409774Y-112946063D01*
X42240256Y-112832795D01*
X42051898Y-112754774D01*
X41952487Y-112735000D01*
X42001939Y-112735000D01*
X42201898Y-112695226D01*
X42390256Y-112617205D01*
X42559774Y-112503937D01*
X42703937Y-112359774D01*
X42817205Y-112190256D01*
X42855393Y-112098061D01*
X45465000Y-112098061D01*
X45465000Y-112301939D01*
X45504774Y-112501898D01*
X45582795Y-112690256D01*
X45696063Y-112859774D01*
X45840226Y-113003937D01*
X46009744Y-113117205D01*
X46198102Y-113195226D01*
X46398061Y-113235000D01*
X46601939Y-113235000D01*
X46801898Y-113195226D01*
X46990256Y-113117205D01*
X47159774Y-113003937D01*
X47303937Y-112859774D01*
X47417205Y-112690256D01*
X47495226Y-112501898D01*
X47535000Y-112301939D01*
X47535000Y-112174869D01*
X47582795Y-112290256D01*
X47696063Y-112459774D01*
X47840226Y-112603937D01*
X48009744Y-112717205D01*
X48198102Y-112795226D01*
X48398061Y-112835000D01*
X48601939Y-112835000D01*
X48801898Y-112795226D01*
X48990256Y-112717205D01*
X49159774Y-112603937D01*
X49303937Y-112459774D01*
X49417205Y-112290256D01*
X49495226Y-112101898D01*
X49535000Y-111901939D01*
X49535000Y-111698061D01*
X49495226Y-111498102D01*
X49417205Y-111309744D01*
X49303937Y-111140226D01*
X49159774Y-110996063D01*
X48990256Y-110882795D01*
X48801898Y-110804774D01*
X48601939Y-110765000D01*
X48398061Y-110765000D01*
X48198102Y-110804774D01*
X48009744Y-110882795D01*
X47840226Y-110996063D01*
X47696063Y-111140226D01*
X47582795Y-111309744D01*
X47504774Y-111498102D01*
X47465000Y-111698061D01*
X47465000Y-111825131D01*
X47417205Y-111709744D01*
X47303937Y-111540226D01*
X47159774Y-111396063D01*
X46990256Y-111282795D01*
X46801898Y-111204774D01*
X46601939Y-111165000D01*
X46398061Y-111165000D01*
X46198102Y-111204774D01*
X46009744Y-111282795D01*
X45840226Y-111396063D01*
X45696063Y-111540226D01*
X45582795Y-111709744D01*
X45504774Y-111898102D01*
X45465000Y-112098061D01*
X42855393Y-112098061D01*
X42895226Y-112001898D01*
X42908533Y-111935000D01*
X43001939Y-111935000D01*
X43201898Y-111895226D01*
X43390256Y-111817205D01*
X43559774Y-111703937D01*
X43703937Y-111559774D01*
X43817205Y-111390256D01*
X43895226Y-111201898D01*
X43935000Y-111001939D01*
X43935000Y-110798061D01*
X43895226Y-110598102D01*
X43817205Y-110409744D01*
X43703937Y-110240226D01*
X43559774Y-110096063D01*
X43390256Y-109982795D01*
X43201898Y-109904774D01*
X43168150Y-109898061D01*
X45965000Y-109898061D01*
X45965000Y-110101939D01*
X46004774Y-110301898D01*
X46082795Y-110490256D01*
X46196063Y-110659774D01*
X46340226Y-110803937D01*
X46509744Y-110917205D01*
X46698102Y-110995226D01*
X46898061Y-111035000D01*
X47101939Y-111035000D01*
X47301898Y-110995226D01*
X47490256Y-110917205D01*
X47659774Y-110803937D01*
X47803937Y-110659774D01*
X47917205Y-110490256D01*
X47955393Y-110398061D01*
X53465000Y-110398061D01*
X53465000Y-110601939D01*
X53504774Y-110801898D01*
X53582795Y-110990256D01*
X53696063Y-111159774D01*
X53840226Y-111303937D01*
X54009744Y-111417205D01*
X54198102Y-111495226D01*
X54398061Y-111535000D01*
X54601939Y-111535000D01*
X54801898Y-111495226D01*
X54990256Y-111417205D01*
X55159774Y-111303937D01*
X55303937Y-111159774D01*
X55417205Y-110990256D01*
X55495226Y-110801898D01*
X55535000Y-110601939D01*
X55535000Y-110398061D01*
X55495226Y-110198102D01*
X55417205Y-110009744D01*
X55303937Y-109840226D01*
X55159774Y-109696063D01*
X54990256Y-109582795D01*
X54801898Y-109504774D01*
X54601939Y-109465000D01*
X54398061Y-109465000D01*
X54198102Y-109504774D01*
X54009744Y-109582795D01*
X53840226Y-109696063D01*
X53696063Y-109840226D01*
X53582795Y-110009744D01*
X53504774Y-110198102D01*
X53465000Y-110398061D01*
X47955393Y-110398061D01*
X47995226Y-110301898D01*
X48035000Y-110101939D01*
X48035000Y-109898061D01*
X47995226Y-109698102D01*
X47917205Y-109509744D01*
X47803937Y-109340226D01*
X47659774Y-109196063D01*
X47490256Y-109082795D01*
X47301898Y-109004774D01*
X47101939Y-108965000D01*
X46898061Y-108965000D01*
X46698102Y-109004774D01*
X46509744Y-109082795D01*
X46340226Y-109196063D01*
X46196063Y-109340226D01*
X46082795Y-109509744D01*
X46004774Y-109698102D01*
X45965000Y-109898061D01*
X43168150Y-109898061D01*
X43001939Y-109865000D01*
X42798061Y-109865000D01*
X42598102Y-109904774D01*
X42409744Y-109982795D01*
X42240226Y-110096063D01*
X42096063Y-110240226D01*
X41982795Y-110409744D01*
X41904774Y-110598102D01*
X41891467Y-110665000D01*
X41798061Y-110665000D01*
X41721346Y-110680259D01*
X41795226Y-110501898D01*
X41835000Y-110301939D01*
X41835000Y-110098061D01*
X41795226Y-109898102D01*
X41717205Y-109709744D01*
X41603937Y-109540226D01*
X41459774Y-109396063D01*
X41290256Y-109282795D01*
X41101898Y-109204774D01*
X40901939Y-109165000D01*
X40698061Y-109165000D01*
X40498102Y-109204774D01*
X40309744Y-109282795D01*
X40140226Y-109396063D01*
X39996063Y-109540226D01*
X39882795Y-109709744D01*
X39804774Y-109898102D01*
X39765000Y-110098061D01*
X38343737Y-110098061D01*
X38409774Y-110053937D01*
X38553937Y-109909774D01*
X38667205Y-109740256D01*
X38745226Y-109551898D01*
X38785000Y-109351939D01*
X38785000Y-109148061D01*
X38745226Y-108948102D01*
X38724499Y-108898061D01*
X48465000Y-108898061D01*
X48465000Y-109101939D01*
X48504774Y-109301898D01*
X48582795Y-109490256D01*
X48696063Y-109659774D01*
X48840226Y-109803937D01*
X49009744Y-109917205D01*
X49198102Y-109995226D01*
X49398061Y-110035000D01*
X49601939Y-110035000D01*
X49801898Y-109995226D01*
X49990256Y-109917205D01*
X50159774Y-109803937D01*
X50250000Y-109713711D01*
X50340226Y-109803937D01*
X50509744Y-109917205D01*
X50698102Y-109995226D01*
X50898061Y-110035000D01*
X51101939Y-110035000D01*
X51301898Y-109995226D01*
X51490256Y-109917205D01*
X51659774Y-109803937D01*
X51803937Y-109659774D01*
X51917205Y-109490256D01*
X51995226Y-109301898D01*
X52035000Y-109101939D01*
X52035000Y-108898061D01*
X51995226Y-108698102D01*
X51917205Y-108509744D01*
X51803937Y-108340226D01*
X51659774Y-108196063D01*
X51490256Y-108082795D01*
X51301898Y-108004774D01*
X51101939Y-107965000D01*
X50898061Y-107965000D01*
X50698102Y-108004774D01*
X50509744Y-108082795D01*
X50340226Y-108196063D01*
X50250000Y-108286289D01*
X50159774Y-108196063D01*
X49990256Y-108082795D01*
X49801898Y-108004774D01*
X49601939Y-107965000D01*
X49398061Y-107965000D01*
X49198102Y-108004774D01*
X49009744Y-108082795D01*
X48840226Y-108196063D01*
X48696063Y-108340226D01*
X48582795Y-108509744D01*
X48504774Y-108698102D01*
X48465000Y-108898061D01*
X38724499Y-108898061D01*
X38667205Y-108759744D01*
X38553937Y-108590226D01*
X38409774Y-108446063D01*
X38240256Y-108332795D01*
X38051898Y-108254774D01*
X37851939Y-108215000D01*
X37648061Y-108215000D01*
X37448102Y-108254774D01*
X37259744Y-108332795D01*
X37090226Y-108446063D01*
X36946063Y-108590226D01*
X36832795Y-108759744D01*
X36754774Y-108948102D01*
X36715000Y-109148061D01*
X33047805Y-109148061D01*
X32304018Y-108651079D01*
X31405905Y-108279069D01*
X30452474Y-108089419D01*
X29480364Y-108089419D01*
X28526933Y-108279069D01*
X27628820Y-108651079D01*
X26820540Y-109191154D01*
X26133154Y-109878540D01*
X25806000Y-110368161D01*
X25806000Y-106398061D01*
X38965000Y-106398061D01*
X38965000Y-106601939D01*
X39004774Y-106801898D01*
X39082795Y-106990256D01*
X39196063Y-107159774D01*
X39340226Y-107303937D01*
X39509744Y-107417205D01*
X39698102Y-107495226D01*
X39898061Y-107535000D01*
X40101939Y-107535000D01*
X40287645Y-107498061D01*
X55965000Y-107498061D01*
X55965000Y-107701939D01*
X56004774Y-107901898D01*
X56082795Y-108090256D01*
X56196063Y-108259774D01*
X56340226Y-108403937D01*
X56509744Y-108517205D01*
X56698102Y-108595226D01*
X56898061Y-108635000D01*
X57101939Y-108635000D01*
X57301898Y-108595226D01*
X57490256Y-108517205D01*
X57659774Y-108403937D01*
X57803937Y-108259774D01*
X57917205Y-108090256D01*
X57995226Y-107901898D01*
X58035000Y-107701939D01*
X58035000Y-107498061D01*
X57995226Y-107298102D01*
X57917205Y-107109744D01*
X57803937Y-106940226D01*
X57659774Y-106796063D01*
X57513104Y-106698061D01*
X67765000Y-106698061D01*
X67765000Y-106901939D01*
X67804774Y-107101898D01*
X67882795Y-107290256D01*
X67996063Y-107459774D01*
X68140226Y-107603937D01*
X68309744Y-107717205D01*
X68498102Y-107795226D01*
X68698061Y-107835000D01*
X68901939Y-107835000D01*
X69101898Y-107795226D01*
X69290256Y-107717205D01*
X69459774Y-107603937D01*
X69603937Y-107459774D01*
X69717205Y-107290256D01*
X69795226Y-107101898D01*
X69835000Y-106901939D01*
X69835000Y-106698061D01*
X69795226Y-106498102D01*
X69717205Y-106309744D01*
X69603937Y-106140226D01*
X69459774Y-105996063D01*
X69290256Y-105882795D01*
X69101898Y-105804774D01*
X68901939Y-105765000D01*
X68698061Y-105765000D01*
X68498102Y-105804774D01*
X68309744Y-105882795D01*
X68140226Y-105996063D01*
X67996063Y-106140226D01*
X67882795Y-106309744D01*
X67804774Y-106498102D01*
X67765000Y-106698061D01*
X57513104Y-106698061D01*
X57490256Y-106682795D01*
X57301898Y-106604774D01*
X57101939Y-106565000D01*
X56898061Y-106565000D01*
X56698102Y-106604774D01*
X56509744Y-106682795D01*
X56340226Y-106796063D01*
X56196063Y-106940226D01*
X56082795Y-107109744D01*
X56004774Y-107298102D01*
X55965000Y-107498061D01*
X40287645Y-107498061D01*
X40301898Y-107495226D01*
X40490256Y-107417205D01*
X40659774Y-107303937D01*
X40803937Y-107159774D01*
X40917205Y-106990256D01*
X40995226Y-106801898D01*
X41035000Y-106601939D01*
X41035000Y-106398061D01*
X40995226Y-106198102D01*
X40917205Y-106009744D01*
X40803937Y-105840226D01*
X40659774Y-105696063D01*
X40513104Y-105598061D01*
X43865000Y-105598061D01*
X43865000Y-105801939D01*
X43904774Y-106001898D01*
X43982795Y-106190256D01*
X44096063Y-106359774D01*
X44240226Y-106503937D01*
X44409744Y-106617205D01*
X44598102Y-106695226D01*
X44798061Y-106735000D01*
X45001939Y-106735000D01*
X45201898Y-106695226D01*
X45390256Y-106617205D01*
X45559774Y-106503937D01*
X45703937Y-106359774D01*
X45817205Y-106190256D01*
X45895226Y-106001898D01*
X45935000Y-105801939D01*
X45935000Y-105598061D01*
X49965000Y-105598061D01*
X49965000Y-105801939D01*
X50004774Y-106001898D01*
X50082795Y-106190256D01*
X50196063Y-106359774D01*
X50340226Y-106503937D01*
X50509744Y-106617205D01*
X50698102Y-106695226D01*
X50898061Y-106735000D01*
X51101939Y-106735000D01*
X51301898Y-106695226D01*
X51490256Y-106617205D01*
X51659774Y-106503937D01*
X51803937Y-106359774D01*
X51917205Y-106190256D01*
X51995226Y-106001898D01*
X52035000Y-105801939D01*
X52035000Y-105598061D01*
X51995226Y-105398102D01*
X51995210Y-105398061D01*
X55765000Y-105398061D01*
X55765000Y-105601939D01*
X55804774Y-105801898D01*
X55882795Y-105990256D01*
X55996063Y-106159774D01*
X56140226Y-106303937D01*
X56309744Y-106417205D01*
X56498102Y-106495226D01*
X56698061Y-106535000D01*
X56901939Y-106535000D01*
X57101898Y-106495226D01*
X57290256Y-106417205D01*
X57459774Y-106303937D01*
X57603937Y-106159774D01*
X57717205Y-105990256D01*
X57795226Y-105801898D01*
X57835000Y-105601939D01*
X57835000Y-105398061D01*
X57795226Y-105198102D01*
X57717205Y-105009744D01*
X57603937Y-104840226D01*
X57459774Y-104696063D01*
X57290256Y-104582795D01*
X57101898Y-104504774D01*
X56901939Y-104465000D01*
X56698061Y-104465000D01*
X56498102Y-104504774D01*
X56309744Y-104582795D01*
X56140226Y-104696063D01*
X55996063Y-104840226D01*
X55882795Y-105009744D01*
X55804774Y-105198102D01*
X55765000Y-105398061D01*
X51995210Y-105398061D01*
X51917205Y-105209744D01*
X51803937Y-105040226D01*
X51659774Y-104896063D01*
X51490256Y-104782795D01*
X51301898Y-104704774D01*
X51101939Y-104665000D01*
X50898061Y-104665000D01*
X50698102Y-104704774D01*
X50509744Y-104782795D01*
X50340226Y-104896063D01*
X50196063Y-105040226D01*
X50082795Y-105209744D01*
X50004774Y-105398102D01*
X49965000Y-105598061D01*
X45935000Y-105598061D01*
X45895226Y-105398102D01*
X45817205Y-105209744D01*
X45703937Y-105040226D01*
X45559774Y-104896063D01*
X45390256Y-104782795D01*
X45201898Y-104704774D01*
X45001939Y-104665000D01*
X44798061Y-104665000D01*
X44598102Y-104704774D01*
X44409744Y-104782795D01*
X44240226Y-104896063D01*
X44096063Y-105040226D01*
X43982795Y-105209744D01*
X43904774Y-105398102D01*
X43865000Y-105598061D01*
X40513104Y-105598061D01*
X40490256Y-105582795D01*
X40301898Y-105504774D01*
X40101939Y-105465000D01*
X39898061Y-105465000D01*
X39698102Y-105504774D01*
X39509744Y-105582795D01*
X39340226Y-105696063D01*
X39196063Y-105840226D01*
X39082795Y-106009744D01*
X39004774Y-106198102D01*
X38965000Y-106398061D01*
X25806000Y-106398061D01*
X25806000Y-104106890D01*
X27018524Y-104106890D01*
X27063175Y-104254099D01*
X27188359Y-104516920D01*
X27362412Y-104750269D01*
X27578645Y-104945178D01*
X27828748Y-105094157D01*
X28103109Y-105191481D01*
X28333000Y-105070814D01*
X28333000Y-103877000D01*
X27139845Y-103877000D01*
X27018524Y-104106890D01*
X25806000Y-104106890D01*
X25806000Y-98523740D01*
X26975000Y-98523740D01*
X26975000Y-98816260D01*
X27032068Y-99103158D01*
X27144010Y-99373411D01*
X27306525Y-99616632D01*
X27513368Y-99823475D01*
X27687760Y-99940000D01*
X27513368Y-100056525D01*
X27306525Y-100263368D01*
X27144010Y-100506589D01*
X27032068Y-100776842D01*
X26975000Y-101063740D01*
X26975000Y-101356260D01*
X27032068Y-101643158D01*
X27144010Y-101913411D01*
X27306525Y-102156632D01*
X27513368Y-102363475D01*
X27695534Y-102485195D01*
X27578645Y-102554822D01*
X27362412Y-102749731D01*
X27188359Y-102983080D01*
X27063175Y-103245901D01*
X27018524Y-103393110D01*
X27139845Y-103623000D01*
X28333000Y-103623000D01*
X28333000Y-103603000D01*
X28587000Y-103603000D01*
X28587000Y-103623000D01*
X28607000Y-103623000D01*
X28607000Y-103877000D01*
X28587000Y-103877000D01*
X28587000Y-105070814D01*
X28816891Y-105191481D01*
X29091252Y-105094157D01*
X29341355Y-104945178D01*
X29537502Y-104768374D01*
X29560498Y-104844180D01*
X29619463Y-104954494D01*
X29698815Y-105051185D01*
X29795506Y-105130537D01*
X29905820Y-105189502D01*
X30025518Y-105225812D01*
X30150000Y-105238072D01*
X31850000Y-105238072D01*
X31974482Y-105225812D01*
X32094180Y-105189502D01*
X32204494Y-105130537D01*
X32301185Y-105051185D01*
X32380537Y-104954494D01*
X32439502Y-104844180D01*
X32475812Y-104724482D01*
X32488072Y-104600000D01*
X32488072Y-103898061D01*
X35465000Y-103898061D01*
X35465000Y-104101939D01*
X35504774Y-104301898D01*
X35582795Y-104490256D01*
X35696063Y-104659774D01*
X35840226Y-104803937D01*
X36009744Y-104917205D01*
X36198102Y-104995226D01*
X36398061Y-105035000D01*
X36601939Y-105035000D01*
X36801898Y-104995226D01*
X36990256Y-104917205D01*
X37159774Y-104803937D01*
X37303937Y-104659774D01*
X37417205Y-104490256D01*
X37495226Y-104301898D01*
X37535000Y-104101939D01*
X37535000Y-103898061D01*
X59565000Y-103898061D01*
X59565000Y-104101939D01*
X59604774Y-104301898D01*
X59682795Y-104490256D01*
X59796063Y-104659774D01*
X59940226Y-104803937D01*
X60109744Y-104917205D01*
X60298102Y-104995226D01*
X60498061Y-105035000D01*
X60701939Y-105035000D01*
X60901898Y-104995226D01*
X61090256Y-104917205D01*
X61259774Y-104803937D01*
X61403937Y-104659774D01*
X61517205Y-104490256D01*
X61595226Y-104301898D01*
X61615268Y-104201137D01*
X66987000Y-104201137D01*
X66987000Y-104414863D01*
X67028696Y-104624483D01*
X67110485Y-104821940D01*
X67229225Y-104999647D01*
X67380353Y-105150775D01*
X67558060Y-105269515D01*
X67755517Y-105351304D01*
X67965137Y-105393000D01*
X68178863Y-105393000D01*
X68388483Y-105351304D01*
X68585940Y-105269515D01*
X68763647Y-105150775D01*
X68914775Y-104999647D01*
X69033515Y-104821940D01*
X69115304Y-104624483D01*
X69157000Y-104414863D01*
X69157000Y-104201137D01*
X69115304Y-103991517D01*
X69033515Y-103794060D01*
X68914775Y-103616353D01*
X68763647Y-103465225D01*
X68585940Y-103346485D01*
X68388483Y-103264696D01*
X68178863Y-103223000D01*
X67965137Y-103223000D01*
X67755517Y-103264696D01*
X67558060Y-103346485D01*
X67380353Y-103465225D01*
X67229225Y-103616353D01*
X67110485Y-103794060D01*
X67028696Y-103991517D01*
X66987000Y-104201137D01*
X61615268Y-104201137D01*
X61635000Y-104101939D01*
X61635000Y-103898061D01*
X61595226Y-103698102D01*
X61517205Y-103509744D01*
X61403937Y-103340226D01*
X61259774Y-103196063D01*
X61090256Y-103082795D01*
X60901898Y-103004774D01*
X60701939Y-102965000D01*
X60498061Y-102965000D01*
X60298102Y-103004774D01*
X60109744Y-103082795D01*
X59940226Y-103196063D01*
X59796063Y-103340226D01*
X59682795Y-103509744D01*
X59604774Y-103698102D01*
X59565000Y-103898061D01*
X37535000Y-103898061D01*
X37495226Y-103698102D01*
X37417205Y-103509744D01*
X37303937Y-103340226D01*
X37159774Y-103196063D01*
X36990256Y-103082795D01*
X36801898Y-103004774D01*
X36601939Y-102965000D01*
X36398061Y-102965000D01*
X36198102Y-103004774D01*
X36009744Y-103082795D01*
X35840226Y-103196063D01*
X35696063Y-103340226D01*
X35582795Y-103509744D01*
X35504774Y-103698102D01*
X35465000Y-103898061D01*
X32488072Y-103898061D01*
X32488072Y-102900000D01*
X32475812Y-102775518D01*
X32439502Y-102655820D01*
X32380537Y-102545506D01*
X32301185Y-102448815D01*
X32204494Y-102369463D01*
X32094180Y-102310498D01*
X32021620Y-102288487D01*
X32153475Y-102156632D01*
X32315990Y-101913411D01*
X32322348Y-101898061D01*
X61465000Y-101898061D01*
X61465000Y-102101939D01*
X61504774Y-102301898D01*
X61582795Y-102490256D01*
X61696063Y-102659774D01*
X61840226Y-102803937D01*
X62009744Y-102917205D01*
X62198102Y-102995226D01*
X62398061Y-103035000D01*
X62601939Y-103035000D01*
X62801898Y-102995226D01*
X62990256Y-102917205D01*
X63159774Y-102803937D01*
X63303937Y-102659774D01*
X63417205Y-102490256D01*
X63495226Y-102301898D01*
X63535000Y-102101939D01*
X63535000Y-101898061D01*
X63495226Y-101698102D01*
X63417205Y-101509744D01*
X63303937Y-101340226D01*
X63159774Y-101196063D01*
X62990256Y-101082795D01*
X62801898Y-101004774D01*
X62601939Y-100965000D01*
X62398061Y-100965000D01*
X62198102Y-101004774D01*
X62009744Y-101082795D01*
X61840226Y-101196063D01*
X61696063Y-101340226D01*
X61582795Y-101509744D01*
X61504774Y-101698102D01*
X61465000Y-101898061D01*
X32322348Y-101898061D01*
X32427932Y-101643158D01*
X32485000Y-101356260D01*
X32485000Y-101063740D01*
X32427932Y-100776842D01*
X32315990Y-100506589D01*
X32153475Y-100263368D01*
X31946632Y-100056525D01*
X31772240Y-99940000D01*
X31946632Y-99823475D01*
X32072046Y-99698061D01*
X44365000Y-99698061D01*
X44365000Y-99901939D01*
X44404774Y-100101898D01*
X44482795Y-100290256D01*
X44596063Y-100459774D01*
X44740226Y-100603937D01*
X44909744Y-100717205D01*
X45098102Y-100795226D01*
X45298061Y-100835000D01*
X45501939Y-100835000D01*
X45701898Y-100795226D01*
X45890256Y-100717205D01*
X46059774Y-100603937D01*
X46203937Y-100459774D01*
X46317205Y-100290256D01*
X46395226Y-100101898D01*
X46435000Y-99901939D01*
X46435000Y-99698061D01*
X46395226Y-99498102D01*
X46317205Y-99309744D01*
X46203937Y-99140226D01*
X46059774Y-98996063D01*
X45890256Y-98882795D01*
X45701898Y-98804774D01*
X45501939Y-98765000D01*
X45298061Y-98765000D01*
X45098102Y-98804774D01*
X44909744Y-98882795D01*
X44740226Y-98996063D01*
X44596063Y-99140226D01*
X44482795Y-99309744D01*
X44404774Y-99498102D01*
X44365000Y-99698061D01*
X32072046Y-99698061D01*
X32153475Y-99616632D01*
X32315990Y-99373411D01*
X32427932Y-99103158D01*
X32485000Y-98816260D01*
X32485000Y-98523740D01*
X32427932Y-98236842D01*
X32315990Y-97966589D01*
X32270202Y-97898061D01*
X32465000Y-97898061D01*
X32465000Y-98101939D01*
X32504774Y-98301898D01*
X32582795Y-98490256D01*
X32696063Y-98659774D01*
X32840226Y-98803937D01*
X33009744Y-98917205D01*
X33198102Y-98995226D01*
X33398061Y-99035000D01*
X33601939Y-99035000D01*
X33801898Y-98995226D01*
X33990256Y-98917205D01*
X34159774Y-98803937D01*
X34303937Y-98659774D01*
X34417205Y-98490256D01*
X34495226Y-98301898D01*
X34535000Y-98101939D01*
X34535000Y-97898061D01*
X34495226Y-97698102D01*
X34417205Y-97509744D01*
X34303937Y-97340226D01*
X34159774Y-97196063D01*
X33990256Y-97082795D01*
X33801898Y-97004774D01*
X33601939Y-96965000D01*
X33398061Y-96965000D01*
X33198102Y-97004774D01*
X33009744Y-97082795D01*
X32840226Y-97196063D01*
X32696063Y-97340226D01*
X32582795Y-97509744D01*
X32504774Y-97698102D01*
X32465000Y-97898061D01*
X32270202Y-97898061D01*
X32153475Y-97723368D01*
X31946632Y-97516525D01*
X31703411Y-97354010D01*
X31433158Y-97242068D01*
X31146260Y-97185000D01*
X30853740Y-97185000D01*
X30566842Y-97242068D01*
X30296589Y-97354010D01*
X30053368Y-97516525D01*
X29846525Y-97723368D01*
X29730000Y-97897760D01*
X29613475Y-97723368D01*
X29406632Y-97516525D01*
X29163411Y-97354010D01*
X28893158Y-97242068D01*
X28708128Y-97205263D01*
X28859774Y-97103937D01*
X29003937Y-96959774D01*
X29117205Y-96790256D01*
X29195226Y-96601898D01*
X29195989Y-96598061D01*
X44065000Y-96598061D01*
X44065000Y-96801939D01*
X44104774Y-97001898D01*
X44182795Y-97190256D01*
X44296063Y-97359774D01*
X44440226Y-97503937D01*
X44609744Y-97617205D01*
X44798102Y-97695226D01*
X44998061Y-97735000D01*
X45201939Y-97735000D01*
X45401898Y-97695226D01*
X45590256Y-97617205D01*
X45759774Y-97503937D01*
X45903937Y-97359774D01*
X46017205Y-97190256D01*
X46095226Y-97001898D01*
X46135000Y-96801939D01*
X46135000Y-96598061D01*
X46115109Y-96498061D01*
X49665000Y-96498061D01*
X49665000Y-96701939D01*
X49704774Y-96901898D01*
X49782795Y-97090256D01*
X49896063Y-97259774D01*
X50040226Y-97403937D01*
X50209744Y-97517205D01*
X50398102Y-97595226D01*
X50487076Y-97612924D01*
X50504774Y-97701898D01*
X50582795Y-97890256D01*
X50696063Y-98059774D01*
X50840226Y-98203937D01*
X51009744Y-98317205D01*
X51198102Y-98395226D01*
X51398061Y-98435000D01*
X51601939Y-98435000D01*
X51787645Y-98398061D01*
X53565000Y-98398061D01*
X53565000Y-98601939D01*
X53604774Y-98801898D01*
X53682795Y-98990256D01*
X53796063Y-99159774D01*
X53940226Y-99303937D01*
X54109744Y-99417205D01*
X54298102Y-99495226D01*
X54498061Y-99535000D01*
X54701939Y-99535000D01*
X54901898Y-99495226D01*
X55090256Y-99417205D01*
X55259774Y-99303937D01*
X55403937Y-99159774D01*
X55517205Y-98990256D01*
X55595226Y-98801898D01*
X55595989Y-98798061D01*
X59765000Y-98798061D01*
X59765000Y-99001939D01*
X59804774Y-99201898D01*
X59882795Y-99390256D01*
X59996063Y-99559774D01*
X60140226Y-99703937D01*
X60255397Y-99780892D01*
X60196063Y-99840226D01*
X60082795Y-100009744D01*
X60004774Y-100198102D01*
X59965000Y-100398061D01*
X59965000Y-100601939D01*
X60004774Y-100801898D01*
X60082795Y-100990256D01*
X60196063Y-101159774D01*
X60340226Y-101303937D01*
X60509744Y-101417205D01*
X60698102Y-101495226D01*
X60898061Y-101535000D01*
X61101939Y-101535000D01*
X61301898Y-101495226D01*
X61490256Y-101417205D01*
X61659774Y-101303937D01*
X61803937Y-101159774D01*
X61917205Y-100990256D01*
X61995226Y-100801898D01*
X62035000Y-100601939D01*
X62035000Y-100398061D01*
X61995226Y-100198102D01*
X61917205Y-100009744D01*
X61803937Y-99840226D01*
X61764848Y-99801137D01*
X66987000Y-99801137D01*
X66987000Y-100014863D01*
X67028696Y-100224483D01*
X67110485Y-100421940D01*
X67229225Y-100599647D01*
X67380353Y-100750775D01*
X67558060Y-100869515D01*
X67755517Y-100951304D01*
X67965137Y-100993000D01*
X68178863Y-100993000D01*
X68388483Y-100951304D01*
X68585940Y-100869515D01*
X68763647Y-100750775D01*
X68914775Y-100599647D01*
X69033515Y-100421940D01*
X69115304Y-100224483D01*
X69157000Y-100014863D01*
X69157000Y-99801137D01*
X69115304Y-99591517D01*
X69033515Y-99394060D01*
X68914775Y-99216353D01*
X68763647Y-99065225D01*
X68585940Y-98946485D01*
X68388483Y-98864696D01*
X68178863Y-98823000D01*
X67965137Y-98823000D01*
X67755517Y-98864696D01*
X67558060Y-98946485D01*
X67380353Y-99065225D01*
X67229225Y-99216353D01*
X67110485Y-99394060D01*
X67028696Y-99591517D01*
X66987000Y-99801137D01*
X61764848Y-99801137D01*
X61659774Y-99696063D01*
X61544603Y-99619108D01*
X61603937Y-99559774D01*
X61717205Y-99390256D01*
X61795226Y-99201898D01*
X61835000Y-99001939D01*
X61835000Y-98798061D01*
X61795226Y-98598102D01*
X61717205Y-98409744D01*
X61603937Y-98240226D01*
X61459774Y-98096063D01*
X61290256Y-97982795D01*
X61101898Y-97904774D01*
X60901939Y-97865000D01*
X60698061Y-97865000D01*
X60498102Y-97904774D01*
X60309744Y-97982795D01*
X60140226Y-98096063D01*
X59996063Y-98240226D01*
X59882795Y-98409744D01*
X59804774Y-98598102D01*
X59765000Y-98798061D01*
X55595989Y-98798061D01*
X55635000Y-98601939D01*
X55635000Y-98398061D01*
X55595226Y-98198102D01*
X55517205Y-98009744D01*
X55403937Y-97840226D01*
X55259774Y-97696063D01*
X55090256Y-97582795D01*
X54901898Y-97504774D01*
X54701939Y-97465000D01*
X54498061Y-97465000D01*
X54298102Y-97504774D01*
X54109744Y-97582795D01*
X53940226Y-97696063D01*
X53796063Y-97840226D01*
X53682795Y-98009744D01*
X53604774Y-98198102D01*
X53565000Y-98398061D01*
X51787645Y-98398061D01*
X51801898Y-98395226D01*
X51990256Y-98317205D01*
X52159774Y-98203937D01*
X52303937Y-98059774D01*
X52417205Y-97890256D01*
X52495226Y-97701898D01*
X52535000Y-97501939D01*
X52535000Y-97298061D01*
X52495226Y-97098102D01*
X52417205Y-96909744D01*
X52303937Y-96740226D01*
X52159774Y-96596063D01*
X51990256Y-96482795D01*
X51801898Y-96404774D01*
X51712924Y-96387076D01*
X51695226Y-96298102D01*
X51617205Y-96109744D01*
X51503937Y-95940226D01*
X51359774Y-95796063D01*
X51190256Y-95682795D01*
X51001898Y-95604774D01*
X50801939Y-95565000D01*
X50598061Y-95565000D01*
X50398102Y-95604774D01*
X50209744Y-95682795D01*
X50040226Y-95796063D01*
X49896063Y-95940226D01*
X49782795Y-96109744D01*
X49704774Y-96298102D01*
X49665000Y-96498061D01*
X46115109Y-96498061D01*
X46095226Y-96398102D01*
X46017205Y-96209744D01*
X45903937Y-96040226D01*
X45759774Y-95896063D01*
X45590256Y-95782795D01*
X45401898Y-95704774D01*
X45201939Y-95665000D01*
X44998061Y-95665000D01*
X44798102Y-95704774D01*
X44609744Y-95782795D01*
X44440226Y-95896063D01*
X44296063Y-96040226D01*
X44182795Y-96209744D01*
X44104774Y-96398102D01*
X44065000Y-96598061D01*
X29195989Y-96598061D01*
X29235000Y-96401939D01*
X29235000Y-96198061D01*
X29195226Y-95998102D01*
X29117205Y-95809744D01*
X29003937Y-95640226D01*
X28859774Y-95496063D01*
X28713104Y-95398061D01*
X59665000Y-95398061D01*
X59665000Y-95601939D01*
X59704774Y-95801898D01*
X59782795Y-95990256D01*
X59896063Y-96159774D01*
X60040226Y-96303937D01*
X60209744Y-96417205D01*
X60398102Y-96495226D01*
X60598061Y-96535000D01*
X60801939Y-96535000D01*
X61001898Y-96495226D01*
X61190256Y-96417205D01*
X61359774Y-96303937D01*
X61503937Y-96159774D01*
X61617205Y-95990256D01*
X61695226Y-95801898D01*
X61695989Y-95798061D01*
X63265000Y-95798061D01*
X63265000Y-96001939D01*
X63304774Y-96201898D01*
X63382795Y-96390256D01*
X63496063Y-96559774D01*
X63640226Y-96703937D01*
X63809744Y-96817205D01*
X63998102Y-96895226D01*
X64198061Y-96935000D01*
X64401939Y-96935000D01*
X64601898Y-96895226D01*
X64790256Y-96817205D01*
X64959774Y-96703937D01*
X65103937Y-96559774D01*
X65200000Y-96416005D01*
X65296063Y-96559774D01*
X65440226Y-96703937D01*
X65609744Y-96817205D01*
X65798102Y-96895226D01*
X65998061Y-96935000D01*
X66201939Y-96935000D01*
X66401898Y-96895226D01*
X66590256Y-96817205D01*
X66759774Y-96703937D01*
X66903937Y-96559774D01*
X67017205Y-96390256D01*
X67095226Y-96201898D01*
X67135000Y-96001939D01*
X67135000Y-95798061D01*
X68965000Y-95798061D01*
X68965000Y-96001939D01*
X69004774Y-96201898D01*
X69082795Y-96390256D01*
X69196063Y-96559774D01*
X69340226Y-96703937D01*
X69509744Y-96817205D01*
X69698102Y-96895226D01*
X69898061Y-96935000D01*
X70101939Y-96935000D01*
X70301898Y-96895226D01*
X70490256Y-96817205D01*
X70659774Y-96703937D01*
X70803937Y-96559774D01*
X70900000Y-96416005D01*
X70996063Y-96559774D01*
X71140226Y-96703937D01*
X71309744Y-96817205D01*
X71498102Y-96895226D01*
X71698061Y-96935000D01*
X71901939Y-96935000D01*
X72101898Y-96895226D01*
X72290256Y-96817205D01*
X72459774Y-96703937D01*
X72603937Y-96559774D01*
X72717205Y-96390256D01*
X72795226Y-96201898D01*
X72835000Y-96001939D01*
X72835000Y-95798061D01*
X72795226Y-95598102D01*
X72717205Y-95409744D01*
X72603937Y-95240226D01*
X72459774Y-95096063D01*
X72290256Y-94982795D01*
X72101898Y-94904774D01*
X71901939Y-94865000D01*
X71698061Y-94865000D01*
X71498102Y-94904774D01*
X71309744Y-94982795D01*
X71140226Y-95096063D01*
X70996063Y-95240226D01*
X70900000Y-95383995D01*
X70803937Y-95240226D01*
X70659774Y-95096063D01*
X70490256Y-94982795D01*
X70301898Y-94904774D01*
X70101939Y-94865000D01*
X69898061Y-94865000D01*
X69698102Y-94904774D01*
X69509744Y-94982795D01*
X69340226Y-95096063D01*
X69196063Y-95240226D01*
X69082795Y-95409744D01*
X69004774Y-95598102D01*
X68965000Y-95798061D01*
X67135000Y-95798061D01*
X67095226Y-95598102D01*
X67017205Y-95409744D01*
X66903937Y-95240226D01*
X66759774Y-95096063D01*
X66590256Y-94982795D01*
X66401898Y-94904774D01*
X66201939Y-94865000D01*
X65998061Y-94865000D01*
X65798102Y-94904774D01*
X65609744Y-94982795D01*
X65440226Y-95096063D01*
X65296063Y-95240226D01*
X65200000Y-95383995D01*
X65103937Y-95240226D01*
X64959774Y-95096063D01*
X64790256Y-94982795D01*
X64601898Y-94904774D01*
X64401939Y-94865000D01*
X64198061Y-94865000D01*
X63998102Y-94904774D01*
X63809744Y-94982795D01*
X63640226Y-95096063D01*
X63496063Y-95240226D01*
X63382795Y-95409744D01*
X63304774Y-95598102D01*
X63265000Y-95798061D01*
X61695989Y-95798061D01*
X61735000Y-95601939D01*
X61735000Y-95398061D01*
X61695226Y-95198102D01*
X61617205Y-95009744D01*
X61503937Y-94840226D01*
X61359774Y-94696063D01*
X61190256Y-94582795D01*
X61001898Y-94504774D01*
X60801939Y-94465000D01*
X60598061Y-94465000D01*
X60398102Y-94504774D01*
X60209744Y-94582795D01*
X60040226Y-94696063D01*
X59896063Y-94840226D01*
X59782795Y-95009744D01*
X59704774Y-95198102D01*
X59665000Y-95398061D01*
X28713104Y-95398061D01*
X28690256Y-95382795D01*
X28501898Y-95304774D01*
X28301939Y-95265000D01*
X28098061Y-95265000D01*
X27898102Y-95304774D01*
X27709744Y-95382795D01*
X27540226Y-95496063D01*
X27396063Y-95640226D01*
X27282795Y-95809744D01*
X27204774Y-95998102D01*
X27165000Y-96198061D01*
X27165000Y-96401939D01*
X27204774Y-96601898D01*
X27282795Y-96790256D01*
X27396063Y-96959774D01*
X27540226Y-97103937D01*
X27709744Y-97217205D01*
X27898102Y-97295226D01*
X27898375Y-97295280D01*
X27756589Y-97354010D01*
X27513368Y-97516525D01*
X27306525Y-97723368D01*
X27144010Y-97966589D01*
X27032068Y-98236842D01*
X26975000Y-98523740D01*
X25806000Y-98523740D01*
X25806000Y-89398061D01*
X32465000Y-89398061D01*
X32465000Y-89601939D01*
X32504774Y-89801898D01*
X32582795Y-89990256D01*
X32696063Y-90159774D01*
X32840226Y-90303937D01*
X33009744Y-90417205D01*
X33198102Y-90495226D01*
X33398061Y-90535000D01*
X33601939Y-90535000D01*
X33801898Y-90495226D01*
X33990256Y-90417205D01*
X34159774Y-90303937D01*
X34303937Y-90159774D01*
X34417205Y-89990256D01*
X34495226Y-89801898D01*
X34535000Y-89601939D01*
X34535000Y-89398061D01*
X34495226Y-89198102D01*
X34417205Y-89009744D01*
X34303937Y-88840226D01*
X34159774Y-88696063D01*
X33990256Y-88582795D01*
X33801898Y-88504774D01*
X33601939Y-88465000D01*
X33398061Y-88465000D01*
X33198102Y-88504774D01*
X33009744Y-88582795D01*
X32840226Y-88696063D01*
X32696063Y-88840226D01*
X32582795Y-89009744D01*
X32504774Y-89198102D01*
X32465000Y-89398061D01*
X25806000Y-89398061D01*
X25806000Y-88398061D01*
X37965000Y-88398061D01*
X37965000Y-88601939D01*
X38004774Y-88801898D01*
X38082795Y-88990256D01*
X38196063Y-89159774D01*
X38286289Y-89250000D01*
X38196063Y-89340226D01*
X38082795Y-89509744D01*
X38004774Y-89698102D01*
X37965000Y-89898061D01*
X37965000Y-90101939D01*
X38004774Y-90301898D01*
X38082795Y-90490256D01*
X38196063Y-90659774D01*
X38340226Y-90803937D01*
X38509744Y-90917205D01*
X38698102Y-90995226D01*
X38898061Y-91035000D01*
X39101939Y-91035000D01*
X39301898Y-90995226D01*
X39490256Y-90917205D01*
X39659774Y-90803937D01*
X39803937Y-90659774D01*
X39917205Y-90490256D01*
X39995226Y-90301898D01*
X40035000Y-90101939D01*
X40035000Y-89898061D01*
X39995226Y-89698102D01*
X39917205Y-89509744D01*
X39803937Y-89340226D01*
X39761772Y-89298061D01*
X41765000Y-89298061D01*
X41765000Y-89501939D01*
X41804774Y-89701898D01*
X41882795Y-89890256D01*
X41996063Y-90059774D01*
X42140226Y-90203937D01*
X42309744Y-90317205D01*
X42498102Y-90395226D01*
X42698061Y-90435000D01*
X42901939Y-90435000D01*
X43101898Y-90395226D01*
X43290256Y-90317205D01*
X43459774Y-90203937D01*
X43603937Y-90059774D01*
X43717205Y-89890256D01*
X43795226Y-89701898D01*
X43835000Y-89501939D01*
X43835000Y-89298061D01*
X53965000Y-89298061D01*
X53965000Y-89501939D01*
X54004774Y-89701898D01*
X54082795Y-89890256D01*
X54196063Y-90059774D01*
X54340226Y-90203937D01*
X54509744Y-90317205D01*
X54698102Y-90395226D01*
X54898061Y-90435000D01*
X55101939Y-90435000D01*
X55301898Y-90395226D01*
X55490256Y-90317205D01*
X55659774Y-90203937D01*
X55803937Y-90059774D01*
X55917205Y-89890256D01*
X55995226Y-89701898D01*
X56035000Y-89501939D01*
X56035000Y-89498061D01*
X59565000Y-89498061D01*
X59565000Y-89701939D01*
X59604774Y-89901898D01*
X59682795Y-90090256D01*
X59796063Y-90259774D01*
X59940226Y-90403937D01*
X60109744Y-90517205D01*
X60298102Y-90595226D01*
X60498061Y-90635000D01*
X60701939Y-90635000D01*
X60901898Y-90595226D01*
X61090256Y-90517205D01*
X61259774Y-90403937D01*
X61403937Y-90259774D01*
X61517205Y-90090256D01*
X61595226Y-89901898D01*
X61635000Y-89701939D01*
X61635000Y-89498061D01*
X61595226Y-89298102D01*
X61517205Y-89109744D01*
X61403937Y-88940226D01*
X61259774Y-88796063D01*
X61090256Y-88682795D01*
X60901898Y-88604774D01*
X60701939Y-88565000D01*
X60498061Y-88565000D01*
X60298102Y-88604774D01*
X60109744Y-88682795D01*
X59940226Y-88796063D01*
X59796063Y-88940226D01*
X59682795Y-89109744D01*
X59604774Y-89298102D01*
X59565000Y-89498061D01*
X56035000Y-89498061D01*
X56035000Y-89298061D01*
X55995226Y-89098102D01*
X55917205Y-88909744D01*
X55803937Y-88740226D01*
X55659774Y-88596063D01*
X55490256Y-88482795D01*
X55301898Y-88404774D01*
X55268150Y-88398061D01*
X65965000Y-88398061D01*
X65965000Y-88601939D01*
X66004774Y-88801898D01*
X66082795Y-88990256D01*
X66196063Y-89159774D01*
X66340226Y-89303937D01*
X66509744Y-89417205D01*
X66698102Y-89495226D01*
X66722103Y-89500000D01*
X66698102Y-89504774D01*
X66509744Y-89582795D01*
X66340226Y-89696063D01*
X66196063Y-89840226D01*
X66082795Y-90009744D01*
X66004774Y-90198102D01*
X65965000Y-90398061D01*
X65965000Y-90601939D01*
X66004774Y-90801898D01*
X66082795Y-90990256D01*
X66196063Y-91159774D01*
X66340226Y-91303937D01*
X66509744Y-91417205D01*
X66698102Y-91495226D01*
X66898061Y-91535000D01*
X67101939Y-91535000D01*
X67301898Y-91495226D01*
X67490256Y-91417205D01*
X67659774Y-91303937D01*
X67803937Y-91159774D01*
X67917205Y-90990256D01*
X67995226Y-90801898D01*
X68035000Y-90601939D01*
X68035000Y-90398061D01*
X67995226Y-90198102D01*
X67917205Y-90009744D01*
X67803937Y-89840226D01*
X67659774Y-89696063D01*
X67490256Y-89582795D01*
X67301898Y-89504774D01*
X67277897Y-89500000D01*
X67301898Y-89495226D01*
X67490256Y-89417205D01*
X67659774Y-89303937D01*
X67803937Y-89159774D01*
X67917205Y-88990256D01*
X67995226Y-88801898D01*
X68035000Y-88601939D01*
X68035000Y-88398061D01*
X67995226Y-88198102D01*
X67917205Y-88009744D01*
X67803937Y-87840226D01*
X67659774Y-87696063D01*
X67490256Y-87582795D01*
X67301898Y-87504774D01*
X67101939Y-87465000D01*
X66898061Y-87465000D01*
X66698102Y-87504774D01*
X66509744Y-87582795D01*
X66340226Y-87696063D01*
X66196063Y-87840226D01*
X66082795Y-88009744D01*
X66004774Y-88198102D01*
X65965000Y-88398061D01*
X55268150Y-88398061D01*
X55101939Y-88365000D01*
X54898061Y-88365000D01*
X54698102Y-88404774D01*
X54509744Y-88482795D01*
X54340226Y-88596063D01*
X54196063Y-88740226D01*
X54082795Y-88909744D01*
X54004774Y-89098102D01*
X53965000Y-89298061D01*
X43835000Y-89298061D01*
X43795226Y-89098102D01*
X43717205Y-88909744D01*
X43603937Y-88740226D01*
X43459774Y-88596063D01*
X43290256Y-88482795D01*
X43101898Y-88404774D01*
X42901939Y-88365000D01*
X42698061Y-88365000D01*
X42498102Y-88404774D01*
X42309744Y-88482795D01*
X42140226Y-88596063D01*
X41996063Y-88740226D01*
X41882795Y-88909744D01*
X41804774Y-89098102D01*
X41765000Y-89298061D01*
X39761772Y-89298061D01*
X39713711Y-89250000D01*
X39803937Y-89159774D01*
X39917205Y-88990256D01*
X39995226Y-88801898D01*
X40035000Y-88601939D01*
X40035000Y-88398061D01*
X39995226Y-88198102D01*
X39917205Y-88009744D01*
X39803937Y-87840226D01*
X39659774Y-87696063D01*
X39490256Y-87582795D01*
X39301898Y-87504774D01*
X39101939Y-87465000D01*
X38898061Y-87465000D01*
X38698102Y-87504774D01*
X38509744Y-87582795D01*
X38340226Y-87696063D01*
X38196063Y-87840226D01*
X38082795Y-88009744D01*
X38004774Y-88198102D01*
X37965000Y-88398061D01*
X25806000Y-88398061D01*
X25806000Y-84900671D01*
X27842764Y-84886843D01*
X27906414Y-87447030D01*
X27909470Y-87471739D01*
X27917286Y-87495376D01*
X27929565Y-87517034D01*
X27945832Y-87535881D01*
X27965464Y-87551192D01*
X27987705Y-87562378D01*
X28011702Y-87569011D01*
X28034613Y-87570868D01*
X30561113Y-87546244D01*
X30585864Y-87543562D01*
X30609617Y-87536103D01*
X30631458Y-87524154D01*
X30650548Y-87508173D01*
X30666154Y-87488775D01*
X30677676Y-87466705D01*
X30684670Y-87442811D01*
X30686859Y-87421273D01*
X30695192Y-86898061D01*
X39465000Y-86898061D01*
X39465000Y-87101939D01*
X39504774Y-87301898D01*
X39582795Y-87490256D01*
X39696063Y-87659774D01*
X39840226Y-87803937D01*
X40009744Y-87917205D01*
X40198102Y-87995226D01*
X40398061Y-88035000D01*
X40601939Y-88035000D01*
X40801898Y-87995226D01*
X40990256Y-87917205D01*
X41159774Y-87803937D01*
X41303937Y-87659774D01*
X41417205Y-87490256D01*
X41495226Y-87301898D01*
X41535000Y-87101939D01*
X41535000Y-86898061D01*
X50165000Y-86898061D01*
X50165000Y-87101939D01*
X50204774Y-87301898D01*
X50282795Y-87490256D01*
X50396063Y-87659774D01*
X50540226Y-87803937D01*
X50709744Y-87917205D01*
X50898102Y-87995226D01*
X51098061Y-88035000D01*
X51301939Y-88035000D01*
X51501898Y-87995226D01*
X51690256Y-87917205D01*
X51859774Y-87803937D01*
X52003937Y-87659774D01*
X52117205Y-87490256D01*
X52195226Y-87301898D01*
X52235000Y-87101939D01*
X52235000Y-86898061D01*
X55865000Y-86898061D01*
X55865000Y-87101939D01*
X55904774Y-87301898D01*
X55982795Y-87490256D01*
X56096063Y-87659774D01*
X56240226Y-87803937D01*
X56409744Y-87917205D01*
X56598102Y-87995226D01*
X56798061Y-88035000D01*
X57001939Y-88035000D01*
X57201898Y-87995226D01*
X57390256Y-87917205D01*
X57559774Y-87803937D01*
X57703937Y-87659774D01*
X57817205Y-87490256D01*
X57895226Y-87301898D01*
X57935000Y-87101939D01*
X57935000Y-86898061D01*
X57895226Y-86698102D01*
X57895210Y-86698061D01*
X61965000Y-86698061D01*
X61965000Y-86901939D01*
X62004774Y-87101898D01*
X62082795Y-87290256D01*
X62196063Y-87459774D01*
X62340226Y-87603937D01*
X62509744Y-87717205D01*
X62698102Y-87795226D01*
X62898061Y-87835000D01*
X63101939Y-87835000D01*
X63301898Y-87795226D01*
X63490256Y-87717205D01*
X63659774Y-87603937D01*
X63803937Y-87459774D01*
X63917205Y-87290256D01*
X63995226Y-87101898D01*
X64020718Y-86973740D01*
X70143000Y-86973740D01*
X70143000Y-87266260D01*
X70200068Y-87553158D01*
X70312010Y-87823411D01*
X70474525Y-88066632D01*
X70681368Y-88273475D01*
X70855760Y-88390000D01*
X70681368Y-88506525D01*
X70474525Y-88713368D01*
X70312010Y-88956589D01*
X70200068Y-89226842D01*
X70143000Y-89513740D01*
X70143000Y-89806260D01*
X70200068Y-90093158D01*
X70312010Y-90363411D01*
X70474525Y-90606632D01*
X70681368Y-90813475D01*
X70855760Y-90930000D01*
X70681368Y-91046525D01*
X70474525Y-91253368D01*
X70312010Y-91496589D01*
X70200068Y-91766842D01*
X70143000Y-92053740D01*
X70143000Y-92346260D01*
X70200068Y-92633158D01*
X70312010Y-92903411D01*
X70474525Y-93146632D01*
X70681368Y-93353475D01*
X70924589Y-93515990D01*
X71194842Y-93627932D01*
X71481740Y-93685000D01*
X71774260Y-93685000D01*
X72061158Y-93627932D01*
X72331411Y-93515990D01*
X72574632Y-93353475D01*
X72781475Y-93146632D01*
X72943990Y-92903411D01*
X73055932Y-92633158D01*
X73113000Y-92346260D01*
X73113000Y-92053740D01*
X73055932Y-91766842D01*
X72943990Y-91496589D01*
X72781475Y-91253368D01*
X72574632Y-91046525D01*
X72400240Y-90930000D01*
X72574632Y-90813475D01*
X72781475Y-90606632D01*
X72943990Y-90363411D01*
X73055932Y-90093158D01*
X73113000Y-89806260D01*
X73113000Y-89513740D01*
X73055932Y-89226842D01*
X72943990Y-88956589D01*
X72781475Y-88713368D01*
X72574632Y-88506525D01*
X72400240Y-88390000D01*
X72574632Y-88273475D01*
X72781475Y-88066632D01*
X72943990Y-87823411D01*
X73055932Y-87553158D01*
X73113000Y-87266260D01*
X73113000Y-86973740D01*
X73055932Y-86686842D01*
X72943990Y-86416589D01*
X72781475Y-86173368D01*
X72574632Y-85966525D01*
X72392466Y-85844805D01*
X72509355Y-85775178D01*
X72725588Y-85580269D01*
X72899641Y-85346920D01*
X73024825Y-85084099D01*
X73069476Y-84936890D01*
X72948155Y-84707000D01*
X71755000Y-84707000D01*
X71755000Y-84727000D01*
X71501000Y-84727000D01*
X71501000Y-84707000D01*
X70307845Y-84707000D01*
X70186524Y-84936890D01*
X70231175Y-85084099D01*
X70356359Y-85346920D01*
X70530412Y-85580269D01*
X70746645Y-85775178D01*
X70863534Y-85844805D01*
X70681368Y-85966525D01*
X70474525Y-86173368D01*
X70312010Y-86416589D01*
X70200068Y-86686842D01*
X70143000Y-86973740D01*
X64020718Y-86973740D01*
X64035000Y-86901939D01*
X64035000Y-86698061D01*
X63995226Y-86498102D01*
X63917205Y-86309744D01*
X63803937Y-86140226D01*
X63659774Y-85996063D01*
X63490256Y-85882795D01*
X63301898Y-85804774D01*
X63101939Y-85765000D01*
X62898061Y-85765000D01*
X62698102Y-85804774D01*
X62509744Y-85882795D01*
X62340226Y-85996063D01*
X62196063Y-86140226D01*
X62082795Y-86309744D01*
X62004774Y-86498102D01*
X61965000Y-86698061D01*
X57895210Y-86698061D01*
X57817205Y-86509744D01*
X57703937Y-86340226D01*
X57559774Y-86196063D01*
X57390256Y-86082795D01*
X57201898Y-86004774D01*
X57001939Y-85965000D01*
X56798061Y-85965000D01*
X56598102Y-86004774D01*
X56409744Y-86082795D01*
X56240226Y-86196063D01*
X56096063Y-86340226D01*
X55982795Y-86509744D01*
X55904774Y-86698102D01*
X55865000Y-86898061D01*
X52235000Y-86898061D01*
X52195226Y-86698102D01*
X52117205Y-86509744D01*
X52003937Y-86340226D01*
X51859774Y-86196063D01*
X51690256Y-86082795D01*
X51501898Y-86004774D01*
X51301939Y-85965000D01*
X51098061Y-85965000D01*
X50898102Y-86004774D01*
X50709744Y-86082795D01*
X50540226Y-86196063D01*
X50396063Y-86340226D01*
X50282795Y-86509744D01*
X50204774Y-86698102D01*
X50165000Y-86898061D01*
X41535000Y-86898061D01*
X41495226Y-86698102D01*
X41417205Y-86509744D01*
X41303937Y-86340226D01*
X41159774Y-86196063D01*
X40990256Y-86082795D01*
X40801898Y-86004774D01*
X40601939Y-85965000D01*
X40398061Y-85965000D01*
X40198102Y-86004774D01*
X40009744Y-86082795D01*
X39840226Y-86196063D01*
X39696063Y-86340226D01*
X39582795Y-86509744D01*
X39504774Y-86698102D01*
X39465000Y-86898061D01*
X30695192Y-86898061D01*
X30755716Y-83098061D01*
X33765000Y-83098061D01*
X33765000Y-83301939D01*
X33804774Y-83501898D01*
X33882795Y-83690256D01*
X33996063Y-83859774D01*
X34140226Y-84003937D01*
X34309744Y-84117205D01*
X34498102Y-84195226D01*
X34698061Y-84235000D01*
X34901939Y-84235000D01*
X35101898Y-84195226D01*
X35290256Y-84117205D01*
X35459774Y-84003937D01*
X35603937Y-83859774D01*
X35717205Y-83690256D01*
X35719941Y-83683652D01*
X35840226Y-83803937D01*
X36009744Y-83917205D01*
X36198102Y-83995226D01*
X36398061Y-84035000D01*
X36601939Y-84035000D01*
X36801898Y-83995226D01*
X36990256Y-83917205D01*
X37159774Y-83803937D01*
X37303937Y-83659774D01*
X37417205Y-83490256D01*
X37495226Y-83301898D01*
X37535000Y-83101939D01*
X37535000Y-82898061D01*
X37495226Y-82698102D01*
X37417205Y-82509744D01*
X37303937Y-82340226D01*
X37159774Y-82196063D01*
X36990256Y-82082795D01*
X36801898Y-82004774D01*
X36601939Y-81965000D01*
X36398061Y-81965000D01*
X36198102Y-82004774D01*
X36009744Y-82082795D01*
X35840226Y-82196063D01*
X35696063Y-82340226D01*
X35582795Y-82509744D01*
X35580059Y-82516348D01*
X35459774Y-82396063D01*
X35290256Y-82282795D01*
X35101898Y-82204774D01*
X34901939Y-82165000D01*
X34698061Y-82165000D01*
X34498102Y-82204774D01*
X34309744Y-82282795D01*
X34140226Y-82396063D01*
X33996063Y-82540226D01*
X33882795Y-82709744D01*
X33804774Y-82898102D01*
X33765000Y-83098061D01*
X30755716Y-83098061D01*
X30765154Y-82505505D01*
X32135801Y-82480666D01*
X32160529Y-82477777D01*
X32184219Y-82470120D01*
X32205959Y-82457988D01*
X32224915Y-82441848D01*
X32240358Y-82422320D01*
X32251694Y-82400154D01*
X32258488Y-82376202D01*
X32260486Y-82351799D01*
X32244823Y-81298061D01*
X61165000Y-81298061D01*
X61165000Y-81501939D01*
X61204774Y-81701898D01*
X61282795Y-81890256D01*
X61396063Y-82059774D01*
X61540226Y-82203937D01*
X61709744Y-82317205D01*
X61898102Y-82395226D01*
X62098061Y-82435000D01*
X62301939Y-82435000D01*
X62501898Y-82395226D01*
X62690256Y-82317205D01*
X62859774Y-82203937D01*
X63003937Y-82059774D01*
X63117205Y-81890256D01*
X63195226Y-81701898D01*
X63235000Y-81501939D01*
X63235000Y-81298061D01*
X63195226Y-81098102D01*
X63117205Y-80909744D01*
X63003937Y-80740226D01*
X62859774Y-80596063D01*
X62690256Y-80482795D01*
X62501898Y-80404774D01*
X62301939Y-80365000D01*
X62098061Y-80365000D01*
X61898102Y-80404774D01*
X61709744Y-80482795D01*
X61540226Y-80596063D01*
X61396063Y-80740226D01*
X61282795Y-80909744D01*
X61204774Y-81098102D01*
X61165000Y-81298061D01*
X32244823Y-81298061D01*
X32219553Y-79598061D01*
X42165000Y-79598061D01*
X42165000Y-79801939D01*
X42204774Y-80001898D01*
X42282795Y-80190256D01*
X42396063Y-80359774D01*
X42540226Y-80503937D01*
X42709744Y-80617205D01*
X42898102Y-80695226D01*
X43098061Y-80735000D01*
X43301939Y-80735000D01*
X43501898Y-80695226D01*
X43690256Y-80617205D01*
X43859774Y-80503937D01*
X44003937Y-80359774D01*
X44117205Y-80190256D01*
X44195226Y-80001898D01*
X44235000Y-79801939D01*
X44235000Y-79598061D01*
X44195226Y-79398102D01*
X44195210Y-79398061D01*
X47765000Y-79398061D01*
X47765000Y-79601939D01*
X47804774Y-79801898D01*
X47882795Y-79990256D01*
X47996063Y-80159774D01*
X48140226Y-80303937D01*
X48309744Y-80417205D01*
X48498102Y-80495226D01*
X48698061Y-80535000D01*
X48901939Y-80535000D01*
X49101898Y-80495226D01*
X49290256Y-80417205D01*
X49459774Y-80303937D01*
X49603937Y-80159774D01*
X49717205Y-79990256D01*
X49795226Y-79801898D01*
X49835000Y-79601939D01*
X49835000Y-79398061D01*
X53865000Y-79398061D01*
X53865000Y-79601939D01*
X53904774Y-79801898D01*
X53982795Y-79990256D01*
X54096063Y-80159774D01*
X54240226Y-80303937D01*
X54409744Y-80417205D01*
X54598102Y-80495226D01*
X54798061Y-80535000D01*
X55001939Y-80535000D01*
X55201898Y-80495226D01*
X55390256Y-80417205D01*
X55559774Y-80303937D01*
X55703937Y-80159774D01*
X55817205Y-79990256D01*
X55895226Y-79801898D01*
X55935000Y-79601939D01*
X55935000Y-79398061D01*
X55895226Y-79198102D01*
X55817205Y-79009744D01*
X55703937Y-78840226D01*
X55559774Y-78696063D01*
X55390256Y-78582795D01*
X55201898Y-78504774D01*
X55001939Y-78465000D01*
X54798061Y-78465000D01*
X54598102Y-78504774D01*
X54409744Y-78582795D01*
X54240226Y-78696063D01*
X54096063Y-78840226D01*
X53982795Y-79009744D01*
X53904774Y-79198102D01*
X53865000Y-79398061D01*
X49835000Y-79398061D01*
X49795226Y-79198102D01*
X49717205Y-79009744D01*
X49603937Y-78840226D01*
X49459774Y-78696063D01*
X49290256Y-78582795D01*
X49101898Y-78504774D01*
X48901939Y-78465000D01*
X48698061Y-78465000D01*
X48498102Y-78504774D01*
X48309744Y-78582795D01*
X48140226Y-78696063D01*
X47996063Y-78840226D01*
X47882795Y-79009744D01*
X47804774Y-79198102D01*
X47765000Y-79398061D01*
X44195210Y-79398061D01*
X44117205Y-79209744D01*
X44003937Y-79040226D01*
X43859774Y-78896063D01*
X43690256Y-78782795D01*
X43501898Y-78704774D01*
X43301939Y-78665000D01*
X43098061Y-78665000D01*
X42898102Y-78704774D01*
X42709744Y-78782795D01*
X42540226Y-78896063D01*
X42396063Y-79040226D01*
X42282795Y-79209744D01*
X42204774Y-79398102D01*
X42165000Y-79598061D01*
X32219553Y-79598061D01*
X32193486Y-77844425D01*
X32190678Y-77819688D01*
X32183097Y-77795974D01*
X32171036Y-77774194D01*
X32154958Y-77755186D01*
X32135480Y-77739679D01*
X32113352Y-77728271D01*
X32089422Y-77721399D01*
X32067963Y-77719321D01*
X31086419Y-77708010D01*
X31411486Y-77643350D01*
X32309599Y-77271340D01*
X32718590Y-76998061D01*
X39165000Y-76998061D01*
X39165000Y-77201939D01*
X39204774Y-77401898D01*
X39282795Y-77590256D01*
X39396063Y-77759774D01*
X39540226Y-77903937D01*
X39709744Y-78017205D01*
X39898102Y-78095226D01*
X40098061Y-78135000D01*
X40301939Y-78135000D01*
X40487645Y-78098061D01*
X45665000Y-78098061D01*
X45665000Y-78301939D01*
X45704774Y-78501898D01*
X45782795Y-78690256D01*
X45896063Y-78859774D01*
X46040226Y-79003937D01*
X46209744Y-79117205D01*
X46398102Y-79195226D01*
X46598061Y-79235000D01*
X46801939Y-79235000D01*
X47001898Y-79195226D01*
X47190256Y-79117205D01*
X47359774Y-79003937D01*
X47503937Y-78859774D01*
X47617205Y-78690256D01*
X47695226Y-78501898D01*
X47735000Y-78301939D01*
X47735000Y-78098061D01*
X47695226Y-77898102D01*
X47617205Y-77709744D01*
X47503937Y-77540226D01*
X47461772Y-77498061D01*
X51065000Y-77498061D01*
X51065000Y-77701939D01*
X51104774Y-77901898D01*
X51182795Y-78090256D01*
X51296063Y-78259774D01*
X51440226Y-78403937D01*
X51609744Y-78517205D01*
X51798102Y-78595226D01*
X51998061Y-78635000D01*
X52201939Y-78635000D01*
X52401898Y-78595226D01*
X52590256Y-78517205D01*
X52759774Y-78403937D01*
X52903937Y-78259774D01*
X53017205Y-78090256D01*
X53095226Y-77901898D01*
X53135000Y-77701939D01*
X53135000Y-77698061D01*
X56965000Y-77698061D01*
X56965000Y-77901939D01*
X57004774Y-78101898D01*
X57082795Y-78290256D01*
X57196063Y-78459774D01*
X57340226Y-78603937D01*
X57509744Y-78717205D01*
X57698102Y-78795226D01*
X57898061Y-78835000D01*
X58101939Y-78835000D01*
X58301898Y-78795226D01*
X58490256Y-78717205D01*
X58590835Y-78650000D01*
X70139928Y-78650000D01*
X70139928Y-80350000D01*
X70152188Y-80474482D01*
X70188498Y-80594180D01*
X70247463Y-80704494D01*
X70326815Y-80801185D01*
X70423506Y-80880537D01*
X70533820Y-80939502D01*
X70606380Y-80961513D01*
X70474525Y-81093368D01*
X70312010Y-81336589D01*
X70200068Y-81606842D01*
X70143000Y-81893740D01*
X70143000Y-82186260D01*
X70200068Y-82473158D01*
X70312010Y-82743411D01*
X70474525Y-82986632D01*
X70681368Y-83193475D01*
X70863534Y-83315195D01*
X70746645Y-83384822D01*
X70530412Y-83579731D01*
X70356359Y-83813080D01*
X70231175Y-84075901D01*
X70186524Y-84223110D01*
X70307845Y-84453000D01*
X71501000Y-84453000D01*
X71501000Y-84433000D01*
X71755000Y-84433000D01*
X71755000Y-84453000D01*
X72948155Y-84453000D01*
X73069476Y-84223110D01*
X73024825Y-84075901D01*
X72899641Y-83813080D01*
X72725588Y-83579731D01*
X72509355Y-83384822D01*
X72392466Y-83315195D01*
X72574632Y-83193475D01*
X72781475Y-82986632D01*
X72943990Y-82743411D01*
X73055932Y-82473158D01*
X73113000Y-82186260D01*
X73113000Y-81893740D01*
X73055932Y-81606842D01*
X72943990Y-81336589D01*
X72781475Y-81093368D01*
X72649620Y-80961513D01*
X72722180Y-80939502D01*
X72832494Y-80880537D01*
X72929185Y-80801185D01*
X73008537Y-80704494D01*
X73067502Y-80594180D01*
X73103812Y-80474482D01*
X73116072Y-80350000D01*
X73116072Y-78650000D01*
X73103812Y-78525518D01*
X73067502Y-78405820D01*
X73008537Y-78295506D01*
X72929185Y-78198815D01*
X72832494Y-78119463D01*
X72722180Y-78060498D01*
X72602482Y-78024188D01*
X72478000Y-78011928D01*
X70778000Y-78011928D01*
X70653518Y-78024188D01*
X70533820Y-78060498D01*
X70423506Y-78119463D01*
X70326815Y-78198815D01*
X70247463Y-78295506D01*
X70188498Y-78405820D01*
X70152188Y-78525518D01*
X70139928Y-78650000D01*
X58590835Y-78650000D01*
X58659774Y-78603937D01*
X58803937Y-78459774D01*
X58917205Y-78290256D01*
X58995226Y-78101898D01*
X59035000Y-77901939D01*
X59035000Y-77698061D01*
X58995226Y-77498102D01*
X58917205Y-77309744D01*
X58803937Y-77140226D01*
X58659774Y-76996063D01*
X58490256Y-76882795D01*
X58301898Y-76804774D01*
X58101939Y-76765000D01*
X57898061Y-76765000D01*
X57698102Y-76804774D01*
X57509744Y-76882795D01*
X57340226Y-76996063D01*
X57196063Y-77140226D01*
X57082795Y-77309744D01*
X57004774Y-77498102D01*
X56965000Y-77698061D01*
X53135000Y-77698061D01*
X53135000Y-77498061D01*
X53095226Y-77298102D01*
X53017205Y-77109744D01*
X52903937Y-76940226D01*
X52759774Y-76796063D01*
X52590256Y-76682795D01*
X52401898Y-76604774D01*
X52201939Y-76565000D01*
X51998061Y-76565000D01*
X51798102Y-76604774D01*
X51609744Y-76682795D01*
X51440226Y-76796063D01*
X51296063Y-76940226D01*
X51182795Y-77109744D01*
X51104774Y-77298102D01*
X51065000Y-77498061D01*
X47461772Y-77498061D01*
X47359774Y-77396063D01*
X47190256Y-77282795D01*
X47001898Y-77204774D01*
X46801939Y-77165000D01*
X46598061Y-77165000D01*
X46398102Y-77204774D01*
X46209744Y-77282795D01*
X46040226Y-77396063D01*
X45896063Y-77540226D01*
X45782795Y-77709744D01*
X45704774Y-77898102D01*
X45665000Y-78098061D01*
X40487645Y-78098061D01*
X40501898Y-78095226D01*
X40690256Y-78017205D01*
X40859774Y-77903937D01*
X41003937Y-77759774D01*
X41117205Y-77590256D01*
X41195226Y-77401898D01*
X41235000Y-77201939D01*
X41235000Y-76998061D01*
X41195226Y-76798102D01*
X41117205Y-76609744D01*
X41003937Y-76440226D01*
X40859774Y-76296063D01*
X40690256Y-76182795D01*
X40501898Y-76104774D01*
X40301939Y-76065000D01*
X40098061Y-76065000D01*
X39898102Y-76104774D01*
X39709744Y-76182795D01*
X39540226Y-76296063D01*
X39396063Y-76440226D01*
X39282795Y-76609744D01*
X39204774Y-76798102D01*
X39165000Y-76998061D01*
X32718590Y-76998061D01*
X33117879Y-76731265D01*
X33805265Y-76043879D01*
X34345340Y-75235599D01*
X34717350Y-74337486D01*
X34907000Y-73384055D01*
X34907000Y-72411945D01*
X34717350Y-71458514D01*
X34650889Y-71298061D01*
X42065000Y-71298061D01*
X42065000Y-71501939D01*
X42104774Y-71701898D01*
X42182795Y-71890256D01*
X42296063Y-72059774D01*
X42440226Y-72203937D01*
X42609744Y-72317205D01*
X42798102Y-72395226D01*
X42998061Y-72435000D01*
X43201939Y-72435000D01*
X43401898Y-72395226D01*
X43590256Y-72317205D01*
X43759774Y-72203937D01*
X43903937Y-72059774D01*
X44017205Y-71890256D01*
X44095226Y-71701898D01*
X44095989Y-71698061D01*
X47765000Y-71698061D01*
X47765000Y-71901939D01*
X47804774Y-72101898D01*
X47882795Y-72290256D01*
X47996063Y-72459774D01*
X48140226Y-72603937D01*
X48309744Y-72717205D01*
X48498102Y-72795226D01*
X48698061Y-72835000D01*
X48901939Y-72835000D01*
X49101898Y-72795226D01*
X49290256Y-72717205D01*
X49459774Y-72603937D01*
X49603937Y-72459774D01*
X49717205Y-72290256D01*
X49795226Y-72101898D01*
X49835000Y-71901939D01*
X49835000Y-71698061D01*
X53565000Y-71698061D01*
X53565000Y-71901939D01*
X53604774Y-72101898D01*
X53682795Y-72290256D01*
X53796063Y-72459774D01*
X53940226Y-72603937D01*
X54109744Y-72717205D01*
X54298102Y-72795226D01*
X54498061Y-72835000D01*
X54701939Y-72835000D01*
X54901898Y-72795226D01*
X55090256Y-72717205D01*
X55259774Y-72603937D01*
X55403937Y-72459774D01*
X55517205Y-72290256D01*
X55595226Y-72101898D01*
X55595989Y-72098061D01*
X59365000Y-72098061D01*
X59365000Y-72301939D01*
X59404774Y-72501898D01*
X59482795Y-72690256D01*
X59596063Y-72859774D01*
X59740226Y-73003937D01*
X59909744Y-73117205D01*
X60098102Y-73195226D01*
X60298061Y-73235000D01*
X60501939Y-73235000D01*
X60701898Y-73195226D01*
X60890256Y-73117205D01*
X61059774Y-73003937D01*
X61203937Y-72859774D01*
X61317205Y-72690256D01*
X61395226Y-72501898D01*
X61435000Y-72301939D01*
X61435000Y-72098061D01*
X61395226Y-71898102D01*
X61317205Y-71709744D01*
X61203937Y-71540226D01*
X61059774Y-71396063D01*
X60890256Y-71282795D01*
X60701898Y-71204774D01*
X60501939Y-71165000D01*
X60298061Y-71165000D01*
X60098102Y-71204774D01*
X59909744Y-71282795D01*
X59740226Y-71396063D01*
X59596063Y-71540226D01*
X59482795Y-71709744D01*
X59404774Y-71898102D01*
X59365000Y-72098061D01*
X55595989Y-72098061D01*
X55635000Y-71901939D01*
X55635000Y-71698061D01*
X55595226Y-71498102D01*
X55517205Y-71309744D01*
X55403937Y-71140226D01*
X55259774Y-70996063D01*
X55090256Y-70882795D01*
X54901898Y-70804774D01*
X54701939Y-70765000D01*
X54498061Y-70765000D01*
X54298102Y-70804774D01*
X54109744Y-70882795D01*
X53940226Y-70996063D01*
X53796063Y-71140226D01*
X53682795Y-71309744D01*
X53604774Y-71498102D01*
X53565000Y-71698061D01*
X49835000Y-71698061D01*
X49795226Y-71498102D01*
X49717205Y-71309744D01*
X49603937Y-71140226D01*
X49459774Y-70996063D01*
X49290256Y-70882795D01*
X49101898Y-70804774D01*
X48901939Y-70765000D01*
X48698061Y-70765000D01*
X48498102Y-70804774D01*
X48309744Y-70882795D01*
X48140226Y-70996063D01*
X47996063Y-71140226D01*
X47882795Y-71309744D01*
X47804774Y-71498102D01*
X47765000Y-71698061D01*
X44095989Y-71698061D01*
X44135000Y-71501939D01*
X44135000Y-71298061D01*
X44095226Y-71098102D01*
X44017205Y-70909744D01*
X43903937Y-70740226D01*
X43759774Y-70596063D01*
X43590256Y-70482795D01*
X43401898Y-70404774D01*
X43201939Y-70365000D01*
X42998061Y-70365000D01*
X42798102Y-70404774D01*
X42609744Y-70482795D01*
X42440226Y-70596063D01*
X42296063Y-70740226D01*
X42182795Y-70909744D01*
X42104774Y-71098102D01*
X42065000Y-71298061D01*
X34650889Y-71298061D01*
X34345340Y-70560401D01*
X33805265Y-69752121D01*
X33117879Y-69064735D01*
X32619904Y-68731999D01*
X67202093Y-68732001D01*
%TD*%
M02*
