%TF.GenerationSoftware,KiCad,Pcbnew,(5.1.6)-1*%
%TF.CreationDate,2020-07-28T23:07:53-07:00*%
%TF.ProjectId,Atmel,41746d65-6c2e-46b6-9963-61645f706362,rev?*%
%TF.SameCoordinates,Original*%
%TF.FileFunction,Copper,L2,Inr*%
%TF.FilePolarity,Positive*%
%FSLAX46Y46*%
G04 Gerber Fmt 4.6, Leading zero omitted, Abs format (unit mm)*
G04 Created by KiCad (PCBNEW (5.1.6)-1) date 2020-07-28 23:07:53*
%MOMM*%
%LPD*%
G01*
G04 APERTURE LIST*
%TA.AperFunction,ViaPad*%
%ADD10C,8.600000*%
%TD*%
%TA.AperFunction,ViaPad*%
%ADD11C,0.900000*%
%TD*%
%TA.AperFunction,ViaPad*%
%ADD12R,1.700000X1.700000*%
%TD*%
%TA.AperFunction,ViaPad*%
%ADD13O,1.700000X1.700000*%
%TD*%
%TA.AperFunction,ViaPad*%
%ADD14C,0.800000*%
%TD*%
%TA.AperFunction,Conductor*%
%ADD15C,0.250000*%
%TD*%
%TA.AperFunction,Conductor*%
%ADD16C,0.254000*%
%TD*%
G04 APERTURE END LIST*
D10*
%TO.N,GND*%
%TO.C,H4*%
X69850000Y-113030000D03*
D11*
X73075000Y-113030000D03*
X72130419Y-115310419D03*
X69850000Y-116255000D03*
X67569581Y-115310419D03*
X66625000Y-113030000D03*
X67569581Y-110749581D03*
X69850000Y-109805000D03*
X72130419Y-110749581D03*
%TD*%
%TO.N,GND*%
%TO.C,H1*%
X32252419Y-70617581D03*
X29972000Y-69673000D03*
X27691581Y-70617581D03*
X26747000Y-72898000D03*
X27691581Y-75178419D03*
X29972000Y-76123000D03*
X32252419Y-75178419D03*
X33197000Y-72898000D03*
D10*
X29972000Y-72898000D03*
%TD*%
%TO.N,GND*%
%TO.C,H2*%
X69850000Y-72898000D03*
D11*
X73075000Y-72898000D03*
X72130419Y-75178419D03*
X69850000Y-76123000D03*
X67569581Y-75178419D03*
X66625000Y-72898000D03*
X67569581Y-70617581D03*
X69850000Y-69673000D03*
X72130419Y-70617581D03*
%TD*%
%TO.N,GND*%
%TO.C,H3*%
X32246838Y-110744000D03*
X29966419Y-109799419D03*
X27686000Y-110744000D03*
X26741419Y-113024419D03*
X27686000Y-115304838D03*
X29966419Y-116249419D03*
X32246838Y-115304838D03*
X33191419Y-113024419D03*
D10*
X29966419Y-113024419D03*
%TD*%
D12*
%TO.N,MISO*%
%TO.C,J1*%
X31000000Y-103750000D03*
D13*
%TO.N,+5V*%
X28460000Y-103750000D03*
%TO.N,SCK*%
X31000000Y-101210000D03*
%TO.N,MOSI*%
X28460000Y-101210000D03*
%TO.N,Reset*%
X31000000Y-98670000D03*
%TO.N,GND*%
X28460000Y-98670000D03*
%TD*%
D12*
%TO.N,GND*%
%TO.C,J2*%
X71628000Y-79500000D03*
D13*
%TO.N,Net-(J2-Pad2)*%
X71628000Y-82040000D03*
%TO.N,+5V*%
X71628000Y-84580000D03*
%TO.N,TXD*%
X71628000Y-87120000D03*
%TO.N,RXD*%
X71628000Y-89660000D03*
%TO.N,Net-(J2-Pad6)*%
X71628000Y-92200000D03*
%TD*%
D14*
%TO.N,Net-(J3-Pad2)*%
X51000000Y-109000000D03*
%TO.N,Net-(C21-Pad1)*%
X47000000Y-110000000D03*
%TO.N,TXD*%
X39000000Y-88500000D03*
%TO.N,RXD*%
X39000000Y-90000000D03*
%TO.N,Reset*%
X33500000Y-98000000D03*
X33500000Y-89500000D03*
X36500000Y-83000000D03*
%TO.N,Net-(R3-Pad2)*%
X37750000Y-109250000D03*
%TO.N,Net-(R2-Pad2)*%
X39500000Y-113500000D03*
%TO.N,GND*%
X26500000Y-83750000D03*
X31000000Y-79000000D03*
%TO.N,+5V*%
X30500000Y-88700000D03*
X29800000Y-92800000D03*
%TO.N,GND*%
X28200000Y-96300000D03*
X34800000Y-83200000D03*
%TO.N,+5V*%
X41800000Y-73200000D03*
%TO.N,GND*%
X43100000Y-71400000D03*
X40200000Y-77100000D03*
X43200000Y-79700000D03*
X48800000Y-71800000D03*
%TO.N,+5V*%
X45900000Y-77000000D03*
%TO.N,GND*%
X54600000Y-71800000D03*
X60400000Y-72200000D03*
%TO.N,+5V*%
X57200000Y-77000000D03*
X56700000Y-78100000D03*
%TO.N,GND*%
X62200000Y-81400000D03*
X54900000Y-79500000D03*
X52100000Y-77600000D03*
X48800000Y-79500000D03*
X46700000Y-78200000D03*
X40500000Y-87000000D03*
X51200000Y-87000000D03*
%TO.N,+5V*%
X46300000Y-87300000D03*
X42497750Y-85502250D03*
X51600000Y-83300000D03*
%TO.N,GND*%
X56900000Y-87000000D03*
%TO.N,+5V*%
X45900000Y-94500000D03*
%TO.N,GND*%
X45100000Y-96700000D03*
X45400000Y-99800000D03*
%TO.N,+5V*%
X42800000Y-98000000D03*
%TO.N,GND*%
X55000000Y-89400000D03*
X63000000Y-86800000D03*
X60600000Y-89600000D03*
%TO.N,+5V*%
X40800000Y-102000000D03*
%TO.N,GND*%
X44900000Y-105700000D03*
X51000000Y-105700000D03*
X56800000Y-105500000D03*
X60600000Y-104000000D03*
%TO.N,+5V*%
X51700000Y-103500000D03*
X49300000Y-116400000D03*
%TO.N,GND*%
X43600000Y-113500000D03*
%TO.N,+5V*%
X51400000Y-116100000D03*
X58200000Y-87500000D03*
%TO.N,GND*%
X58000000Y-77800000D03*
X50700000Y-96600000D03*
X51500000Y-97400000D03*
%TO.N,+5V*%
X51700000Y-95000000D03*
%TO.N,GND*%
X54600000Y-98500000D03*
%TO.N,+5V*%
X60100000Y-94400000D03*
%TO.N,GND*%
X60700000Y-95500000D03*
X60800000Y-98900000D03*
X64300000Y-95900000D03*
X66100000Y-95900000D03*
X70000000Y-95900000D03*
X71800000Y-95900000D03*
X64600000Y-108400000D03*
X66300000Y-108300000D03*
X73300000Y-107100000D03*
X68800000Y-106800000D03*
%TO.N,+5V*%
X46300000Y-105000000D03*
X35700000Y-78100000D03*
%TO.N,GND*%
X57000000Y-107600000D03*
X40800000Y-110200000D03*
X46500000Y-112200000D03*
X42800000Y-89400000D03*
%TO.N,+5V*%
X58000000Y-106300000D03*
X44300000Y-110800000D03*
%TO.N,GND*%
X42900000Y-110900000D03*
%TO.N,Net-(R4-Pad2)*%
X41900000Y-111700000D03*
%TO.N,Net-(C21-Pad1)*%
X54500000Y-110500000D03*
%TO.N,TXD*%
X36500000Y-104000000D03*
X67000000Y-88500000D03*
%TO.N,RXD*%
X67000000Y-90500000D03*
%TO.N,Net-(J3-Pad2)*%
X62500000Y-102000000D03*
%TO.N,Net-(J3-Pad3)*%
X49500000Y-109000000D03*
X61000000Y-100500000D03*
%TO.N,Net-(R2-Pad2)*%
X40000000Y-106500000D03*
%TO.N,Net-(R3-Pad2)*%
X41750000Y-113750000D03*
%TO.N,Net-(R4-Pad2)*%
X48500000Y-111800000D03*
%TD*%
D15*
%TO.N,GND*%
X26500000Y-83750000D02*
X26500000Y-85000000D01*
X31000000Y-79000000D02*
X32000000Y-79000000D01*
X32000000Y-79000000D02*
X32250000Y-79000000D01*
%TD*%
D16*
%TO.N,GND*%
G36*
X67162400Y-68732001D02*
G01*
X67151560Y-68737606D01*
X67038946Y-68812851D01*
X66546787Y-69415182D01*
X69850000Y-72718395D01*
X69864143Y-72704253D01*
X70043748Y-72883858D01*
X70029605Y-72898000D01*
X73332818Y-76201213D01*
X73935149Y-75709054D01*
X74016482Y-75561765D01*
X74022237Y-110354464D01*
X74010394Y-110331560D01*
X73935149Y-110218946D01*
X73332818Y-109726787D01*
X70029605Y-113030000D01*
X70043748Y-113044143D01*
X69864143Y-113223748D01*
X69850000Y-113209605D01*
X66546787Y-116512818D01*
X67038946Y-117115149D01*
X67185361Y-117195999D01*
X49967711Y-117196000D01*
X50103937Y-117059774D01*
X50217205Y-116890256D01*
X50295226Y-116701898D01*
X50335000Y-116501939D01*
X50335000Y-116298061D01*
X50295226Y-116098102D01*
X50253788Y-115998061D01*
X50365000Y-115998061D01*
X50365000Y-116201939D01*
X50404774Y-116401898D01*
X50482795Y-116590256D01*
X50596063Y-116759774D01*
X50740226Y-116903937D01*
X50909744Y-117017205D01*
X51098102Y-117095226D01*
X51298061Y-117135000D01*
X51501939Y-117135000D01*
X51701898Y-117095226D01*
X51890256Y-117017205D01*
X52059774Y-116903937D01*
X52203937Y-116759774D01*
X52317205Y-116590256D01*
X52395226Y-116401898D01*
X52435000Y-116201939D01*
X52435000Y-115998061D01*
X52395226Y-115798102D01*
X52317205Y-115609744D01*
X52203937Y-115440226D01*
X52059774Y-115296063D01*
X51890256Y-115182795D01*
X51701898Y-115104774D01*
X51501939Y-115065000D01*
X51298061Y-115065000D01*
X51098102Y-115104774D01*
X50909744Y-115182795D01*
X50740226Y-115296063D01*
X50596063Y-115440226D01*
X50482795Y-115609744D01*
X50404774Y-115798102D01*
X50365000Y-115998061D01*
X50253788Y-115998061D01*
X50217205Y-115909744D01*
X50103937Y-115740226D01*
X49959774Y-115596063D01*
X49790256Y-115482795D01*
X49601898Y-115404774D01*
X49401939Y-115365000D01*
X49198061Y-115365000D01*
X48998102Y-115404774D01*
X48809744Y-115482795D01*
X48640226Y-115596063D01*
X48496063Y-115740226D01*
X48382795Y-115909744D01*
X48304774Y-116098102D01*
X48265000Y-116298061D01*
X48265000Y-116501939D01*
X48304774Y-116701898D01*
X48382795Y-116890256D01*
X48496063Y-117059774D01*
X48632289Y-117196000D01*
X32643222Y-117196001D01*
X32664859Y-117184813D01*
X32777473Y-117109568D01*
X33269632Y-116507237D01*
X29966419Y-113204024D01*
X29952277Y-113218167D01*
X29772672Y-113038562D01*
X29786814Y-113024419D01*
X30146024Y-113024419D01*
X33449237Y-116327632D01*
X34051568Y-115835473D01*
X34521482Y-114984486D01*
X34816348Y-114058176D01*
X34890478Y-113398061D01*
X38465000Y-113398061D01*
X38465000Y-113601939D01*
X38504774Y-113801898D01*
X38582795Y-113990256D01*
X38696063Y-114159774D01*
X38840226Y-114303937D01*
X39009744Y-114417205D01*
X39198102Y-114495226D01*
X39398061Y-114535000D01*
X39601939Y-114535000D01*
X39801898Y-114495226D01*
X39990256Y-114417205D01*
X40159774Y-114303937D01*
X40303937Y-114159774D01*
X40417205Y-113990256D01*
X40495226Y-113801898D01*
X40525825Y-113648061D01*
X40715000Y-113648061D01*
X40715000Y-113851939D01*
X40754774Y-114051898D01*
X40832795Y-114240256D01*
X40946063Y-114409774D01*
X41090226Y-114553937D01*
X41259744Y-114667205D01*
X41448102Y-114745226D01*
X41648061Y-114785000D01*
X41851939Y-114785000D01*
X42051898Y-114745226D01*
X42240256Y-114667205D01*
X42409774Y-114553937D01*
X42553937Y-114409774D01*
X42667205Y-114240256D01*
X42745226Y-114051898D01*
X42785000Y-113851939D01*
X42785000Y-113648061D01*
X42745226Y-113448102D01*
X42667205Y-113259744D01*
X42553937Y-113090226D01*
X42425992Y-112962281D01*
X64891586Y-112962281D01*
X64973649Y-113930921D01*
X65243107Y-114864938D01*
X65689606Y-115728440D01*
X65764851Y-115841054D01*
X66367182Y-116333213D01*
X69670395Y-113030000D01*
X66367182Y-109726787D01*
X65764851Y-110218946D01*
X65294937Y-111069933D01*
X65000071Y-111996243D01*
X64891586Y-112962281D01*
X42425992Y-112962281D01*
X42409774Y-112946063D01*
X42240256Y-112832795D01*
X42051898Y-112754774D01*
X41952487Y-112735000D01*
X42001939Y-112735000D01*
X42201898Y-112695226D01*
X42390256Y-112617205D01*
X42559774Y-112503937D01*
X42703937Y-112359774D01*
X42817205Y-112190256D01*
X42895226Y-112001898D01*
X42935000Y-111801939D01*
X42935000Y-111598061D01*
X42895226Y-111398102D01*
X42817205Y-111209744D01*
X42703937Y-111040226D01*
X42559774Y-110896063D01*
X42390256Y-110782795D01*
X42201898Y-110704774D01*
X42168150Y-110698061D01*
X43265000Y-110698061D01*
X43265000Y-110901939D01*
X43304774Y-111101898D01*
X43382795Y-111290256D01*
X43496063Y-111459774D01*
X43640226Y-111603937D01*
X43809744Y-111717205D01*
X43998102Y-111795226D01*
X44198061Y-111835000D01*
X44401939Y-111835000D01*
X44601898Y-111795226D01*
X44790256Y-111717205D01*
X44818907Y-111698061D01*
X47465000Y-111698061D01*
X47465000Y-111901939D01*
X47504774Y-112101898D01*
X47582795Y-112290256D01*
X47696063Y-112459774D01*
X47840226Y-112603937D01*
X48009744Y-112717205D01*
X48198102Y-112795226D01*
X48398061Y-112835000D01*
X48601939Y-112835000D01*
X48801898Y-112795226D01*
X48990256Y-112717205D01*
X49159774Y-112603937D01*
X49303937Y-112459774D01*
X49417205Y-112290256D01*
X49495226Y-112101898D01*
X49535000Y-111901939D01*
X49535000Y-111698061D01*
X49495226Y-111498102D01*
X49417205Y-111309744D01*
X49303937Y-111140226D01*
X49159774Y-110996063D01*
X48990256Y-110882795D01*
X48801898Y-110804774D01*
X48601939Y-110765000D01*
X48398061Y-110765000D01*
X48198102Y-110804774D01*
X48009744Y-110882795D01*
X47840226Y-110996063D01*
X47696063Y-111140226D01*
X47582795Y-111309744D01*
X47504774Y-111498102D01*
X47465000Y-111698061D01*
X44818907Y-111698061D01*
X44959774Y-111603937D01*
X45103937Y-111459774D01*
X45217205Y-111290256D01*
X45295226Y-111101898D01*
X45335000Y-110901939D01*
X45335000Y-110698061D01*
X45295226Y-110498102D01*
X45217205Y-110309744D01*
X45103937Y-110140226D01*
X44959774Y-109996063D01*
X44813104Y-109898061D01*
X45965000Y-109898061D01*
X45965000Y-110101939D01*
X46004774Y-110301898D01*
X46082795Y-110490256D01*
X46196063Y-110659774D01*
X46340226Y-110803937D01*
X46509744Y-110917205D01*
X46698102Y-110995226D01*
X46898061Y-111035000D01*
X47101939Y-111035000D01*
X47301898Y-110995226D01*
X47490256Y-110917205D01*
X47659774Y-110803937D01*
X47803937Y-110659774D01*
X47917205Y-110490256D01*
X47955393Y-110398061D01*
X53465000Y-110398061D01*
X53465000Y-110601939D01*
X53504774Y-110801898D01*
X53582795Y-110990256D01*
X53696063Y-111159774D01*
X53840226Y-111303937D01*
X54009744Y-111417205D01*
X54198102Y-111495226D01*
X54398061Y-111535000D01*
X54601939Y-111535000D01*
X54801898Y-111495226D01*
X54990256Y-111417205D01*
X55159774Y-111303937D01*
X55303937Y-111159774D01*
X55417205Y-110990256D01*
X55495226Y-110801898D01*
X55535000Y-110601939D01*
X55535000Y-110398061D01*
X55495226Y-110198102D01*
X55417205Y-110009744D01*
X55303937Y-109840226D01*
X55159774Y-109696063D01*
X54990256Y-109582795D01*
X54904280Y-109547182D01*
X66546787Y-109547182D01*
X69850000Y-112850395D01*
X73153213Y-109547182D01*
X72661054Y-108944851D01*
X71810067Y-108474937D01*
X70883757Y-108180071D01*
X69917719Y-108071586D01*
X68949079Y-108153649D01*
X68015062Y-108423107D01*
X67151560Y-108869606D01*
X67038946Y-108944851D01*
X66546787Y-109547182D01*
X54904280Y-109547182D01*
X54801898Y-109504774D01*
X54601939Y-109465000D01*
X54398061Y-109465000D01*
X54198102Y-109504774D01*
X54009744Y-109582795D01*
X53840226Y-109696063D01*
X53696063Y-109840226D01*
X53582795Y-110009744D01*
X53504774Y-110198102D01*
X53465000Y-110398061D01*
X47955393Y-110398061D01*
X47995226Y-110301898D01*
X48035000Y-110101939D01*
X48035000Y-109898061D01*
X47995226Y-109698102D01*
X47917205Y-109509744D01*
X47803937Y-109340226D01*
X47659774Y-109196063D01*
X47490256Y-109082795D01*
X47301898Y-109004774D01*
X47101939Y-108965000D01*
X46898061Y-108965000D01*
X46698102Y-109004774D01*
X46509744Y-109082795D01*
X46340226Y-109196063D01*
X46196063Y-109340226D01*
X46082795Y-109509744D01*
X46004774Y-109698102D01*
X45965000Y-109898061D01*
X44813104Y-109898061D01*
X44790256Y-109882795D01*
X44601898Y-109804774D01*
X44401939Y-109765000D01*
X44198061Y-109765000D01*
X43998102Y-109804774D01*
X43809744Y-109882795D01*
X43640226Y-109996063D01*
X43496063Y-110140226D01*
X43382795Y-110309744D01*
X43304774Y-110498102D01*
X43265000Y-110698061D01*
X42168150Y-110698061D01*
X42001939Y-110665000D01*
X41798061Y-110665000D01*
X41598102Y-110704774D01*
X41409744Y-110782795D01*
X41240226Y-110896063D01*
X41096063Y-111040226D01*
X40982795Y-111209744D01*
X40904774Y-111398102D01*
X40865000Y-111598061D01*
X40865000Y-111801939D01*
X40904774Y-112001898D01*
X40982795Y-112190256D01*
X41096063Y-112359774D01*
X41240226Y-112503937D01*
X41409744Y-112617205D01*
X41598102Y-112695226D01*
X41697513Y-112715000D01*
X41648061Y-112715000D01*
X41448102Y-112754774D01*
X41259744Y-112832795D01*
X41090226Y-112946063D01*
X40946063Y-113090226D01*
X40832795Y-113259744D01*
X40754774Y-113448102D01*
X40715000Y-113648061D01*
X40525825Y-113648061D01*
X40535000Y-113601939D01*
X40535000Y-113398061D01*
X40495226Y-113198102D01*
X40417205Y-113009744D01*
X40303937Y-112840226D01*
X40159774Y-112696063D01*
X39990256Y-112582795D01*
X39801898Y-112504774D01*
X39601939Y-112465000D01*
X39398061Y-112465000D01*
X39198102Y-112504774D01*
X39009744Y-112582795D01*
X38840226Y-112696063D01*
X38696063Y-112840226D01*
X38582795Y-113009744D01*
X38504774Y-113198102D01*
X38465000Y-113398061D01*
X34890478Y-113398061D01*
X34924833Y-113092138D01*
X34842770Y-112123498D01*
X34573312Y-111189481D01*
X34126813Y-110325979D01*
X34051568Y-110213365D01*
X33449237Y-109721206D01*
X30146024Y-113024419D01*
X29786814Y-113024419D01*
X26483601Y-109721206D01*
X25881270Y-110213365D01*
X25806000Y-110349675D01*
X25806000Y-109541601D01*
X26663206Y-109541601D01*
X29966419Y-112844814D01*
X33269632Y-109541601D01*
X32948075Y-109148061D01*
X36715000Y-109148061D01*
X36715000Y-109351939D01*
X36754774Y-109551898D01*
X36832795Y-109740256D01*
X36946063Y-109909774D01*
X37090226Y-110053937D01*
X37259744Y-110167205D01*
X37448102Y-110245226D01*
X37648061Y-110285000D01*
X37851939Y-110285000D01*
X38051898Y-110245226D01*
X38240256Y-110167205D01*
X38409774Y-110053937D01*
X38553937Y-109909774D01*
X38667205Y-109740256D01*
X38745226Y-109551898D01*
X38785000Y-109351939D01*
X38785000Y-109148061D01*
X38745226Y-108948102D01*
X38724499Y-108898061D01*
X48465000Y-108898061D01*
X48465000Y-109101939D01*
X48504774Y-109301898D01*
X48582795Y-109490256D01*
X48696063Y-109659774D01*
X48840226Y-109803937D01*
X49009744Y-109917205D01*
X49198102Y-109995226D01*
X49398061Y-110035000D01*
X49601939Y-110035000D01*
X49801898Y-109995226D01*
X49990256Y-109917205D01*
X50159774Y-109803937D01*
X50250000Y-109713711D01*
X50340226Y-109803937D01*
X50509744Y-109917205D01*
X50698102Y-109995226D01*
X50898061Y-110035000D01*
X51101939Y-110035000D01*
X51301898Y-109995226D01*
X51490256Y-109917205D01*
X51659774Y-109803937D01*
X51803937Y-109659774D01*
X51917205Y-109490256D01*
X51995226Y-109301898D01*
X52035000Y-109101939D01*
X52035000Y-108898061D01*
X51995226Y-108698102D01*
X51917205Y-108509744D01*
X51803937Y-108340226D01*
X51659774Y-108196063D01*
X51490256Y-108082795D01*
X51301898Y-108004774D01*
X51101939Y-107965000D01*
X50898061Y-107965000D01*
X50698102Y-108004774D01*
X50509744Y-108082795D01*
X50340226Y-108196063D01*
X50250000Y-108286289D01*
X50159774Y-108196063D01*
X49990256Y-108082795D01*
X49801898Y-108004774D01*
X49601939Y-107965000D01*
X49398061Y-107965000D01*
X49198102Y-108004774D01*
X49009744Y-108082795D01*
X48840226Y-108196063D01*
X48696063Y-108340226D01*
X48582795Y-108509744D01*
X48504774Y-108698102D01*
X48465000Y-108898061D01*
X38724499Y-108898061D01*
X38667205Y-108759744D01*
X38553937Y-108590226D01*
X38409774Y-108446063D01*
X38240256Y-108332795D01*
X38051898Y-108254774D01*
X37851939Y-108215000D01*
X37648061Y-108215000D01*
X37448102Y-108254774D01*
X37259744Y-108332795D01*
X37090226Y-108446063D01*
X36946063Y-108590226D01*
X36832795Y-108759744D01*
X36754774Y-108948102D01*
X36715000Y-109148061D01*
X32948075Y-109148061D01*
X32777473Y-108939270D01*
X31926486Y-108469356D01*
X31000176Y-108174490D01*
X30034138Y-108066005D01*
X29065498Y-108148068D01*
X28131481Y-108417526D01*
X27267979Y-108864025D01*
X27155365Y-108939270D01*
X26663206Y-109541601D01*
X25806000Y-109541601D01*
X25806000Y-106398061D01*
X38965000Y-106398061D01*
X38965000Y-106601939D01*
X39004774Y-106801898D01*
X39082795Y-106990256D01*
X39196063Y-107159774D01*
X39340226Y-107303937D01*
X39509744Y-107417205D01*
X39698102Y-107495226D01*
X39898061Y-107535000D01*
X40101939Y-107535000D01*
X40301898Y-107495226D01*
X40490256Y-107417205D01*
X40659774Y-107303937D01*
X40803937Y-107159774D01*
X40917205Y-106990256D01*
X40995226Y-106801898D01*
X41035000Y-106601939D01*
X41035000Y-106398061D01*
X40995226Y-106198102D01*
X40995210Y-106198061D01*
X56965000Y-106198061D01*
X56965000Y-106401939D01*
X57004774Y-106601898D01*
X57082795Y-106790256D01*
X57196063Y-106959774D01*
X57340226Y-107103937D01*
X57509744Y-107217205D01*
X57698102Y-107295226D01*
X57898061Y-107335000D01*
X58101939Y-107335000D01*
X58301898Y-107295226D01*
X58490256Y-107217205D01*
X58659774Y-107103937D01*
X58803937Y-106959774D01*
X58917205Y-106790256D01*
X58995226Y-106601898D01*
X59035000Y-106401939D01*
X59035000Y-106198061D01*
X58995226Y-105998102D01*
X58917205Y-105809744D01*
X58803937Y-105640226D01*
X58659774Y-105496063D01*
X58490256Y-105382795D01*
X58301898Y-105304774D01*
X58101939Y-105265000D01*
X57898061Y-105265000D01*
X57698102Y-105304774D01*
X57509744Y-105382795D01*
X57340226Y-105496063D01*
X57196063Y-105640226D01*
X57082795Y-105809744D01*
X57004774Y-105998102D01*
X56965000Y-106198061D01*
X40995210Y-106198061D01*
X40917205Y-106009744D01*
X40803937Y-105840226D01*
X40659774Y-105696063D01*
X40490256Y-105582795D01*
X40301898Y-105504774D01*
X40101939Y-105465000D01*
X39898061Y-105465000D01*
X39698102Y-105504774D01*
X39509744Y-105582795D01*
X39340226Y-105696063D01*
X39196063Y-105840226D01*
X39082795Y-106009744D01*
X39004774Y-106198102D01*
X38965000Y-106398061D01*
X25806000Y-106398061D01*
X25806000Y-101063740D01*
X26975000Y-101063740D01*
X26975000Y-101356260D01*
X27032068Y-101643158D01*
X27144010Y-101913411D01*
X27306525Y-102156632D01*
X27513368Y-102363475D01*
X27687760Y-102480000D01*
X27513368Y-102596525D01*
X27306525Y-102803368D01*
X27144010Y-103046589D01*
X27032068Y-103316842D01*
X26975000Y-103603740D01*
X26975000Y-103896260D01*
X27032068Y-104183158D01*
X27144010Y-104453411D01*
X27306525Y-104696632D01*
X27513368Y-104903475D01*
X27756589Y-105065990D01*
X28026842Y-105177932D01*
X28313740Y-105235000D01*
X28606260Y-105235000D01*
X28893158Y-105177932D01*
X29163411Y-105065990D01*
X29406632Y-104903475D01*
X29538487Y-104771620D01*
X29560498Y-104844180D01*
X29619463Y-104954494D01*
X29698815Y-105051185D01*
X29795506Y-105130537D01*
X29905820Y-105189502D01*
X30025518Y-105225812D01*
X30150000Y-105238072D01*
X31850000Y-105238072D01*
X31974482Y-105225812D01*
X32094180Y-105189502D01*
X32204494Y-105130537D01*
X32301185Y-105051185D01*
X32380537Y-104954494D01*
X32439502Y-104844180D01*
X32475812Y-104724482D01*
X32488072Y-104600000D01*
X32488072Y-103898061D01*
X35465000Y-103898061D01*
X35465000Y-104101939D01*
X35504774Y-104301898D01*
X35582795Y-104490256D01*
X35696063Y-104659774D01*
X35840226Y-104803937D01*
X36009744Y-104917205D01*
X36198102Y-104995226D01*
X36398061Y-105035000D01*
X36601939Y-105035000D01*
X36801898Y-104995226D01*
X36990256Y-104917205D01*
X37018907Y-104898061D01*
X45265000Y-104898061D01*
X45265000Y-105101939D01*
X45304774Y-105301898D01*
X45382795Y-105490256D01*
X45496063Y-105659774D01*
X45640226Y-105803937D01*
X45809744Y-105917205D01*
X45998102Y-105995226D01*
X46198061Y-106035000D01*
X46401939Y-106035000D01*
X46601898Y-105995226D01*
X46790256Y-105917205D01*
X46959774Y-105803937D01*
X47103937Y-105659774D01*
X47217205Y-105490256D01*
X47295226Y-105301898D01*
X47335000Y-105101939D01*
X47335000Y-104898061D01*
X47295226Y-104698102D01*
X47217205Y-104509744D01*
X47103937Y-104340226D01*
X46959774Y-104196063D01*
X46790256Y-104082795D01*
X46601898Y-104004774D01*
X46401939Y-103965000D01*
X46198061Y-103965000D01*
X45998102Y-104004774D01*
X45809744Y-104082795D01*
X45640226Y-104196063D01*
X45496063Y-104340226D01*
X45382795Y-104509744D01*
X45304774Y-104698102D01*
X45265000Y-104898061D01*
X37018907Y-104898061D01*
X37159774Y-104803937D01*
X37303937Y-104659774D01*
X37417205Y-104490256D01*
X37495226Y-104301898D01*
X37535000Y-104101939D01*
X37535000Y-103898061D01*
X37495226Y-103698102D01*
X37417205Y-103509744D01*
X37342582Y-103398061D01*
X50665000Y-103398061D01*
X50665000Y-103601939D01*
X50704774Y-103801898D01*
X50782795Y-103990256D01*
X50896063Y-104159774D01*
X51040226Y-104303937D01*
X51209744Y-104417205D01*
X51398102Y-104495226D01*
X51598061Y-104535000D01*
X51801939Y-104535000D01*
X52001898Y-104495226D01*
X52190256Y-104417205D01*
X52359774Y-104303937D01*
X52462574Y-104201137D01*
X66987000Y-104201137D01*
X66987000Y-104414863D01*
X67028696Y-104624483D01*
X67110485Y-104821940D01*
X67229225Y-104999647D01*
X67380353Y-105150775D01*
X67558060Y-105269515D01*
X67755517Y-105351304D01*
X67965137Y-105393000D01*
X68178863Y-105393000D01*
X68388483Y-105351304D01*
X68585940Y-105269515D01*
X68763647Y-105150775D01*
X68914775Y-104999647D01*
X69033515Y-104821940D01*
X69115304Y-104624483D01*
X69157000Y-104414863D01*
X69157000Y-104201137D01*
X69115304Y-103991517D01*
X69033515Y-103794060D01*
X68914775Y-103616353D01*
X68763647Y-103465225D01*
X68585940Y-103346485D01*
X68388483Y-103264696D01*
X68178863Y-103223000D01*
X67965137Y-103223000D01*
X67755517Y-103264696D01*
X67558060Y-103346485D01*
X67380353Y-103465225D01*
X67229225Y-103616353D01*
X67110485Y-103794060D01*
X67028696Y-103991517D01*
X66987000Y-104201137D01*
X52462574Y-104201137D01*
X52503937Y-104159774D01*
X52617205Y-103990256D01*
X52695226Y-103801898D01*
X52735000Y-103601939D01*
X52735000Y-103398061D01*
X52695226Y-103198102D01*
X52617205Y-103009744D01*
X52503937Y-102840226D01*
X52359774Y-102696063D01*
X52190256Y-102582795D01*
X52001898Y-102504774D01*
X51801939Y-102465000D01*
X51598061Y-102465000D01*
X51398102Y-102504774D01*
X51209744Y-102582795D01*
X51040226Y-102696063D01*
X50896063Y-102840226D01*
X50782795Y-103009744D01*
X50704774Y-103198102D01*
X50665000Y-103398061D01*
X37342582Y-103398061D01*
X37303937Y-103340226D01*
X37159774Y-103196063D01*
X36990256Y-103082795D01*
X36801898Y-103004774D01*
X36601939Y-102965000D01*
X36398061Y-102965000D01*
X36198102Y-103004774D01*
X36009744Y-103082795D01*
X35840226Y-103196063D01*
X35696063Y-103340226D01*
X35582795Y-103509744D01*
X35504774Y-103698102D01*
X35465000Y-103898061D01*
X32488072Y-103898061D01*
X32488072Y-102900000D01*
X32475812Y-102775518D01*
X32439502Y-102655820D01*
X32380537Y-102545506D01*
X32301185Y-102448815D01*
X32204494Y-102369463D01*
X32094180Y-102310498D01*
X32021620Y-102288487D01*
X32153475Y-102156632D01*
X32315990Y-101913411D01*
X32322348Y-101898061D01*
X39765000Y-101898061D01*
X39765000Y-102101939D01*
X39804774Y-102301898D01*
X39882795Y-102490256D01*
X39996063Y-102659774D01*
X40140226Y-102803937D01*
X40309744Y-102917205D01*
X40498102Y-102995226D01*
X40698061Y-103035000D01*
X40901939Y-103035000D01*
X41101898Y-102995226D01*
X41290256Y-102917205D01*
X41459774Y-102803937D01*
X41603937Y-102659774D01*
X41717205Y-102490256D01*
X41795226Y-102301898D01*
X41835000Y-102101939D01*
X41835000Y-101898061D01*
X61465000Y-101898061D01*
X61465000Y-102101939D01*
X61504774Y-102301898D01*
X61582795Y-102490256D01*
X61696063Y-102659774D01*
X61840226Y-102803937D01*
X62009744Y-102917205D01*
X62198102Y-102995226D01*
X62398061Y-103035000D01*
X62601939Y-103035000D01*
X62801898Y-102995226D01*
X62990256Y-102917205D01*
X63159774Y-102803937D01*
X63303937Y-102659774D01*
X63417205Y-102490256D01*
X63495226Y-102301898D01*
X63535000Y-102101939D01*
X63535000Y-101898061D01*
X63495226Y-101698102D01*
X63417205Y-101509744D01*
X63303937Y-101340226D01*
X63159774Y-101196063D01*
X62990256Y-101082795D01*
X62801898Y-101004774D01*
X62601939Y-100965000D01*
X62398061Y-100965000D01*
X62198102Y-101004774D01*
X62009744Y-101082795D01*
X61840226Y-101196063D01*
X61696063Y-101340226D01*
X61582795Y-101509744D01*
X61504774Y-101698102D01*
X61465000Y-101898061D01*
X41835000Y-101898061D01*
X41795226Y-101698102D01*
X41717205Y-101509744D01*
X41603937Y-101340226D01*
X41459774Y-101196063D01*
X41290256Y-101082795D01*
X41101898Y-101004774D01*
X40901939Y-100965000D01*
X40698061Y-100965000D01*
X40498102Y-101004774D01*
X40309744Y-101082795D01*
X40140226Y-101196063D01*
X39996063Y-101340226D01*
X39882795Y-101509744D01*
X39804774Y-101698102D01*
X39765000Y-101898061D01*
X32322348Y-101898061D01*
X32427932Y-101643158D01*
X32485000Y-101356260D01*
X32485000Y-101063740D01*
X32427932Y-100776842D01*
X32315990Y-100506589D01*
X32243474Y-100398061D01*
X59965000Y-100398061D01*
X59965000Y-100601939D01*
X60004774Y-100801898D01*
X60082795Y-100990256D01*
X60196063Y-101159774D01*
X60340226Y-101303937D01*
X60509744Y-101417205D01*
X60698102Y-101495226D01*
X60898061Y-101535000D01*
X61101939Y-101535000D01*
X61301898Y-101495226D01*
X61490256Y-101417205D01*
X61659774Y-101303937D01*
X61803937Y-101159774D01*
X61917205Y-100990256D01*
X61995226Y-100801898D01*
X62035000Y-100601939D01*
X62035000Y-100398061D01*
X61995226Y-100198102D01*
X61917205Y-100009744D01*
X61803937Y-99840226D01*
X61764848Y-99801137D01*
X66987000Y-99801137D01*
X66987000Y-100014863D01*
X67028696Y-100224483D01*
X67110485Y-100421940D01*
X67229225Y-100599647D01*
X67380353Y-100750775D01*
X67558060Y-100869515D01*
X67755517Y-100951304D01*
X67965137Y-100993000D01*
X68178863Y-100993000D01*
X68388483Y-100951304D01*
X68585940Y-100869515D01*
X68763647Y-100750775D01*
X68914775Y-100599647D01*
X69033515Y-100421940D01*
X69115304Y-100224483D01*
X69157000Y-100014863D01*
X69157000Y-99801137D01*
X69115304Y-99591517D01*
X69033515Y-99394060D01*
X68914775Y-99216353D01*
X68763647Y-99065225D01*
X68585940Y-98946485D01*
X68388483Y-98864696D01*
X68178863Y-98823000D01*
X67965137Y-98823000D01*
X67755517Y-98864696D01*
X67558060Y-98946485D01*
X67380353Y-99065225D01*
X67229225Y-99216353D01*
X67110485Y-99394060D01*
X67028696Y-99591517D01*
X66987000Y-99801137D01*
X61764848Y-99801137D01*
X61659774Y-99696063D01*
X61490256Y-99582795D01*
X61301898Y-99504774D01*
X61101939Y-99465000D01*
X60898061Y-99465000D01*
X60698102Y-99504774D01*
X60509744Y-99582795D01*
X60340226Y-99696063D01*
X60196063Y-99840226D01*
X60082795Y-100009744D01*
X60004774Y-100198102D01*
X59965000Y-100398061D01*
X32243474Y-100398061D01*
X32153475Y-100263368D01*
X31946632Y-100056525D01*
X31772240Y-99940000D01*
X31946632Y-99823475D01*
X32153475Y-99616632D01*
X32315990Y-99373411D01*
X32427932Y-99103158D01*
X32485000Y-98816260D01*
X32485000Y-98523740D01*
X32427932Y-98236842D01*
X32315990Y-97966589D01*
X32270202Y-97898061D01*
X32465000Y-97898061D01*
X32465000Y-98101939D01*
X32504774Y-98301898D01*
X32582795Y-98490256D01*
X32696063Y-98659774D01*
X32840226Y-98803937D01*
X33009744Y-98917205D01*
X33198102Y-98995226D01*
X33398061Y-99035000D01*
X33601939Y-99035000D01*
X33801898Y-98995226D01*
X33990256Y-98917205D01*
X34159774Y-98803937D01*
X34303937Y-98659774D01*
X34417205Y-98490256D01*
X34495226Y-98301898D01*
X34535000Y-98101939D01*
X34535000Y-97898061D01*
X41765000Y-97898061D01*
X41765000Y-98101939D01*
X41804774Y-98301898D01*
X41882795Y-98490256D01*
X41996063Y-98659774D01*
X42140226Y-98803937D01*
X42309744Y-98917205D01*
X42498102Y-98995226D01*
X42698061Y-99035000D01*
X42901939Y-99035000D01*
X43101898Y-98995226D01*
X43290256Y-98917205D01*
X43459774Y-98803937D01*
X43603937Y-98659774D01*
X43717205Y-98490256D01*
X43795226Y-98301898D01*
X43835000Y-98101939D01*
X43835000Y-97898061D01*
X43795226Y-97698102D01*
X43717205Y-97509744D01*
X43603937Y-97340226D01*
X43459774Y-97196063D01*
X43290256Y-97082795D01*
X43101898Y-97004774D01*
X42901939Y-96965000D01*
X42698061Y-96965000D01*
X42498102Y-97004774D01*
X42309744Y-97082795D01*
X42140226Y-97196063D01*
X41996063Y-97340226D01*
X41882795Y-97509744D01*
X41804774Y-97698102D01*
X41765000Y-97898061D01*
X34535000Y-97898061D01*
X34495226Y-97698102D01*
X34417205Y-97509744D01*
X34303937Y-97340226D01*
X34159774Y-97196063D01*
X33990256Y-97082795D01*
X33801898Y-97004774D01*
X33601939Y-96965000D01*
X33398061Y-96965000D01*
X33198102Y-97004774D01*
X33009744Y-97082795D01*
X32840226Y-97196063D01*
X32696063Y-97340226D01*
X32582795Y-97509744D01*
X32504774Y-97698102D01*
X32465000Y-97898061D01*
X32270202Y-97898061D01*
X32153475Y-97723368D01*
X31946632Y-97516525D01*
X31703411Y-97354010D01*
X31433158Y-97242068D01*
X31146260Y-97185000D01*
X30853740Y-97185000D01*
X30566842Y-97242068D01*
X30296589Y-97354010D01*
X30053368Y-97516525D01*
X29846525Y-97723368D01*
X29728900Y-97899406D01*
X29557588Y-97669731D01*
X29341355Y-97474822D01*
X29091252Y-97325843D01*
X28816891Y-97228519D01*
X28587000Y-97349186D01*
X28587000Y-98543000D01*
X28607000Y-98543000D01*
X28607000Y-98797000D01*
X28587000Y-98797000D01*
X28587000Y-98817000D01*
X28333000Y-98817000D01*
X28333000Y-98797000D01*
X27139845Y-98797000D01*
X27018524Y-99026890D01*
X27063175Y-99174099D01*
X27188359Y-99436920D01*
X27362412Y-99670269D01*
X27578645Y-99865178D01*
X27695534Y-99934805D01*
X27513368Y-100056525D01*
X27306525Y-100263368D01*
X27144010Y-100506589D01*
X27032068Y-100776842D01*
X26975000Y-101063740D01*
X25806000Y-101063740D01*
X25806000Y-98313110D01*
X27018524Y-98313110D01*
X27139845Y-98543000D01*
X28333000Y-98543000D01*
X28333000Y-97349186D01*
X28103109Y-97228519D01*
X27828748Y-97325843D01*
X27578645Y-97474822D01*
X27362412Y-97669731D01*
X27188359Y-97903080D01*
X27063175Y-98165901D01*
X27018524Y-98313110D01*
X25806000Y-98313110D01*
X25806000Y-94398061D01*
X44865000Y-94398061D01*
X44865000Y-94601939D01*
X44904774Y-94801898D01*
X44982795Y-94990256D01*
X45096063Y-95159774D01*
X45240226Y-95303937D01*
X45409744Y-95417205D01*
X45598102Y-95495226D01*
X45798061Y-95535000D01*
X46001939Y-95535000D01*
X46201898Y-95495226D01*
X46390256Y-95417205D01*
X46559774Y-95303937D01*
X46703937Y-95159774D01*
X46817205Y-94990256D01*
X46855393Y-94898061D01*
X50665000Y-94898061D01*
X50665000Y-95101939D01*
X50704774Y-95301898D01*
X50782795Y-95490256D01*
X50896063Y-95659774D01*
X51040226Y-95803937D01*
X51209744Y-95917205D01*
X51398102Y-95995226D01*
X51598061Y-96035000D01*
X51801939Y-96035000D01*
X52001898Y-95995226D01*
X52190256Y-95917205D01*
X52359774Y-95803937D01*
X52503937Y-95659774D01*
X52617205Y-95490256D01*
X52695226Y-95301898D01*
X52735000Y-95101939D01*
X52735000Y-94898061D01*
X52695226Y-94698102D01*
X52617205Y-94509744D01*
X52503937Y-94340226D01*
X52461772Y-94298061D01*
X59065000Y-94298061D01*
X59065000Y-94501939D01*
X59104774Y-94701898D01*
X59182795Y-94890256D01*
X59296063Y-95059774D01*
X59440226Y-95203937D01*
X59609744Y-95317205D01*
X59798102Y-95395226D01*
X59998061Y-95435000D01*
X60201939Y-95435000D01*
X60401898Y-95395226D01*
X60590256Y-95317205D01*
X60759774Y-95203937D01*
X60903937Y-95059774D01*
X61017205Y-94890256D01*
X61095226Y-94701898D01*
X61135000Y-94501939D01*
X61135000Y-94298061D01*
X61095226Y-94098102D01*
X61017205Y-93909744D01*
X60903937Y-93740226D01*
X60759774Y-93596063D01*
X60590256Y-93482795D01*
X60401898Y-93404774D01*
X60201939Y-93365000D01*
X59998061Y-93365000D01*
X59798102Y-93404774D01*
X59609744Y-93482795D01*
X59440226Y-93596063D01*
X59296063Y-93740226D01*
X59182795Y-93909744D01*
X59104774Y-94098102D01*
X59065000Y-94298061D01*
X52461772Y-94298061D01*
X52359774Y-94196063D01*
X52190256Y-94082795D01*
X52001898Y-94004774D01*
X51801939Y-93965000D01*
X51598061Y-93965000D01*
X51398102Y-94004774D01*
X51209744Y-94082795D01*
X51040226Y-94196063D01*
X50896063Y-94340226D01*
X50782795Y-94509744D01*
X50704774Y-94698102D01*
X50665000Y-94898061D01*
X46855393Y-94898061D01*
X46895226Y-94801898D01*
X46935000Y-94601939D01*
X46935000Y-94398061D01*
X46895226Y-94198102D01*
X46817205Y-94009744D01*
X46703937Y-93840226D01*
X46559774Y-93696063D01*
X46390256Y-93582795D01*
X46201898Y-93504774D01*
X46001939Y-93465000D01*
X45798061Y-93465000D01*
X45598102Y-93504774D01*
X45409744Y-93582795D01*
X45240226Y-93696063D01*
X45096063Y-93840226D01*
X44982795Y-94009744D01*
X44904774Y-94198102D01*
X44865000Y-94398061D01*
X25806000Y-94398061D01*
X25806000Y-92698061D01*
X28765000Y-92698061D01*
X28765000Y-92901939D01*
X28804774Y-93101898D01*
X28882795Y-93290256D01*
X28996063Y-93459774D01*
X29140226Y-93603937D01*
X29309744Y-93717205D01*
X29498102Y-93795226D01*
X29698061Y-93835000D01*
X29901939Y-93835000D01*
X30101898Y-93795226D01*
X30290256Y-93717205D01*
X30459774Y-93603937D01*
X30603937Y-93459774D01*
X30717205Y-93290256D01*
X30795226Y-93101898D01*
X30835000Y-92901939D01*
X30835000Y-92698061D01*
X30795226Y-92498102D01*
X30717205Y-92309744D01*
X30603937Y-92140226D01*
X30459774Y-91996063D01*
X30290256Y-91882795D01*
X30101898Y-91804774D01*
X29901939Y-91765000D01*
X29698061Y-91765000D01*
X29498102Y-91804774D01*
X29309744Y-91882795D01*
X29140226Y-91996063D01*
X28996063Y-92140226D01*
X28882795Y-92309744D01*
X28804774Y-92498102D01*
X28765000Y-92698061D01*
X25806000Y-92698061D01*
X25806000Y-88598061D01*
X29465000Y-88598061D01*
X29465000Y-88801939D01*
X29504774Y-89001898D01*
X29582795Y-89190256D01*
X29696063Y-89359774D01*
X29840226Y-89503937D01*
X30009744Y-89617205D01*
X30198102Y-89695226D01*
X30398061Y-89735000D01*
X30601939Y-89735000D01*
X30801898Y-89695226D01*
X30990256Y-89617205D01*
X31159774Y-89503937D01*
X31265650Y-89398061D01*
X32465000Y-89398061D01*
X32465000Y-89601939D01*
X32504774Y-89801898D01*
X32582795Y-89990256D01*
X32696063Y-90159774D01*
X32840226Y-90303937D01*
X33009744Y-90417205D01*
X33198102Y-90495226D01*
X33398061Y-90535000D01*
X33601939Y-90535000D01*
X33801898Y-90495226D01*
X33990256Y-90417205D01*
X34159774Y-90303937D01*
X34303937Y-90159774D01*
X34417205Y-89990256D01*
X34495226Y-89801898D01*
X34535000Y-89601939D01*
X34535000Y-89398061D01*
X34495226Y-89198102D01*
X34417205Y-89009744D01*
X34303937Y-88840226D01*
X34159774Y-88696063D01*
X33990256Y-88582795D01*
X33801898Y-88504774D01*
X33601939Y-88465000D01*
X33398061Y-88465000D01*
X33198102Y-88504774D01*
X33009744Y-88582795D01*
X32840226Y-88696063D01*
X32696063Y-88840226D01*
X32582795Y-89009744D01*
X32504774Y-89198102D01*
X32465000Y-89398061D01*
X31265650Y-89398061D01*
X31303937Y-89359774D01*
X31417205Y-89190256D01*
X31495226Y-89001898D01*
X31535000Y-88801939D01*
X31535000Y-88598061D01*
X31495226Y-88398102D01*
X31495210Y-88398061D01*
X37965000Y-88398061D01*
X37965000Y-88601939D01*
X38004774Y-88801898D01*
X38082795Y-88990256D01*
X38196063Y-89159774D01*
X38286289Y-89250000D01*
X38196063Y-89340226D01*
X38082795Y-89509744D01*
X38004774Y-89698102D01*
X37965000Y-89898061D01*
X37965000Y-90101939D01*
X38004774Y-90301898D01*
X38082795Y-90490256D01*
X38196063Y-90659774D01*
X38340226Y-90803937D01*
X38509744Y-90917205D01*
X38698102Y-90995226D01*
X38898061Y-91035000D01*
X39101939Y-91035000D01*
X39301898Y-90995226D01*
X39490256Y-90917205D01*
X39659774Y-90803937D01*
X39803937Y-90659774D01*
X39917205Y-90490256D01*
X39995226Y-90301898D01*
X40035000Y-90101939D01*
X40035000Y-89898061D01*
X39995226Y-89698102D01*
X39917205Y-89509744D01*
X39803937Y-89340226D01*
X39713711Y-89250000D01*
X39803937Y-89159774D01*
X39917205Y-88990256D01*
X39995226Y-88801898D01*
X40035000Y-88601939D01*
X40035000Y-88398061D01*
X39995226Y-88198102D01*
X39917205Y-88009744D01*
X39803937Y-87840226D01*
X39659774Y-87696063D01*
X39490256Y-87582795D01*
X39301898Y-87504774D01*
X39101939Y-87465000D01*
X38898061Y-87465000D01*
X38698102Y-87504774D01*
X38509744Y-87582795D01*
X38340226Y-87696063D01*
X38196063Y-87840226D01*
X38082795Y-88009744D01*
X38004774Y-88198102D01*
X37965000Y-88398061D01*
X31495210Y-88398061D01*
X31417205Y-88209744D01*
X31303937Y-88040226D01*
X31159774Y-87896063D01*
X30990256Y-87782795D01*
X30801898Y-87704774D01*
X30601939Y-87665000D01*
X30398061Y-87665000D01*
X30198102Y-87704774D01*
X30009744Y-87782795D01*
X29840226Y-87896063D01*
X29696063Y-88040226D01*
X29582795Y-88209744D01*
X29504774Y-88398102D01*
X29465000Y-88598061D01*
X25806000Y-88598061D01*
X25806000Y-84634722D01*
X27842764Y-84620894D01*
X27906414Y-87181081D01*
X27909470Y-87205790D01*
X27917286Y-87229427D01*
X27929565Y-87251085D01*
X27945832Y-87269932D01*
X27961233Y-87282445D01*
X28427858Y-87604520D01*
X28449635Y-87616586D01*
X28473347Y-87624172D01*
X28500000Y-87627000D01*
X30500000Y-87627000D01*
X30524776Y-87624560D01*
X30548601Y-87617333D01*
X30570557Y-87605597D01*
X30589803Y-87589803D01*
X30605597Y-87570557D01*
X30617333Y-87548601D01*
X30624560Y-87524776D01*
X30627000Y-87500000D01*
X30624560Y-87475224D01*
X30617333Y-87451399D01*
X30605597Y-87429443D01*
X30589803Y-87410197D01*
X30577374Y-87399997D01*
X30589709Y-87389896D01*
X30605523Y-87370668D01*
X30617282Y-87348724D01*
X30624534Y-87324907D01*
X30627000Y-87300000D01*
X30627000Y-87198061D01*
X45265000Y-87198061D01*
X45265000Y-87401939D01*
X45304774Y-87601898D01*
X45382795Y-87790256D01*
X45496063Y-87959774D01*
X45640226Y-88103937D01*
X45809744Y-88217205D01*
X45998102Y-88295226D01*
X46198061Y-88335000D01*
X46401939Y-88335000D01*
X46601898Y-88295226D01*
X46790256Y-88217205D01*
X46959774Y-88103937D01*
X47103937Y-87959774D01*
X47217205Y-87790256D01*
X47295226Y-87601898D01*
X47335000Y-87401939D01*
X47335000Y-87398061D01*
X57165000Y-87398061D01*
X57165000Y-87601939D01*
X57204774Y-87801898D01*
X57282795Y-87990256D01*
X57396063Y-88159774D01*
X57540226Y-88303937D01*
X57709744Y-88417205D01*
X57898102Y-88495226D01*
X58098061Y-88535000D01*
X58301939Y-88535000D01*
X58501898Y-88495226D01*
X58690256Y-88417205D01*
X58718907Y-88398061D01*
X65965000Y-88398061D01*
X65965000Y-88601939D01*
X66004774Y-88801898D01*
X66082795Y-88990256D01*
X66196063Y-89159774D01*
X66340226Y-89303937D01*
X66509744Y-89417205D01*
X66698102Y-89495226D01*
X66722103Y-89500000D01*
X66698102Y-89504774D01*
X66509744Y-89582795D01*
X66340226Y-89696063D01*
X66196063Y-89840226D01*
X66082795Y-90009744D01*
X66004774Y-90198102D01*
X65965000Y-90398061D01*
X65965000Y-90601939D01*
X66004774Y-90801898D01*
X66082795Y-90990256D01*
X66196063Y-91159774D01*
X66340226Y-91303937D01*
X66509744Y-91417205D01*
X66698102Y-91495226D01*
X66898061Y-91535000D01*
X67101939Y-91535000D01*
X67301898Y-91495226D01*
X67490256Y-91417205D01*
X67659774Y-91303937D01*
X67803937Y-91159774D01*
X67917205Y-90990256D01*
X67995226Y-90801898D01*
X68035000Y-90601939D01*
X68035000Y-90398061D01*
X67995226Y-90198102D01*
X67917205Y-90009744D01*
X67803937Y-89840226D01*
X67659774Y-89696063D01*
X67490256Y-89582795D01*
X67301898Y-89504774D01*
X67277897Y-89500000D01*
X67301898Y-89495226D01*
X67490256Y-89417205D01*
X67659774Y-89303937D01*
X67803937Y-89159774D01*
X67917205Y-88990256D01*
X67995226Y-88801898D01*
X68035000Y-88601939D01*
X68035000Y-88398061D01*
X67995226Y-88198102D01*
X67917205Y-88009744D01*
X67803937Y-87840226D01*
X67659774Y-87696063D01*
X67490256Y-87582795D01*
X67301898Y-87504774D01*
X67101939Y-87465000D01*
X66898061Y-87465000D01*
X66698102Y-87504774D01*
X66509744Y-87582795D01*
X66340226Y-87696063D01*
X66196063Y-87840226D01*
X66082795Y-88009744D01*
X66004774Y-88198102D01*
X65965000Y-88398061D01*
X58718907Y-88398061D01*
X58859774Y-88303937D01*
X59003937Y-88159774D01*
X59117205Y-87990256D01*
X59195226Y-87801898D01*
X59235000Y-87601939D01*
X59235000Y-87398061D01*
X59195226Y-87198102D01*
X59117205Y-87009744D01*
X59003937Y-86840226D01*
X58859774Y-86696063D01*
X58690256Y-86582795D01*
X58501898Y-86504774D01*
X58301939Y-86465000D01*
X58098061Y-86465000D01*
X57898102Y-86504774D01*
X57709744Y-86582795D01*
X57540226Y-86696063D01*
X57396063Y-86840226D01*
X57282795Y-87009744D01*
X57204774Y-87198102D01*
X57165000Y-87398061D01*
X47335000Y-87398061D01*
X47335000Y-87198061D01*
X47295226Y-86998102D01*
X47217205Y-86809744D01*
X47103937Y-86640226D01*
X46959774Y-86496063D01*
X46790256Y-86382795D01*
X46601898Y-86304774D01*
X46401939Y-86265000D01*
X46198061Y-86265000D01*
X45998102Y-86304774D01*
X45809744Y-86382795D01*
X45640226Y-86496063D01*
X45496063Y-86640226D01*
X45382795Y-86809744D01*
X45304774Y-86998102D01*
X45265000Y-87198061D01*
X30627000Y-87198061D01*
X30627000Y-85400311D01*
X41462750Y-85400311D01*
X41462750Y-85604189D01*
X41502524Y-85804148D01*
X41580545Y-85992506D01*
X41693813Y-86162024D01*
X41837976Y-86306187D01*
X42007494Y-86419455D01*
X42195852Y-86497476D01*
X42395811Y-86537250D01*
X42599689Y-86537250D01*
X42799648Y-86497476D01*
X42988006Y-86419455D01*
X43157524Y-86306187D01*
X43301687Y-86162024D01*
X43414955Y-85992506D01*
X43492976Y-85804148D01*
X43532750Y-85604189D01*
X43532750Y-85400311D01*
X43492976Y-85200352D01*
X43414955Y-85011994D01*
X43301687Y-84842476D01*
X43157524Y-84698313D01*
X42988006Y-84585045D01*
X42799648Y-84507024D01*
X42599689Y-84467250D01*
X42395811Y-84467250D01*
X42195852Y-84507024D01*
X42007494Y-84585045D01*
X41837976Y-84698313D01*
X41693813Y-84842476D01*
X41580545Y-85011994D01*
X41502524Y-85200352D01*
X41462750Y-85400311D01*
X30627000Y-85400311D01*
X30627000Y-82898061D01*
X35465000Y-82898061D01*
X35465000Y-83101939D01*
X35504774Y-83301898D01*
X35582795Y-83490256D01*
X35696063Y-83659774D01*
X35840226Y-83803937D01*
X36009744Y-83917205D01*
X36198102Y-83995226D01*
X36398061Y-84035000D01*
X36601939Y-84035000D01*
X36801898Y-83995226D01*
X36990256Y-83917205D01*
X37159774Y-83803937D01*
X37303937Y-83659774D01*
X37417205Y-83490256D01*
X37495226Y-83301898D01*
X37515880Y-83198061D01*
X50565000Y-83198061D01*
X50565000Y-83401939D01*
X50604774Y-83601898D01*
X50682795Y-83790256D01*
X50796063Y-83959774D01*
X50940226Y-84103937D01*
X51109744Y-84217205D01*
X51298102Y-84295226D01*
X51498061Y-84335000D01*
X51701939Y-84335000D01*
X51901898Y-84295226D01*
X52090256Y-84217205D01*
X52259774Y-84103937D01*
X52403937Y-83959774D01*
X52517205Y-83790256D01*
X52595226Y-83601898D01*
X52635000Y-83401939D01*
X52635000Y-83198061D01*
X52595226Y-82998102D01*
X52517205Y-82809744D01*
X52403937Y-82640226D01*
X52259774Y-82496063D01*
X52090256Y-82382795D01*
X51901898Y-82304774D01*
X51701939Y-82265000D01*
X51498061Y-82265000D01*
X51298102Y-82304774D01*
X51109744Y-82382795D01*
X50940226Y-82496063D01*
X50796063Y-82640226D01*
X50682795Y-82809744D01*
X50604774Y-82998102D01*
X50565000Y-83198061D01*
X37515880Y-83198061D01*
X37535000Y-83101939D01*
X37535000Y-82898061D01*
X37495226Y-82698102D01*
X37417205Y-82509744D01*
X37303937Y-82340226D01*
X37159774Y-82196063D01*
X36990256Y-82082795D01*
X36801898Y-82004774D01*
X36601939Y-81965000D01*
X36398061Y-81965000D01*
X36198102Y-82004774D01*
X36009744Y-82082795D01*
X35840226Y-82196063D01*
X35696063Y-82340226D01*
X35582795Y-82509744D01*
X35504774Y-82698102D01*
X35465000Y-82898061D01*
X30627000Y-82898061D01*
X30627000Y-82313975D01*
X32126179Y-82213663D01*
X32150737Y-82209574D01*
X32174026Y-82200772D01*
X32195150Y-82187597D01*
X32213298Y-82170553D01*
X32227772Y-82150296D01*
X32238016Y-82127605D01*
X32243636Y-82103351D01*
X32244696Y-82085887D01*
X32230224Y-80350000D01*
X70139928Y-80350000D01*
X70152188Y-80474482D01*
X70188498Y-80594180D01*
X70247463Y-80704494D01*
X70326815Y-80801185D01*
X70423506Y-80880537D01*
X70533820Y-80939502D01*
X70606380Y-80961513D01*
X70474525Y-81093368D01*
X70312010Y-81336589D01*
X70200068Y-81606842D01*
X70143000Y-81893740D01*
X70143000Y-82186260D01*
X70200068Y-82473158D01*
X70312010Y-82743411D01*
X70474525Y-82986632D01*
X70681368Y-83193475D01*
X70855760Y-83310000D01*
X70681368Y-83426525D01*
X70474525Y-83633368D01*
X70312010Y-83876589D01*
X70200068Y-84146842D01*
X70143000Y-84433740D01*
X70143000Y-84726260D01*
X70200068Y-85013158D01*
X70312010Y-85283411D01*
X70474525Y-85526632D01*
X70681368Y-85733475D01*
X70855760Y-85850000D01*
X70681368Y-85966525D01*
X70474525Y-86173368D01*
X70312010Y-86416589D01*
X70200068Y-86686842D01*
X70143000Y-86973740D01*
X70143000Y-87266260D01*
X70200068Y-87553158D01*
X70312010Y-87823411D01*
X70474525Y-88066632D01*
X70681368Y-88273475D01*
X70855760Y-88390000D01*
X70681368Y-88506525D01*
X70474525Y-88713368D01*
X70312010Y-88956589D01*
X70200068Y-89226842D01*
X70143000Y-89513740D01*
X70143000Y-89806260D01*
X70200068Y-90093158D01*
X70312010Y-90363411D01*
X70474525Y-90606632D01*
X70681368Y-90813475D01*
X70855760Y-90930000D01*
X70681368Y-91046525D01*
X70474525Y-91253368D01*
X70312010Y-91496589D01*
X70200068Y-91766842D01*
X70143000Y-92053740D01*
X70143000Y-92346260D01*
X70200068Y-92633158D01*
X70312010Y-92903411D01*
X70474525Y-93146632D01*
X70681368Y-93353475D01*
X70924589Y-93515990D01*
X71194842Y-93627932D01*
X71481740Y-93685000D01*
X71774260Y-93685000D01*
X72061158Y-93627932D01*
X72331411Y-93515990D01*
X72574632Y-93353475D01*
X72781475Y-93146632D01*
X72943990Y-92903411D01*
X73055932Y-92633158D01*
X73113000Y-92346260D01*
X73113000Y-92053740D01*
X73055932Y-91766842D01*
X72943990Y-91496589D01*
X72781475Y-91253368D01*
X72574632Y-91046525D01*
X72400240Y-90930000D01*
X72574632Y-90813475D01*
X72781475Y-90606632D01*
X72943990Y-90363411D01*
X73055932Y-90093158D01*
X73113000Y-89806260D01*
X73113000Y-89513740D01*
X73055932Y-89226842D01*
X72943990Y-88956589D01*
X72781475Y-88713368D01*
X72574632Y-88506525D01*
X72400240Y-88390000D01*
X72574632Y-88273475D01*
X72781475Y-88066632D01*
X72943990Y-87823411D01*
X73055932Y-87553158D01*
X73113000Y-87266260D01*
X73113000Y-86973740D01*
X73055932Y-86686842D01*
X72943990Y-86416589D01*
X72781475Y-86173368D01*
X72574632Y-85966525D01*
X72400240Y-85850000D01*
X72574632Y-85733475D01*
X72781475Y-85526632D01*
X72943990Y-85283411D01*
X73055932Y-85013158D01*
X73113000Y-84726260D01*
X73113000Y-84433740D01*
X73055932Y-84146842D01*
X72943990Y-83876589D01*
X72781475Y-83633368D01*
X72574632Y-83426525D01*
X72400240Y-83310000D01*
X72574632Y-83193475D01*
X72781475Y-82986632D01*
X72943990Y-82743411D01*
X73055932Y-82473158D01*
X73113000Y-82186260D01*
X73113000Y-81893740D01*
X73055932Y-81606842D01*
X72943990Y-81336589D01*
X72781475Y-81093368D01*
X72649620Y-80961513D01*
X72722180Y-80939502D01*
X72832494Y-80880537D01*
X72929185Y-80801185D01*
X73008537Y-80704494D01*
X73067502Y-80594180D01*
X73103812Y-80474482D01*
X73116072Y-80350000D01*
X73113000Y-79785750D01*
X72954250Y-79627000D01*
X71755000Y-79627000D01*
X71755000Y-79647000D01*
X71501000Y-79647000D01*
X71501000Y-79627000D01*
X70301750Y-79627000D01*
X70143000Y-79785750D01*
X70139928Y-80350000D01*
X32230224Y-80350000D01*
X32210616Y-77998061D01*
X34665000Y-77998061D01*
X34665000Y-78201939D01*
X34704774Y-78401898D01*
X34782795Y-78590256D01*
X34896063Y-78759774D01*
X35040226Y-78903937D01*
X35209744Y-79017205D01*
X35398102Y-79095226D01*
X35598061Y-79135000D01*
X35801939Y-79135000D01*
X36001898Y-79095226D01*
X36190256Y-79017205D01*
X36359774Y-78903937D01*
X36503937Y-78759774D01*
X36617205Y-78590256D01*
X36695226Y-78401898D01*
X36735000Y-78201939D01*
X36735000Y-77998061D01*
X36695226Y-77798102D01*
X36617205Y-77609744D01*
X36503937Y-77440226D01*
X36359774Y-77296063D01*
X36190256Y-77182795D01*
X36001898Y-77104774D01*
X35801939Y-77065000D01*
X35598061Y-77065000D01*
X35398102Y-77104774D01*
X35209744Y-77182795D01*
X35040226Y-77296063D01*
X34896063Y-77440226D01*
X34782795Y-77609744D01*
X34704774Y-77798102D01*
X34665000Y-77998061D01*
X32210616Y-77998061D01*
X32209297Y-77839941D01*
X32206650Y-77815186D01*
X32199224Y-77791423D01*
X32187306Y-77769565D01*
X32171352Y-77750452D01*
X32151976Y-77734819D01*
X32129922Y-77723266D01*
X32106038Y-77716238D01*
X32083754Y-77714008D01*
X31120303Y-77702983D01*
X31806938Y-77504893D01*
X32670440Y-77058394D01*
X32783054Y-76983149D01*
X32852578Y-76898061D01*
X44865000Y-76898061D01*
X44865000Y-77101939D01*
X44904774Y-77301898D01*
X44982795Y-77490256D01*
X45096063Y-77659774D01*
X45240226Y-77803937D01*
X45409744Y-77917205D01*
X45598102Y-77995226D01*
X45798061Y-78035000D01*
X46001939Y-78035000D01*
X46187645Y-77998061D01*
X55665000Y-77998061D01*
X55665000Y-78201939D01*
X55704774Y-78401898D01*
X55782795Y-78590256D01*
X55896063Y-78759774D01*
X56040226Y-78903937D01*
X56209744Y-79017205D01*
X56398102Y-79095226D01*
X56598061Y-79135000D01*
X56801939Y-79135000D01*
X57001898Y-79095226D01*
X57190256Y-79017205D01*
X57359774Y-78903937D01*
X57503937Y-78759774D01*
X57577285Y-78650000D01*
X70139928Y-78650000D01*
X70143000Y-79214250D01*
X70301750Y-79373000D01*
X71501000Y-79373000D01*
X71501000Y-78173750D01*
X71755000Y-78173750D01*
X71755000Y-79373000D01*
X72954250Y-79373000D01*
X73113000Y-79214250D01*
X73116072Y-78650000D01*
X73103812Y-78525518D01*
X73067502Y-78405820D01*
X73008537Y-78295506D01*
X72929185Y-78198815D01*
X72832494Y-78119463D01*
X72722180Y-78060498D01*
X72602482Y-78024188D01*
X72478000Y-78011928D01*
X71913750Y-78015000D01*
X71755000Y-78173750D01*
X71501000Y-78173750D01*
X71342250Y-78015000D01*
X70778000Y-78011928D01*
X70653518Y-78024188D01*
X70533820Y-78060498D01*
X70423506Y-78119463D01*
X70326815Y-78198815D01*
X70247463Y-78295506D01*
X70188498Y-78405820D01*
X70152188Y-78525518D01*
X70139928Y-78650000D01*
X57577285Y-78650000D01*
X57617205Y-78590256D01*
X57695226Y-78401898D01*
X57735000Y-78201939D01*
X57735000Y-77998061D01*
X57715555Y-77900301D01*
X57859774Y-77803937D01*
X58003937Y-77659774D01*
X58117205Y-77490256D01*
X58195226Y-77301898D01*
X58235000Y-77101939D01*
X58235000Y-76898061D01*
X58195226Y-76698102D01*
X58117205Y-76509744D01*
X58031060Y-76380818D01*
X66546787Y-76380818D01*
X67038946Y-76983149D01*
X67889933Y-77453063D01*
X68816243Y-77747929D01*
X69782281Y-77856414D01*
X70750921Y-77774351D01*
X71684938Y-77504893D01*
X72548440Y-77058394D01*
X72661054Y-76983149D01*
X73153213Y-76380818D01*
X69850000Y-73077605D01*
X66546787Y-76380818D01*
X58031060Y-76380818D01*
X58003937Y-76340226D01*
X57859774Y-76196063D01*
X57690256Y-76082795D01*
X57501898Y-76004774D01*
X57301939Y-75965000D01*
X57098061Y-75965000D01*
X56898102Y-76004774D01*
X56709744Y-76082795D01*
X56540226Y-76196063D01*
X56396063Y-76340226D01*
X56282795Y-76509744D01*
X56204774Y-76698102D01*
X56165000Y-76898061D01*
X56165000Y-77101939D01*
X56184445Y-77199699D01*
X56040226Y-77296063D01*
X55896063Y-77440226D01*
X55782795Y-77609744D01*
X55704774Y-77798102D01*
X55665000Y-77998061D01*
X46187645Y-77998061D01*
X46201898Y-77995226D01*
X46390256Y-77917205D01*
X46559774Y-77803937D01*
X46703937Y-77659774D01*
X46817205Y-77490256D01*
X46895226Y-77301898D01*
X46935000Y-77101939D01*
X46935000Y-76898061D01*
X46895226Y-76698102D01*
X46817205Y-76509744D01*
X46703937Y-76340226D01*
X46559774Y-76196063D01*
X46390256Y-76082795D01*
X46201898Y-76004774D01*
X46001939Y-75965000D01*
X45798061Y-75965000D01*
X45598102Y-76004774D01*
X45409744Y-76082795D01*
X45240226Y-76196063D01*
X45096063Y-76340226D01*
X44982795Y-76509744D01*
X44904774Y-76698102D01*
X44865000Y-76898061D01*
X32852578Y-76898061D01*
X33275213Y-76380818D01*
X29972000Y-73077605D01*
X26668787Y-76380818D01*
X27160946Y-76983149D01*
X28011933Y-77453063D01*
X28710415Y-77675406D01*
X25806000Y-77642170D01*
X25806000Y-75585598D01*
X25811606Y-75596440D01*
X25886851Y-75709054D01*
X26489182Y-76201213D01*
X29792395Y-72898000D01*
X30151605Y-72898000D01*
X33454818Y-76201213D01*
X34057149Y-75709054D01*
X34527063Y-74858067D01*
X34821929Y-73931757D01*
X34915552Y-73098061D01*
X40765000Y-73098061D01*
X40765000Y-73301939D01*
X40804774Y-73501898D01*
X40882795Y-73690256D01*
X40996063Y-73859774D01*
X41140226Y-74003937D01*
X41309744Y-74117205D01*
X41498102Y-74195226D01*
X41698061Y-74235000D01*
X41901939Y-74235000D01*
X42101898Y-74195226D01*
X42290256Y-74117205D01*
X42459774Y-74003937D01*
X42603937Y-73859774D01*
X42717205Y-73690256D01*
X42795226Y-73501898D01*
X42835000Y-73301939D01*
X42835000Y-73098061D01*
X42795226Y-72898102D01*
X42767134Y-72830281D01*
X64891586Y-72830281D01*
X64973649Y-73798921D01*
X65243107Y-74732938D01*
X65689606Y-75596440D01*
X65764851Y-75709054D01*
X66367182Y-76201213D01*
X69670395Y-72898000D01*
X66367182Y-69594787D01*
X65764851Y-70086946D01*
X65294937Y-70937933D01*
X65000071Y-71864243D01*
X64891586Y-72830281D01*
X42767134Y-72830281D01*
X42717205Y-72709744D01*
X42603937Y-72540226D01*
X42459774Y-72396063D01*
X42290256Y-72282795D01*
X42101898Y-72204774D01*
X41901939Y-72165000D01*
X41698061Y-72165000D01*
X41498102Y-72204774D01*
X41309744Y-72282795D01*
X41140226Y-72396063D01*
X40996063Y-72540226D01*
X40882795Y-72709744D01*
X40804774Y-72898102D01*
X40765000Y-73098061D01*
X34915552Y-73098061D01*
X34930414Y-72965719D01*
X34848351Y-71997079D01*
X34578893Y-71063062D01*
X34132394Y-70199560D01*
X34057149Y-70086946D01*
X33454818Y-69594787D01*
X30151605Y-72898000D01*
X29792395Y-72898000D01*
X29778253Y-72883858D01*
X29957858Y-72704253D01*
X29972000Y-72718395D01*
X33275213Y-69415182D01*
X32783054Y-68812851D01*
X32636636Y-68731999D01*
X67162400Y-68732001D01*
G37*
X67162400Y-68732001D02*
X67151560Y-68737606D01*
X67038946Y-68812851D01*
X66546787Y-69415182D01*
X69850000Y-72718395D01*
X69864143Y-72704253D01*
X70043748Y-72883858D01*
X70029605Y-72898000D01*
X73332818Y-76201213D01*
X73935149Y-75709054D01*
X74016482Y-75561765D01*
X74022237Y-110354464D01*
X74010394Y-110331560D01*
X73935149Y-110218946D01*
X73332818Y-109726787D01*
X70029605Y-113030000D01*
X70043748Y-113044143D01*
X69864143Y-113223748D01*
X69850000Y-113209605D01*
X66546787Y-116512818D01*
X67038946Y-117115149D01*
X67185361Y-117195999D01*
X49967711Y-117196000D01*
X50103937Y-117059774D01*
X50217205Y-116890256D01*
X50295226Y-116701898D01*
X50335000Y-116501939D01*
X50335000Y-116298061D01*
X50295226Y-116098102D01*
X50253788Y-115998061D01*
X50365000Y-115998061D01*
X50365000Y-116201939D01*
X50404774Y-116401898D01*
X50482795Y-116590256D01*
X50596063Y-116759774D01*
X50740226Y-116903937D01*
X50909744Y-117017205D01*
X51098102Y-117095226D01*
X51298061Y-117135000D01*
X51501939Y-117135000D01*
X51701898Y-117095226D01*
X51890256Y-117017205D01*
X52059774Y-116903937D01*
X52203937Y-116759774D01*
X52317205Y-116590256D01*
X52395226Y-116401898D01*
X52435000Y-116201939D01*
X52435000Y-115998061D01*
X52395226Y-115798102D01*
X52317205Y-115609744D01*
X52203937Y-115440226D01*
X52059774Y-115296063D01*
X51890256Y-115182795D01*
X51701898Y-115104774D01*
X51501939Y-115065000D01*
X51298061Y-115065000D01*
X51098102Y-115104774D01*
X50909744Y-115182795D01*
X50740226Y-115296063D01*
X50596063Y-115440226D01*
X50482795Y-115609744D01*
X50404774Y-115798102D01*
X50365000Y-115998061D01*
X50253788Y-115998061D01*
X50217205Y-115909744D01*
X50103937Y-115740226D01*
X49959774Y-115596063D01*
X49790256Y-115482795D01*
X49601898Y-115404774D01*
X49401939Y-115365000D01*
X49198061Y-115365000D01*
X48998102Y-115404774D01*
X48809744Y-115482795D01*
X48640226Y-115596063D01*
X48496063Y-115740226D01*
X48382795Y-115909744D01*
X48304774Y-116098102D01*
X48265000Y-116298061D01*
X48265000Y-116501939D01*
X48304774Y-116701898D01*
X48382795Y-116890256D01*
X48496063Y-117059774D01*
X48632289Y-117196000D01*
X32643222Y-117196001D01*
X32664859Y-117184813D01*
X32777473Y-117109568D01*
X33269632Y-116507237D01*
X29966419Y-113204024D01*
X29952277Y-113218167D01*
X29772672Y-113038562D01*
X29786814Y-113024419D01*
X30146024Y-113024419D01*
X33449237Y-116327632D01*
X34051568Y-115835473D01*
X34521482Y-114984486D01*
X34816348Y-114058176D01*
X34890478Y-113398061D01*
X38465000Y-113398061D01*
X38465000Y-113601939D01*
X38504774Y-113801898D01*
X38582795Y-113990256D01*
X38696063Y-114159774D01*
X38840226Y-114303937D01*
X39009744Y-114417205D01*
X39198102Y-114495226D01*
X39398061Y-114535000D01*
X39601939Y-114535000D01*
X39801898Y-114495226D01*
X39990256Y-114417205D01*
X40159774Y-114303937D01*
X40303937Y-114159774D01*
X40417205Y-113990256D01*
X40495226Y-113801898D01*
X40525825Y-113648061D01*
X40715000Y-113648061D01*
X40715000Y-113851939D01*
X40754774Y-114051898D01*
X40832795Y-114240256D01*
X40946063Y-114409774D01*
X41090226Y-114553937D01*
X41259744Y-114667205D01*
X41448102Y-114745226D01*
X41648061Y-114785000D01*
X41851939Y-114785000D01*
X42051898Y-114745226D01*
X42240256Y-114667205D01*
X42409774Y-114553937D01*
X42553937Y-114409774D01*
X42667205Y-114240256D01*
X42745226Y-114051898D01*
X42785000Y-113851939D01*
X42785000Y-113648061D01*
X42745226Y-113448102D01*
X42667205Y-113259744D01*
X42553937Y-113090226D01*
X42425992Y-112962281D01*
X64891586Y-112962281D01*
X64973649Y-113930921D01*
X65243107Y-114864938D01*
X65689606Y-115728440D01*
X65764851Y-115841054D01*
X66367182Y-116333213D01*
X69670395Y-113030000D01*
X66367182Y-109726787D01*
X65764851Y-110218946D01*
X65294937Y-111069933D01*
X65000071Y-111996243D01*
X64891586Y-112962281D01*
X42425992Y-112962281D01*
X42409774Y-112946063D01*
X42240256Y-112832795D01*
X42051898Y-112754774D01*
X41952487Y-112735000D01*
X42001939Y-112735000D01*
X42201898Y-112695226D01*
X42390256Y-112617205D01*
X42559774Y-112503937D01*
X42703937Y-112359774D01*
X42817205Y-112190256D01*
X42895226Y-112001898D01*
X42935000Y-111801939D01*
X42935000Y-111598061D01*
X42895226Y-111398102D01*
X42817205Y-111209744D01*
X42703937Y-111040226D01*
X42559774Y-110896063D01*
X42390256Y-110782795D01*
X42201898Y-110704774D01*
X42168150Y-110698061D01*
X43265000Y-110698061D01*
X43265000Y-110901939D01*
X43304774Y-111101898D01*
X43382795Y-111290256D01*
X43496063Y-111459774D01*
X43640226Y-111603937D01*
X43809744Y-111717205D01*
X43998102Y-111795226D01*
X44198061Y-111835000D01*
X44401939Y-111835000D01*
X44601898Y-111795226D01*
X44790256Y-111717205D01*
X44818907Y-111698061D01*
X47465000Y-111698061D01*
X47465000Y-111901939D01*
X47504774Y-112101898D01*
X47582795Y-112290256D01*
X47696063Y-112459774D01*
X47840226Y-112603937D01*
X48009744Y-112717205D01*
X48198102Y-112795226D01*
X48398061Y-112835000D01*
X48601939Y-112835000D01*
X48801898Y-112795226D01*
X48990256Y-112717205D01*
X49159774Y-112603937D01*
X49303937Y-112459774D01*
X49417205Y-112290256D01*
X49495226Y-112101898D01*
X49535000Y-111901939D01*
X49535000Y-111698061D01*
X49495226Y-111498102D01*
X49417205Y-111309744D01*
X49303937Y-111140226D01*
X49159774Y-110996063D01*
X48990256Y-110882795D01*
X48801898Y-110804774D01*
X48601939Y-110765000D01*
X48398061Y-110765000D01*
X48198102Y-110804774D01*
X48009744Y-110882795D01*
X47840226Y-110996063D01*
X47696063Y-111140226D01*
X47582795Y-111309744D01*
X47504774Y-111498102D01*
X47465000Y-111698061D01*
X44818907Y-111698061D01*
X44959774Y-111603937D01*
X45103937Y-111459774D01*
X45217205Y-111290256D01*
X45295226Y-111101898D01*
X45335000Y-110901939D01*
X45335000Y-110698061D01*
X45295226Y-110498102D01*
X45217205Y-110309744D01*
X45103937Y-110140226D01*
X44959774Y-109996063D01*
X44813104Y-109898061D01*
X45965000Y-109898061D01*
X45965000Y-110101939D01*
X46004774Y-110301898D01*
X46082795Y-110490256D01*
X46196063Y-110659774D01*
X46340226Y-110803937D01*
X46509744Y-110917205D01*
X46698102Y-110995226D01*
X46898061Y-111035000D01*
X47101939Y-111035000D01*
X47301898Y-110995226D01*
X47490256Y-110917205D01*
X47659774Y-110803937D01*
X47803937Y-110659774D01*
X47917205Y-110490256D01*
X47955393Y-110398061D01*
X53465000Y-110398061D01*
X53465000Y-110601939D01*
X53504774Y-110801898D01*
X53582795Y-110990256D01*
X53696063Y-111159774D01*
X53840226Y-111303937D01*
X54009744Y-111417205D01*
X54198102Y-111495226D01*
X54398061Y-111535000D01*
X54601939Y-111535000D01*
X54801898Y-111495226D01*
X54990256Y-111417205D01*
X55159774Y-111303937D01*
X55303937Y-111159774D01*
X55417205Y-110990256D01*
X55495226Y-110801898D01*
X55535000Y-110601939D01*
X55535000Y-110398061D01*
X55495226Y-110198102D01*
X55417205Y-110009744D01*
X55303937Y-109840226D01*
X55159774Y-109696063D01*
X54990256Y-109582795D01*
X54904280Y-109547182D01*
X66546787Y-109547182D01*
X69850000Y-112850395D01*
X73153213Y-109547182D01*
X72661054Y-108944851D01*
X71810067Y-108474937D01*
X70883757Y-108180071D01*
X69917719Y-108071586D01*
X68949079Y-108153649D01*
X68015062Y-108423107D01*
X67151560Y-108869606D01*
X67038946Y-108944851D01*
X66546787Y-109547182D01*
X54904280Y-109547182D01*
X54801898Y-109504774D01*
X54601939Y-109465000D01*
X54398061Y-109465000D01*
X54198102Y-109504774D01*
X54009744Y-109582795D01*
X53840226Y-109696063D01*
X53696063Y-109840226D01*
X53582795Y-110009744D01*
X53504774Y-110198102D01*
X53465000Y-110398061D01*
X47955393Y-110398061D01*
X47995226Y-110301898D01*
X48035000Y-110101939D01*
X48035000Y-109898061D01*
X47995226Y-109698102D01*
X47917205Y-109509744D01*
X47803937Y-109340226D01*
X47659774Y-109196063D01*
X47490256Y-109082795D01*
X47301898Y-109004774D01*
X47101939Y-108965000D01*
X46898061Y-108965000D01*
X46698102Y-109004774D01*
X46509744Y-109082795D01*
X46340226Y-109196063D01*
X46196063Y-109340226D01*
X46082795Y-109509744D01*
X46004774Y-109698102D01*
X45965000Y-109898061D01*
X44813104Y-109898061D01*
X44790256Y-109882795D01*
X44601898Y-109804774D01*
X44401939Y-109765000D01*
X44198061Y-109765000D01*
X43998102Y-109804774D01*
X43809744Y-109882795D01*
X43640226Y-109996063D01*
X43496063Y-110140226D01*
X43382795Y-110309744D01*
X43304774Y-110498102D01*
X43265000Y-110698061D01*
X42168150Y-110698061D01*
X42001939Y-110665000D01*
X41798061Y-110665000D01*
X41598102Y-110704774D01*
X41409744Y-110782795D01*
X41240226Y-110896063D01*
X41096063Y-111040226D01*
X40982795Y-111209744D01*
X40904774Y-111398102D01*
X40865000Y-111598061D01*
X40865000Y-111801939D01*
X40904774Y-112001898D01*
X40982795Y-112190256D01*
X41096063Y-112359774D01*
X41240226Y-112503937D01*
X41409744Y-112617205D01*
X41598102Y-112695226D01*
X41697513Y-112715000D01*
X41648061Y-112715000D01*
X41448102Y-112754774D01*
X41259744Y-112832795D01*
X41090226Y-112946063D01*
X40946063Y-113090226D01*
X40832795Y-113259744D01*
X40754774Y-113448102D01*
X40715000Y-113648061D01*
X40525825Y-113648061D01*
X40535000Y-113601939D01*
X40535000Y-113398061D01*
X40495226Y-113198102D01*
X40417205Y-113009744D01*
X40303937Y-112840226D01*
X40159774Y-112696063D01*
X39990256Y-112582795D01*
X39801898Y-112504774D01*
X39601939Y-112465000D01*
X39398061Y-112465000D01*
X39198102Y-112504774D01*
X39009744Y-112582795D01*
X38840226Y-112696063D01*
X38696063Y-112840226D01*
X38582795Y-113009744D01*
X38504774Y-113198102D01*
X38465000Y-113398061D01*
X34890478Y-113398061D01*
X34924833Y-113092138D01*
X34842770Y-112123498D01*
X34573312Y-111189481D01*
X34126813Y-110325979D01*
X34051568Y-110213365D01*
X33449237Y-109721206D01*
X30146024Y-113024419D01*
X29786814Y-113024419D01*
X26483601Y-109721206D01*
X25881270Y-110213365D01*
X25806000Y-110349675D01*
X25806000Y-109541601D01*
X26663206Y-109541601D01*
X29966419Y-112844814D01*
X33269632Y-109541601D01*
X32948075Y-109148061D01*
X36715000Y-109148061D01*
X36715000Y-109351939D01*
X36754774Y-109551898D01*
X36832795Y-109740256D01*
X36946063Y-109909774D01*
X37090226Y-110053937D01*
X37259744Y-110167205D01*
X37448102Y-110245226D01*
X37648061Y-110285000D01*
X37851939Y-110285000D01*
X38051898Y-110245226D01*
X38240256Y-110167205D01*
X38409774Y-110053937D01*
X38553937Y-109909774D01*
X38667205Y-109740256D01*
X38745226Y-109551898D01*
X38785000Y-109351939D01*
X38785000Y-109148061D01*
X38745226Y-108948102D01*
X38724499Y-108898061D01*
X48465000Y-108898061D01*
X48465000Y-109101939D01*
X48504774Y-109301898D01*
X48582795Y-109490256D01*
X48696063Y-109659774D01*
X48840226Y-109803937D01*
X49009744Y-109917205D01*
X49198102Y-109995226D01*
X49398061Y-110035000D01*
X49601939Y-110035000D01*
X49801898Y-109995226D01*
X49990256Y-109917205D01*
X50159774Y-109803937D01*
X50250000Y-109713711D01*
X50340226Y-109803937D01*
X50509744Y-109917205D01*
X50698102Y-109995226D01*
X50898061Y-110035000D01*
X51101939Y-110035000D01*
X51301898Y-109995226D01*
X51490256Y-109917205D01*
X51659774Y-109803937D01*
X51803937Y-109659774D01*
X51917205Y-109490256D01*
X51995226Y-109301898D01*
X52035000Y-109101939D01*
X52035000Y-108898061D01*
X51995226Y-108698102D01*
X51917205Y-108509744D01*
X51803937Y-108340226D01*
X51659774Y-108196063D01*
X51490256Y-108082795D01*
X51301898Y-108004774D01*
X51101939Y-107965000D01*
X50898061Y-107965000D01*
X50698102Y-108004774D01*
X50509744Y-108082795D01*
X50340226Y-108196063D01*
X50250000Y-108286289D01*
X50159774Y-108196063D01*
X49990256Y-108082795D01*
X49801898Y-108004774D01*
X49601939Y-107965000D01*
X49398061Y-107965000D01*
X49198102Y-108004774D01*
X49009744Y-108082795D01*
X48840226Y-108196063D01*
X48696063Y-108340226D01*
X48582795Y-108509744D01*
X48504774Y-108698102D01*
X48465000Y-108898061D01*
X38724499Y-108898061D01*
X38667205Y-108759744D01*
X38553937Y-108590226D01*
X38409774Y-108446063D01*
X38240256Y-108332795D01*
X38051898Y-108254774D01*
X37851939Y-108215000D01*
X37648061Y-108215000D01*
X37448102Y-108254774D01*
X37259744Y-108332795D01*
X37090226Y-108446063D01*
X36946063Y-108590226D01*
X36832795Y-108759744D01*
X36754774Y-108948102D01*
X36715000Y-109148061D01*
X32948075Y-109148061D01*
X32777473Y-108939270D01*
X31926486Y-108469356D01*
X31000176Y-108174490D01*
X30034138Y-108066005D01*
X29065498Y-108148068D01*
X28131481Y-108417526D01*
X27267979Y-108864025D01*
X27155365Y-108939270D01*
X26663206Y-109541601D01*
X25806000Y-109541601D01*
X25806000Y-106398061D01*
X38965000Y-106398061D01*
X38965000Y-106601939D01*
X39004774Y-106801898D01*
X39082795Y-106990256D01*
X39196063Y-107159774D01*
X39340226Y-107303937D01*
X39509744Y-107417205D01*
X39698102Y-107495226D01*
X39898061Y-107535000D01*
X40101939Y-107535000D01*
X40301898Y-107495226D01*
X40490256Y-107417205D01*
X40659774Y-107303937D01*
X40803937Y-107159774D01*
X40917205Y-106990256D01*
X40995226Y-106801898D01*
X41035000Y-106601939D01*
X41035000Y-106398061D01*
X40995226Y-106198102D01*
X40995210Y-106198061D01*
X56965000Y-106198061D01*
X56965000Y-106401939D01*
X57004774Y-106601898D01*
X57082795Y-106790256D01*
X57196063Y-106959774D01*
X57340226Y-107103937D01*
X57509744Y-107217205D01*
X57698102Y-107295226D01*
X57898061Y-107335000D01*
X58101939Y-107335000D01*
X58301898Y-107295226D01*
X58490256Y-107217205D01*
X58659774Y-107103937D01*
X58803937Y-106959774D01*
X58917205Y-106790256D01*
X58995226Y-106601898D01*
X59035000Y-106401939D01*
X59035000Y-106198061D01*
X58995226Y-105998102D01*
X58917205Y-105809744D01*
X58803937Y-105640226D01*
X58659774Y-105496063D01*
X58490256Y-105382795D01*
X58301898Y-105304774D01*
X58101939Y-105265000D01*
X57898061Y-105265000D01*
X57698102Y-105304774D01*
X57509744Y-105382795D01*
X57340226Y-105496063D01*
X57196063Y-105640226D01*
X57082795Y-105809744D01*
X57004774Y-105998102D01*
X56965000Y-106198061D01*
X40995210Y-106198061D01*
X40917205Y-106009744D01*
X40803937Y-105840226D01*
X40659774Y-105696063D01*
X40490256Y-105582795D01*
X40301898Y-105504774D01*
X40101939Y-105465000D01*
X39898061Y-105465000D01*
X39698102Y-105504774D01*
X39509744Y-105582795D01*
X39340226Y-105696063D01*
X39196063Y-105840226D01*
X39082795Y-106009744D01*
X39004774Y-106198102D01*
X38965000Y-106398061D01*
X25806000Y-106398061D01*
X25806000Y-101063740D01*
X26975000Y-101063740D01*
X26975000Y-101356260D01*
X27032068Y-101643158D01*
X27144010Y-101913411D01*
X27306525Y-102156632D01*
X27513368Y-102363475D01*
X27687760Y-102480000D01*
X27513368Y-102596525D01*
X27306525Y-102803368D01*
X27144010Y-103046589D01*
X27032068Y-103316842D01*
X26975000Y-103603740D01*
X26975000Y-103896260D01*
X27032068Y-104183158D01*
X27144010Y-104453411D01*
X27306525Y-104696632D01*
X27513368Y-104903475D01*
X27756589Y-105065990D01*
X28026842Y-105177932D01*
X28313740Y-105235000D01*
X28606260Y-105235000D01*
X28893158Y-105177932D01*
X29163411Y-105065990D01*
X29406632Y-104903475D01*
X29538487Y-104771620D01*
X29560498Y-104844180D01*
X29619463Y-104954494D01*
X29698815Y-105051185D01*
X29795506Y-105130537D01*
X29905820Y-105189502D01*
X30025518Y-105225812D01*
X30150000Y-105238072D01*
X31850000Y-105238072D01*
X31974482Y-105225812D01*
X32094180Y-105189502D01*
X32204494Y-105130537D01*
X32301185Y-105051185D01*
X32380537Y-104954494D01*
X32439502Y-104844180D01*
X32475812Y-104724482D01*
X32488072Y-104600000D01*
X32488072Y-103898061D01*
X35465000Y-103898061D01*
X35465000Y-104101939D01*
X35504774Y-104301898D01*
X35582795Y-104490256D01*
X35696063Y-104659774D01*
X35840226Y-104803937D01*
X36009744Y-104917205D01*
X36198102Y-104995226D01*
X36398061Y-105035000D01*
X36601939Y-105035000D01*
X36801898Y-104995226D01*
X36990256Y-104917205D01*
X37018907Y-104898061D01*
X45265000Y-104898061D01*
X45265000Y-105101939D01*
X45304774Y-105301898D01*
X45382795Y-105490256D01*
X45496063Y-105659774D01*
X45640226Y-105803937D01*
X45809744Y-105917205D01*
X45998102Y-105995226D01*
X46198061Y-106035000D01*
X46401939Y-106035000D01*
X46601898Y-105995226D01*
X46790256Y-105917205D01*
X46959774Y-105803937D01*
X47103937Y-105659774D01*
X47217205Y-105490256D01*
X47295226Y-105301898D01*
X47335000Y-105101939D01*
X47335000Y-104898061D01*
X47295226Y-104698102D01*
X47217205Y-104509744D01*
X47103937Y-104340226D01*
X46959774Y-104196063D01*
X46790256Y-104082795D01*
X46601898Y-104004774D01*
X46401939Y-103965000D01*
X46198061Y-103965000D01*
X45998102Y-104004774D01*
X45809744Y-104082795D01*
X45640226Y-104196063D01*
X45496063Y-104340226D01*
X45382795Y-104509744D01*
X45304774Y-104698102D01*
X45265000Y-104898061D01*
X37018907Y-104898061D01*
X37159774Y-104803937D01*
X37303937Y-104659774D01*
X37417205Y-104490256D01*
X37495226Y-104301898D01*
X37535000Y-104101939D01*
X37535000Y-103898061D01*
X37495226Y-103698102D01*
X37417205Y-103509744D01*
X37342582Y-103398061D01*
X50665000Y-103398061D01*
X50665000Y-103601939D01*
X50704774Y-103801898D01*
X50782795Y-103990256D01*
X50896063Y-104159774D01*
X51040226Y-104303937D01*
X51209744Y-104417205D01*
X51398102Y-104495226D01*
X51598061Y-104535000D01*
X51801939Y-104535000D01*
X52001898Y-104495226D01*
X52190256Y-104417205D01*
X52359774Y-104303937D01*
X52462574Y-104201137D01*
X66987000Y-104201137D01*
X66987000Y-104414863D01*
X67028696Y-104624483D01*
X67110485Y-104821940D01*
X67229225Y-104999647D01*
X67380353Y-105150775D01*
X67558060Y-105269515D01*
X67755517Y-105351304D01*
X67965137Y-105393000D01*
X68178863Y-105393000D01*
X68388483Y-105351304D01*
X68585940Y-105269515D01*
X68763647Y-105150775D01*
X68914775Y-104999647D01*
X69033515Y-104821940D01*
X69115304Y-104624483D01*
X69157000Y-104414863D01*
X69157000Y-104201137D01*
X69115304Y-103991517D01*
X69033515Y-103794060D01*
X68914775Y-103616353D01*
X68763647Y-103465225D01*
X68585940Y-103346485D01*
X68388483Y-103264696D01*
X68178863Y-103223000D01*
X67965137Y-103223000D01*
X67755517Y-103264696D01*
X67558060Y-103346485D01*
X67380353Y-103465225D01*
X67229225Y-103616353D01*
X67110485Y-103794060D01*
X67028696Y-103991517D01*
X66987000Y-104201137D01*
X52462574Y-104201137D01*
X52503937Y-104159774D01*
X52617205Y-103990256D01*
X52695226Y-103801898D01*
X52735000Y-103601939D01*
X52735000Y-103398061D01*
X52695226Y-103198102D01*
X52617205Y-103009744D01*
X52503937Y-102840226D01*
X52359774Y-102696063D01*
X52190256Y-102582795D01*
X52001898Y-102504774D01*
X51801939Y-102465000D01*
X51598061Y-102465000D01*
X51398102Y-102504774D01*
X51209744Y-102582795D01*
X51040226Y-102696063D01*
X50896063Y-102840226D01*
X50782795Y-103009744D01*
X50704774Y-103198102D01*
X50665000Y-103398061D01*
X37342582Y-103398061D01*
X37303937Y-103340226D01*
X37159774Y-103196063D01*
X36990256Y-103082795D01*
X36801898Y-103004774D01*
X36601939Y-102965000D01*
X36398061Y-102965000D01*
X36198102Y-103004774D01*
X36009744Y-103082795D01*
X35840226Y-103196063D01*
X35696063Y-103340226D01*
X35582795Y-103509744D01*
X35504774Y-103698102D01*
X35465000Y-103898061D01*
X32488072Y-103898061D01*
X32488072Y-102900000D01*
X32475812Y-102775518D01*
X32439502Y-102655820D01*
X32380537Y-102545506D01*
X32301185Y-102448815D01*
X32204494Y-102369463D01*
X32094180Y-102310498D01*
X32021620Y-102288487D01*
X32153475Y-102156632D01*
X32315990Y-101913411D01*
X32322348Y-101898061D01*
X39765000Y-101898061D01*
X39765000Y-102101939D01*
X39804774Y-102301898D01*
X39882795Y-102490256D01*
X39996063Y-102659774D01*
X40140226Y-102803937D01*
X40309744Y-102917205D01*
X40498102Y-102995226D01*
X40698061Y-103035000D01*
X40901939Y-103035000D01*
X41101898Y-102995226D01*
X41290256Y-102917205D01*
X41459774Y-102803937D01*
X41603937Y-102659774D01*
X41717205Y-102490256D01*
X41795226Y-102301898D01*
X41835000Y-102101939D01*
X41835000Y-101898061D01*
X61465000Y-101898061D01*
X61465000Y-102101939D01*
X61504774Y-102301898D01*
X61582795Y-102490256D01*
X61696063Y-102659774D01*
X61840226Y-102803937D01*
X62009744Y-102917205D01*
X62198102Y-102995226D01*
X62398061Y-103035000D01*
X62601939Y-103035000D01*
X62801898Y-102995226D01*
X62990256Y-102917205D01*
X63159774Y-102803937D01*
X63303937Y-102659774D01*
X63417205Y-102490256D01*
X63495226Y-102301898D01*
X63535000Y-102101939D01*
X63535000Y-101898061D01*
X63495226Y-101698102D01*
X63417205Y-101509744D01*
X63303937Y-101340226D01*
X63159774Y-101196063D01*
X62990256Y-101082795D01*
X62801898Y-101004774D01*
X62601939Y-100965000D01*
X62398061Y-100965000D01*
X62198102Y-101004774D01*
X62009744Y-101082795D01*
X61840226Y-101196063D01*
X61696063Y-101340226D01*
X61582795Y-101509744D01*
X61504774Y-101698102D01*
X61465000Y-101898061D01*
X41835000Y-101898061D01*
X41795226Y-101698102D01*
X41717205Y-101509744D01*
X41603937Y-101340226D01*
X41459774Y-101196063D01*
X41290256Y-101082795D01*
X41101898Y-101004774D01*
X40901939Y-100965000D01*
X40698061Y-100965000D01*
X40498102Y-101004774D01*
X40309744Y-101082795D01*
X40140226Y-101196063D01*
X39996063Y-101340226D01*
X39882795Y-101509744D01*
X39804774Y-101698102D01*
X39765000Y-101898061D01*
X32322348Y-101898061D01*
X32427932Y-101643158D01*
X32485000Y-101356260D01*
X32485000Y-101063740D01*
X32427932Y-100776842D01*
X32315990Y-100506589D01*
X32243474Y-100398061D01*
X59965000Y-100398061D01*
X59965000Y-100601939D01*
X60004774Y-100801898D01*
X60082795Y-100990256D01*
X60196063Y-101159774D01*
X60340226Y-101303937D01*
X60509744Y-101417205D01*
X60698102Y-101495226D01*
X60898061Y-101535000D01*
X61101939Y-101535000D01*
X61301898Y-101495226D01*
X61490256Y-101417205D01*
X61659774Y-101303937D01*
X61803937Y-101159774D01*
X61917205Y-100990256D01*
X61995226Y-100801898D01*
X62035000Y-100601939D01*
X62035000Y-100398061D01*
X61995226Y-100198102D01*
X61917205Y-100009744D01*
X61803937Y-99840226D01*
X61764848Y-99801137D01*
X66987000Y-99801137D01*
X66987000Y-100014863D01*
X67028696Y-100224483D01*
X67110485Y-100421940D01*
X67229225Y-100599647D01*
X67380353Y-100750775D01*
X67558060Y-100869515D01*
X67755517Y-100951304D01*
X67965137Y-100993000D01*
X68178863Y-100993000D01*
X68388483Y-100951304D01*
X68585940Y-100869515D01*
X68763647Y-100750775D01*
X68914775Y-100599647D01*
X69033515Y-100421940D01*
X69115304Y-100224483D01*
X69157000Y-100014863D01*
X69157000Y-99801137D01*
X69115304Y-99591517D01*
X69033515Y-99394060D01*
X68914775Y-99216353D01*
X68763647Y-99065225D01*
X68585940Y-98946485D01*
X68388483Y-98864696D01*
X68178863Y-98823000D01*
X67965137Y-98823000D01*
X67755517Y-98864696D01*
X67558060Y-98946485D01*
X67380353Y-99065225D01*
X67229225Y-99216353D01*
X67110485Y-99394060D01*
X67028696Y-99591517D01*
X66987000Y-99801137D01*
X61764848Y-99801137D01*
X61659774Y-99696063D01*
X61490256Y-99582795D01*
X61301898Y-99504774D01*
X61101939Y-99465000D01*
X60898061Y-99465000D01*
X60698102Y-99504774D01*
X60509744Y-99582795D01*
X60340226Y-99696063D01*
X60196063Y-99840226D01*
X60082795Y-100009744D01*
X60004774Y-100198102D01*
X59965000Y-100398061D01*
X32243474Y-100398061D01*
X32153475Y-100263368D01*
X31946632Y-100056525D01*
X31772240Y-99940000D01*
X31946632Y-99823475D01*
X32153475Y-99616632D01*
X32315990Y-99373411D01*
X32427932Y-99103158D01*
X32485000Y-98816260D01*
X32485000Y-98523740D01*
X32427932Y-98236842D01*
X32315990Y-97966589D01*
X32270202Y-97898061D01*
X32465000Y-97898061D01*
X32465000Y-98101939D01*
X32504774Y-98301898D01*
X32582795Y-98490256D01*
X32696063Y-98659774D01*
X32840226Y-98803937D01*
X33009744Y-98917205D01*
X33198102Y-98995226D01*
X33398061Y-99035000D01*
X33601939Y-99035000D01*
X33801898Y-98995226D01*
X33990256Y-98917205D01*
X34159774Y-98803937D01*
X34303937Y-98659774D01*
X34417205Y-98490256D01*
X34495226Y-98301898D01*
X34535000Y-98101939D01*
X34535000Y-97898061D01*
X41765000Y-97898061D01*
X41765000Y-98101939D01*
X41804774Y-98301898D01*
X41882795Y-98490256D01*
X41996063Y-98659774D01*
X42140226Y-98803937D01*
X42309744Y-98917205D01*
X42498102Y-98995226D01*
X42698061Y-99035000D01*
X42901939Y-99035000D01*
X43101898Y-98995226D01*
X43290256Y-98917205D01*
X43459774Y-98803937D01*
X43603937Y-98659774D01*
X43717205Y-98490256D01*
X43795226Y-98301898D01*
X43835000Y-98101939D01*
X43835000Y-97898061D01*
X43795226Y-97698102D01*
X43717205Y-97509744D01*
X43603937Y-97340226D01*
X43459774Y-97196063D01*
X43290256Y-97082795D01*
X43101898Y-97004774D01*
X42901939Y-96965000D01*
X42698061Y-96965000D01*
X42498102Y-97004774D01*
X42309744Y-97082795D01*
X42140226Y-97196063D01*
X41996063Y-97340226D01*
X41882795Y-97509744D01*
X41804774Y-97698102D01*
X41765000Y-97898061D01*
X34535000Y-97898061D01*
X34495226Y-97698102D01*
X34417205Y-97509744D01*
X34303937Y-97340226D01*
X34159774Y-97196063D01*
X33990256Y-97082795D01*
X33801898Y-97004774D01*
X33601939Y-96965000D01*
X33398061Y-96965000D01*
X33198102Y-97004774D01*
X33009744Y-97082795D01*
X32840226Y-97196063D01*
X32696063Y-97340226D01*
X32582795Y-97509744D01*
X32504774Y-97698102D01*
X32465000Y-97898061D01*
X32270202Y-97898061D01*
X32153475Y-97723368D01*
X31946632Y-97516525D01*
X31703411Y-97354010D01*
X31433158Y-97242068D01*
X31146260Y-97185000D01*
X30853740Y-97185000D01*
X30566842Y-97242068D01*
X30296589Y-97354010D01*
X30053368Y-97516525D01*
X29846525Y-97723368D01*
X29728900Y-97899406D01*
X29557588Y-97669731D01*
X29341355Y-97474822D01*
X29091252Y-97325843D01*
X28816891Y-97228519D01*
X28587000Y-97349186D01*
X28587000Y-98543000D01*
X28607000Y-98543000D01*
X28607000Y-98797000D01*
X28587000Y-98797000D01*
X28587000Y-98817000D01*
X28333000Y-98817000D01*
X28333000Y-98797000D01*
X27139845Y-98797000D01*
X27018524Y-99026890D01*
X27063175Y-99174099D01*
X27188359Y-99436920D01*
X27362412Y-99670269D01*
X27578645Y-99865178D01*
X27695534Y-99934805D01*
X27513368Y-100056525D01*
X27306525Y-100263368D01*
X27144010Y-100506589D01*
X27032068Y-100776842D01*
X26975000Y-101063740D01*
X25806000Y-101063740D01*
X25806000Y-98313110D01*
X27018524Y-98313110D01*
X27139845Y-98543000D01*
X28333000Y-98543000D01*
X28333000Y-97349186D01*
X28103109Y-97228519D01*
X27828748Y-97325843D01*
X27578645Y-97474822D01*
X27362412Y-97669731D01*
X27188359Y-97903080D01*
X27063175Y-98165901D01*
X27018524Y-98313110D01*
X25806000Y-98313110D01*
X25806000Y-94398061D01*
X44865000Y-94398061D01*
X44865000Y-94601939D01*
X44904774Y-94801898D01*
X44982795Y-94990256D01*
X45096063Y-95159774D01*
X45240226Y-95303937D01*
X45409744Y-95417205D01*
X45598102Y-95495226D01*
X45798061Y-95535000D01*
X46001939Y-95535000D01*
X46201898Y-95495226D01*
X46390256Y-95417205D01*
X46559774Y-95303937D01*
X46703937Y-95159774D01*
X46817205Y-94990256D01*
X46855393Y-94898061D01*
X50665000Y-94898061D01*
X50665000Y-95101939D01*
X50704774Y-95301898D01*
X50782795Y-95490256D01*
X50896063Y-95659774D01*
X51040226Y-95803937D01*
X51209744Y-95917205D01*
X51398102Y-95995226D01*
X51598061Y-96035000D01*
X51801939Y-96035000D01*
X52001898Y-95995226D01*
X52190256Y-95917205D01*
X52359774Y-95803937D01*
X52503937Y-95659774D01*
X52617205Y-95490256D01*
X52695226Y-95301898D01*
X52735000Y-95101939D01*
X52735000Y-94898061D01*
X52695226Y-94698102D01*
X52617205Y-94509744D01*
X52503937Y-94340226D01*
X52461772Y-94298061D01*
X59065000Y-94298061D01*
X59065000Y-94501939D01*
X59104774Y-94701898D01*
X59182795Y-94890256D01*
X59296063Y-95059774D01*
X59440226Y-95203937D01*
X59609744Y-95317205D01*
X59798102Y-95395226D01*
X59998061Y-95435000D01*
X60201939Y-95435000D01*
X60401898Y-95395226D01*
X60590256Y-95317205D01*
X60759774Y-95203937D01*
X60903937Y-95059774D01*
X61017205Y-94890256D01*
X61095226Y-94701898D01*
X61135000Y-94501939D01*
X61135000Y-94298061D01*
X61095226Y-94098102D01*
X61017205Y-93909744D01*
X60903937Y-93740226D01*
X60759774Y-93596063D01*
X60590256Y-93482795D01*
X60401898Y-93404774D01*
X60201939Y-93365000D01*
X59998061Y-93365000D01*
X59798102Y-93404774D01*
X59609744Y-93482795D01*
X59440226Y-93596063D01*
X59296063Y-93740226D01*
X59182795Y-93909744D01*
X59104774Y-94098102D01*
X59065000Y-94298061D01*
X52461772Y-94298061D01*
X52359774Y-94196063D01*
X52190256Y-94082795D01*
X52001898Y-94004774D01*
X51801939Y-93965000D01*
X51598061Y-93965000D01*
X51398102Y-94004774D01*
X51209744Y-94082795D01*
X51040226Y-94196063D01*
X50896063Y-94340226D01*
X50782795Y-94509744D01*
X50704774Y-94698102D01*
X50665000Y-94898061D01*
X46855393Y-94898061D01*
X46895226Y-94801898D01*
X46935000Y-94601939D01*
X46935000Y-94398061D01*
X46895226Y-94198102D01*
X46817205Y-94009744D01*
X46703937Y-93840226D01*
X46559774Y-93696063D01*
X46390256Y-93582795D01*
X46201898Y-93504774D01*
X46001939Y-93465000D01*
X45798061Y-93465000D01*
X45598102Y-93504774D01*
X45409744Y-93582795D01*
X45240226Y-93696063D01*
X45096063Y-93840226D01*
X44982795Y-94009744D01*
X44904774Y-94198102D01*
X44865000Y-94398061D01*
X25806000Y-94398061D01*
X25806000Y-92698061D01*
X28765000Y-92698061D01*
X28765000Y-92901939D01*
X28804774Y-93101898D01*
X28882795Y-93290256D01*
X28996063Y-93459774D01*
X29140226Y-93603937D01*
X29309744Y-93717205D01*
X29498102Y-93795226D01*
X29698061Y-93835000D01*
X29901939Y-93835000D01*
X30101898Y-93795226D01*
X30290256Y-93717205D01*
X30459774Y-93603937D01*
X30603937Y-93459774D01*
X30717205Y-93290256D01*
X30795226Y-93101898D01*
X30835000Y-92901939D01*
X30835000Y-92698061D01*
X30795226Y-92498102D01*
X30717205Y-92309744D01*
X30603937Y-92140226D01*
X30459774Y-91996063D01*
X30290256Y-91882795D01*
X30101898Y-91804774D01*
X29901939Y-91765000D01*
X29698061Y-91765000D01*
X29498102Y-91804774D01*
X29309744Y-91882795D01*
X29140226Y-91996063D01*
X28996063Y-92140226D01*
X28882795Y-92309744D01*
X28804774Y-92498102D01*
X28765000Y-92698061D01*
X25806000Y-92698061D01*
X25806000Y-88598061D01*
X29465000Y-88598061D01*
X29465000Y-88801939D01*
X29504774Y-89001898D01*
X29582795Y-89190256D01*
X29696063Y-89359774D01*
X29840226Y-89503937D01*
X30009744Y-89617205D01*
X30198102Y-89695226D01*
X30398061Y-89735000D01*
X30601939Y-89735000D01*
X30801898Y-89695226D01*
X30990256Y-89617205D01*
X31159774Y-89503937D01*
X31265650Y-89398061D01*
X32465000Y-89398061D01*
X32465000Y-89601939D01*
X32504774Y-89801898D01*
X32582795Y-89990256D01*
X32696063Y-90159774D01*
X32840226Y-90303937D01*
X33009744Y-90417205D01*
X33198102Y-90495226D01*
X33398061Y-90535000D01*
X33601939Y-90535000D01*
X33801898Y-90495226D01*
X33990256Y-90417205D01*
X34159774Y-90303937D01*
X34303937Y-90159774D01*
X34417205Y-89990256D01*
X34495226Y-89801898D01*
X34535000Y-89601939D01*
X34535000Y-89398061D01*
X34495226Y-89198102D01*
X34417205Y-89009744D01*
X34303937Y-88840226D01*
X34159774Y-88696063D01*
X33990256Y-88582795D01*
X33801898Y-88504774D01*
X33601939Y-88465000D01*
X33398061Y-88465000D01*
X33198102Y-88504774D01*
X33009744Y-88582795D01*
X32840226Y-88696063D01*
X32696063Y-88840226D01*
X32582795Y-89009744D01*
X32504774Y-89198102D01*
X32465000Y-89398061D01*
X31265650Y-89398061D01*
X31303937Y-89359774D01*
X31417205Y-89190256D01*
X31495226Y-89001898D01*
X31535000Y-88801939D01*
X31535000Y-88598061D01*
X31495226Y-88398102D01*
X31495210Y-88398061D01*
X37965000Y-88398061D01*
X37965000Y-88601939D01*
X38004774Y-88801898D01*
X38082795Y-88990256D01*
X38196063Y-89159774D01*
X38286289Y-89250000D01*
X38196063Y-89340226D01*
X38082795Y-89509744D01*
X38004774Y-89698102D01*
X37965000Y-89898061D01*
X37965000Y-90101939D01*
X38004774Y-90301898D01*
X38082795Y-90490256D01*
X38196063Y-90659774D01*
X38340226Y-90803937D01*
X38509744Y-90917205D01*
X38698102Y-90995226D01*
X38898061Y-91035000D01*
X39101939Y-91035000D01*
X39301898Y-90995226D01*
X39490256Y-90917205D01*
X39659774Y-90803937D01*
X39803937Y-90659774D01*
X39917205Y-90490256D01*
X39995226Y-90301898D01*
X40035000Y-90101939D01*
X40035000Y-89898061D01*
X39995226Y-89698102D01*
X39917205Y-89509744D01*
X39803937Y-89340226D01*
X39713711Y-89250000D01*
X39803937Y-89159774D01*
X39917205Y-88990256D01*
X39995226Y-88801898D01*
X40035000Y-88601939D01*
X40035000Y-88398061D01*
X39995226Y-88198102D01*
X39917205Y-88009744D01*
X39803937Y-87840226D01*
X39659774Y-87696063D01*
X39490256Y-87582795D01*
X39301898Y-87504774D01*
X39101939Y-87465000D01*
X38898061Y-87465000D01*
X38698102Y-87504774D01*
X38509744Y-87582795D01*
X38340226Y-87696063D01*
X38196063Y-87840226D01*
X38082795Y-88009744D01*
X38004774Y-88198102D01*
X37965000Y-88398061D01*
X31495210Y-88398061D01*
X31417205Y-88209744D01*
X31303937Y-88040226D01*
X31159774Y-87896063D01*
X30990256Y-87782795D01*
X30801898Y-87704774D01*
X30601939Y-87665000D01*
X30398061Y-87665000D01*
X30198102Y-87704774D01*
X30009744Y-87782795D01*
X29840226Y-87896063D01*
X29696063Y-88040226D01*
X29582795Y-88209744D01*
X29504774Y-88398102D01*
X29465000Y-88598061D01*
X25806000Y-88598061D01*
X25806000Y-84634722D01*
X27842764Y-84620894D01*
X27906414Y-87181081D01*
X27909470Y-87205790D01*
X27917286Y-87229427D01*
X27929565Y-87251085D01*
X27945832Y-87269932D01*
X27961233Y-87282445D01*
X28427858Y-87604520D01*
X28449635Y-87616586D01*
X28473347Y-87624172D01*
X28500000Y-87627000D01*
X30500000Y-87627000D01*
X30524776Y-87624560D01*
X30548601Y-87617333D01*
X30570557Y-87605597D01*
X30589803Y-87589803D01*
X30605597Y-87570557D01*
X30617333Y-87548601D01*
X30624560Y-87524776D01*
X30627000Y-87500000D01*
X30624560Y-87475224D01*
X30617333Y-87451399D01*
X30605597Y-87429443D01*
X30589803Y-87410197D01*
X30577374Y-87399997D01*
X30589709Y-87389896D01*
X30605523Y-87370668D01*
X30617282Y-87348724D01*
X30624534Y-87324907D01*
X30627000Y-87300000D01*
X30627000Y-87198061D01*
X45265000Y-87198061D01*
X45265000Y-87401939D01*
X45304774Y-87601898D01*
X45382795Y-87790256D01*
X45496063Y-87959774D01*
X45640226Y-88103937D01*
X45809744Y-88217205D01*
X45998102Y-88295226D01*
X46198061Y-88335000D01*
X46401939Y-88335000D01*
X46601898Y-88295226D01*
X46790256Y-88217205D01*
X46959774Y-88103937D01*
X47103937Y-87959774D01*
X47217205Y-87790256D01*
X47295226Y-87601898D01*
X47335000Y-87401939D01*
X47335000Y-87398061D01*
X57165000Y-87398061D01*
X57165000Y-87601939D01*
X57204774Y-87801898D01*
X57282795Y-87990256D01*
X57396063Y-88159774D01*
X57540226Y-88303937D01*
X57709744Y-88417205D01*
X57898102Y-88495226D01*
X58098061Y-88535000D01*
X58301939Y-88535000D01*
X58501898Y-88495226D01*
X58690256Y-88417205D01*
X58718907Y-88398061D01*
X65965000Y-88398061D01*
X65965000Y-88601939D01*
X66004774Y-88801898D01*
X66082795Y-88990256D01*
X66196063Y-89159774D01*
X66340226Y-89303937D01*
X66509744Y-89417205D01*
X66698102Y-89495226D01*
X66722103Y-89500000D01*
X66698102Y-89504774D01*
X66509744Y-89582795D01*
X66340226Y-89696063D01*
X66196063Y-89840226D01*
X66082795Y-90009744D01*
X66004774Y-90198102D01*
X65965000Y-90398061D01*
X65965000Y-90601939D01*
X66004774Y-90801898D01*
X66082795Y-90990256D01*
X66196063Y-91159774D01*
X66340226Y-91303937D01*
X66509744Y-91417205D01*
X66698102Y-91495226D01*
X66898061Y-91535000D01*
X67101939Y-91535000D01*
X67301898Y-91495226D01*
X67490256Y-91417205D01*
X67659774Y-91303937D01*
X67803937Y-91159774D01*
X67917205Y-90990256D01*
X67995226Y-90801898D01*
X68035000Y-90601939D01*
X68035000Y-90398061D01*
X67995226Y-90198102D01*
X67917205Y-90009744D01*
X67803937Y-89840226D01*
X67659774Y-89696063D01*
X67490256Y-89582795D01*
X67301898Y-89504774D01*
X67277897Y-89500000D01*
X67301898Y-89495226D01*
X67490256Y-89417205D01*
X67659774Y-89303937D01*
X67803937Y-89159774D01*
X67917205Y-88990256D01*
X67995226Y-88801898D01*
X68035000Y-88601939D01*
X68035000Y-88398061D01*
X67995226Y-88198102D01*
X67917205Y-88009744D01*
X67803937Y-87840226D01*
X67659774Y-87696063D01*
X67490256Y-87582795D01*
X67301898Y-87504774D01*
X67101939Y-87465000D01*
X66898061Y-87465000D01*
X66698102Y-87504774D01*
X66509744Y-87582795D01*
X66340226Y-87696063D01*
X66196063Y-87840226D01*
X66082795Y-88009744D01*
X66004774Y-88198102D01*
X65965000Y-88398061D01*
X58718907Y-88398061D01*
X58859774Y-88303937D01*
X59003937Y-88159774D01*
X59117205Y-87990256D01*
X59195226Y-87801898D01*
X59235000Y-87601939D01*
X59235000Y-87398061D01*
X59195226Y-87198102D01*
X59117205Y-87009744D01*
X59003937Y-86840226D01*
X58859774Y-86696063D01*
X58690256Y-86582795D01*
X58501898Y-86504774D01*
X58301939Y-86465000D01*
X58098061Y-86465000D01*
X57898102Y-86504774D01*
X57709744Y-86582795D01*
X57540226Y-86696063D01*
X57396063Y-86840226D01*
X57282795Y-87009744D01*
X57204774Y-87198102D01*
X57165000Y-87398061D01*
X47335000Y-87398061D01*
X47335000Y-87198061D01*
X47295226Y-86998102D01*
X47217205Y-86809744D01*
X47103937Y-86640226D01*
X46959774Y-86496063D01*
X46790256Y-86382795D01*
X46601898Y-86304774D01*
X46401939Y-86265000D01*
X46198061Y-86265000D01*
X45998102Y-86304774D01*
X45809744Y-86382795D01*
X45640226Y-86496063D01*
X45496063Y-86640226D01*
X45382795Y-86809744D01*
X45304774Y-86998102D01*
X45265000Y-87198061D01*
X30627000Y-87198061D01*
X30627000Y-85400311D01*
X41462750Y-85400311D01*
X41462750Y-85604189D01*
X41502524Y-85804148D01*
X41580545Y-85992506D01*
X41693813Y-86162024D01*
X41837976Y-86306187D01*
X42007494Y-86419455D01*
X42195852Y-86497476D01*
X42395811Y-86537250D01*
X42599689Y-86537250D01*
X42799648Y-86497476D01*
X42988006Y-86419455D01*
X43157524Y-86306187D01*
X43301687Y-86162024D01*
X43414955Y-85992506D01*
X43492976Y-85804148D01*
X43532750Y-85604189D01*
X43532750Y-85400311D01*
X43492976Y-85200352D01*
X43414955Y-85011994D01*
X43301687Y-84842476D01*
X43157524Y-84698313D01*
X42988006Y-84585045D01*
X42799648Y-84507024D01*
X42599689Y-84467250D01*
X42395811Y-84467250D01*
X42195852Y-84507024D01*
X42007494Y-84585045D01*
X41837976Y-84698313D01*
X41693813Y-84842476D01*
X41580545Y-85011994D01*
X41502524Y-85200352D01*
X41462750Y-85400311D01*
X30627000Y-85400311D01*
X30627000Y-82898061D01*
X35465000Y-82898061D01*
X35465000Y-83101939D01*
X35504774Y-83301898D01*
X35582795Y-83490256D01*
X35696063Y-83659774D01*
X35840226Y-83803937D01*
X36009744Y-83917205D01*
X36198102Y-83995226D01*
X36398061Y-84035000D01*
X36601939Y-84035000D01*
X36801898Y-83995226D01*
X36990256Y-83917205D01*
X37159774Y-83803937D01*
X37303937Y-83659774D01*
X37417205Y-83490256D01*
X37495226Y-83301898D01*
X37515880Y-83198061D01*
X50565000Y-83198061D01*
X50565000Y-83401939D01*
X50604774Y-83601898D01*
X50682795Y-83790256D01*
X50796063Y-83959774D01*
X50940226Y-84103937D01*
X51109744Y-84217205D01*
X51298102Y-84295226D01*
X51498061Y-84335000D01*
X51701939Y-84335000D01*
X51901898Y-84295226D01*
X52090256Y-84217205D01*
X52259774Y-84103937D01*
X52403937Y-83959774D01*
X52517205Y-83790256D01*
X52595226Y-83601898D01*
X52635000Y-83401939D01*
X52635000Y-83198061D01*
X52595226Y-82998102D01*
X52517205Y-82809744D01*
X52403937Y-82640226D01*
X52259774Y-82496063D01*
X52090256Y-82382795D01*
X51901898Y-82304774D01*
X51701939Y-82265000D01*
X51498061Y-82265000D01*
X51298102Y-82304774D01*
X51109744Y-82382795D01*
X50940226Y-82496063D01*
X50796063Y-82640226D01*
X50682795Y-82809744D01*
X50604774Y-82998102D01*
X50565000Y-83198061D01*
X37515880Y-83198061D01*
X37535000Y-83101939D01*
X37535000Y-82898061D01*
X37495226Y-82698102D01*
X37417205Y-82509744D01*
X37303937Y-82340226D01*
X37159774Y-82196063D01*
X36990256Y-82082795D01*
X36801898Y-82004774D01*
X36601939Y-81965000D01*
X36398061Y-81965000D01*
X36198102Y-82004774D01*
X36009744Y-82082795D01*
X35840226Y-82196063D01*
X35696063Y-82340226D01*
X35582795Y-82509744D01*
X35504774Y-82698102D01*
X35465000Y-82898061D01*
X30627000Y-82898061D01*
X30627000Y-82313975D01*
X32126179Y-82213663D01*
X32150737Y-82209574D01*
X32174026Y-82200772D01*
X32195150Y-82187597D01*
X32213298Y-82170553D01*
X32227772Y-82150296D01*
X32238016Y-82127605D01*
X32243636Y-82103351D01*
X32244696Y-82085887D01*
X32230224Y-80350000D01*
X70139928Y-80350000D01*
X70152188Y-80474482D01*
X70188498Y-80594180D01*
X70247463Y-80704494D01*
X70326815Y-80801185D01*
X70423506Y-80880537D01*
X70533820Y-80939502D01*
X70606380Y-80961513D01*
X70474525Y-81093368D01*
X70312010Y-81336589D01*
X70200068Y-81606842D01*
X70143000Y-81893740D01*
X70143000Y-82186260D01*
X70200068Y-82473158D01*
X70312010Y-82743411D01*
X70474525Y-82986632D01*
X70681368Y-83193475D01*
X70855760Y-83310000D01*
X70681368Y-83426525D01*
X70474525Y-83633368D01*
X70312010Y-83876589D01*
X70200068Y-84146842D01*
X70143000Y-84433740D01*
X70143000Y-84726260D01*
X70200068Y-85013158D01*
X70312010Y-85283411D01*
X70474525Y-85526632D01*
X70681368Y-85733475D01*
X70855760Y-85850000D01*
X70681368Y-85966525D01*
X70474525Y-86173368D01*
X70312010Y-86416589D01*
X70200068Y-86686842D01*
X70143000Y-86973740D01*
X70143000Y-87266260D01*
X70200068Y-87553158D01*
X70312010Y-87823411D01*
X70474525Y-88066632D01*
X70681368Y-88273475D01*
X70855760Y-88390000D01*
X70681368Y-88506525D01*
X70474525Y-88713368D01*
X70312010Y-88956589D01*
X70200068Y-89226842D01*
X70143000Y-89513740D01*
X70143000Y-89806260D01*
X70200068Y-90093158D01*
X70312010Y-90363411D01*
X70474525Y-90606632D01*
X70681368Y-90813475D01*
X70855760Y-90930000D01*
X70681368Y-91046525D01*
X70474525Y-91253368D01*
X70312010Y-91496589D01*
X70200068Y-91766842D01*
X70143000Y-92053740D01*
X70143000Y-92346260D01*
X70200068Y-92633158D01*
X70312010Y-92903411D01*
X70474525Y-93146632D01*
X70681368Y-93353475D01*
X70924589Y-93515990D01*
X71194842Y-93627932D01*
X71481740Y-93685000D01*
X71774260Y-93685000D01*
X72061158Y-93627932D01*
X72331411Y-93515990D01*
X72574632Y-93353475D01*
X72781475Y-93146632D01*
X72943990Y-92903411D01*
X73055932Y-92633158D01*
X73113000Y-92346260D01*
X73113000Y-92053740D01*
X73055932Y-91766842D01*
X72943990Y-91496589D01*
X72781475Y-91253368D01*
X72574632Y-91046525D01*
X72400240Y-90930000D01*
X72574632Y-90813475D01*
X72781475Y-90606632D01*
X72943990Y-90363411D01*
X73055932Y-90093158D01*
X73113000Y-89806260D01*
X73113000Y-89513740D01*
X73055932Y-89226842D01*
X72943990Y-88956589D01*
X72781475Y-88713368D01*
X72574632Y-88506525D01*
X72400240Y-88390000D01*
X72574632Y-88273475D01*
X72781475Y-88066632D01*
X72943990Y-87823411D01*
X73055932Y-87553158D01*
X73113000Y-87266260D01*
X73113000Y-86973740D01*
X73055932Y-86686842D01*
X72943990Y-86416589D01*
X72781475Y-86173368D01*
X72574632Y-85966525D01*
X72400240Y-85850000D01*
X72574632Y-85733475D01*
X72781475Y-85526632D01*
X72943990Y-85283411D01*
X73055932Y-85013158D01*
X73113000Y-84726260D01*
X73113000Y-84433740D01*
X73055932Y-84146842D01*
X72943990Y-83876589D01*
X72781475Y-83633368D01*
X72574632Y-83426525D01*
X72400240Y-83310000D01*
X72574632Y-83193475D01*
X72781475Y-82986632D01*
X72943990Y-82743411D01*
X73055932Y-82473158D01*
X73113000Y-82186260D01*
X73113000Y-81893740D01*
X73055932Y-81606842D01*
X72943990Y-81336589D01*
X72781475Y-81093368D01*
X72649620Y-80961513D01*
X72722180Y-80939502D01*
X72832494Y-80880537D01*
X72929185Y-80801185D01*
X73008537Y-80704494D01*
X73067502Y-80594180D01*
X73103812Y-80474482D01*
X73116072Y-80350000D01*
X73113000Y-79785750D01*
X72954250Y-79627000D01*
X71755000Y-79627000D01*
X71755000Y-79647000D01*
X71501000Y-79647000D01*
X71501000Y-79627000D01*
X70301750Y-79627000D01*
X70143000Y-79785750D01*
X70139928Y-80350000D01*
X32230224Y-80350000D01*
X32210616Y-77998061D01*
X34665000Y-77998061D01*
X34665000Y-78201939D01*
X34704774Y-78401898D01*
X34782795Y-78590256D01*
X34896063Y-78759774D01*
X35040226Y-78903937D01*
X35209744Y-79017205D01*
X35398102Y-79095226D01*
X35598061Y-79135000D01*
X35801939Y-79135000D01*
X36001898Y-79095226D01*
X36190256Y-79017205D01*
X36359774Y-78903937D01*
X36503937Y-78759774D01*
X36617205Y-78590256D01*
X36695226Y-78401898D01*
X36735000Y-78201939D01*
X36735000Y-77998061D01*
X36695226Y-77798102D01*
X36617205Y-77609744D01*
X36503937Y-77440226D01*
X36359774Y-77296063D01*
X36190256Y-77182795D01*
X36001898Y-77104774D01*
X35801939Y-77065000D01*
X35598061Y-77065000D01*
X35398102Y-77104774D01*
X35209744Y-77182795D01*
X35040226Y-77296063D01*
X34896063Y-77440226D01*
X34782795Y-77609744D01*
X34704774Y-77798102D01*
X34665000Y-77998061D01*
X32210616Y-77998061D01*
X32209297Y-77839941D01*
X32206650Y-77815186D01*
X32199224Y-77791423D01*
X32187306Y-77769565D01*
X32171352Y-77750452D01*
X32151976Y-77734819D01*
X32129922Y-77723266D01*
X32106038Y-77716238D01*
X32083754Y-77714008D01*
X31120303Y-77702983D01*
X31806938Y-77504893D01*
X32670440Y-77058394D01*
X32783054Y-76983149D01*
X32852578Y-76898061D01*
X44865000Y-76898061D01*
X44865000Y-77101939D01*
X44904774Y-77301898D01*
X44982795Y-77490256D01*
X45096063Y-77659774D01*
X45240226Y-77803937D01*
X45409744Y-77917205D01*
X45598102Y-77995226D01*
X45798061Y-78035000D01*
X46001939Y-78035000D01*
X46187645Y-77998061D01*
X55665000Y-77998061D01*
X55665000Y-78201939D01*
X55704774Y-78401898D01*
X55782795Y-78590256D01*
X55896063Y-78759774D01*
X56040226Y-78903937D01*
X56209744Y-79017205D01*
X56398102Y-79095226D01*
X56598061Y-79135000D01*
X56801939Y-79135000D01*
X57001898Y-79095226D01*
X57190256Y-79017205D01*
X57359774Y-78903937D01*
X57503937Y-78759774D01*
X57577285Y-78650000D01*
X70139928Y-78650000D01*
X70143000Y-79214250D01*
X70301750Y-79373000D01*
X71501000Y-79373000D01*
X71501000Y-78173750D01*
X71755000Y-78173750D01*
X71755000Y-79373000D01*
X72954250Y-79373000D01*
X73113000Y-79214250D01*
X73116072Y-78650000D01*
X73103812Y-78525518D01*
X73067502Y-78405820D01*
X73008537Y-78295506D01*
X72929185Y-78198815D01*
X72832494Y-78119463D01*
X72722180Y-78060498D01*
X72602482Y-78024188D01*
X72478000Y-78011928D01*
X71913750Y-78015000D01*
X71755000Y-78173750D01*
X71501000Y-78173750D01*
X71342250Y-78015000D01*
X70778000Y-78011928D01*
X70653518Y-78024188D01*
X70533820Y-78060498D01*
X70423506Y-78119463D01*
X70326815Y-78198815D01*
X70247463Y-78295506D01*
X70188498Y-78405820D01*
X70152188Y-78525518D01*
X70139928Y-78650000D01*
X57577285Y-78650000D01*
X57617205Y-78590256D01*
X57695226Y-78401898D01*
X57735000Y-78201939D01*
X57735000Y-77998061D01*
X57715555Y-77900301D01*
X57859774Y-77803937D01*
X58003937Y-77659774D01*
X58117205Y-77490256D01*
X58195226Y-77301898D01*
X58235000Y-77101939D01*
X58235000Y-76898061D01*
X58195226Y-76698102D01*
X58117205Y-76509744D01*
X58031060Y-76380818D01*
X66546787Y-76380818D01*
X67038946Y-76983149D01*
X67889933Y-77453063D01*
X68816243Y-77747929D01*
X69782281Y-77856414D01*
X70750921Y-77774351D01*
X71684938Y-77504893D01*
X72548440Y-77058394D01*
X72661054Y-76983149D01*
X73153213Y-76380818D01*
X69850000Y-73077605D01*
X66546787Y-76380818D01*
X58031060Y-76380818D01*
X58003937Y-76340226D01*
X57859774Y-76196063D01*
X57690256Y-76082795D01*
X57501898Y-76004774D01*
X57301939Y-75965000D01*
X57098061Y-75965000D01*
X56898102Y-76004774D01*
X56709744Y-76082795D01*
X56540226Y-76196063D01*
X56396063Y-76340226D01*
X56282795Y-76509744D01*
X56204774Y-76698102D01*
X56165000Y-76898061D01*
X56165000Y-77101939D01*
X56184445Y-77199699D01*
X56040226Y-77296063D01*
X55896063Y-77440226D01*
X55782795Y-77609744D01*
X55704774Y-77798102D01*
X55665000Y-77998061D01*
X46187645Y-77998061D01*
X46201898Y-77995226D01*
X46390256Y-77917205D01*
X46559774Y-77803937D01*
X46703937Y-77659774D01*
X46817205Y-77490256D01*
X46895226Y-77301898D01*
X46935000Y-77101939D01*
X46935000Y-76898061D01*
X46895226Y-76698102D01*
X46817205Y-76509744D01*
X46703937Y-76340226D01*
X46559774Y-76196063D01*
X46390256Y-76082795D01*
X46201898Y-76004774D01*
X46001939Y-75965000D01*
X45798061Y-75965000D01*
X45598102Y-76004774D01*
X45409744Y-76082795D01*
X45240226Y-76196063D01*
X45096063Y-76340226D01*
X44982795Y-76509744D01*
X44904774Y-76698102D01*
X44865000Y-76898061D01*
X32852578Y-76898061D01*
X33275213Y-76380818D01*
X29972000Y-73077605D01*
X26668787Y-76380818D01*
X27160946Y-76983149D01*
X28011933Y-77453063D01*
X28710415Y-77675406D01*
X25806000Y-77642170D01*
X25806000Y-75585598D01*
X25811606Y-75596440D01*
X25886851Y-75709054D01*
X26489182Y-76201213D01*
X29792395Y-72898000D01*
X30151605Y-72898000D01*
X33454818Y-76201213D01*
X34057149Y-75709054D01*
X34527063Y-74858067D01*
X34821929Y-73931757D01*
X34915552Y-73098061D01*
X40765000Y-73098061D01*
X40765000Y-73301939D01*
X40804774Y-73501898D01*
X40882795Y-73690256D01*
X40996063Y-73859774D01*
X41140226Y-74003937D01*
X41309744Y-74117205D01*
X41498102Y-74195226D01*
X41698061Y-74235000D01*
X41901939Y-74235000D01*
X42101898Y-74195226D01*
X42290256Y-74117205D01*
X42459774Y-74003937D01*
X42603937Y-73859774D01*
X42717205Y-73690256D01*
X42795226Y-73501898D01*
X42835000Y-73301939D01*
X42835000Y-73098061D01*
X42795226Y-72898102D01*
X42767134Y-72830281D01*
X64891586Y-72830281D01*
X64973649Y-73798921D01*
X65243107Y-74732938D01*
X65689606Y-75596440D01*
X65764851Y-75709054D01*
X66367182Y-76201213D01*
X69670395Y-72898000D01*
X66367182Y-69594787D01*
X65764851Y-70086946D01*
X65294937Y-70937933D01*
X65000071Y-71864243D01*
X64891586Y-72830281D01*
X42767134Y-72830281D01*
X42717205Y-72709744D01*
X42603937Y-72540226D01*
X42459774Y-72396063D01*
X42290256Y-72282795D01*
X42101898Y-72204774D01*
X41901939Y-72165000D01*
X41698061Y-72165000D01*
X41498102Y-72204774D01*
X41309744Y-72282795D01*
X41140226Y-72396063D01*
X40996063Y-72540226D01*
X40882795Y-72709744D01*
X40804774Y-72898102D01*
X40765000Y-73098061D01*
X34915552Y-73098061D01*
X34930414Y-72965719D01*
X34848351Y-71997079D01*
X34578893Y-71063062D01*
X34132394Y-70199560D01*
X34057149Y-70086946D01*
X33454818Y-69594787D01*
X30151605Y-72898000D01*
X29792395Y-72898000D01*
X29778253Y-72883858D01*
X29957858Y-72704253D01*
X29972000Y-72718395D01*
X33275213Y-69415182D01*
X32783054Y-68812851D01*
X32636636Y-68731999D01*
X67162400Y-68732001D01*
G36*
X31469657Y-81581407D02*
G01*
X30091552Y-81673281D01*
X30066993Y-81677364D01*
X30043702Y-81686160D01*
X30022575Y-81699331D01*
X30004423Y-81716370D01*
X29989944Y-81736623D01*
X29979694Y-81759312D01*
X29974068Y-81783564D01*
X29973000Y-81800000D01*
X29973000Y-87173000D01*
X28523093Y-87173000D01*
X28426938Y-84096033D01*
X28423725Y-84071345D01*
X28415757Y-84047758D01*
X28403341Y-84026179D01*
X28386954Y-84007436D01*
X28367225Y-83992251D01*
X28344912Y-83981207D01*
X28320874Y-83974727D01*
X28300000Y-83973000D01*
X25806000Y-83973000D01*
X25806000Y-78227000D01*
X31376479Y-78227000D01*
X31469657Y-81581407D01*
G37*
X31469657Y-81581407D02*
X30091552Y-81673281D01*
X30066993Y-81677364D01*
X30043702Y-81686160D01*
X30022575Y-81699331D01*
X30004423Y-81716370D01*
X29989944Y-81736623D01*
X29979694Y-81759312D01*
X29974068Y-81783564D01*
X29973000Y-81800000D01*
X29973000Y-87173000D01*
X28523093Y-87173000D01*
X28426938Y-84096033D01*
X28423725Y-84071345D01*
X28415757Y-84047758D01*
X28403341Y-84026179D01*
X28386954Y-84007436D01*
X28367225Y-83992251D01*
X28344912Y-83981207D01*
X28320874Y-83974727D01*
X28300000Y-83973000D01*
X25806000Y-83973000D01*
X25806000Y-78227000D01*
X31376479Y-78227000D01*
X31469657Y-81581407D01*
%TD*%
M02*
