%TF.GenerationSoftware,KiCad,Pcbnew,(5.1.6)-1*%
%TF.CreationDate,2020-07-28T23:07:53-07:00*%
%TF.ProjectId,Atmel,41746d65-6c2e-46b6-9963-61645f706362,rev?*%
%TF.SameCoordinates,Original*%
%TF.FileFunction,Soldermask,Top*%
%TF.FilePolarity,Negative*%
%FSLAX46Y46*%
G04 Gerber Fmt 4.6, Leading zero omitted, Abs format (unit mm)*
G04 Created by KiCad (PCBNEW (5.1.6)-1) date 2020-07-28 23:07:53*
%MOMM*%
%LPD*%
G01*
G04 APERTURE LIST*
%ADD10C,8.700000*%
%ADD11C,1.000000*%
%ADD12R,1.100000X1.600000*%
%ADD13R,1.900000X2.600000*%
%ADD14R,1.800000X1.800000*%
%ADD15O,1.800000X1.800000*%
%ADD16R,2.600000X2.100000*%
%ADD17R,2.600000X0.600000*%
%ADD18R,0.650000X1.700000*%
%ADD19R,1.700000X0.650000*%
%ADD20R,0.550000X1.850000*%
%ADD21R,1.300000X1.500000*%
G04 APERTURE END LIST*
D10*
%TO.C,H4*%
X69850000Y-113030000D03*
D11*
X73075000Y-113030000D03*
X72130419Y-115310419D03*
X69850000Y-116255000D03*
X67569581Y-115310419D03*
X66625000Y-113030000D03*
X67569581Y-110749581D03*
X69850000Y-109805000D03*
X72130419Y-110749581D03*
%TD*%
%TO.C,C1*%
G36*
G01*
X32100000Y-83338750D02*
X32100000Y-84301250D01*
G75*
G02*
X31831250Y-84570000I-268750J0D01*
G01*
X31293750Y-84570000D01*
G75*
G02*
X31025000Y-84301250I0J268750D01*
G01*
X31025000Y-83338750D01*
G75*
G02*
X31293750Y-83070000I268750J0D01*
G01*
X31831250Y-83070000D01*
G75*
G02*
X32100000Y-83338750I0J-268750D01*
G01*
G37*
G36*
G01*
X33975000Y-83338750D02*
X33975000Y-84301250D01*
G75*
G02*
X33706250Y-84570000I-268750J0D01*
G01*
X33168750Y-84570000D01*
G75*
G02*
X32900000Y-84301250I0J268750D01*
G01*
X32900000Y-83338750D01*
G75*
G02*
X33168750Y-83070000I268750J0D01*
G01*
X33706250Y-83070000D01*
G75*
G02*
X33975000Y-83338750I0J-268750D01*
G01*
G37*
%TD*%
%TO.C,C2*%
G36*
G01*
X32140000Y-96447500D02*
X32140000Y-96052500D01*
G75*
G02*
X32312500Y-95880000I172500J0D01*
G01*
X32657500Y-95880000D01*
G75*
G02*
X32830000Y-96052500I0J-172500D01*
G01*
X32830000Y-96447500D01*
G75*
G02*
X32657500Y-96620000I-172500J0D01*
G01*
X32312500Y-96620000D01*
G75*
G02*
X32140000Y-96447500I0J172500D01*
G01*
G37*
G36*
G01*
X31170000Y-96447500D02*
X31170000Y-96052500D01*
G75*
G02*
X31342500Y-95880000I172500J0D01*
G01*
X31687500Y-95880000D01*
G75*
G02*
X31860000Y-96052500I0J-172500D01*
G01*
X31860000Y-96447500D01*
G75*
G02*
X31687500Y-96620000I-172500J0D01*
G01*
X31342500Y-96620000D01*
G75*
G02*
X31170000Y-96447500I0J172500D01*
G01*
G37*
%TD*%
%TO.C,C3*%
G36*
G01*
X28830000Y-83302500D02*
X28830000Y-83697500D01*
G75*
G02*
X28657500Y-83870000I-172500J0D01*
G01*
X28312500Y-83870000D01*
G75*
G02*
X28140000Y-83697500I0J172500D01*
G01*
X28140000Y-83302500D01*
G75*
G02*
X28312500Y-83130000I172500J0D01*
G01*
X28657500Y-83130000D01*
G75*
G02*
X28830000Y-83302500I0J-172500D01*
G01*
G37*
G36*
G01*
X27860000Y-83302500D02*
X27860000Y-83697500D01*
G75*
G02*
X27687500Y-83870000I-172500J0D01*
G01*
X27342500Y-83870000D01*
G75*
G02*
X27170000Y-83697500I0J172500D01*
G01*
X27170000Y-83302500D01*
G75*
G02*
X27342500Y-83130000I172500J0D01*
G01*
X27687500Y-83130000D01*
G75*
G02*
X27860000Y-83302500I0J-172500D01*
G01*
G37*
%TD*%
%TO.C,C4*%
G36*
G01*
X30697500Y-80360000D02*
X30302500Y-80360000D01*
G75*
G02*
X30130000Y-80187500I0J172500D01*
G01*
X30130000Y-79842500D01*
G75*
G02*
X30302500Y-79670000I172500J0D01*
G01*
X30697500Y-79670000D01*
G75*
G02*
X30870000Y-79842500I0J-172500D01*
G01*
X30870000Y-80187500D01*
G75*
G02*
X30697500Y-80360000I-172500J0D01*
G01*
G37*
G36*
G01*
X30697500Y-81330000D02*
X30302500Y-81330000D01*
G75*
G02*
X30130000Y-81157500I0J172500D01*
G01*
X30130000Y-80812500D01*
G75*
G02*
X30302500Y-80640000I172500J0D01*
G01*
X30697500Y-80640000D01*
G75*
G02*
X30870000Y-80812500I0J-172500D01*
G01*
X30870000Y-81157500D01*
G75*
G02*
X30697500Y-81330000I-172500J0D01*
G01*
G37*
%TD*%
%TO.C,C5*%
G36*
G01*
X44401000Y-76734750D02*
X44401000Y-77697250D01*
G75*
G02*
X44132250Y-77966000I-268750J0D01*
G01*
X43594750Y-77966000D01*
G75*
G02*
X43326000Y-77697250I0J268750D01*
G01*
X43326000Y-76734750D01*
G75*
G02*
X43594750Y-76466000I268750J0D01*
G01*
X44132250Y-76466000D01*
G75*
G02*
X44401000Y-76734750I0J-268750D01*
G01*
G37*
G36*
G01*
X42526000Y-76734750D02*
X42526000Y-77697250D01*
G75*
G02*
X42257250Y-77966000I-268750J0D01*
G01*
X41719750Y-77966000D01*
G75*
G02*
X41451000Y-77697250I0J268750D01*
G01*
X41451000Y-76734750D01*
G75*
G02*
X41719750Y-76466000I268750J0D01*
G01*
X42257250Y-76466000D01*
G75*
G02*
X42526000Y-76734750I0J-268750D01*
G01*
G37*
%TD*%
%TO.C,C6*%
G36*
G01*
X48622000Y-76734750D02*
X48622000Y-77697250D01*
G75*
G02*
X48353250Y-77966000I-268750J0D01*
G01*
X47815750Y-77966000D01*
G75*
G02*
X47547000Y-77697250I0J268750D01*
G01*
X47547000Y-76734750D01*
G75*
G02*
X47815750Y-76466000I268750J0D01*
G01*
X48353250Y-76466000D01*
G75*
G02*
X48622000Y-76734750I0J-268750D01*
G01*
G37*
G36*
G01*
X50497000Y-76734750D02*
X50497000Y-77697250D01*
G75*
G02*
X50228250Y-77966000I-268750J0D01*
G01*
X49690750Y-77966000D01*
G75*
G02*
X49422000Y-77697250I0J268750D01*
G01*
X49422000Y-76734750D01*
G75*
G02*
X49690750Y-76466000I268750J0D01*
G01*
X50228250Y-76466000D01*
G75*
G02*
X50497000Y-76734750I0J-268750D01*
G01*
G37*
%TD*%
%TO.C,C7*%
G36*
G01*
X56085000Y-76734750D02*
X56085000Y-77697250D01*
G75*
G02*
X55816250Y-77966000I-268750J0D01*
G01*
X55278750Y-77966000D01*
G75*
G02*
X55010000Y-77697250I0J268750D01*
G01*
X55010000Y-76734750D01*
G75*
G02*
X55278750Y-76466000I268750J0D01*
G01*
X55816250Y-76466000D01*
G75*
G02*
X56085000Y-76734750I0J-268750D01*
G01*
G37*
G36*
G01*
X54210000Y-76734750D02*
X54210000Y-77697250D01*
G75*
G02*
X53941250Y-77966000I-268750J0D01*
G01*
X53403750Y-77966000D01*
G75*
G02*
X53135000Y-77697250I0J268750D01*
G01*
X53135000Y-76734750D01*
G75*
G02*
X53403750Y-76466000I268750J0D01*
G01*
X53941250Y-76466000D01*
G75*
G02*
X54210000Y-76734750I0J-268750D01*
G01*
G37*
%TD*%
%TO.C,C8*%
G36*
G01*
X59973500Y-76734750D02*
X59973500Y-77697250D01*
G75*
G02*
X59704750Y-77966000I-268750J0D01*
G01*
X59167250Y-77966000D01*
G75*
G02*
X58898500Y-77697250I0J268750D01*
G01*
X58898500Y-76734750D01*
G75*
G02*
X59167250Y-76466000I268750J0D01*
G01*
X59704750Y-76466000D01*
G75*
G02*
X59973500Y-76734750I0J-268750D01*
G01*
G37*
G36*
G01*
X61848500Y-76734750D02*
X61848500Y-77697250D01*
G75*
G02*
X61579750Y-77966000I-268750J0D01*
G01*
X61042250Y-77966000D01*
G75*
G02*
X60773500Y-77697250I0J268750D01*
G01*
X60773500Y-76734750D01*
G75*
G02*
X61042250Y-76466000I268750J0D01*
G01*
X61579750Y-76466000D01*
G75*
G02*
X61848500Y-76734750I0J-268750D01*
G01*
G37*
%TD*%
%TO.C,C9*%
G36*
G01*
X47371500Y-106145250D02*
X47371500Y-105182750D01*
G75*
G02*
X47640250Y-104914000I268750J0D01*
G01*
X48177750Y-104914000D01*
G75*
G02*
X48446500Y-105182750I0J-268750D01*
G01*
X48446500Y-106145250D01*
G75*
G02*
X48177750Y-106414000I-268750J0D01*
G01*
X47640250Y-106414000D01*
G75*
G02*
X47371500Y-106145250I0J268750D01*
G01*
G37*
G36*
G01*
X49246500Y-106145250D02*
X49246500Y-105182750D01*
G75*
G02*
X49515250Y-104914000I268750J0D01*
G01*
X50052750Y-104914000D01*
G75*
G02*
X50321500Y-105182750I0J-268750D01*
G01*
X50321500Y-106145250D01*
G75*
G02*
X50052750Y-106414000I-268750J0D01*
G01*
X49515250Y-106414000D01*
G75*
G02*
X49246500Y-106145250I0J268750D01*
G01*
G37*
%TD*%
%TO.C,C10*%
G36*
G01*
X55010000Y-106145250D02*
X55010000Y-105182750D01*
G75*
G02*
X55278750Y-104914000I268750J0D01*
G01*
X55816250Y-104914000D01*
G75*
G02*
X56085000Y-105182750I0J-268750D01*
G01*
X56085000Y-106145250D01*
G75*
G02*
X55816250Y-106414000I-268750J0D01*
G01*
X55278750Y-106414000D01*
G75*
G02*
X55010000Y-106145250I0J268750D01*
G01*
G37*
G36*
G01*
X53135000Y-106145250D02*
X53135000Y-105182750D01*
G75*
G02*
X53403750Y-104914000I268750J0D01*
G01*
X53941250Y-104914000D01*
G75*
G02*
X54210000Y-105182750I0J-268750D01*
G01*
X54210000Y-106145250D01*
G75*
G02*
X53941250Y-106414000I-268750J0D01*
G01*
X53403750Y-106414000D01*
G75*
G02*
X53135000Y-106145250I0J268750D01*
G01*
G37*
%TD*%
%TO.C,C11*%
G36*
G01*
X58898500Y-106145250D02*
X58898500Y-105182750D01*
G75*
G02*
X59167250Y-104914000I268750J0D01*
G01*
X59704750Y-104914000D01*
G75*
G02*
X59973500Y-105182750I0J-268750D01*
G01*
X59973500Y-106145250D01*
G75*
G02*
X59704750Y-106414000I-268750J0D01*
G01*
X59167250Y-106414000D01*
G75*
G02*
X58898500Y-106145250I0J268750D01*
G01*
G37*
G36*
G01*
X60773500Y-106145250D02*
X60773500Y-105182750D01*
G75*
G02*
X61042250Y-104914000I268750J0D01*
G01*
X61579750Y-104914000D01*
G75*
G02*
X61848500Y-105182750I0J-268750D01*
G01*
X61848500Y-106145250D01*
G75*
G02*
X61579750Y-106414000I-268750J0D01*
G01*
X61042250Y-106414000D01*
G75*
G02*
X60773500Y-106145250I0J268750D01*
G01*
G37*
%TD*%
%TO.C,C12*%
G36*
G01*
X44401000Y-86386750D02*
X44401000Y-87349250D01*
G75*
G02*
X44132250Y-87618000I-268750J0D01*
G01*
X43594750Y-87618000D01*
G75*
G02*
X43326000Y-87349250I0J268750D01*
G01*
X43326000Y-86386750D01*
G75*
G02*
X43594750Y-86118000I268750J0D01*
G01*
X44132250Y-86118000D01*
G75*
G02*
X44401000Y-86386750I0J-268750D01*
G01*
G37*
G36*
G01*
X42526000Y-86386750D02*
X42526000Y-87349250D01*
G75*
G02*
X42257250Y-87618000I-268750J0D01*
G01*
X41719750Y-87618000D01*
G75*
G02*
X41451000Y-87349250I0J268750D01*
G01*
X41451000Y-86386750D01*
G75*
G02*
X41719750Y-86118000I268750J0D01*
G01*
X42257250Y-86118000D01*
G75*
G02*
X42526000Y-86386750I0J-268750D01*
G01*
G37*
%TD*%
%TO.C,C13*%
G36*
G01*
X49168000Y-87349250D02*
X49168000Y-86386750D01*
G75*
G02*
X49436750Y-86118000I268750J0D01*
G01*
X49974250Y-86118000D01*
G75*
G02*
X50243000Y-86386750I0J-268750D01*
G01*
X50243000Y-87349250D01*
G75*
G02*
X49974250Y-87618000I-268750J0D01*
G01*
X49436750Y-87618000D01*
G75*
G02*
X49168000Y-87349250I0J268750D01*
G01*
G37*
G36*
G01*
X47293000Y-87349250D02*
X47293000Y-86386750D01*
G75*
G02*
X47561750Y-86118000I268750J0D01*
G01*
X48099250Y-86118000D01*
G75*
G02*
X48368000Y-86386750I0J-268750D01*
G01*
X48368000Y-87349250D01*
G75*
G02*
X48099250Y-87618000I-268750J0D01*
G01*
X47561750Y-87618000D01*
G75*
G02*
X47293000Y-87349250I0J268750D01*
G01*
G37*
%TD*%
%TO.C,C14*%
G36*
G01*
X55010000Y-87349250D02*
X55010000Y-86386750D01*
G75*
G02*
X55278750Y-86118000I268750J0D01*
G01*
X55816250Y-86118000D01*
G75*
G02*
X56085000Y-86386750I0J-268750D01*
G01*
X56085000Y-87349250D01*
G75*
G02*
X55816250Y-87618000I-268750J0D01*
G01*
X55278750Y-87618000D01*
G75*
G02*
X55010000Y-87349250I0J268750D01*
G01*
G37*
G36*
G01*
X53135000Y-87349250D02*
X53135000Y-86386750D01*
G75*
G02*
X53403750Y-86118000I268750J0D01*
G01*
X53941250Y-86118000D01*
G75*
G02*
X54210000Y-86386750I0J-268750D01*
G01*
X54210000Y-87349250D01*
G75*
G02*
X53941250Y-87618000I-268750J0D01*
G01*
X53403750Y-87618000D01*
G75*
G02*
X53135000Y-87349250I0J268750D01*
G01*
G37*
%TD*%
%TO.C,C15*%
G36*
G01*
X59152500Y-87349250D02*
X59152500Y-86386750D01*
G75*
G02*
X59421250Y-86118000I268750J0D01*
G01*
X59958750Y-86118000D01*
G75*
G02*
X60227500Y-86386750I0J-268750D01*
G01*
X60227500Y-87349250D01*
G75*
G02*
X59958750Y-87618000I-268750J0D01*
G01*
X59421250Y-87618000D01*
G75*
G02*
X59152500Y-87349250I0J268750D01*
G01*
G37*
G36*
G01*
X61027500Y-87349250D02*
X61027500Y-86386750D01*
G75*
G02*
X61296250Y-86118000I268750J0D01*
G01*
X61833750Y-86118000D01*
G75*
G02*
X62102500Y-86386750I0J-268750D01*
G01*
X62102500Y-87349250D01*
G75*
G02*
X61833750Y-87618000I-268750J0D01*
G01*
X61296250Y-87618000D01*
G75*
G02*
X61027500Y-87349250I0J268750D01*
G01*
G37*
%TD*%
%TO.C,C16*%
G36*
G01*
X41451000Y-97001250D02*
X41451000Y-96038750D01*
G75*
G02*
X41719750Y-95770000I268750J0D01*
G01*
X42257250Y-95770000D01*
G75*
G02*
X42526000Y-96038750I0J-268750D01*
G01*
X42526000Y-97001250D01*
G75*
G02*
X42257250Y-97270000I-268750J0D01*
G01*
X41719750Y-97270000D01*
G75*
G02*
X41451000Y-97001250I0J268750D01*
G01*
G37*
G36*
G01*
X43326000Y-97001250D02*
X43326000Y-96038750D01*
G75*
G02*
X43594750Y-95770000I268750J0D01*
G01*
X44132250Y-95770000D01*
G75*
G02*
X44401000Y-96038750I0J-268750D01*
G01*
X44401000Y-97001250D01*
G75*
G02*
X44132250Y-97270000I-268750J0D01*
G01*
X43594750Y-97270000D01*
G75*
G02*
X43326000Y-97001250I0J268750D01*
G01*
G37*
%TD*%
%TO.C,C17*%
G36*
G01*
X49089500Y-97001250D02*
X49089500Y-96038750D01*
G75*
G02*
X49358250Y-95770000I268750J0D01*
G01*
X49895750Y-95770000D01*
G75*
G02*
X50164500Y-96038750I0J-268750D01*
G01*
X50164500Y-97001250D01*
G75*
G02*
X49895750Y-97270000I-268750J0D01*
G01*
X49358250Y-97270000D01*
G75*
G02*
X49089500Y-97001250I0J268750D01*
G01*
G37*
G36*
G01*
X47214500Y-97001250D02*
X47214500Y-96038750D01*
G75*
G02*
X47483250Y-95770000I268750J0D01*
G01*
X48020750Y-95770000D01*
G75*
G02*
X48289500Y-96038750I0J-268750D01*
G01*
X48289500Y-97001250D01*
G75*
G02*
X48020750Y-97270000I-268750J0D01*
G01*
X47483250Y-97270000D01*
G75*
G02*
X47214500Y-97001250I0J268750D01*
G01*
G37*
%TD*%
%TO.C,C18*%
G36*
G01*
X53135000Y-97001250D02*
X53135000Y-96038750D01*
G75*
G02*
X53403750Y-95770000I268750J0D01*
G01*
X53941250Y-95770000D01*
G75*
G02*
X54210000Y-96038750I0J-268750D01*
G01*
X54210000Y-97001250D01*
G75*
G02*
X53941250Y-97270000I-268750J0D01*
G01*
X53403750Y-97270000D01*
G75*
G02*
X53135000Y-97001250I0J268750D01*
G01*
G37*
G36*
G01*
X55010000Y-97001250D02*
X55010000Y-96038750D01*
G75*
G02*
X55278750Y-95770000I268750J0D01*
G01*
X55816250Y-95770000D01*
G75*
G02*
X56085000Y-96038750I0J-268750D01*
G01*
X56085000Y-97001250D01*
G75*
G02*
X55816250Y-97270000I-268750J0D01*
G01*
X55278750Y-97270000D01*
G75*
G02*
X55010000Y-97001250I0J268750D01*
G01*
G37*
%TD*%
%TO.C,C19*%
G36*
G01*
X58900000Y-96981250D02*
X58900000Y-96018750D01*
G75*
G02*
X59168750Y-95750000I268750J0D01*
G01*
X59706250Y-95750000D01*
G75*
G02*
X59975000Y-96018750I0J-268750D01*
G01*
X59975000Y-96981250D01*
G75*
G02*
X59706250Y-97250000I-268750J0D01*
G01*
X59168750Y-97250000D01*
G75*
G02*
X58900000Y-96981250I0J268750D01*
G01*
G37*
G36*
G01*
X57025000Y-96981250D02*
X57025000Y-96018750D01*
G75*
G02*
X57293750Y-95750000I268750J0D01*
G01*
X57831250Y-95750000D01*
G75*
G02*
X58100000Y-96018750I0J-268750D01*
G01*
X58100000Y-96981250D01*
G75*
G02*
X57831250Y-97250000I-268750J0D01*
G01*
X57293750Y-97250000D01*
G75*
G02*
X57025000Y-96981250I0J268750D01*
G01*
G37*
%TD*%
%TO.C,C20*%
G36*
G01*
X41451000Y-106145250D02*
X41451000Y-105182750D01*
G75*
G02*
X41719750Y-104914000I268750J0D01*
G01*
X42257250Y-104914000D01*
G75*
G02*
X42526000Y-105182750I0J-268750D01*
G01*
X42526000Y-106145250D01*
G75*
G02*
X42257250Y-106414000I-268750J0D01*
G01*
X41719750Y-106414000D01*
G75*
G02*
X41451000Y-106145250I0J268750D01*
G01*
G37*
G36*
G01*
X43326000Y-106145250D02*
X43326000Y-105182750D01*
G75*
G02*
X43594750Y-104914000I268750J0D01*
G01*
X44132250Y-104914000D01*
G75*
G02*
X44401000Y-105182750I0J-268750D01*
G01*
X44401000Y-106145250D01*
G75*
G02*
X44132250Y-106414000I-268750J0D01*
G01*
X43594750Y-106414000D01*
G75*
G02*
X43326000Y-106145250I0J268750D01*
G01*
G37*
%TD*%
%TO.C,C21*%
G36*
G01*
X57531250Y-109450000D02*
X56968750Y-109450000D01*
G75*
G02*
X56725000Y-109206250I0J243750D01*
G01*
X56725000Y-108718750D01*
G75*
G02*
X56968750Y-108475000I243750J0D01*
G01*
X57531250Y-108475000D01*
G75*
G02*
X57775000Y-108718750I0J-243750D01*
G01*
X57775000Y-109206250D01*
G75*
G02*
X57531250Y-109450000I-243750J0D01*
G01*
G37*
G36*
G01*
X57531250Y-111025000D02*
X56968750Y-111025000D01*
G75*
G02*
X56725000Y-110781250I0J243750D01*
G01*
X56725000Y-110293750D01*
G75*
G02*
X56968750Y-110050000I243750J0D01*
G01*
X57531250Y-110050000D01*
G75*
G02*
X57775000Y-110293750I0J-243750D01*
G01*
X57775000Y-110781250D01*
G75*
G02*
X57531250Y-111025000I-243750J0D01*
G01*
G37*
%TD*%
%TO.C,C22*%
G36*
G01*
X35802500Y-110420000D02*
X36197500Y-110420000D01*
G75*
G02*
X36370000Y-110592500I0J-172500D01*
G01*
X36370000Y-110937500D01*
G75*
G02*
X36197500Y-111110000I-172500J0D01*
G01*
X35802500Y-111110000D01*
G75*
G02*
X35630000Y-110937500I0J172500D01*
G01*
X35630000Y-110592500D01*
G75*
G02*
X35802500Y-110420000I172500J0D01*
G01*
G37*
G36*
G01*
X35802500Y-111390000D02*
X36197500Y-111390000D01*
G75*
G02*
X36370000Y-111562500I0J-172500D01*
G01*
X36370000Y-111907500D01*
G75*
G02*
X36197500Y-112080000I-172500J0D01*
G01*
X35802500Y-112080000D01*
G75*
G02*
X35630000Y-111907500I0J172500D01*
G01*
X35630000Y-111562500D01*
G75*
G02*
X35802500Y-111390000I172500J0D01*
G01*
G37*
%TD*%
%TO.C,C23*%
G36*
G01*
X37781250Y-112525000D02*
X37218750Y-112525000D01*
G75*
G02*
X36975000Y-112281250I0J243750D01*
G01*
X36975000Y-111793750D01*
G75*
G02*
X37218750Y-111550000I243750J0D01*
G01*
X37781250Y-111550000D01*
G75*
G02*
X38025000Y-111793750I0J-243750D01*
G01*
X38025000Y-112281250D01*
G75*
G02*
X37781250Y-112525000I-243750J0D01*
G01*
G37*
G36*
G01*
X37781250Y-110950000D02*
X37218750Y-110950000D01*
G75*
G02*
X36975000Y-110706250I0J243750D01*
G01*
X36975000Y-110218750D01*
G75*
G02*
X37218750Y-109975000I243750J0D01*
G01*
X37781250Y-109975000D01*
G75*
G02*
X38025000Y-110218750I0J-243750D01*
G01*
X38025000Y-110706250D01*
G75*
G02*
X37781250Y-110950000I-243750J0D01*
G01*
G37*
%TD*%
D12*
%TO.C,D1*%
X41326000Y-75094000D03*
X44526000Y-75094000D03*
X41326000Y-70194000D03*
X44526000Y-70194000D03*
%TD*%
%TO.C,D2*%
X50368000Y-70194000D03*
X47168000Y-70194000D03*
X50368000Y-75094000D03*
X47168000Y-75094000D03*
%TD*%
%TO.C,D3*%
X53010000Y-75094000D03*
X56210000Y-75094000D03*
X53010000Y-70194000D03*
X56210000Y-70194000D03*
%TD*%
%TO.C,D4*%
X62052000Y-70194000D03*
X58852000Y-70194000D03*
X62052000Y-75094000D03*
X58852000Y-75094000D03*
%TD*%
%TO.C,D5*%
X62052000Y-79846000D03*
X58852000Y-79846000D03*
X62052000Y-84746000D03*
X58852000Y-84746000D03*
%TD*%
%TO.C,D6*%
X53010000Y-84746000D03*
X56210000Y-84746000D03*
X53010000Y-79846000D03*
X56210000Y-79846000D03*
%TD*%
%TO.C,D7*%
X50368000Y-79846000D03*
X47168000Y-79846000D03*
X50368000Y-84746000D03*
X47168000Y-84746000D03*
%TD*%
%TO.C,D8*%
X41326000Y-84746000D03*
X44526000Y-84746000D03*
X41326000Y-79846000D03*
X44526000Y-79846000D03*
%TD*%
%TO.C,D9*%
X44526000Y-89498000D03*
X41326000Y-89498000D03*
X44526000Y-94398000D03*
X41326000Y-94398000D03*
%TD*%
%TO.C,D10*%
X47168000Y-94398000D03*
X50368000Y-94398000D03*
X47168000Y-89498000D03*
X50368000Y-89498000D03*
%TD*%
%TO.C,D11*%
X56210000Y-89498000D03*
X53010000Y-89498000D03*
X56210000Y-94398000D03*
X53010000Y-94398000D03*
%TD*%
%TO.C,D12*%
X58852000Y-94398000D03*
X62052000Y-94398000D03*
X58852000Y-89498000D03*
X62052000Y-89498000D03*
%TD*%
%TO.C,D13*%
X62052000Y-98642000D03*
X58852000Y-98642000D03*
X62052000Y-103542000D03*
X58852000Y-103542000D03*
%TD*%
%TO.C,D14*%
X53010000Y-103542000D03*
X56210000Y-103542000D03*
X53010000Y-98642000D03*
X56210000Y-98642000D03*
%TD*%
%TO.C,D15*%
X50368000Y-98642000D03*
X47168000Y-98642000D03*
X50368000Y-103542000D03*
X47168000Y-103542000D03*
%TD*%
%TO.C,D16*%
X41326000Y-103542000D03*
X44526000Y-103542000D03*
X41326000Y-98642000D03*
X44526000Y-98642000D03*
%TD*%
%TO.C,D17*%
G36*
G01*
X51550000Y-115031250D02*
X51550000Y-114468750D01*
G75*
G02*
X51793750Y-114225000I243750J0D01*
G01*
X52281250Y-114225000D01*
G75*
G02*
X52525000Y-114468750I0J-243750D01*
G01*
X52525000Y-115031250D01*
G75*
G02*
X52281250Y-115275000I-243750J0D01*
G01*
X51793750Y-115275000D01*
G75*
G02*
X51550000Y-115031250I0J243750D01*
G01*
G37*
G36*
G01*
X49975000Y-115031250D02*
X49975000Y-114468750D01*
G75*
G02*
X50218750Y-114225000I243750J0D01*
G01*
X50706250Y-114225000D01*
G75*
G02*
X50950000Y-114468750I0J-243750D01*
G01*
X50950000Y-115031250D01*
G75*
G02*
X50706250Y-115275000I-243750J0D01*
G01*
X50218750Y-115275000D01*
G75*
G02*
X49975000Y-115031250I0J243750D01*
G01*
G37*
%TD*%
D13*
%TO.C,D18*%
X61468000Y-115252000D03*
X61468000Y-111252000D03*
%TD*%
%TO.C,D19*%
G36*
G01*
X51718750Y-110975000D02*
X52281250Y-110975000D01*
G75*
G02*
X52525000Y-111218750I0J-243750D01*
G01*
X52525000Y-111706250D01*
G75*
G02*
X52281250Y-111950000I-243750J0D01*
G01*
X51718750Y-111950000D01*
G75*
G02*
X51475000Y-111706250I0J243750D01*
G01*
X51475000Y-111218750D01*
G75*
G02*
X51718750Y-110975000I243750J0D01*
G01*
G37*
G36*
G01*
X51718750Y-112550000D02*
X52281250Y-112550000D01*
G75*
G02*
X52525000Y-112793750I0J-243750D01*
G01*
X52525000Y-113281250D01*
G75*
G02*
X52281250Y-113525000I-243750J0D01*
G01*
X51718750Y-113525000D01*
G75*
G02*
X51475000Y-113281250I0J243750D01*
G01*
X51475000Y-112793750D01*
G75*
G02*
X51718750Y-112550000I243750J0D01*
G01*
G37*
%TD*%
D11*
%TO.C,H1*%
X32252419Y-70617581D03*
X29972000Y-69673000D03*
X27691581Y-70617581D03*
X26747000Y-72898000D03*
X27691581Y-75178419D03*
X29972000Y-76123000D03*
X32252419Y-75178419D03*
X33197000Y-72898000D03*
D10*
X29972000Y-72898000D03*
%TD*%
%TO.C,H2*%
X69850000Y-72898000D03*
D11*
X73075000Y-72898000D03*
X72130419Y-75178419D03*
X69850000Y-76123000D03*
X67569581Y-75178419D03*
X66625000Y-72898000D03*
X67569581Y-70617581D03*
X69850000Y-69673000D03*
X72130419Y-70617581D03*
%TD*%
%TO.C,H3*%
X32246838Y-110744000D03*
X29966419Y-109799419D03*
X27686000Y-110744000D03*
X26741419Y-113024419D03*
X27686000Y-115304838D03*
X29966419Y-116249419D03*
X32246838Y-115304838D03*
X33191419Y-113024419D03*
D10*
X29966419Y-113024419D03*
%TD*%
D14*
%TO.C,J1*%
X31000000Y-103750000D03*
D15*
X28460000Y-103750000D03*
X31000000Y-101210000D03*
X28460000Y-101210000D03*
X31000000Y-98670000D03*
X28460000Y-98670000D03*
%TD*%
D14*
%TO.C,J2*%
X71628000Y-79500000D03*
D15*
X71628000Y-82040000D03*
X71628000Y-84580000D03*
X71628000Y-87120000D03*
X71628000Y-89660000D03*
X71628000Y-92200000D03*
%TD*%
D16*
%TO.C,J3*%
X70972000Y-106508000D03*
X70972000Y-97708000D03*
X65472000Y-106508000D03*
X65472000Y-97708000D03*
D17*
X65472000Y-103708000D03*
X65472000Y-102908000D03*
X65472000Y-102108000D03*
X65472000Y-101308000D03*
X65472000Y-100508000D03*
D11*
X68072000Y-104308000D03*
X68072000Y-99908000D03*
%TD*%
%TO.C,R1*%
G36*
G01*
X34725000Y-80781250D02*
X34725000Y-80218750D01*
G75*
G02*
X34968750Y-79975000I243750J0D01*
G01*
X35456250Y-79975000D01*
G75*
G02*
X35700000Y-80218750I0J-243750D01*
G01*
X35700000Y-80781250D01*
G75*
G02*
X35456250Y-81025000I-243750J0D01*
G01*
X34968750Y-81025000D01*
G75*
G02*
X34725000Y-80781250I0J243750D01*
G01*
G37*
G36*
G01*
X36300000Y-80781250D02*
X36300000Y-80218750D01*
G75*
G02*
X36543750Y-79975000I243750J0D01*
G01*
X37031250Y-79975000D01*
G75*
G02*
X37275000Y-80218750I0J-243750D01*
G01*
X37275000Y-80781250D01*
G75*
G02*
X37031250Y-81025000I-243750J0D01*
G01*
X36543750Y-81025000D01*
G75*
G02*
X36300000Y-80781250I0J243750D01*
G01*
G37*
%TD*%
%TO.C,R2*%
G36*
G01*
X38468750Y-103975000D02*
X39031250Y-103975000D01*
G75*
G02*
X39275000Y-104218750I0J-243750D01*
G01*
X39275000Y-104706250D01*
G75*
G02*
X39031250Y-104950000I-243750J0D01*
G01*
X38468750Y-104950000D01*
G75*
G02*
X38225000Y-104706250I0J243750D01*
G01*
X38225000Y-104218750D01*
G75*
G02*
X38468750Y-103975000I243750J0D01*
G01*
G37*
G36*
G01*
X38468750Y-105550000D02*
X39031250Y-105550000D01*
G75*
G02*
X39275000Y-105793750I0J-243750D01*
G01*
X39275000Y-106281250D01*
G75*
G02*
X39031250Y-106525000I-243750J0D01*
G01*
X38468750Y-106525000D01*
G75*
G02*
X38225000Y-106281250I0J243750D01*
G01*
X38225000Y-105793750D01*
G75*
G02*
X38468750Y-105550000I243750J0D01*
G01*
G37*
%TD*%
%TO.C,R3*%
G36*
G01*
X36218750Y-108050000D02*
X36781250Y-108050000D01*
G75*
G02*
X37025000Y-108293750I0J-243750D01*
G01*
X37025000Y-108781250D01*
G75*
G02*
X36781250Y-109025000I-243750J0D01*
G01*
X36218750Y-109025000D01*
G75*
G02*
X35975000Y-108781250I0J243750D01*
G01*
X35975000Y-108293750D01*
G75*
G02*
X36218750Y-108050000I243750J0D01*
G01*
G37*
G36*
G01*
X36218750Y-106475000D02*
X36781250Y-106475000D01*
G75*
G02*
X37025000Y-106718750I0J-243750D01*
G01*
X37025000Y-107206250D01*
G75*
G02*
X36781250Y-107450000I-243750J0D01*
G01*
X36218750Y-107450000D01*
G75*
G02*
X35975000Y-107206250I0J243750D01*
G01*
X35975000Y-106718750D01*
G75*
G02*
X36218750Y-106475000I243750J0D01*
G01*
G37*
%TD*%
%TO.C,R4*%
G36*
G01*
X50531250Y-113525000D02*
X49968750Y-113525000D01*
G75*
G02*
X49725000Y-113281250I0J243750D01*
G01*
X49725000Y-112793750D01*
G75*
G02*
X49968750Y-112550000I243750J0D01*
G01*
X50531250Y-112550000D01*
G75*
G02*
X50775000Y-112793750I0J-243750D01*
G01*
X50775000Y-113281250D01*
G75*
G02*
X50531250Y-113525000I-243750J0D01*
G01*
G37*
G36*
G01*
X50531250Y-111950000D02*
X49968750Y-111950000D01*
G75*
G02*
X49725000Y-111706250I0J243750D01*
G01*
X49725000Y-111218750D01*
G75*
G02*
X49968750Y-110975000I243750J0D01*
G01*
X50531250Y-110975000D01*
G75*
G02*
X50775000Y-111218750I0J-243750D01*
G01*
X50775000Y-111706250D01*
G75*
G02*
X50531250Y-111950000I-243750J0D01*
G01*
G37*
%TD*%
%TO.C,R5*%
G36*
G01*
X50950000Y-107468750D02*
X50950000Y-108031250D01*
G75*
G02*
X50706250Y-108275000I-243750J0D01*
G01*
X50218750Y-108275000D01*
G75*
G02*
X49975000Y-108031250I0J243750D01*
G01*
X49975000Y-107468750D01*
G75*
G02*
X50218750Y-107225000I243750J0D01*
G01*
X50706250Y-107225000D01*
G75*
G02*
X50950000Y-107468750I0J-243750D01*
G01*
G37*
G36*
G01*
X52525000Y-107468750D02*
X52525000Y-108031250D01*
G75*
G02*
X52281250Y-108275000I-243750J0D01*
G01*
X51793750Y-108275000D01*
G75*
G02*
X51550000Y-108031250I0J243750D01*
G01*
X51550000Y-107468750D01*
G75*
G02*
X51793750Y-107225000I243750J0D01*
G01*
X52281250Y-107225000D01*
G75*
G02*
X52525000Y-107468750I0J-243750D01*
G01*
G37*
%TD*%
%TO.C,R6*%
G36*
G01*
X37768750Y-84025000D02*
X38731250Y-84025000D01*
G75*
G02*
X39000000Y-84293750I0J-268750D01*
G01*
X39000000Y-84831250D01*
G75*
G02*
X38731250Y-85100000I-268750J0D01*
G01*
X37768750Y-85100000D01*
G75*
G02*
X37500000Y-84831250I0J268750D01*
G01*
X37500000Y-84293750D01*
G75*
G02*
X37768750Y-84025000I268750J0D01*
G01*
G37*
G36*
G01*
X37768750Y-85900000D02*
X38731250Y-85900000D01*
G75*
G02*
X39000000Y-86168750I0J-268750D01*
G01*
X39000000Y-86706250D01*
G75*
G02*
X38731250Y-86975000I-268750J0D01*
G01*
X37768750Y-86975000D01*
G75*
G02*
X37500000Y-86706250I0J268750D01*
G01*
X37500000Y-86168750D01*
G75*
G02*
X37768750Y-85900000I268750J0D01*
G01*
G37*
%TD*%
D18*
%TO.C,U1*%
X34550000Y-86174000D03*
X33750000Y-86174000D03*
X32950000Y-86174000D03*
X32150000Y-86174000D03*
X31350000Y-86174000D03*
X30550000Y-86174000D03*
X29750000Y-86174000D03*
X28950000Y-86174000D03*
D19*
X27500000Y-87624000D03*
X27500000Y-88424000D03*
X27500000Y-89224000D03*
X27500000Y-90024000D03*
X27500000Y-90824000D03*
X27500000Y-91624000D03*
X27500000Y-92424000D03*
X27500000Y-93224000D03*
D18*
X28950000Y-94674000D03*
X29750000Y-94674000D03*
X30550000Y-94674000D03*
X31350000Y-94674000D03*
X32150000Y-94674000D03*
X32950000Y-94674000D03*
X33750000Y-94674000D03*
X34550000Y-94674000D03*
D19*
X36000000Y-93224000D03*
X36000000Y-92424000D03*
X36000000Y-91624000D03*
X36000000Y-90824000D03*
X36000000Y-90024000D03*
X36000000Y-89224000D03*
X36000000Y-88424000D03*
X36000000Y-87624000D03*
%TD*%
D20*
%TO.C,U2*%
X39717000Y-115360000D03*
X40367000Y-115360000D03*
X41017000Y-115360000D03*
X41667000Y-115360000D03*
X42317000Y-115360000D03*
X42967000Y-115360000D03*
X43617000Y-115360000D03*
X44267000Y-115360000D03*
X44917000Y-115360000D03*
X45567000Y-115360000D03*
X46217000Y-115360000D03*
X46867000Y-115360000D03*
X47517000Y-115360000D03*
X48167000Y-115360000D03*
X48167000Y-108160000D03*
X47517000Y-108160000D03*
X46867000Y-108160000D03*
X46217000Y-108160000D03*
X45567000Y-108160000D03*
X44917000Y-108160000D03*
X44267000Y-108160000D03*
X43617000Y-108160000D03*
X42967000Y-108160000D03*
X42317000Y-108160000D03*
X41667000Y-108160000D03*
X41017000Y-108160000D03*
X40367000Y-108160000D03*
X39717000Y-108160000D03*
%TD*%
D21*
%TO.C,Y1*%
X28850000Y-81600000D03*
X28850000Y-79400000D03*
X27150000Y-79400000D03*
X27150000Y-81600000D03*
%TD*%
M02*
