%TF.GenerationSoftware,KiCad,Pcbnew,(5.1.6)-1*%
%TF.CreationDate,2020-07-28T23:07:54-07:00*%
%TF.ProjectId,Atmel,41746d65-6c2e-46b6-9963-61645f706362,rev?*%
%TF.SameCoordinates,Original*%
%TF.FileFunction,Soldermask,Bot*%
%TF.FilePolarity,Negative*%
%FSLAX46Y46*%
G04 Gerber Fmt 4.6, Leading zero omitted, Abs format (unit mm)*
G04 Created by KiCad (PCBNEW (5.1.6)-1) date 2020-07-28 23:07:54*
%MOMM*%
%LPD*%
G01*
G04 APERTURE LIST*
%ADD10C,8.700000*%
%ADD11C,1.000000*%
%ADD12R,1.800000X1.800000*%
%ADD13O,1.800000X1.800000*%
G04 APERTURE END LIST*
D10*
%TO.C,H4*%
X69850000Y-113030000D03*
D11*
X73075000Y-113030000D03*
X72130419Y-115310419D03*
X69850000Y-116255000D03*
X67569581Y-115310419D03*
X66625000Y-113030000D03*
X67569581Y-110749581D03*
X69850000Y-109805000D03*
X72130419Y-110749581D03*
%TD*%
%TO.C,H1*%
X32252419Y-70617581D03*
X29972000Y-69673000D03*
X27691581Y-70617581D03*
X26747000Y-72898000D03*
X27691581Y-75178419D03*
X29972000Y-76123000D03*
X32252419Y-75178419D03*
X33197000Y-72898000D03*
D10*
X29972000Y-72898000D03*
%TD*%
%TO.C,H2*%
X69850000Y-72898000D03*
D11*
X73075000Y-72898000D03*
X72130419Y-75178419D03*
X69850000Y-76123000D03*
X67569581Y-75178419D03*
X66625000Y-72898000D03*
X67569581Y-70617581D03*
X69850000Y-69673000D03*
X72130419Y-70617581D03*
%TD*%
%TO.C,H3*%
X32246838Y-110744000D03*
X29966419Y-109799419D03*
X27686000Y-110744000D03*
X26741419Y-113024419D03*
X27686000Y-115304838D03*
X29966419Y-116249419D03*
X32246838Y-115304838D03*
X33191419Y-113024419D03*
D10*
X29966419Y-113024419D03*
%TD*%
D12*
%TO.C,J1*%
X31000000Y-103750000D03*
D13*
X28460000Y-103750000D03*
X31000000Y-101210000D03*
X28460000Y-101210000D03*
X31000000Y-98670000D03*
X28460000Y-98670000D03*
%TD*%
D12*
%TO.C,J2*%
X71628000Y-79500000D03*
D13*
X71628000Y-82040000D03*
X71628000Y-84580000D03*
X71628000Y-87120000D03*
X71628000Y-89660000D03*
X71628000Y-92200000D03*
%TD*%
D11*
%TO.C,J3*%
X68072000Y-104308000D03*
X68072000Y-99908000D03*
%TD*%
M02*
