%TF.GenerationSoftware,KiCad,Pcbnew,(5.1.6)-1*%
%TF.CreationDate,2020-07-28T23:07:53-07:00*%
%TF.ProjectId,Atmel,41746d65-6c2e-46b6-9963-61645f706362,rev?*%
%TF.SameCoordinates,Original*%
%TF.FileFunction,Paste,Bot*%
%TF.FilePolarity,Positive*%
%FSLAX46Y46*%
G04 Gerber Fmt 4.6, Leading zero omitted, Abs format (unit mm)*
G04 Created by KiCad (PCBNEW (5.1.6)-1) date 2020-07-28 23:07:53*
%MOMM*%
%LPD*%
G01*
G04 APERTURE LIST*
%ADD10C,0.150000*%
G04 APERTURE END LIST*
D10*
X52200000Y-70802380D02*
X52200000Y-69802380D01*
X51628571Y-70802380D01*
X51628571Y-69802380D01*
X50771428Y-70754761D02*
X50866666Y-70802380D01*
X51057142Y-70802380D01*
X51152380Y-70754761D01*
X51200000Y-70659523D01*
X51200000Y-70278571D01*
X51152380Y-70183333D01*
X51057142Y-70135714D01*
X50866666Y-70135714D01*
X50771428Y-70183333D01*
X50723809Y-70278571D01*
X50723809Y-70373809D01*
X51200000Y-70469047D01*
X50152380Y-70802380D02*
X50247619Y-70754761D01*
X50295238Y-70707142D01*
X50342857Y-70611904D01*
X50342857Y-70326190D01*
X50295238Y-70230952D01*
X50247619Y-70183333D01*
X50152380Y-70135714D01*
X50009523Y-70135714D01*
X49914285Y-70183333D01*
X49866666Y-70230952D01*
X49819047Y-70326190D01*
X49819047Y-70611904D01*
X49866666Y-70707142D01*
X49914285Y-70754761D01*
X50009523Y-70802380D01*
X50152380Y-70802380D01*
X49390476Y-70802380D02*
X49390476Y-69802380D01*
X49009523Y-69802380D01*
X48914285Y-69850000D01*
X48866666Y-69897619D01*
X48819047Y-69992857D01*
X48819047Y-70135714D01*
X48866666Y-70230952D01*
X48914285Y-70278571D01*
X49009523Y-70326190D01*
X49390476Y-70326190D01*
X48390476Y-70802380D02*
X48390476Y-70135714D01*
X48390476Y-69802380D02*
X48438095Y-69850000D01*
X48390476Y-69897619D01*
X48342857Y-69850000D01*
X48390476Y-69802380D01*
X48390476Y-69897619D01*
X48009523Y-70802380D02*
X47485714Y-70135714D01*
X48009523Y-70135714D02*
X47485714Y-70802380D01*
X46723809Y-70754761D02*
X46819047Y-70802380D01*
X47009523Y-70802380D01*
X47104761Y-70754761D01*
X47152380Y-70659523D01*
X47152380Y-70278571D01*
X47104761Y-70183333D01*
X47009523Y-70135714D01*
X46819047Y-70135714D01*
X46723809Y-70183333D01*
X46676190Y-70278571D01*
X46676190Y-70373809D01*
X47152380Y-70469047D01*
X46104761Y-70802380D02*
X46200000Y-70754761D01*
X46247619Y-70659523D01*
X46247619Y-69802380D01*
X45009523Y-70516666D02*
X44533333Y-70516666D01*
X45104761Y-70802380D02*
X44771428Y-69802380D01*
X44438095Y-70802380D01*
X44247619Y-70135714D02*
X43866666Y-70135714D01*
X44104761Y-69802380D02*
X44104761Y-70659523D01*
X44057142Y-70754761D01*
X43961904Y-70802380D01*
X43866666Y-70802380D01*
X43533333Y-70802380D02*
X43533333Y-70135714D01*
X43533333Y-70230952D02*
X43485714Y-70183333D01*
X43390476Y-70135714D01*
X43247619Y-70135714D01*
X43152380Y-70183333D01*
X43104761Y-70278571D01*
X43104761Y-70802380D01*
X43104761Y-70278571D02*
X43057142Y-70183333D01*
X42961904Y-70135714D01*
X42819047Y-70135714D01*
X42723809Y-70183333D01*
X42676190Y-70278571D01*
X42676190Y-70802380D01*
X41819047Y-70754761D02*
X41914285Y-70802380D01*
X42104761Y-70802380D01*
X42200000Y-70754761D01*
X42247619Y-70659523D01*
X42247619Y-70278571D01*
X42200000Y-70183333D01*
X42104761Y-70135714D01*
X41914285Y-70135714D01*
X41819047Y-70183333D01*
X41771428Y-70278571D01*
X41771428Y-70373809D01*
X42247619Y-70469047D01*
X41200000Y-70802380D02*
X41295238Y-70754761D01*
X41342857Y-70659523D01*
X41342857Y-69802380D01*
X39723809Y-70278571D02*
X39580952Y-70326190D01*
X39533333Y-70373809D01*
X39485714Y-70469047D01*
X39485714Y-70611904D01*
X39533333Y-70707142D01*
X39580952Y-70754761D01*
X39676190Y-70802380D01*
X40057142Y-70802380D01*
X40057142Y-69802380D01*
X39723809Y-69802380D01*
X39628571Y-69850000D01*
X39580952Y-69897619D01*
X39533333Y-69992857D01*
X39533333Y-70088095D01*
X39580952Y-70183333D01*
X39628571Y-70230952D01*
X39723809Y-70278571D01*
X40057142Y-70278571D01*
X38914285Y-70802380D02*
X39009523Y-70754761D01*
X39057142Y-70707142D01*
X39104761Y-70611904D01*
X39104761Y-70326190D01*
X39057142Y-70230952D01*
X39009523Y-70183333D01*
X38914285Y-70135714D01*
X38771428Y-70135714D01*
X38676190Y-70183333D01*
X38628571Y-70230952D01*
X38580952Y-70326190D01*
X38580952Y-70611904D01*
X38628571Y-70707142D01*
X38676190Y-70754761D01*
X38771428Y-70802380D01*
X38914285Y-70802380D01*
X37723809Y-70802380D02*
X37723809Y-70278571D01*
X37771428Y-70183333D01*
X37866666Y-70135714D01*
X38057142Y-70135714D01*
X38152380Y-70183333D01*
X37723809Y-70754761D02*
X37819047Y-70802380D01*
X38057142Y-70802380D01*
X38152380Y-70754761D01*
X38200000Y-70659523D01*
X38200000Y-70564285D01*
X38152380Y-70469047D01*
X38057142Y-70421428D01*
X37819047Y-70421428D01*
X37723809Y-70373809D01*
X37247619Y-70802380D02*
X37247619Y-70135714D01*
X37247619Y-70326190D02*
X37200000Y-70230952D01*
X37152380Y-70183333D01*
X37057142Y-70135714D01*
X36961904Y-70135714D01*
X36200000Y-70802380D02*
X36200000Y-69802380D01*
X36200000Y-70754761D02*
X36295238Y-70802380D01*
X36485714Y-70802380D01*
X36580952Y-70754761D01*
X36628571Y-70707142D01*
X36676190Y-70611904D01*
X36676190Y-70326190D01*
X36628571Y-70230952D01*
X36580952Y-70183333D01*
X36485714Y-70135714D01*
X36295238Y-70135714D01*
X36200000Y-70183333D01*
X50604761Y-71928571D02*
X50461904Y-71976190D01*
X50414285Y-72023809D01*
X50366666Y-72119047D01*
X50366666Y-72261904D01*
X50414285Y-72357142D01*
X50461904Y-72404761D01*
X50557142Y-72452380D01*
X50938095Y-72452380D01*
X50938095Y-71452380D01*
X50604761Y-71452380D01*
X50509523Y-71500000D01*
X50461904Y-71547619D01*
X50414285Y-71642857D01*
X50414285Y-71738095D01*
X50461904Y-71833333D01*
X50509523Y-71880952D01*
X50604761Y-71928571D01*
X50938095Y-71928571D01*
X50033333Y-71785714D02*
X49795238Y-72452380D01*
X49557142Y-71785714D02*
X49795238Y-72452380D01*
X49890476Y-72690476D01*
X49938095Y-72738095D01*
X50033333Y-72785714D01*
X49176190Y-72357142D02*
X49128571Y-72404761D01*
X49176190Y-72452380D01*
X49223809Y-72404761D01*
X49176190Y-72357142D01*
X49176190Y-72452380D01*
X49176190Y-71833333D02*
X49128571Y-71880952D01*
X49176190Y-71928571D01*
X49223809Y-71880952D01*
X49176190Y-71833333D01*
X49176190Y-71928571D01*
X47604761Y-71928571D02*
X47461904Y-71976190D01*
X47414285Y-72023809D01*
X47366666Y-72119047D01*
X47366666Y-72261904D01*
X47414285Y-72357142D01*
X47461904Y-72404761D01*
X47557142Y-72452380D01*
X47938095Y-72452380D01*
X47938095Y-71452380D01*
X47604761Y-71452380D01*
X47509523Y-71500000D01*
X47461904Y-71547619D01*
X47414285Y-71642857D01*
X47414285Y-71738095D01*
X47461904Y-71833333D01*
X47509523Y-71880952D01*
X47604761Y-71928571D01*
X47938095Y-71928571D01*
X46795238Y-72452380D02*
X46890476Y-72404761D01*
X46938095Y-72309523D01*
X46938095Y-71452380D01*
X45985714Y-72452380D02*
X45985714Y-71928571D01*
X46033333Y-71833333D01*
X46128571Y-71785714D01*
X46319047Y-71785714D01*
X46414285Y-71833333D01*
X45985714Y-72404761D02*
X46080952Y-72452380D01*
X46319047Y-72452380D01*
X46414285Y-72404761D01*
X46461904Y-72309523D01*
X46461904Y-72214285D01*
X46414285Y-72119047D01*
X46319047Y-72071428D01*
X46080952Y-72071428D01*
X45985714Y-72023809D01*
X45509523Y-72452380D02*
X45509523Y-71785714D01*
X45509523Y-71452380D02*
X45557142Y-71500000D01*
X45509523Y-71547619D01*
X45461904Y-71500000D01*
X45509523Y-71452380D01*
X45509523Y-71547619D01*
X45033333Y-71785714D02*
X45033333Y-72452380D01*
X45033333Y-71880952D02*
X44985714Y-71833333D01*
X44890476Y-71785714D01*
X44747619Y-71785714D01*
X44652380Y-71833333D01*
X44604761Y-71928571D01*
X44604761Y-72452380D01*
X43747619Y-72404761D02*
X43842857Y-72452380D01*
X44033333Y-72452380D01*
X44128571Y-72404761D01*
X44176190Y-72309523D01*
X44176190Y-71928571D01*
X44128571Y-71833333D01*
X44033333Y-71785714D01*
X43842857Y-71785714D01*
X43747619Y-71833333D01*
X43700000Y-71928571D01*
X43700000Y-72023809D01*
X44176190Y-72119047D01*
X42176190Y-71928571D02*
X42509523Y-71928571D01*
X42509523Y-72452380D02*
X42509523Y-71452380D01*
X42033333Y-71452380D01*
X41223809Y-71785714D02*
X41223809Y-72452380D01*
X41652380Y-71785714D02*
X41652380Y-72309523D01*
X41604761Y-72404761D01*
X41509523Y-72452380D01*
X41366666Y-72452380D01*
X41271428Y-72404761D01*
X41223809Y-72357142D01*
X40747619Y-72452380D02*
X40747619Y-71785714D01*
X40747619Y-71976190D02*
X40700000Y-71880952D01*
X40652380Y-71833333D01*
X40557142Y-71785714D01*
X40461904Y-71785714D01*
X40128571Y-72452380D02*
X40128571Y-71785714D01*
X40128571Y-71880952D02*
X40080952Y-71833333D01*
X39985714Y-71785714D01*
X39842857Y-71785714D01*
X39747619Y-71833333D01*
X39700000Y-71928571D01*
X39700000Y-72452380D01*
X39700000Y-71928571D02*
X39652380Y-71833333D01*
X39557142Y-71785714D01*
X39414285Y-71785714D01*
X39319047Y-71833333D01*
X39271428Y-71928571D01*
X39271428Y-72452380D01*
X38366666Y-72452380D02*
X38366666Y-71928571D01*
X38414285Y-71833333D01*
X38509523Y-71785714D01*
X38700000Y-71785714D01*
X38795238Y-71833333D01*
X38366666Y-72404761D02*
X38461904Y-72452380D01*
X38700000Y-72452380D01*
X38795238Y-72404761D01*
X38842857Y-72309523D01*
X38842857Y-72214285D01*
X38795238Y-72119047D01*
X38700000Y-72071428D01*
X38461904Y-72071428D01*
X38366666Y-72023809D01*
X37890476Y-71785714D02*
X37890476Y-72452380D01*
X37890476Y-71880952D02*
X37842857Y-71833333D01*
X37747619Y-71785714D01*
X37604761Y-71785714D01*
X37509523Y-71833333D01*
X37461904Y-71928571D01*
X37461904Y-72452380D01*
X50295238Y-73150000D02*
X50390476Y-73102380D01*
X50533333Y-73102380D01*
X50676190Y-73150000D01*
X50771428Y-73245238D01*
X50819047Y-73340476D01*
X50866666Y-73530952D01*
X50866666Y-73673809D01*
X50819047Y-73864285D01*
X50771428Y-73959523D01*
X50676190Y-74054761D01*
X50533333Y-74102380D01*
X50438095Y-74102380D01*
X50295238Y-74054761D01*
X50247619Y-74007142D01*
X50247619Y-73673809D01*
X50438095Y-73673809D01*
X49819047Y-74102380D02*
X49819047Y-73435714D01*
X49819047Y-73102380D02*
X49866666Y-73150000D01*
X49819047Y-73197619D01*
X49771428Y-73150000D01*
X49819047Y-73102380D01*
X49819047Y-73197619D01*
X49485714Y-73435714D02*
X49104761Y-73435714D01*
X49342857Y-73102380D02*
X49342857Y-73959523D01*
X49295238Y-74054761D01*
X49200000Y-74102380D01*
X49104761Y-74102380D01*
X48771428Y-74102380D02*
X48771428Y-73102380D01*
X48771428Y-73578571D02*
X48200000Y-73578571D01*
X48200000Y-74102380D02*
X48200000Y-73102380D01*
X47295238Y-73435714D02*
X47295238Y-74102380D01*
X47723809Y-73435714D02*
X47723809Y-73959523D01*
X47676190Y-74054761D01*
X47580952Y-74102380D01*
X47438095Y-74102380D01*
X47342857Y-74054761D01*
X47295238Y-74007142D01*
X46819047Y-74102380D02*
X46819047Y-73102380D01*
X46819047Y-73483333D02*
X46723809Y-73435714D01*
X46533333Y-73435714D01*
X46438095Y-73483333D01*
X46390476Y-73530952D01*
X46342857Y-73626190D01*
X46342857Y-73911904D01*
X46390476Y-74007142D01*
X46438095Y-74054761D01*
X46533333Y-74102380D01*
X46723809Y-74102380D01*
X46819047Y-74054761D01*
X45914285Y-74007142D02*
X45866666Y-74054761D01*
X45914285Y-74102380D01*
X45961904Y-74054761D01*
X45914285Y-74007142D01*
X45914285Y-74102380D01*
X45914285Y-73483333D02*
X45866666Y-73530952D01*
X45914285Y-73578571D01*
X45961904Y-73530952D01*
X45914285Y-73483333D01*
X45914285Y-73578571D01*
X44676190Y-74102380D02*
X44676190Y-73102380D01*
X44580952Y-73721428D02*
X44295238Y-74102380D01*
X44295238Y-73435714D02*
X44676190Y-73816666D01*
X43342857Y-74102380D02*
X43914285Y-74102380D01*
X43628571Y-74102380D02*
X43628571Y-73102380D01*
X43723809Y-73245238D01*
X43819047Y-73340476D01*
X43914285Y-73388095D01*
X42485714Y-73102380D02*
X42676190Y-73102380D01*
X42771428Y-73150000D01*
X42819047Y-73197619D01*
X42914285Y-73340476D01*
X42961904Y-73530952D01*
X42961904Y-73911904D01*
X42914285Y-74007142D01*
X42866666Y-74054761D01*
X42771428Y-74102380D01*
X42580952Y-74102380D01*
X42485714Y-74054761D01*
X42438095Y-74007142D01*
X42390476Y-73911904D01*
X42390476Y-73673809D01*
X42438095Y-73578571D01*
X42485714Y-73530952D01*
X42580952Y-73483333D01*
X42771428Y-73483333D01*
X42866666Y-73530952D01*
X42914285Y-73578571D01*
X42961904Y-73673809D01*
X41961904Y-74102380D02*
X41961904Y-73102380D01*
X41961904Y-73483333D02*
X41866666Y-73435714D01*
X41676190Y-73435714D01*
X41580952Y-73483333D01*
X41533333Y-73530952D01*
X41485714Y-73626190D01*
X41485714Y-73911904D01*
X41533333Y-74007142D01*
X41580952Y-74054761D01*
X41676190Y-74102380D01*
X41866666Y-74102380D01*
X41961904Y-74054761D01*
X40914285Y-74102380D02*
X41009523Y-74054761D01*
X41057142Y-73959523D01*
X41057142Y-73102380D01*
X40676190Y-73435714D02*
X40295238Y-73435714D01*
X40533333Y-74102380D02*
X40533333Y-73245238D01*
X40485714Y-73150000D01*
X40390476Y-73102380D01*
X40295238Y-73102380D01*
X39533333Y-73435714D02*
X39533333Y-74102380D01*
X39961904Y-73435714D02*
X39961904Y-73959523D01*
X39914285Y-74054761D01*
X39819047Y-74102380D01*
X39676190Y-74102380D01*
X39580952Y-74054761D01*
X39533333Y-74007142D01*
X39057142Y-74102380D02*
X39057142Y-73435714D01*
X39057142Y-73626190D02*
X39009523Y-73530952D01*
X38961904Y-73483333D01*
X38866666Y-73435714D01*
X38771428Y-73435714D01*
X38438095Y-74102380D02*
X38438095Y-73435714D01*
X38438095Y-73530952D02*
X38390476Y-73483333D01*
X38295238Y-73435714D01*
X38152380Y-73435714D01*
X38057142Y-73483333D01*
X38009523Y-73578571D01*
X38009523Y-74102380D01*
X38009523Y-73578571D02*
X37961904Y-73483333D01*
X37866666Y-73435714D01*
X37723809Y-73435714D01*
X37628571Y-73483333D01*
X37580952Y-73578571D01*
X37580952Y-74102380D01*
M02*
