M48
; DRILL file {KiCad (5.1.6)-1} date 07/28/20 23:07:36
; FORMAT={-:-/ absolute / inch / decimal}
; #@! TF.CreationDate,2020-07-28T23:07:36-07:00
; #@! TF.GenerationSoftware,Kicad,Pcbnew,(5.1.6)-1
FMAT,2
INCH
T1C0.0157
T2C0.0236
T3C0.0394
T4C0.1693
T5C0.0354
%
G90
G05
T1
X1.0433Y-3.2972
X1.1102Y-3.7913
X1.1732Y-3.6535
X1.2008Y-3.4921
X1.2205Y-3.1102
X1.3189Y-3.5236
X1.3189Y-3.8583
X1.3701Y-3.2756
X1.4055Y-3.0748
X1.437Y-3.2677
X1.437Y-4.0945
X1.4862Y-4.3012
X1.5354Y-3.4843
X1.5354Y-3.5433
X1.5551Y-4.4685
X1.5748Y-4.1929
X1.5827Y-3.0354
X1.5945Y-3.4252
X1.6063Y-4.0157
X1.6063Y-4.3386
X1.6437Y-4.4783
X1.6457Y-2.8819
X1.6496Y-4.3976
X1.6731Y-3.3662
X1.685Y-3.5197
X1.685Y-3.8583
X1.689Y-4.3661
X1.6969Y-2.811
X1.7008Y-3.1378
X1.7165Y-4.4685
X1.7441Y-4.3622
X1.7677Y-4.1614
X1.7756Y-3.8071
X1.7874Y-3.9291
X1.8071Y-3.0315
X1.8071Y-3.7205
X1.8228Y-3.437
X1.8228Y-4.1339
X1.8307Y-4.4173
X1.8386Y-3.0787
X1.8504Y-4.3307
X1.9094Y-4.4016
X1.9213Y-2.8268
X1.9213Y-3.1299
X1.9409Y-4.5827
X1.9488Y-4.2913
X1.9961Y-3.8031
X2.0079Y-4.1614
X2.0079Y-4.2913
X2.0157Y-3.4252
X2.0236Y-4.5709
X2.0276Y-3.8346
X2.0315Y-3.2795
X2.0354Y-3.7402
X2.0354Y-4.0748
X2.0512Y-3.0551
X2.1457Y-4.3504
X2.1496Y-2.8268
X2.1496Y-3.878
X2.1614Y-3.1299
X2.1654Y-3.5197
X2.2323Y-3.0748
X2.2362Y-4.1535
X2.2402Y-3.4252
X2.2441Y-4.2362
X2.252Y-3.0315
X2.2835Y-3.063
X2.2835Y-4.185
X2.2913Y-3.4449
X2.3661Y-3.7165
X2.378Y-2.8425
X2.3858Y-3.5276
X2.3858Y-4.0945
X2.3898Y-3.7598
X2.3937Y-3.8937
X2.4016Y-3.9567
X2.4488Y-3.2047
X2.4606Y-4.0157
X2.4803Y-3.4173
X2.5315Y-3.7756
X2.5433Y-4.2677
X2.6024Y-3.7756
X2.6102Y-4.2638
X2.6378Y-3.4843
X2.6378Y-3.563
X2.7087Y-4.2047
X2.7559Y-3.7756
X2.8268Y-3.7756
X2.8858Y-4.2165
T2
X1.053Y-2.87
X1.0902Y-2.7802
X1.0902Y-2.9598
X1.18Y-2.743
X1.18Y-2.997
X1.2698Y-2.7802
X1.2698Y-2.9598
X1.307Y-2.87
X2.623Y-2.87
X2.6602Y-2.7802
X2.6602Y-2.9598
X2.75Y-2.743
X2.75Y-2.997
X2.8398Y-2.7802
X2.8398Y-2.9598
X2.877Y-2.87
X1.0528Y-4.4498
X1.09Y-4.36
X1.09Y-4.5396
X1.1798Y-4.3228
X1.1798Y-4.5767
X1.2696Y-4.36
X1.2696Y-4.5396
X1.3067Y-4.4498
X2.623Y-4.45
X2.6602Y-4.3602
X2.6602Y-4.5398
X2.75Y-4.323
X2.75Y-4.577
X2.8398Y-4.3602
X2.8398Y-4.5398
X2.877Y-4.45
T3
X1.1205Y-3.8846
X1.1205Y-3.9846
X1.1205Y-4.0846
X1.2205Y-3.8846
X1.2205Y-3.9846
X1.2205Y-4.0846
X2.82Y-3.1299
X2.82Y-3.2299
X2.82Y-3.3299
X2.82Y-3.4299
X2.82Y-3.5299
X2.82Y-3.6299
T4
X1.18Y-2.87
X2.75Y-2.87
X1.1798Y-4.4498
X2.75Y-4.45
T5
X2.68Y-3.9334
X2.68Y-4.1066
T0
M30
